<?xml version="1.0" encoding="utf-8"?>
<!-- Generator: Adobe Illustrator 23.0.3, SVG Export Plug-In . SVG Version: 6.00 Build 0)  -->
<svg version="1.1" id="Layer_1" xmlns="http://www.w3.org/2000/svg" xmlns:xlink="http://www.w3.org/1999/xlink" x="0px" y="0px"
	 viewBox="0 0 50 50" style="enable-background:new 0 0 50 50;" xml:space="preserve">
<style type="text/css">
	.st0{fill:#A8A8A8;}
</style>
<path class="st0" d="M49.35,43.79c0,0-0.53-0.82-1.53-2.18c-0.99-1.37-2.44-3.29-4.27-5.51c-2.63-3.26-6.06-7.16-9.81-11.11
	c3.76-3.95,7.2-7.85,9.81-11.12c1.82-2.22,3.26-4.15,4.25-5.52s1.52-2.2,1.52-2.2c0.81-1.26,0.86-2.94,0-4.28
	c-1.18-1.85-3.65-2.39-5.5-1.21c0,0-0.82,0.53-2.19,1.52s-3.3,2.43-5.52,4.25c-3.28,2.62-7.17,6.05-11.12,9.81
	c-3.95-3.76-7.84-7.19-11.12-9.81c-2.22-1.82-4.15-3.26-5.52-4.25C6.99,1.17,6.17,0.65,6.17,0.65c-1.27-0.8-2.94-0.86-4.29,0
	C0.03,1.84-0.51,4.3,0.67,6.15c0,0,0.53,0.83,1.52,2.2s2.43,3.3,4.25,5.52c2.62,3.28,6.06,7.17,9.81,11.12
	c-3.75,3.96-7.18,7.85-9.81,11.11c-1.83,2.22-3.28,4.14-4.27,5.51c-1,1.37-1.53,2.18-1.53,2.18c-0.83,1.29-0.89,3,0,4.37
	c1.2,1.85,3.69,2.38,5.54,1.17c0,0,0.82-0.53,2.18-1.53c1.37-1,3.29-2.44,5.51-4.27c3.27-2.62,7.16-6.06,11.12-9.81
	c3.96,3.75,7.85,7.19,11.12,9.81c2.22,1.83,4.14,3.28,5.51,4.27c1.36,0.99,2.18,1.53,2.18,1.53c1.29,0.83,3,0.89,4.37,0
	C50.03,48.12,50.56,45.64,49.35,43.79z"/>
</svg>
