<?xml version="1.0" encoding="utf-8"?>
<!-- Generator: Adobe Illustrator 23.0.3, SVG Export Plug-In . SVG Version: 6.00 Build 0)  -->
<svg version="1.1" id="Layer_1" xmlns="http://www.w3.org/2000/svg" xmlns:xlink="http://www.w3.org/1999/xlink" x="0px" y="0px"
	 viewBox="0 0 50 50" style="enable-background:new 0 0 50 50;" xml:space="preserve">
<style type="text/css">
	.st0{fill:#FFFFFF;}
</style>
<g id="laVdM1.tif">
	<g>
		<path class="st0" d="M46.59,13.35c0,10.8,0,21.59,0,32.39c-0.59,2.26-2.02,3.66-4.26,4.26c-8.52,0-17.05,0-25.57,0
			c-0.21-0.11-0.4-0.25-0.62-0.32c-2.3-0.72-3.5-2.16-3.5-4.55c-0.03-10.41-0.04-20.82,0.01-31.22c0.01-2.79,1.88-4.65,4.66-4.67
			c8.14-0.05,16.27-0.04,24.41,0c1.93,0.01,3.47,0.85,4.31,2.69C46.24,12.39,46.4,12.87,46.59,13.35z M42.08,13.61
			c-8.39,0-16.68,0-25.06,0c0,10.66,0,21.23,0,31.88c8.39,0,16.68,0,25.06,0C42.08,34.83,42.08,24.26,42.08,13.61z"/>
		<path class="st0" d="M35.23,0c-0.04,0.8-0.11,1.6-0.11,2.4c-0.02,2.03-0.01,2.03-1.97,2.03c-7.8,0-15.61,0-23.41,0
			c-0.56,0-1.12,0-1.9,0c0,0.67,0,1.22,0,1.76c0,9.36,0,18.73,0,28.09c0,1.96,0,1.95-2.03,1.97c-0.8,0.01-1.6,0.07-2.4,0.11
			c0-10.8,0-21.59,0-32.39C4.09,2.01,5.42,0.68,7.39,0C16.67,0,25.95,0,35.23,0z"/>
	</g>
</g>
</svg>
