<svg id="Layer_1" data-name="Layer 1" xmlns="http://www.w3.org/2000/svg" viewBox="0 0 100 100"><defs><style>.cls-1{fill:#ba2740;}.cls-2{fill:#fff;}</style></defs><title>sent</title><path class="cls-1" d="M100,50A50,50,0,1,1,50,0,50,50,0,0,1,100,50Z"/><path class="cls-2" d="M69.407,64.975s-.423-.652-1.218-1.74-1.945-2.622-3.4-4.389c-2.094-2.6-4.83-5.7-7.819-8.858,3-3.151,5.735-6.252,7.822-8.865,1.454-1.767,2.6-3.31,3.391-4.4s1.208-1.75,1.208-1.75a3.172,3.172,0,0,0-4.38-4.381s-.658.42-1.748,1.213-2.632,1.934-4.4,3.388c-2.61,2.086-5.71,4.822-8.86,7.815-3.149-2.993-6.249-5.729-8.859-7.815-1.769-1.454-3.311-2.6-4.4-3.388s-1.748-1.213-1.748-1.213a3.172,3.172,0,0,0-4.381,4.381s.42.658,1.209,1.75,1.936,2.634,3.391,4.4c2.086,2.613,4.826,5.714,7.819,8.865-2.987,3.155-5.723,6.256-7.816,8.858-1.456,1.767-2.611,3.3-3.4,4.389s-1.216,1.74-1.216,1.74a3.192,3.192,0,0,0,4.416,4.416s.651-.424,1.738-1.217,2.622-1.949,4.391-3.407c2.6-2.091,5.7-4.831,8.862-7.82,3.156,2.989,6.26,5.729,8.863,7.82,1.768,1.458,3.3,2.611,4.39,3.407s1.739,1.217,1.739,1.217a3.192,3.192,0,0,0,4.416-4.416Z"/></svg>