<?xml version="1.0" encoding="utf-8"?>
<!-- Generator: Adobe Illustrator 23.0.3, SVG Export Plug-In . SVG Version: 6.00 Build 0)  -->
<svg version="1.1" id="Layer_1" xmlns="http://www.w3.org/2000/svg" xmlns:xlink="http://www.w3.org/1999/xlink" x="0px" y="0px"
	 viewBox="0 0 125 125" style="enable-background:new 0 0 125 125;" xml:space="preserve">
<style type="text/css">
	.st0{fill:#6CB4FF;}
</style>
<g>
	<g>
		<path class="st0" d="M57,125c-0.6,0-1.2-0.3-1.5-0.8c-0.6-0.8-0.3-2,0.5-2.6c0.9-0.6,1.8-1.2,2.7-1.9c0.8-0.6,2-0.4,2.6,0.5
			c0.6,0.8,0.4,2-0.5,2.6c-0.9,0.7-1.9,1.3-2.8,1.9C57.7,124.9,57.3,125,57,125z M68.5,116.4c-0.5,0-1-0.2-1.4-0.6
			c-0.7-0.8-0.6-1.9,0.2-2.6c2.9-2.5,5.4-5,7.6-7.6c0.7-0.8,1.8-0.9,2.6-0.2c0.8,0.7,0.9,1.8,0.2,2.6c-2.4,2.7-5,5.4-8,8
			C69.4,116.2,68.9,116.4,68.5,116.4z M82.7,99.6c-0.3,0-0.6-0.1-0.9-0.2c-0.9-0.5-1.2-1.6-0.7-2.5c1.8-3.1,3.2-6.4,4.2-9.8
			c0.3-1,1.3-1.5,2.3-1.2c1,0.3,1.5,1.3,1.2,2.3c-1.1,3.6-2.6,7.1-4.5,10.5C83.9,99.2,83.3,99.6,82.7,99.6z M89.2,78.6
			c-0.1,0-0.1,0-0.2,0c-1-0.1-1.8-1-1.7-2c0.2-1.9,0.3-3.8,0.3-5.8c0-1.6-0.1-3.3-0.2-5c-0.1-1,0.7-1.9,1.7-2c1-0.1,1.9,0.7,2,1.7
			c0.1,1.8,0.2,3.5,0.2,5.2c0,2.1-0.1,4.1-0.3,6.1C90.9,77.9,90.1,78.6,89.2,78.6z M87.6,56.7c-0.8,0-1.6-0.6-1.8-1.4
			c-0.8-3.5-2-6.9-3.4-10.1c-0.4-0.9,0-2,1-2.4c0.9-0.4,2,0,2.4,1c1.5,3.5,2.7,7.1,3.6,10.8c0.2,1-0.4,2-1.4,2.2
			C87.9,56.7,87.7,56.7,87.6,56.7z M78.9,36.6c-0.6,0-1.2-0.3-1.5-0.8c-1.9-2.9-4.1-5.8-6.6-8.5c-0.7-0.8-0.6-1.9,0.1-2.6
			c0.8-0.7,1.9-0.6,2.6,0.1c2.6,2.8,4.9,5.9,6.9,9c0.6,0.9,0.3,2-0.5,2.5C79.6,36.5,79.2,36.6,78.9,36.6z M64.2,20.2
			c-0.4,0-0.8-0.1-1.2-0.4c-2.7-2.3-5.6-4.4-8.7-6.5c-0.9-0.6-1.1-1.7-0.5-2.5c0.6-0.9,1.7-1.1,2.5-0.5c3.2,2.1,6.2,4.4,9.1,6.7
			c0.8,0.7,0.9,1.8,0.2,2.6C65.2,20,64.7,20.2,64.2,20.2z M45.7,8.1c-0.3,0-0.6-0.1-0.8-0.2C39.1,4.9,35,3.6,35,3.6
			c-1-0.3-1.5-1.3-1.2-2.3c0.3-1,1.3-1.5,2.3-1.2c0.2,0.1,4.4,1.4,10.4,4.5c0.9,0.5,1.3,1.6,0.8,2.5C47,7.7,46.4,8.1,45.7,8.1z"/>
	</g>
	<g>
		<path class="st0" d="M80.8,125c-0.3,0-0.7-0.1-1-0.3c-2.6-1.6-14.8-0.8-22.6,0.3c-0.8,0.1-1.5-0.3-1.9-1c-0.4-0.7-0.2-1.5,0.3-2.1
			c2.7-2.9,3.1-13.6,2.8-19.7c-0.1-1,0.7-1.9,1.7-1.9c1,0,1.9,0.7,1.9,1.7c0.1,1.5,0.6,12.3-1.8,18.9c6.3-0.7,17.7-1.6,21.5,0.7
			c0.9,0.5,1.1,1.7,0.6,2.5C82,124.7,81.4,125,80.8,125z"/>
	</g>
</g>
</svg>
