<?xml version="1.0" encoding="utf-8"?>
<!-- Generator: Adobe Illustrator 23.0.3, SVG Export Plug-In . SVG Version: 6.00 Build 0)  -->
<svg version="1.1" id="Layer_1" xmlns="http://www.w3.org/2000/svg" xmlns:xlink="http://www.w3.org/1999/xlink" x="0px" y="0px"
	 viewBox="0 0 480 465.98" style="enable-background:new 0 0 480 465.98;" xml:space="preserve">
<style type="text/css">
	.st0{opacity:0.5;fill:url(#SVGID_1_);}
	.st1{fill:#FFFFFF;}
	.st2{opacity:0.2;}
	.st3{fill:#55A1FF;}
	.st4{opacity:0.4;fill:#FFFFFF;}
	.st5{fill:none;stroke:#FFFFFF;stroke-width:3;stroke-linecap:round;stroke-linejoin:round;}
	.st6{fill:none;stroke:#FFFFFF;stroke-width:3;stroke-linecap:round;stroke-linejoin:round;stroke-dasharray:8.6782,8.6782;}
	.st7{fill:none;stroke:#FFFFFF;stroke-width:3;stroke-linecap:round;stroke-linejoin:round;stroke-dasharray:7.7219,7.7219;}
	.st8{fill:#3E9FFF;}
	.st9{fill:#6CB4FF;}
	.st10{fill:#0665BA;}
	.st11{fill:#D0E6FF;}
	.st12{fill:#60A3FE;}
	.st13{fill:#0276CC;}
</style>
<g>
	
		<linearGradient id="SVGID_1_" gradientUnits="userSpaceOnUse" x1="190.0551" y1="231.1347" x2="190.0551" y2="350.9132" gradientTransform="matrix(0.9994 0.0358 -0.0358 0.9994 62.0837 -1.3583)">
		<stop  offset="0" style="stop-color:#FFFFFF"/>
		<stop  offset="1" style="stop-color:#FFFFFF;stop-opacity:0.3"/>
	</linearGradient>
	<path class="st0" d="M480,334.69c-46.9-5.69-99.8-9.84-155.85-11.84C179.84,317.68,55.26,328.16,0,347.57
		c0,0,67.11-130.73,95.34-115.33c28.23,15.4,56.16,89.56,74.32,84.81c18.16-4.75,28.52-59.54,53.69-59.24
		c25.17,0.3,27.53,53.15,46.69,53.24c19.16,0.09,65.55-72.98,102.02-69.99C408.54,244.06,473.2,327.55,480,334.69z"/>
	<g>
		<path class="st1" d="M266.07,152.01h-7.77c0.56-1.87,2.07-2.98,3.9-2.98C264.79,149.02,265.97,150.83,266.07,152.01z
			 M204.1,131.41c0,1.9,1.82,3.15,3.87,3.15c3.34,0,5.63-2.57,5.63-5.39c-1.48-0.72-2.96-1.14-4.81-1.14
			C205.78,128.03,204.1,129.51,204.1,131.41z M279.44,181.33l3.76,30.96l-27.76-19.88c-4.95,1.18-10.11,1.82-15.43,1.82
			c-36.87,0-66.77-29.89-66.77-66.77c0-36.87,29.89-66.77,66.77-66.77c36.88,0,66.76,29.89,66.76,66.77
			C306.76,149.58,296,169.18,279.44,181.33z M277.66,152.1l5.45,0.96l6.95-28.37l-9.22-1.63L277.66,152.1z M219.74,124.64
			c0-6.67-3.91-10.11-11.16-10.11c-4.29,0-7.67,1.58-10.16,4.67l4.53,3.1c1.48-1.81,3.34-2.72,5.48-2.72c2.92,0,5.15,1.82,5.15,4.29
			v0.72c-1.28-0.53-3.15-1.1-6.19-1.1c-5.49,0-9.54,3.1-9.54,7.92c0,4.72,3.86,8.01,8.73,8.01c3.23,0,5.15-1.48,6.63-3.24h0.37v2.48
			h6.15V124.64z M233.71,139.42c5.97,0,9.97-3.62,9.97-7.67c0-3.44-2.29-6.05-7.06-7.2l-3.58-0.86c-1.91-0.52-3.09-1.04-3.09-2.14
			c0-1.15,1.58-1.96,3.33-1.96c1.72,0,3.62,0.77,4.53,2.63l5.39-2.19c-1.67-3.82-5.39-5.49-9.82-5.49c-5.34,0-9.53,2.72-9.53,7.25
			c0,4,3.67,6.1,6.57,6.72l3.3,0.71c2.72,0.62,3.72,1.34,3.72,2.62c0,1.14-1.43,2.1-3.72,2.1c-2.23,0-4.1-1.15-5.19-3.58l-5.58,2.39
			C224.23,136.13,227.61,139.42,233.71,139.42z M251.19,151.98c0-3.8-1.87-6.46-5.77-6.46c-2.62,0-4.46,1.34-5.48,2.95
			c-0.68-1.67-2.39-2.95-4.86-2.95c-2.09,0-3.89,1.05-4.91,2.62h-0.26v-2.1h-4.03v16.07h4.3v-7.81c0-2.72,1.21-4.82,3.38-4.82
			c1.87,0,2.82,1.08,2.82,3.28v9.34h4.29v-7.81c0-2.72,1.31-4.82,3.54-4.82c1.8,0,2.69,1.08,2.69,3.28v9.34h4.29V151.98z
			 M270.23,153.95c0-4.82-2.85-8.43-8.03-8.43c-4.85,0-8.36,3.93-8.36,8.56c0,4.95,3.63,8.56,8.52,8.56c3.64,0,6.13-1.77,7.61-4.39
			l-3.58-1.77c-0.76,1.35-2,2.36-3.97,2.36c-2,0-4-1.15-4.36-3.77h12.1c0-0.13,0-0.26,0.03-0.36c0-0.1,0-0.23,0.03-0.36V153.95z
			 M270.28,138.28l-9.39-14.16l8.67-8.44v-0.38h-7.72l-7.82,7.82h-0.29v-18.59h-6.25v34.13h6.25v-7.53l2.76-2.72l6.38,10.25h7.4
			V138.28z M283.12,159.4c0.37-2.12-1.03-4.13-3.14-4.5c-2.11-0.37-4.12,1.04-4.5,3.15c-0.37,2.11,1.04,4.13,3.15,4.5
			C280.74,162.92,282.75,161.51,283.12,159.4z"/>
		<g class="st2">
			<g>
				<g>
					<path class="st1" d="M327.62,142.71H171.99c-8.85,0-16.02-7.18-16.02-16.02c0-8.85,7.17-16.02,16.02-16.02h155.63
						c8.85,0,16.02,7.17,16.02,16.02C343.64,135.53,336.47,142.71,327.62,142.71z"/>
				</g>
				<g>
					<path class="st1" d="M395.52,238.92H236.81c-8.85,0-16.02-7.18-16.02-16.02c0-8.85,7.18-16.02,16.02-16.02h158.71
						c8.85,0,16.03,7.17,16.03,16.02C411.55,231.75,404.37,238.92,395.52,238.92z"/>
				</g>
				<g>
					<path class="st1" d="M235.23,190.77c0-8.85,7.18-16.03,16.02-16.03H144.88c-8.85,0-16.02,7.18-16.02,16.03
						c0,8.85,7.17,16.02,16.02,16.02h106.37C242.41,206.79,235.23,199.61,235.23,190.77z"/>
					<path class="st1" d="M299.16,190.77c0,8.85-7.18,16.02-16.03,16.02h39.27c8.85,0,16.02-7.18,16.02-16.02
						c0-8.85-7.17-16.03-16.02-16.03h-39.27C291.98,174.74,299.16,181.92,299.16,190.77z"/>
				</g>
				<g>
					<path class="st1" d="M336.67,78.62h-13.61c-8.85,0-16.02-7.18-16.02-16.02c0-8.85,7.17-16.02,16.02-16.02h13.61
						c8.85,0,16.02,7.18,16.02,16.02C352.7,71.44,345.52,78.62,336.67,78.62z"/>
				</g>
				<g>
					<path class="st1" d="M166.89,32.05h-36.48c-8.85,0-16.03-7.18-16.03-16.02c0-8.85,7.18-16.02,16.03-16.02h36.48
						c8.85,0,16.03,7.17,16.03,16.02C182.92,24.87,175.74,32.05,166.89,32.05z"/>
				</g>
				<g>
					<path class="st1" d="M98.09,206.79H84.48c-8.86,0-16.02-7.18-16.02-16.02c0-8.85,7.17-16.03,16.02-16.03h13.61
						c8.84,0,16.02,7.18,16.02,16.03C114.12,199.61,106.94,206.79,98.09,206.79z"/>
				</g>
				<g>
					<path class="st1" d="M270.9,78.62H153.35c-8.85,0-16.03-7.18-16.03-16.02c0-8.85,7.18-16.02,16.03-16.02H270.9
						c8.85,0,16.02,7.18,16.02,16.02C286.92,71.44,279.74,78.62,270.9,78.62z"/>
				</g>
			</g>
			<path class="st1" d="M256.09,94.64c0-8.85,7.18-16.02,16.02-16.02h-82.18c8.85,0,16.02,7.17,16.02,16.02
				c0,8.85-7.17,16.03-16.02,16.03h82.18C263.26,110.67,256.09,103.49,256.09,94.64z"/>
			<path class="st1" d="M297.04,158.73c0-8.85,7.17-16.03,16.02-16.03H177.89c8.85,0,16.02,7.17,16.02,16.03
				c0,8.85-7.17,16.02-16.02,16.02h135.17C304.21,174.75,297.04,167.58,297.04,158.73z"/>
		</g>
	</g>
	<g>
		<g>
			<path class="st3" d="M184.21,353.98h-32.56c-0.97,0-1.74-0.78-1.74-1.75c0-0.97,0.78-1.75,1.74-1.75h32.56
				c0.97,0,1.75,0.78,1.75,1.75C185.97,353.19,185.18,353.98,184.21,353.98z"/>
		</g>
		<g>
			<g>
				<path class="st3" d="M178.41,362.2h-10.47c-0.97,0-1.75-0.78-1.75-1.74c0-0.96,0.78-1.75,1.75-1.75h10.47
					c0.96,0,1.75,0.78,1.75,1.75C180.16,361.42,179.38,362.2,178.41,362.2z"/>
			</g>
			<g>
				<path class="st3" d="M214.14,362.2h-10.48c-0.96,0-1.75-0.78-1.75-1.74c0-0.96,0.78-1.75,1.75-1.75h10.48
					c0.96,0,1.75,0.78,1.75,1.75C215.89,361.42,215.11,362.2,214.14,362.2z"/>
			</g>
		</g>
		<g>
			<path class="st3" d="M61.11,429.63H28.55c-0.96,0-1.74-0.78-1.74-1.75c0-0.97,0.78-1.75,1.74-1.75h32.56
				c0.96,0,1.75,0.77,1.75,1.75C62.86,428.85,62.08,429.63,61.11,429.63z"/>
		</g>
		<g>
			<g>
				<path class="st3" d="M55.31,437.86H44.84c-0.97,0-1.75-0.78-1.75-1.75c0-0.96,0.78-1.74,1.75-1.74h10.47
					c0.96,0,1.74,0.78,1.74,1.74C57.06,437.08,56.28,437.86,55.31,437.86z"/>
			</g>
			<g>
				<path class="st3" d="M91.04,437.86H80.56c-0.96,0-1.75-0.78-1.75-1.75c0-0.96,0.79-1.74,1.75-1.74h10.48
					c0.97,0,1.75,0.78,1.75,1.74C92.79,437.08,92.01,437.86,91.04,437.86z"/>
			</g>
		</g>
		<g>
			<path class="st3" d="M316.27,408.68h-32.56c-0.96,0-1.74-0.78-1.74-1.74c0-0.96,0.78-1.74,1.74-1.74h32.56
				c0.97,0,1.75,0.78,1.75,1.74C318.01,407.9,317.23,408.68,316.27,408.68z"/>
		</g>
		<g>
			<g>
				<path class="st3" d="M310.46,416.91h-10.47c-0.96,0-1.75-0.78-1.75-1.75c0-0.97,0.79-1.75,1.75-1.75h10.47
					c0.97,0,1.74,0.78,1.74,1.75C312.21,416.13,311.43,416.91,310.46,416.91z"/>
			</g>
			<g>
				<path class="st3" d="M346.19,416.91h-10.48c-0.96,0-1.74-0.78-1.74-1.75c0-0.97,0.78-1.75,1.74-1.75h10.48
					c0.96,0,1.75,0.78,1.75,1.75C347.94,416.13,347.15,416.91,346.19,416.91z"/>
			</g>
		</g>
	</g>
	<g>
		<g>
			<g>
				<path class="st1" d="M235.06,400.53c3.14-1.64,6.24-3.08,9.85-3.17c3.14-0.07,3.58,1.11,3.32,3.67
					c-0.33,3.21-1.71,6.31-3.24,9.1c-3.07,5.62-7.6,10.52-12.65,14.42c-3.83,2.96-9.68,6.58-14.71,4.78
					c-6.51-2.33-4.83-13.54-3.97-18.51c2.49-14.47,13.24-27.19,28.07-29.6c5.2-0.85,10.89-0.05,15.12,3.25
					c4.88,3.81,5.23,10.35,3.88,15.92c-1.16,4.79-16.49,34.31-23.04,21.9c-2.38-4.5-1.99-10.53-1.53-15.4
					c0.64-6.73,2.49-13.35,5.21-19.53c2.74-6.19,6.76-11.99,12.37-15.89c4.39-3.05,13.71-7.64,19.03-4.56
					c4.38,2.54,2.14,10.17,1.02,13.81c-2.08,6.71-5.58,13-9.36,18.88c-3.79,5.89-8.2,11.51-13.43,16.2
					c-0.82,0.74-5.48,4.99-6.4,4.03c-2.67-2.78-3.97-6.46-4.37-10.23c-0.88-8.23,3.12-16.7,7.23-23.54
					c4.52-7.54,10.47-14.27,17.13-19.98c2.94-2.52,6.11-4.76,9.49-6.64c2.41-1.34,7.17-4.46,8.7-1.21
					c3.25,6.89,1.29,16.24-0.45,23.25c-2.13,8.55-5.69,16.89-10.55,24.23c-3.77,5.7-9.49,12.2-17.02,11.43
					c-6.8-0.7-8.48-9.33-9.09-14.76c-0.86-7.72,0.05-15.68,1.31-23.3c1.04-6.29,2.44-12.71,4.88-18.62
					c2.75-6.66,5.62-15.62,12.48-19.25c8.12-4.3,9.47,14.63,9.32,18.64c-0.3,7.65-3.49,15.38-7.08,22.03
					c-3.27,6.06-8.15,13.28-15.07,15.42c-8.09,2.51-13.44-7.38-15.23-13.71c-3.34-11.82,3.5-23.46,12.5-30.66
					c5.12-4.09,18.89-11.73,23.3-2.76c2.58,5.25-0.3,12.53-2.28,17.45c-2.66,6.61-6.85,12.12-11.74,17.24
					c-5.11,5.34-10.95,10.11-17.39,13.76c-5.04,2.85-11.65,5.56-17.37,3.17c-6.04-2.53-7.89-11.84-7.05-17.6
					c1.04-7.14,5.04-14.17,8.7-20.24c5.55-9.19,21.76-32.11,33.36-17.67c4.92,6.12,3.1,15.85,1.27,22.74
					c-2.18,8.18-5.95,16-10.48,23.12c-3.5,5.5-7.6,9.84-12.94,13.54c-3.17,2.19-6.94,4.63-10.9,4.97
					c-18.98,1.65,25.24-84.44,31.03-44.25c0.95,6.6,0.16,11.93-2.33,18.09c-3.18,7.85-7.67,15.36-13.23,21.74
					c-5.02,5.76-12.34,11.07-19.77,6.18c-6.32-4.16-5.24-13.44-3.67-19.7c1.92-7.65,5.77-14.89,10.41-21.22
					c3.77-5.14,8.42-10.03,14.97-10.94c10.96-1.51,15.26,6.49,14.49,16.3c-0.84,10.64-5.54,21.31-11.14,30.27
					c-2.63,4.2-10.82,16.92-17.33,12.6c-3.8-2.53-4.3-9.07-3.8-13.04c1.01-8.09,5.53-15.87,10.04-22.46
					c7.31-10.68,26.94-31.37,39.22-15.04c5.34,7.11,4.4,17.94,1.79,25.86c-1.3,3.95-3.44,7.66-6.4,10.6
					c-1.76,1.74-3.61,3.37-5.34,5.14c-1.24,1.27-2.37,2.37-3.51,0.56c-0.5-0.8-0.85-1.69-1.18-2.57
					c-2.38-6.41,0.44-13.97,3.91-19.39c2.05-3.2,7.79-10.42,12.31-7.43c2.59,1.71,2.61,6.3,2.65,8.98c0.04,3.63-1.11,6.48-2.68,9.69
					c-3.75,7.65-8.85,15.16-15.01,21.07c-2.25,2.15-5.26,4.66-8.57,4.45c-5.05-0.32-8.43-2.95-9.64-7.88
					c-1.88-7.68,1.66-17.06,6.05-23.27c2.3-3.26,10.03-11.49,14.81-10.06c3.67,1.09,0.26,9.52-0.53,11.47
					c-4.34,10.76-14.69,24.03-27.57,23.19c-18.06-1.17-11.25-23.42-6.74-33.67c3.17-7.21,7.26-14.05,11.83-20.46
					c1.74-2.44,3.6-4.79,5.59-7.02c0.87-0.98,1.8-1.9,2.77-2.79c1.18-1.08,1.75,1.41,2.34,2.63c9.93,20.56-12.71,46.32-32.71,49.37
					c-11.99,1.83-14.64-9.15-13.3-18.82c1.36-9.78,5.09-19.91,10.09-28.41c3.34-5.68,8.02-10.94,14.34-13.24
					c20.89-7.59,39.86,26.78,25.55,41.98c-1.9,2.02-4.32,3.48-6.82,4.62c-2.26,1.03-3.2,1.21-4.47-1.17
					c-1.01-1.91-1.62-4.01-2.07-6.11c-1.73-8.09,0.17-16.84,3.25-24.35c3.1-7.57,8.36-14.86,15.74-18.73
					c7.7-4.04,17.11-1.64,22.77,4.71c11.68,13.11-4.8,33.9-14.35,42.81c-2.77,2.59-5.81,4.91-9.06,6.86
					c-1.29,0.78-2.65,1.44-4.04,2.03c-2.32,0.99-2.74,0.91-3.62-1.42c-2.3-6.1,0.26-12.78,4.06-17.64c2.8-3.58,7.77-7.86,12.68-7.23
					c6.93,0.88,2.68,13.81,1.37,17.2c-5.15,13.39-20.11,23.76-34.54,23.56c-4.79-0.07-10.01-2.19-9.44-7.79
					c0.76-7.41,8.77-14.54,14.14-18.87c3.64-2.93,9.93-6.26,13.08-0.95c2.55,4.31,1.6,10.46,0.42,15.02
					c-3.39,13.1-15.86,25.53-30.42,20.92c-7.73-2.45-5.24-11.89-2.81-17.31c3.15-7.06,8.48-13.52,14.68-18.1
					c1.38-1.02,2.86-1.86,4.42-2.57c1.49-0.68,1.51,1.81,1.71,2.92c0.73,4-0.16,8.32-1.26,12.16c-2.25,7.84-6.96,16.09-14.03,20.49
					c-6.72,4.18-15.48,1.06-17.85-6.52c-1.94-6.22,1.07-13.27,3.85-18.73c6.73-13.24,17.8-25.42,29.6-34.34
					c1.83-1.38,3.75-2.68,5.85-3.61c0.42-0.19,3,4.79,3.35,5.53c1.11,2.3,1.76,4.79,2.21,7.3c1.51,8.33-0.66,17.39-5.35,24.38
					c-4.29,6.4-11.54,10.17-18.95,6.74c-6.8-3.15-12.08-11.22-12.12-18.7c-0.07-11.91,11.7-21.29,21.95-24.87
					c4.76-1.66,10.6-2.33,15.09,0.44c5.2,3.21,5.59,10.75,4.31,16.07c-2.82,11.76-17.15,17.1-28.05,15.86
					c-4.38-0.5-9.42-2.61-9.98-7.53c-0.82-7.14,7.55-14.05,12.24-18.04c6.89-5.86,15.79-12.29,25.3-12.13
					c6.1,0.09,10.18,4.5,10.9,10.34c0.87,7.05-3.18,14.03-7.83,18.96c-1.19,1.26-8.45,7.77-9.15,6.29c-1.59-3.37-1.91-7.41-2-11.08
					c-0.33-13.21,7.8-41.82,26.67-31.53c7.5,4.09,2.32,14.77-0.79,19.95c-3.57,5.94-8.73,12.3-15.02,15.48
					c-1.49,0.76-4.47-6.1-4.79-7.14c-0.61-2.04-0.53-4.2-0.19-6.27c0.83-5.07,4.67-9.29,9.12-11.55c9.79-5,23.73,3.35,23.95,14.27
					c0.18,9.25-8.36,17.41-15.16,22.47c-0.58,0.43-10.5,6.4-10.67,5.59c-1.02-5.06,2.28-9.88,5.69-13.21
					c3.12-3.04,7.07-5.17,11.14-6.61c2.28-0.81,4.71-1.2,7.12-1.26c3.8-0.09,3.25,2.28,2.12,5.14c-4.2,10.61-14.1,19.37-23.6,25.23
					c-0.95,0.59-1.94,1.12-2.93,1.64c-0.62,0.33-0.33-0.73-0.33-1.45c0.01-1.54,0.36-3.09,0.77-4.57c0.96-3.5,2.77-6.75,4.75-9.77
					c3.52-5.4,8.44-10.83,14.4-13.54c8.4-3.81,8.63,6.67,7.99,12.2c-0.93,8.12-3.54,18.08-11.07,22.59
					c-10.39,6.24-21.34-5.87-14.74-15.71c3.14-4.7,12.59-11.81,18.61-9.33c5.25,2.16,2.13,12.01,0.81,15.58
					c-2.86,7.71-9.16,16.92-18.57,14.17c-4.94-1.44-5.25-6.85-4.05-11c1.43-4.97,5.08-9.19,9.25-12.11
					c2.36-1.65,5.12-2.65,7.94-3.16c1.26-0.23,8.32-0.75,7.32,1.43c-2.52,5.47-7.37,9.88-12.07,13.47
					c-9.29,7.09-24.9,13.85-35.13,4.93c-0.54-0.47-1.17,0.44-0.64,0.9c7.75,6.76,18.47,4.62,27.05,0.71
					c9.09-4.14,18.58-11.63,22.47-21.09c0.11-0.26-0.04-0.63-0.32-0.71c-12.42-3.63-26.36,5.82-27.6,18.85
					c-0.45,4.79,2.43,8.24,6.99,9.23c5.11,1.11,9.24-1.43,12.53-5.11c3.71-4.15,6.11-9.63,7.35-15.01
					c0.78-3.35,1.37-8.83-1.72-11.33c-4.02-3.24-9.96,0.16-13.6,2.31c-4.52,2.67-8.61,6.61-9.8,11.88
					c-1.66,7.35,5.21,14.14,12.38,13.83c13.38-0.57,17.44-18.05,18.02-28.62c0.2-3.64-0.11-8.59-3.83-10.41
					c-3.47-1.68-7.94,1.32-10.59,3.26c-8.08,5.92-17.37,17.99-15.83,28.65c0.05,0.35,0.46,0.56,0.78,0.4
					c12.8-6.38,26.76-18.8,29.68-33.41c0.04-0.22-0.14-0.51-0.36-0.57c-12.33-3.26-32.18,8.38-29.3,22.64
					c0.08,0.38,0.44,0.53,0.78,0.41c14.56-5.2,38.25-26.54,20.94-41.46c-7.23-6.23-18.29-6.79-24.87,0.73
					c-6.26,7.16-5.79,16.66,1.22,23.07c0.14,0.13,0.39,0.12,0.56,0.05c11.53-5.19,33.62-36.02,10.4-39.46
					c-20.69-3.07-26.83,33.57-19.69,46.97c0.13,0.25,0.46,0.42,0.74,0.27c9.97-5.73,20.47-17.07,17.37-29.61
					c-3.08-12.38-17.71-9.13-25.93-4.72c-7.72,4.14-15.2,10.27-20.52,17.25c-2.41,3.16-4.89,7.83-3.35,11.89
					c3.15,8.29,15.73,7.39,22.5,5.56c10.04-2.73,18.36-10.74,17.89-21.68c-0.43-9.96-7.77-14.49-17.19-12.91
					c-9.81,1.64-19.95,8.72-24.47,17.64c-5.29,10.44-0.82,23.2,9.62,28.71c9.89,5.23,18.76-1.87,23.26-10.61
					c5.69-11.03,4.93-25.2-2.84-34.98c-0.16-0.2-0.44-0.24-0.66-0.15c-4.34,1.77-8.11,5.08-11.6,8.13c-5.23,4.58-10,9.71-14.4,15.09
					c-7.16,8.76-16.56,21.5-14.57,33.59c0.8,4.83,4.46,8.52,8.97,10.08c5.45,1.89,10.91-1.07,14.83-4.69
					c7.97-7.37,15.85-23.93,10.54-34.65c-0.14-0.29-0.45-0.37-0.73-0.27c-11.29,4.11-21.39,17.66-23.3,29.35
					c-2.21,13.57,14.54,13.79,23.17,9.37c9.56-4.89,15.08-16.49,15.65-26.85c0.42-7.65-3.57-14.97-11.97-11.07
					c-6.26,2.9-11.72,9.19-15.6,14.72c-2.36,3.37-4.59,8.02-2.72,12.08c3.97,8.66,19.42,3.75,25.41,1
					c12.3-5.64,22.42-18.16,22.5-32.11c0.05-10.22-10-7.32-15.24-2.83c-7.07,6.06-10.74,16.2-6.11,24.77
					c0.11,0.21,0.35,0.37,0.6,0.31c18.65-4.58,52.43-45.25,25.23-59.11c-27.19-13.86-47.83,33.43-33.95,53.15
					c0.1,0.14,0.35,0.24,0.52,0.19c9.6-2.95,16.18-10.12,16.25-20.42c0.07-9.34-4.93-18.6-11.85-24.65
					c-7.09-6.21-16.73-7.81-24.86-2.65c-12.52,7.94-18.45,26.59-20.6,40.33c-1.11,7.07-0.65,16.55,7.16,19.49
					c6.98,2.62,15.55-1.35,21.32-5.07c15.86-10.21,29.21-31.1,17.44-49.18c-0.17-0.26-0.57-0.24-0.78-0.06
					c-9.7,7.76-16.59,20.53-21.6,31.64c-4.04,8.95-9.84,24.5-0.48,32.18c9.24,7.58,21.49,0.27,28.08-6.97
					c3.84-4.22,6.88-9.25,9.01-14.54c1.25-3.1,2.63-7.19,1.44-10.51c-2.99-8.36-18.14,8.81-19.7,11.49
					c-5.35,9.18-9.3,29.03,6.19,30.06c5.48,0.37,10.15-5.19,13.35-8.9c5-5.79,9.23-12.51,12.39-19.47
					c2.58-5.67,2.92-22.89-7.55-17.71c-10.56,5.22-16.72,22.96-9.18,32.58c0.15,0.19,0.45,0.25,0.66,0.14
					c3.65-1.93,6.95-5.59,9.74-8.61c2.35-2.54,3.96-5.72,5.21-8.92c2.71-6.92,3.24-14.99,1.14-22.13
					c-1.7-5.75-6.1-10.72-12.17-11.84c-6-1.11-11.64,1.76-16.4,5.13c-11.89,8.41-22.15,23.27-25.17,37.57
					c-1.12,5.29,0,17.05,7.77,16.52c7.13-0.48,12.89-10.13,16.08-15.42c5.21-8.64,9.23-18.58,10.31-28.65
					c0.76-7.01-0.63-15.39-8.32-17.7c-11.17-3.35-19.55,5.59-25.15,13.97c-6.18,9.24-14.23,25.72-7.36,36.51
					c7.96,12.5,21.59,0.33,27.35-7.25c4.71-6.2,8.47-13.29,11.2-20.58c1.99-5.31,2.19-10.08,1.53-15.67
					c-0.52-4.35-2.06-12.84-8.09-12.44c-5.69,0.38-10.34,6.56-13.45,10.68c-5.17,6.85-9.26,14.63-12.44,22.59
					c-2.78,6.95-9.29,29.26,6.24,22.97c10.83-4.38,18.22-13.58,23.67-23.54c5.92-10.82,13.44-28.19,6.65-40.21
					c-6.77-11.99-19.48-4.08-26.12,3.19c-5.27,5.78-9.6,12.34-13.23,19.26c-2.67,5.09-5.53,11.02-5.73,16.87
					c-0.16,4.94,1.44,11.74,5.46,15.04c3.76,3.08,8.52,2.96,12.99,1.72c12.25-3.39,23.18-13.78,30.84-23.5
					c4.06-5.15,6.84-11.06,8.67-17.36c1.17-4.04,1.93-8.83,0-12.76c-3.44-7-13.36-3.93-18.59-1.29
					c-8.95,4.53-16.49,12.97-19.13,22.72c-2.56,9.46,1.18,25.33,12.14,27.85c5.21,1.2,10.2-2.99,13.45-6.49
					c4.8-5.16,8.18-11.71,10.7-18.23c2.48-6.4,3.73-12.87,2.98-19.7c-0.44-4.05-1.54-13.62-7.02-14.54
					c-4.72-0.79-8.42,4.45-10.65,7.82c-3.66,5.54-6.08,12.06-7.96,18.4c-3.8,12.87-6.38,28.06-3.51,41.34
					c0.94,4.39,3.07,8.89,7.49,10.59c4.85,1.87,10.03-0.9,13.6-4.02c11.19-9.79,17.15-27.38,18.77-41.72
					c0.62-5.49,0.56-11.86-2.7-16.57c-0.1-0.15-0.34-0.22-0.52-0.19c-14.11,2.71-26.11,16.22-33.76,27.52
					c-7.19,10.62-14.36,27.4-3.89,38.3c0.17,0.18,0.42,0.25,0.66,0.14c10.85-5.15,18.77-17.61,24.35-27.73
					c3.28-5.95,11.48-20.64,4.82-26.96c-2.95-2.81-8.15-1.57-11.5-0.43c-6.18,2.09-11.41,5.07-15.69,10.03
					c-8.01,9.28-11.81,22.75-12.16,34.82c-0.13,4.7,0.77,17.9,8.77,15.01c5.28-1.91,9.02-7.63,11.97-12.04
					c3.75-5.61,6.92-12.16,7.05-19.02c0.18-9.72-8.14-15.07-17.07-15.13c-11.73-0.08-22.32,7.61-28.1,17.39
					c-4.77,8.07-11.85,38.7,6.91,32.99c6.97-2.12,12.89-7.78,17.39-13.28c4.34-5.3,8.38-12.33,7.64-19.42
					c-0.02-0.18-0.17-0.37-0.35-0.42c-5.26-1.71-9.69-0.04-14.4,2.44C233.96,399.86,234.43,400.86,235.06,400.53L235.06,400.53z"/>
			</g>
		</g>
		<g>
			<path class="st1" d="M204.88,367.3c0,0-0.72,3.03,4.13,4.38C209.01,371.68,210.42,368.65,204.88,367.3z"/>
			<path class="st1" d="M214.58,369.81c0,0-0.82,3.01-5.72,1.86C208.86,371.67,209.08,368.33,214.58,369.81z"/>
		</g>
		<g>
			<path class="st1" d="M260.2,375.08c0,0-0.72,3.03,4.13,4.38C264.33,379.46,265.74,376.42,260.2,375.08z"/>
			<path class="st1" d="M269.9,377.59c0,0-0.82,3.01-5.72,1.86C264.18,379.45,264.4,376.11,269.9,377.59z"/>
		</g>
		<g>
			<path class="st1" d="M286.18,370.1c0,0-0.51,2.1,2.86,3.03C289.03,373.14,290.01,371.03,286.18,370.1z"/>
			<path class="st1" d="M292.9,371.85c0,0-0.57,2.08-3.96,1.29C288.93,373.13,289.08,370.82,292.9,371.85z"/>
		</g>
		<g>
			<path class="st1" d="M228.08,432.19c0,0,1.34-1.41-0.85-3.66C227.23,428.53,225.52,429.72,228.08,432.19z"/>
			<path class="st1" d="M223.64,427.79c0,0,1.39-1.36,3.67,0.79C227.31,428.58,226.14,430.31,223.64,427.79z"/>
		</g>
		<path class="st1" d="M276.68,409.81c0,0-0.73,3.03,4.12,4.38C280.8,414.19,282.21,411.16,276.68,409.81z"/>
		<path class="st1" d="M286.37,412.33c0,0-0.83,3.01-5.73,1.85C280.65,414.18,280.87,410.84,286.37,412.33z"/>
		<path class="st1" d="M250.8,344.7c0,0,2.14,0.29,2.73-3.15C253.53,341.56,251.34,340.79,250.8,344.7z"/>
		<path class="st1" d="M251.86,337.85c0,0,2.13,0.36,1.68,3.81C253.53,341.66,251.22,341.74,251.86,337.85z"/>
	</g>
	<path class="st4" d="M287.26,461.05c0,2.72-17.79,4.92-39.73,4.92c-21.94,0-39.73-2.21-39.73-4.92c0-2.72,17.79-4.93,39.73-4.93
		C269.47,456.12,287.26,458.33,287.26,461.05z"/>
	<g>
		<g>
			<path class="st5" d="M134.62,351.58c1.09,0.72,2.18,1.47,3.29,2.27"/>
			<path class="st6" d="M144.69,359.25c15.25,13.27,31.03,34.91,43.02,69.29"/>
			<path class="st5" d="M189.1,432.64c0.41,1.25,0.82,2.52,1.23,3.81c0,0,0.21-1.52,0.85-3.9"/>
			<path class="st7" d="M193.75,425.28c1.42-3.19,3.39-6.65,6.1-9.8"/>
			<path class="st5" d="M202.54,412.7c0.97-0.88,2.01-1.72,3.12-2.49"/>
		</g>
	</g>
	<g>
		<path class="st8" d="M87.47,448.93c0,2.69-10.77,4.88-24.06,4.88s-24.06-2.18-24.06-4.88c0-2.69,10.77-4.88,24.06-4.88
			S87.47,446.23,87.47,448.93z"/>
		<g>
			<path class="st9" d="M102.88,441.9c-2.69,3.56-1.24,6.46,3.21,6.46h6.36c4.46,0,5.9-2.91,3.22-6.46l-1.51-1.99
				c-2.69-3.56-7.09-3.56-9.78,0L102.88,441.9z"/>
		</g>
		<g>
			<path class="st10" d="M80.36,437.62c-4.47,5.91-2.07,10.75,5.34,10.75h10.58c7.41,0,9.82-4.83,5.34-10.75l-2.51-3.31
				c-4.47-5.91-11.79-5.91-16.26,0L80.36,437.62z"/>
		</g>
		<g>
			<path class="st11" d="M123.31,335.65c-4.37,0-7.91,3.54-7.91,7.91v33.15c0,5.96-4.85,10.81-10.82,10.81H91.9v-73.18
				c0-6.08-4.93-11-11-11c-6.08,0-11,4.92-11,11v34.79H57.21c-5.97,0-10.82-4.85-10.82-10.82v-33.15c0-4.37-3.54-7.91-7.9-7.91
				c-4.37,0-7.91,3.54-7.91,7.91v33.15c0,14.68,11.95,26.63,26.63,26.63H69.9v45.42H59.83c-3.83,0-6.94-3.12-6.94-6.94v-21.28
				c0-2.8-2.27-5.08-5.07-5.08c-2.81,0-5.08,2.27-5.08,5.08v21.28c0,9.42,7.67,17.09,17.09,17.09H69.9v19.65c0,6.08,4.92,11,11,11
				c6.07,0,11-4.92,11-11v-36.83h12.69c14.68,0,26.63-11.94,26.63-26.62v-33.15C131.22,339.19,127.68,335.65,123.31,335.65z"/>
			<g>
				<g>
					<path class="st12" d="M71.59,343.95c-0.29,0-0.56-0.18-0.67-0.46l-1.66-4.28c-0.14-0.37,0.04-0.79,0.41-0.93
						c0.37-0.15,0.79,0.04,0.93,0.41l1.66,4.28c0.14,0.37-0.04,0.79-0.41,0.93C71.76,343.93,71.67,343.95,71.59,343.95z"/>
				</g>
				<g>
					<path class="st12" d="M35.08,343.95c-0.29,0-0.56-0.18-0.67-0.46l-1.66-4.28c-0.14-0.37,0.04-0.79,0.41-0.93
						c0.37-0.15,0.79,0.04,0.93,0.41l1.66,4.28c0.14,0.37-0.04,0.79-0.41,0.93C35.26,343.93,35.17,343.95,35.08,343.95z"/>
				</g>
				<g>
					<path class="st12" d="M88.19,328.2c-0.17,0-0.33-0.06-0.47-0.17c-0.3-0.26-0.34-0.71-0.08-1.02l2.98-3.49
						c0.26-0.3,0.72-0.34,1.02-0.08c0.3,0.26,0.34,0.71,0.08,1.01l-2.98,3.49C88.59,328.11,88.39,328.2,88.19,328.2z"/>
				</g>
				<g>
					<path class="st12" d="M75.86,374.28c-0.33,0-0.64-0.24-0.7-0.58l-0.95-4.86c-0.08-0.39,0.18-0.77,0.57-0.84
						c0.38-0.08,0.77,0.18,0.84,0.57l0.95,4.86c0.08,0.39-0.18,0.77-0.57,0.84C75.96,374.28,75.91,374.28,75.86,374.28z"/>
				</g>
				<g>
					<path class="st12" d="M118.26,377.98c-0.34,0-0.64-0.24-0.7-0.58l-0.95-4.85c-0.08-0.39,0.18-0.77,0.57-0.85
						c0.4-0.08,0.77,0.18,0.84,0.57l0.95,4.85c0.08,0.39-0.18,0.77-0.57,0.84C118.35,377.97,118.31,377.98,118.26,377.98z"/>
				</g>
				<g>
					<path class="st12" d="M89.45,350.76c-0.12,0-0.25-0.03-0.36-0.1c-0.34-0.2-0.46-0.64-0.26-0.98l2.48-4.28
						c0.2-0.35,0.64-0.46,0.98-0.26c0.34,0.2,0.46,0.64,0.26,0.98l-2.48,4.28C89.94,350.63,89.69,350.76,89.45,350.76z"/>
				</g>
				<g>
					<path class="st12" d="M128.75,365.67c-0.12,0-0.25-0.03-0.36-0.1c-0.34-0.2-0.46-0.64-0.26-0.98l2.48-4.28
						c0.2-0.34,0.64-0.46,0.98-0.26c0.34,0.2,0.46,0.64,0.26,0.98l-2.48,4.28C129.23,365.54,128.99,365.67,128.75,365.67z"/>
				</g>
				<g>
					<path class="st12" d="M44.02,326.37c-0.12,0-0.25-0.03-0.36-0.1c-0.34-0.2-0.46-0.64-0.26-0.98l2.48-4.28
						c0.2-0.35,0.64-0.46,0.98-0.26c0.34,0.2,0.46,0.64,0.26,0.98l-2.48,4.28C44.51,326.24,44.27,326.37,44.02,326.37z"/>
				</g>
				<g>
					<path class="st12" d="M77.37,318.58c-0.34,0-0.64-0.24-0.7-0.59l-0.91-4.86c-0.07-0.39,0.18-0.77,0.58-0.84
						c0.38-0.07,0.77,0.18,0.84,0.58l0.91,4.86c0.07,0.39-0.18,0.77-0.58,0.84C77.46,318.57,77.42,318.58,77.37,318.58z"/>
				</g>
				<g>
					<path class="st12" d="M118.69,351.58c-0.34,0-0.64-0.24-0.71-0.59l-0.91-4.86c-0.07-0.39,0.19-0.77,0.58-0.84
						c0.38-0.07,0.77,0.18,0.84,0.58l0.9,4.86c0.07,0.39-0.18,0.77-0.57,0.84C118.78,351.57,118.74,351.58,118.69,351.58z"/>
				</g>
				<g>
					<path class="st12" d="M33.42,312.85c-0.34,0-0.64-0.24-0.7-0.59l-0.91-4.86c-0.07-0.39,0.18-0.77,0.58-0.84
						c0.38-0.06,0.77,0.18,0.84,0.58l0.91,4.86c0.07,0.39-0.19,0.77-0.58,0.84C33.51,312.85,33.47,312.85,33.42,312.85z"/>
				</g>
			</g>
			<g>
				<g>
					<path class="st12" d="M84.13,302.51c0,1.99-1.61,3.6-3.6,3.6c-1.99,0-3.6-1.62-3.6-3.6c0-1.99,1.61-3.6,3.6-3.6
						C82.51,298.91,84.13,300.53,84.13,302.51z"/>
				</g>
				<g>
					<path class="st12" d="M127.07,335.65c0,2.03-1.65,3.68-3.68,3.68c-2.03,0-3.68-1.65-3.68-3.68c0-2.03,1.65-3.68,3.68-3.68
						C125.42,331.97,127.07,333.62,127.07,335.65z"/>
				</g>
				<g>
					<path class="st12" d="M40.72,297.26c0,1.29-1.04,2.33-2.33,2.33c-1.29,0-2.33-1.04-2.33-2.33c0-1.29,1.04-2.33,2.33-2.33
						C39.68,294.93,40.72,295.98,40.72,297.26z"/>
				</g>
			</g>
		</g>
	</g>
	<g>
		<path class="st8" d="M399.79,399.32c0,1.46-5.83,2.64-13.02,2.64c-7.19,0-13.03-1.18-13.03-2.64c0-1.46,5.83-2.64,13.03-2.64
			C393.95,396.68,399.79,397.86,399.79,399.32z"/>
		<g>
			<path class="st11" d="M419.19,338c-2.36,0-4.28,1.92-4.28,4.28v17.94c0,3.23-2.63,5.85-5.86,5.85h-6.87v-39.61
				c0-3.29-2.67-5.95-5.95-5.95c-3.29,0-5.95,2.66-5.95,5.95v18.83h-6.87c-3.23,0-5.86-2.63-5.86-5.86v-17.94
				c0-2.36-1.91-4.28-4.28-4.28c-2.37,0-4.28,1.92-4.28,4.28v17.94c0,7.95,6.47,14.41,14.42,14.41h6.87v24.58h-5.45
				c-2.07,0-3.76-1.69-3.76-3.76v-11.52c0-1.52-1.23-2.75-2.75-2.75c-1.52,0-2.75,1.23-2.75,2.75v11.52c0,5.1,4.15,9.25,9.25,9.25
				h5.45v10.64c0,3.29,2.66,5.95,5.95,5.95c3.29,0,5.95-2.67,5.95-5.95v-19.93h6.87c7.95,0,14.42-6.47,14.42-14.41v-17.94
				C423.47,339.92,421.55,338,419.19,338z"/>
			<g>
				<g>
					<path class="st12" d="M391.19,342.5c-0.16,0-0.3-0.1-0.36-0.25l-0.9-2.32c-0.08-0.2,0.02-0.43,0.22-0.5
						c0.2-0.08,0.43,0.02,0.5,0.22l0.9,2.32c0.08,0.2-0.02,0.43-0.22,0.5C391.28,342.49,391.24,342.5,391.19,342.5z"/>
				</g>
				<g>
					<path class="st12" d="M371.43,342.5c-0.16,0-0.3-0.1-0.36-0.25l-0.9-2.32c-0.08-0.2,0.02-0.43,0.22-0.5
						c0.2-0.08,0.43,0.02,0.5,0.22l0.9,2.32c0.08,0.2-0.02,0.43-0.22,0.5C371.53,342.49,371.48,342.5,371.43,342.5z"/>
				</g>
				<g>
					<path class="st12" d="M400.18,333.97c-0.09,0-0.18-0.03-0.25-0.09c-0.16-0.14-0.18-0.39-0.04-0.55l1.61-1.89
						c0.14-0.16,0.39-0.18,0.55-0.04c0.16,0.14,0.18,0.39,0.04,0.55l-1.62,1.89C400.4,333.93,400.29,333.97,400.18,333.97z"/>
				</g>
				<g>
					<path class="st12" d="M393.5,358.91c-0.18,0-0.35-0.13-0.38-0.31l-0.52-2.63c-0.04-0.21,0.1-0.42,0.31-0.46
						c0.21-0.04,0.41,0.09,0.46,0.31l0.51,2.63c0.04,0.21-0.1,0.42-0.31,0.46C393.56,358.91,393.53,358.91,393.5,358.91z"/>
				</g>
				<g>
					<path class="st12" d="M416.45,360.91c-0.18,0-0.35-0.13-0.38-0.31l-0.52-2.62c-0.04-0.21,0.1-0.42,0.31-0.46
						c0.22-0.04,0.42,0.1,0.46,0.31l0.52,2.63c0.04,0.21-0.1,0.42-0.31,0.46C416.5,360.91,416.48,360.91,416.45,360.91z"/>
				</g>
				<g>
					<path class="st12" d="M400.86,346.18c-0.07,0-0.13-0.02-0.2-0.05c-0.18-0.11-0.25-0.35-0.14-0.53l1.34-2.32
						c0.11-0.19,0.35-0.25,0.53-0.14c0.19,0.11,0.25,0.35,0.14,0.53l-1.34,2.32C401.12,346.11,400.99,346.18,400.86,346.18z"/>
				</g>
				<g>
					<path class="st12" d="M422.13,354.25c-0.06,0-0.13-0.02-0.19-0.05c-0.19-0.11-0.25-0.35-0.14-0.53l1.34-2.32
						c0.11-0.19,0.35-0.25,0.53-0.14c0.19,0.11,0.25,0.35,0.14,0.53l-1.34,2.32C422.39,354.18,422.26,354.25,422.13,354.25z"/>
				</g>
				<g>
					<path class="st12" d="M376.27,332.98c-0.07,0-0.13-0.02-0.2-0.05c-0.19-0.11-0.25-0.35-0.14-0.53l1.34-2.32
						c0.11-0.19,0.35-0.25,0.53-0.14c0.19,0.11,0.25,0.35,0.14,0.53l-1.34,2.32C376.53,332.91,376.4,332.98,376.27,332.98z"/>
				</g>
				<g>
					<path class="st12" d="M394.32,328.76c-0.18,0-0.35-0.13-0.38-0.32l-0.49-2.63c-0.04-0.21,0.1-0.42,0.31-0.46
						c0.21-0.04,0.41,0.1,0.46,0.31l0.49,2.63c0.04,0.21-0.1,0.42-0.31,0.45C394.37,328.76,394.35,328.76,394.32,328.76z"/>
				</g>
				<g>
					<path class="st12" d="M416.69,346.62c-0.18,0-0.35-0.13-0.38-0.32l-0.49-2.63c-0.04-0.21,0.1-0.42,0.31-0.45
						c0.21-0.04,0.42,0.1,0.45,0.31l0.49,2.63c0.04,0.21-0.1,0.42-0.31,0.45C416.73,346.62,416.71,346.62,416.69,346.62z"/>
				</g>
				<g>
					<path class="st12" d="M370.53,325.66c-0.18,0-0.35-0.13-0.38-0.32l-0.49-2.63c-0.04-0.21,0.1-0.42,0.31-0.45
						c0.21-0.03,0.42,0.1,0.45,0.31l0.49,2.63c0.04,0.21-0.1,0.42-0.31,0.46C370.58,325.66,370.56,325.66,370.53,325.66z"/>
				</g>
			</g>
			<g>
				<g>
					<path class="st12" d="M397.98,320.07c0,1.08-0.87,1.95-1.95,1.95c-1.08,0-1.95-0.87-1.95-1.95c0-1.07,0.87-1.95,1.95-1.95
						C397.1,318.12,397.98,318.99,397.98,320.07z"/>
				</g>
				<g>
					<path class="st12" d="M421.22,338c0,1.1-0.89,1.99-1.99,1.99c-1.1,0-1.99-0.89-1.99-1.99c0-1.1,0.89-1.99,1.99-1.99
						C420.33,336.01,421.22,336.91,421.22,338z"/>
				</g>
				<g>
					<path class="st12" d="M374.48,317.23c0,0.7-0.57,1.26-1.26,1.26c-0.7,0-1.26-0.57-1.26-1.26c0-0.7,0.57-1.26,1.26-1.26
						C373.92,315.97,374.48,316.53,374.48,317.23z"/>
				</g>
			</g>
		</g>
	</g>
	<g>
		<path class="st8" d="M293.3,337.86c0,0.85-3.41,1.55-7.62,1.55c-4.21,0-7.62-0.69-7.62-1.55c0-0.85,3.41-1.54,7.62-1.54
			C289.89,336.31,293.3,337,293.3,337.86z"/>
		<g>
			<path class="st11" d="M278.01,301.99c1.38,0,2.5,1.12,2.5,2.5v10.5c0,1.89,1.54,3.42,3.43,3.42h4.02v-23.17
				c0-1.92,1.56-3.48,3.48-3.48c1.92,0,3.48,1.56,3.48,3.48v11.02h4.02c1.89,0,3.43-1.54,3.43-3.42v-10.5c0-1.38,1.12-2.5,2.5-2.5
				c1.38,0,2.5,1.12,2.5,2.5v10.5c0,4.65-3.78,8.43-8.43,8.43h-4.02v14.38h3.19c1.21,0,2.2-0.99,2.2-2.2v-6.74
				c0-0.89,0.72-1.61,1.61-1.61c0.89,0,1.61,0.72,1.61,1.61v6.74c0,2.98-2.43,5.41-5.41,5.41h-3.19v6.22c0,1.92-1.56,3.48-3.48,3.48
				c-1.92,0-3.48-1.56-3.48-3.48v-11.66h-4.02c-4.65,0-8.43-3.78-8.43-8.43v-10.5C275.51,303.11,276.63,301.99,278.01,301.99z"/>
			<g>
				<g>
					<path class="st12" d="M294.39,304.62c0.09,0,0.18-0.06,0.21-0.15l0.53-1.36c0.05-0.12-0.01-0.25-0.13-0.29
						c-0.12-0.05-0.25,0.01-0.3,0.13l-0.52,1.36c-0.05,0.12,0.01,0.25,0.13,0.29C294.34,304.61,294.36,304.62,294.39,304.62z"/>
				</g>
				<g>
					<path class="st12" d="M305.95,304.62c0.09,0,0.18-0.06,0.21-0.15l0.53-1.36c0.05-0.12-0.01-0.25-0.13-0.29
						c-0.12-0.05-0.25,0.01-0.3,0.13l-0.53,1.36c-0.05,0.12,0.01,0.25,0.13,0.29C305.9,304.61,305.92,304.62,305.95,304.62z"/>
				</g>
				<g>
					<path class="st12" d="M289.13,299.63c0.05,0,0.11-0.02,0.15-0.06c0.1-0.08,0.11-0.23,0.03-0.32l-0.94-1.11
						c-0.08-0.1-0.23-0.11-0.32-0.03c-0.1,0.08-0.11,0.22-0.02,0.32l0.94,1.11C289.01,299.6,289.07,299.63,289.13,299.63z"/>
				</g>
				<g>
					<path class="st12" d="M293.04,314.22c0.11,0,0.2-0.08,0.22-0.18l0.3-1.54c0.02-0.12-0.06-0.24-0.18-0.27
						c-0.12-0.03-0.24,0.06-0.27,0.18l-0.3,1.54c-0.02,0.12,0.06,0.24,0.18,0.27C293.01,314.22,293.02,314.22,293.04,314.22z"/>
				</g>
				<g>
					<path class="st12" d="M279.61,315.39c0.11,0,0.2-0.07,0.22-0.18l0.3-1.53c0.02-0.12-0.06-0.24-0.18-0.27
						c-0.13-0.02-0.24,0.06-0.27,0.18l-0.3,1.54c-0.02,0.12,0.06,0.24,0.18,0.27C279.58,315.39,279.6,315.39,279.61,315.39z"/>
				</g>
				<g>
					<path class="st12" d="M288.74,306.77c0.04,0,0.08-0.01,0.11-0.03c0.11-0.06,0.15-0.2,0.08-0.31l-0.78-1.35
						c-0.06-0.11-0.2-0.15-0.31-0.08c-0.11,0.06-0.15,0.2-0.08,0.31l0.78,1.36C288.58,306.73,288.66,306.77,288.74,306.77z"/>
				</g>
				<g>
					<path class="st12" d="M276.29,311.49c0.04,0,0.08-0.01,0.11-0.03c0.11-0.06,0.15-0.2,0.08-0.31l-0.78-1.36
						c-0.06-0.11-0.2-0.15-0.31-0.08c-0.11,0.06-0.15,0.2-0.08,0.31l0.78,1.36C276.14,311.45,276.21,311.49,276.29,311.49z"/>
				</g>
				<g>
					<path class="st12" d="M303.12,299.05c0.04,0,0.08-0.01,0.11-0.03c0.11-0.06,0.15-0.2,0.08-0.31l-0.78-1.36
						c-0.06-0.11-0.2-0.15-0.31-0.08c-0.11,0.06-0.15,0.2-0.08,0.31l0.78,1.36C302.97,299.01,303.04,299.05,303.12,299.05z"/>
				</g>
				<g>
					<path class="st12" d="M292.56,296.58c0.11,0,0.2-0.08,0.22-0.19l0.29-1.54c0.02-0.12-0.06-0.24-0.18-0.27
						c-0.12-0.02-0.24,0.06-0.27,0.18l-0.29,1.54c-0.02,0.12,0.06,0.24,0.18,0.27C292.53,296.58,292.54,296.58,292.56,296.58z"/>
				</g>
				<g>
					<path class="st12" d="M279.48,307.03c0.11,0,0.2-0.08,0.22-0.19l0.29-1.54c0.02-0.12-0.06-0.24-0.18-0.27
						c-0.12-0.02-0.24,0.06-0.27,0.18l-0.29,1.54c-0.02,0.12,0.06,0.24,0.18,0.27C279.45,307.03,279.46,307.03,279.48,307.03z"/>
				</g>
				<g>
					<path class="st12" d="M306.48,294.77c0.11,0,0.2-0.08,0.22-0.19l0.29-1.54c0.02-0.12-0.06-0.24-0.18-0.27
						c-0.12-0.02-0.24,0.06-0.27,0.18l-0.29,1.54c-0.02,0.12,0.06,0.24,0.18,0.27C306.45,294.77,306.46,294.77,306.48,294.77z"/>
				</g>
			</g>
			<g>
				<g>
					<path class="st12" d="M290.42,291.49c0,0.63,0.51,1.14,1.14,1.14c0.63,0,1.14-0.51,1.14-1.14c0-0.63-0.51-1.14-1.14-1.14
						C290.93,290.35,290.42,290.86,290.42,291.49z"/>
				</g>
				<g>
					<path class="st12" d="M276.82,301.99c0,0.64,0.52,1.17,1.17,1.17c0.64,0,1.17-0.52,1.17-1.17c0-0.64-0.52-1.17-1.17-1.17
						C277.34,300.82,276.82,301.34,276.82,301.99z"/>
				</g>
				<g>
					<path class="st12" d="M304.17,289.83c0,0.41,0.33,0.74,0.74,0.74c0.41,0,0.74-0.33,0.74-0.74c0-0.41-0.33-0.74-0.74-0.74
						C304.5,289.09,304.17,289.42,304.17,289.83z"/>
				</g>
			</g>
		</g>
	</g>
	<g>
		<path class="st9" d="M302.27,337.69c-1.15,1.52-0.53,2.76,1.37,2.76h2.72c1.9,0,2.52-1.24,1.37-2.76l-0.64-0.85
			c-1.15-1.52-3.03-1.52-4.18,0L302.27,337.69z"/>
	</g>
	<g>
		<path class="st13" d="M292.65,335.87c-1.91,2.53-0.88,4.59,2.28,4.59h4.52c3.17,0,4.2-2.07,2.28-4.59l-1.07-1.41
			c-1.91-2.53-5.04-2.53-6.95,0L292.65,335.87z"/>
	</g>
</g>
</svg>
