<svg id="Layer_1" data-name="Layer 1" xmlns="http://www.w3.org/2000/svg" viewBox="0 0 480 479.565"><defs><style>.cls-1{opacity:0.15;}.cls-2{fill:#6cb4ff;}.cls-3{fill:#cde9fe;}.cls-4{fill:#55a1ff;}.cls-5{fill:#b0dfff;}.cls-6{fill:#0872c1;}.cls-7{fill:#5aa3ff;}.cls-8{fill:#99caff;}.cls-9{fill:#058ee2;}.cls-10{fill:#fbfcfe;}.cls-11{fill:#2f93ed;}</style></defs><title>emptystates</title><g class="cls-1"><path class="cls-2" d="M332.1,156.109H176.47a16.021,16.021,0,1,1,0-32.041H332.1a16.021,16.021,0,1,1,0,32.041Z"/><path class="cls-2" d="M400,252.325H241.292a16.023,16.023,0,1,1,0-32.046H400a16.023,16.023,0,1,1,0,32.046Z"/><path class="cls-2" d="M239.714,204.171a16.028,16.028,0,0,1,16.024-16.027H149.366a16.024,16.024,0,1,0,0,32.048H255.738A16.025,16.025,0,0,1,239.714,204.171Z"/><path class="cls-2" d="M303.643,204.171a16.026,16.026,0,0,1-16.027,16.021h39.272a16.024,16.024,0,0,0,0-32.048H287.616A16.028,16.028,0,0,1,303.643,204.171Z"/><path class="cls-2" d="M341.156,92.021H327.543a16.024,16.024,0,0,1,0-32.047h13.613a16.024,16.024,0,1,1,0,32.047Z"/><path class="cls-2" d="M171.373,45.45H134.894a16.024,16.024,0,1,1,0-32.047h36.479a16.024,16.024,0,1,1,0,32.047Z"/><path class="cls-2" d="M102.575,220.192H88.96a16.024,16.024,0,1,1,0-32.048h13.615a16.024,16.024,0,0,1,0,32.048Z"/><path class="cls-2" d="M275.379,92.021H157.829a16.024,16.024,0,1,1,0-32.047h117.55a16.024,16.024,0,1,1,0,32.047Z"/><path class="cls-2" d="M260.568,108.042a16.024,16.024,0,0,1,16.024-16.021H194.415a16.024,16.024,0,0,1,0,32.047h82.177A16.029,16.029,0,0,1,260.568,108.042Z"/><path class="cls-2" d="M301.518,172.134a16.022,16.022,0,0,1,16.023-16.025H182.37a16.022,16.022,0,1,1,0,32.044H317.541A16.02,16.02,0,0,1,301.518,172.134Z"/></g><path class="cls-3" d="M480,347.051c-46.9-5.687-99.8-9.835-155.847-11.842C179.845,330.042,55.26,340.519,0,359.929c0,0,67.109-130.728,95.342-115.326s56.161,89.559,74.317,84.815,28.518-59.545,53.694-59.243,27.528,53.154,46.691,53.24,65.547-72.983,102.019-69.99S473.2,339.908,480,347.051Z"/><path class="cls-4" d="M190.347,365.022H170.02a1.09,1.09,0,0,1,0-2.18h20.327a1.09,1.09,0,1,1,0,2.18Z"/><path class="cls-4" d="M186.726,370.159h-6.539a1.09,1.09,0,1,1,0-2.179h6.539a1.09,1.09,0,1,1,0,2.179Z"/><path class="cls-4" d="M209.034,370.159h-6.543a1.09,1.09,0,1,1,0-2.179h6.543a1.09,1.09,0,1,1,0,2.179Z"/><path class="cls-4" d="M61.115,441.989H28.555a1.746,1.746,0,0,1,0-3.491h32.56a1.746,1.746,0,1,1,0,3.491Z"/><path class="cls-4" d="M55.312,450.214H44.838a1.744,1.744,0,1,1,0-3.488H55.312a1.744,1.744,0,1,1,0,3.488Z"/><path class="cls-4" d="M91.04,450.214H80.565a1.744,1.744,0,1,1,0-3.488H91.04a1.744,1.744,0,1,1,0,3.488Z"/><path class="cls-4" d="M307.761,412.489H279.509a1.513,1.513,0,1,1,0-3.026h28.252a1.513,1.513,0,1,1,0,3.026Z"/><path class="cls-4" d="M302.726,419.633h-9.087a1.517,1.517,0,1,1,0-3.033h9.087a1.517,1.517,0,0,1,0,3.033Z"/><path class="cls-4" d="M333.727,419.633h-9.091a1.517,1.517,0,0,1,0-3.033h9.091a1.517,1.517,0,0,1,0,3.033Z"/><path class="cls-5" d="M122.138,461.284c0,2.694-10.773,4.878-24.064,4.878s-24.063-2.184-24.063-4.878,10.773-4.878,24.063-4.878S122.138,458.591,122.138,461.284Z"/><path class="cls-2" d="M137.545,454.256c-2.689,3.556-1.242,6.462,3.215,6.462h6.363c4.458,0,5.9-2.906,3.216-6.462l-1.507-1.993c-2.689-3.556-7.091-3.556-9.78,0Z"/><path class="cls-6" d="M115.031,449.98c-4.473,5.913-2.066,10.747,5.345,10.747h10.578c7.411,0,9.818-4.834,5.345-10.747l-2.506-3.311c-4.47-5.912-11.787-5.912-16.258,0Z"/><path class="cls-7" d="M157.979,348.012a7.905,7.905,0,0,0-7.906,7.907v33.153a10.828,10.828,0,0,1-10.816,10.814H126.563V326.7a11,11,0,1,0-22,0V361.5H91.873a10.831,10.831,0,0,1-10.82-10.817v-33.15a7.907,7.907,0,1,0-15.813,0v33.15a26.659,26.659,0,0,0,26.633,26.626h12.694v45.417H94.5a6.95,6.95,0,0,1-6.941-6.944V394.5a5.077,5.077,0,0,0-10.153,0v21.276A17.114,17.114,0,0,0,94.5,432.87h10.07v19.653a11,11,0,1,0,22,0V415.7h12.694a26.66,26.66,0,0,0,26.631-26.624V355.919A7.906,7.906,0,0,0,157.979,348.012Z"/><path class="cls-8" d="M106.256,356.307a.72.72,0,0,1-.67-.459l-1.661-4.279a.72.72,0,0,1,1.343-.521l1.66,4.281a.717.717,0,0,1-.412.928A.667.667,0,0,1,106.256,356.307Z"/><path class="cls-8" d="M69.75,356.307a.719.719,0,0,1-.67-.459l-1.658-4.279a.719.719,0,0,1,1.341-.521l1.659,4.281a.715.715,0,0,1-.412.928A.664.664,0,0,1,69.75,356.307Z"/><path class="cls-8" d="M122.858,340.56a.706.706,0,0,1-.468-.173.72.72,0,0,1-.079-1.015l2.98-3.491a.719.719,0,0,1,1.095.933l-2.983,3.493A.714.714,0,0,1,122.858,340.56Z"/><path class="cls-8" d="M110.531,386.638a.723.723,0,0,1-.705-.582l-.951-4.856a.721.721,0,0,1,1.415-.274l.95,4.855a.715.715,0,0,1-.568.841A.56.56,0,0,1,110.531,386.638Z"/><path class="cls-8" d="M152.929,390.336a.72.72,0,0,1-.7-.582l-.953-4.851a.72.72,0,1,1,1.412-.279l.953,4.853a.719.719,0,0,1-.567.845A.7.7,0,0,1,152.929,390.336Z"/><path class="cls-8" d="M124.115,363.117a.693.693,0,0,1-.362-.1.717.717,0,0,1-.262-.981l2.478-4.28a.719.719,0,1,1,1.245.719l-2.476,4.281A.724.724,0,0,1,124.115,363.117Z"/><path class="cls-8" d="M163.413,378.026a.72.72,0,0,1-.622-1.08l2.475-4.281a.719.719,0,1,1,1.245.718l-2.476,4.284A.719.719,0,0,1,163.413,378.026Z"/><path class="cls-8" d="M78.687,338.73a.719.719,0,0,1-.622-1.079l2.476-4.28a.72.72,0,1,1,1.246.72l-2.478,4.279A.72.72,0,0,1,78.687,338.73Z"/><path class="cls-8" d="M112.042,330.934a.721.721,0,0,1-.7-.589l-.905-4.862a.719.719,0,0,1,.575-.841.727.727,0,0,1,.839.577l.906,4.864a.716.716,0,0,1-.576.838A.734.734,0,0,1,112.042,330.934Z"/><path class="cls-8" d="M153.36,363.934a.722.722,0,0,1-.707-.587l-.907-4.865a.72.72,0,0,1,1.416-.264l.9,4.864a.716.716,0,0,1-.573.838A.683.683,0,0,1,153.36,363.934Z"/><path class="cls-8" d="M68.091,325.208a.717.717,0,0,1-.7-.588l-.91-4.864a.718.718,0,0,1,.576-.84.725.725,0,0,1,.837.576l.911,4.864a.726.726,0,0,1-.576.841A.865.865,0,0,1,68.091,325.208Z"/><path class="cls-8" d="M118.8,314.87a3.6,3.6,0,1,1-3.6-3.6A3.606,3.606,0,0,1,118.8,314.87Z"/><path class="cls-8" d="M161.741,348.012a3.684,3.684,0,1,1-3.684-3.684A3.686,3.686,0,0,1,161.741,348.012Z"/><path class="cls-8" d="M75.389,309.621a2.332,2.332,0,1,1-2.33-2.33A2.333,2.333,0,0,1,75.389,309.621Z"/><path class="cls-5" d="M399.787,411.675c0,1.459-5.832,2.641-13.025,2.641s-13.025-1.182-13.025-2.641,5.832-2.64,13.025-2.64S399.787,410.217,399.787,411.675Z"/><path class="cls-7" d="M419.186,350.363a4.28,4.28,0,0,0-4.278,4.282V372.59a5.86,5.86,0,0,1-5.855,5.852h-6.871v-39.61a5.953,5.953,0,1,0-11.906,0v18.832h-6.871a5.862,5.862,0,0,1-5.856-5.855V333.865a4.28,4.28,0,1,0-8.56,0v17.944a14.43,14.43,0,0,0,14.416,14.412h6.871V390.8h-5.451a3.763,3.763,0,0,1-3.757-3.76V375.527a2.748,2.748,0,0,0-5.5,0v11.517a9.263,9.263,0,0,0,9.252,9.252h5.451v10.638a5.953,5.953,0,1,0,11.906,0V387h6.871a14.431,14.431,0,0,0,14.415-14.411V354.645A4.282,4.282,0,0,0,419.186,350.363Z"/><path class="cls-8" d="M391.191,354.856a.391.391,0,0,1-.363-.25l-.9-2.316a.389.389,0,0,1,.726-.282l.9,2.317a.388.388,0,0,1-.223.5A.37.37,0,0,1,391.191,354.856Z"/><path class="cls-8" d="M371.431,354.856a.392.392,0,0,1-.363-.25l-.9-2.316a.389.389,0,0,1,.726-.282l.9,2.317a.387.387,0,0,1-.223.5A.374.374,0,0,1,371.431,354.856Z"/><path class="cls-8" d="M400.176,346.331a.385.385,0,0,1-.253-.093.39.39,0,0,1-.043-.549l1.613-1.891a.39.39,0,0,1,.594.506l-1.615,1.89A.389.389,0,0,1,400.176,346.331Z"/><path class="cls-8" d="M393.505,371.272a.39.39,0,0,1-.381-.314l-.516-2.629a.39.39,0,0,1,.765-.149l.515,2.628a.387.387,0,0,1-.307.455A.287.287,0,0,1,393.505,371.272Z"/><path class="cls-8" d="M416.454,373.273a.39.39,0,0,1-.382-.314l-.516-2.625a.39.39,0,1,1,.765-.152l.515,2.627a.388.388,0,0,1-.306.457A.341.341,0,0,1,416.454,373.273Z"/><path class="cls-8" d="M400.856,358.541a.377.377,0,0,1-.195-.053.389.389,0,0,1-.141-.532l1.34-2.316a.389.389,0,1,1,.673.389l-1.339,2.317A.392.392,0,0,1,400.856,358.541Z"/><path class="cls-8" d="M422.127,366.61a.382.382,0,0,1-.194-.052.388.388,0,0,1-.142-.533l1.339-2.316a.39.39,0,1,1,.675.389l-1.341,2.319A.39.39,0,0,1,422.127,366.61Z"/><path class="cls-8" d="M376.268,345.341a.381.381,0,0,1-.2-.053.386.386,0,0,1-.14-.532l1.338-2.316a.39.39,0,0,1,.676.389l-1.341,2.317A.39.39,0,0,1,376.268,345.341Z"/><path class="cls-8" d="M394.323,341.121a.391.391,0,0,1-.383-.319l-.49-2.631a.392.392,0,0,1,.312-.456.4.4,0,0,1,.455.312l.49,2.633a.388.388,0,0,1-.312.454A.351.351,0,0,1,394.323,341.121Z"/><path class="cls-8" d="M416.686,358.983a.391.391,0,0,1-.382-.319l-.49-2.631a.39.39,0,0,1,.766-.144l.489,2.633a.388.388,0,0,1-.311.453A.305.305,0,0,1,416.686,358.983Z"/><path class="cls-8" d="M370.532,338.021a.387.387,0,0,1-.38-.318l-.492-2.632a.386.386,0,0,1,.311-.454.393.393,0,0,1,.454.31l.493,2.633a.4.4,0,0,1-.312.456A.613.613,0,0,1,370.532,338.021Z"/><path class="cls-8" d="M397.978,332.426a1.951,1.951,0,1,1-1.95-1.949A1.951,1.951,0,0,1,397.978,332.426Z"/><path class="cls-8" d="M421.223,350.363a1.994,1.994,0,1,1-1.994-1.992A2,2,0,0,1,421.223,350.363Z"/><path class="cls-8" d="M374.483,329.585a1.262,1.262,0,1,1-1.262-1.261A1.262,1.262,0,0,1,374.483,329.585Z"/><path class="cls-5" d="M293.3,350.214c0,.854-3.411,1.545-7.619,1.545s-7.621-.691-7.621-1.545,3.413-1.543,7.621-1.543S293.3,349.362,293.3,350.214Z"/><path class="cls-7" d="M278.013,314.345a2.5,2.5,0,0,1,2.5,2.5v10.5a3.429,3.429,0,0,0,3.425,3.424h4.02V307.6a3.483,3.483,0,1,1,6.965,0v11.016h4.02a3.43,3.43,0,0,0,3.426-3.424v-10.5a2.5,2.5,0,1,1,5.008,0v10.5a8.441,8.441,0,0,1-8.434,8.43h-4.02V338h3.19a2.2,2.2,0,0,0,2.2-2.2v-6.737a1.608,1.608,0,0,1,3.215,0v6.737a5.419,5.419,0,0,1-5.412,5.412h-3.19v6.224a3.483,3.483,0,1,1-6.965,0V335.779h-4.02a8.442,8.442,0,0,1-8.433-8.431v-10.5A2.5,2.5,0,0,1,278.013,314.345Z"/><path class="cls-8" d="M294.391,316.974a.229.229,0,0,0,.212-.147l.526-1.355a.228.228,0,0,0-.425-.164l-.525,1.356a.227.227,0,0,0,.13.294A.243.243,0,0,0,294.391,316.974Z"/><path class="cls-8" d="M305.951,316.974a.227.227,0,0,0,.212-.147l.526-1.355a.225.225,0,0,0-.13-.293.228.228,0,0,0-.3.129l-.525,1.356a.227.227,0,0,0,.131.294A.239.239,0,0,0,305.951,316.974Z"/><path class="cls-8" d="M289.133,311.987a.228.228,0,0,0,.174-.376l-.943-1.106a.228.228,0,1,0-.347.3l.944,1.105A.224.224,0,0,0,289.133,311.987Z"/><path class="cls-8" d="M293.037,326.578a.227.227,0,0,0,.223-.185l.3-1.537a.228.228,0,1,0-.447-.087l-.3,1.536a.226.226,0,0,0,.18.267A.167.167,0,0,0,293.037,326.578Z"/><path class="cls-8" d="M279.612,327.748a.227.227,0,0,0,.223-.184l.3-1.535a.228.228,0,1,0-.448-.089l-.3,1.536a.226.226,0,0,0,.224.272Z"/><path class="cls-8" d="M288.736,319.13a.209.209,0,0,0,.115-.032.228.228,0,0,0,.082-.311l-.785-1.354a.227.227,0,1,0-.393.228l.785,1.356A.228.228,0,0,0,288.736,319.13Z"/><path class="cls-8" d="M276.293,323.85a.237.237,0,0,0,.114-.03.228.228,0,0,0,.081-.312l-.783-1.355a.228.228,0,1,0-.394.228l.784,1.356A.227.227,0,0,0,276.293,323.85Z"/><path class="cls-8" d="M303.121,311.407a.234.234,0,0,0,.114-.03.227.227,0,0,0,.083-.312l-.783-1.355a.228.228,0,0,0-.4.227l.785,1.356A.228.228,0,0,0,303.121,311.407Z"/><path class="cls-8" d="M292.559,308.938a.227.227,0,0,0,.223-.186l.287-1.54a.23.23,0,0,0-.183-.267.233.233,0,0,0-.265.184l-.287,1.54a.227.227,0,0,0,.183.265A.193.193,0,0,0,292.559,308.938Z"/><path class="cls-8" d="M279.476,319.387a.229.229,0,0,0,.224-.185l.286-1.54a.228.228,0,1,0-.448-.084l-.287,1.541a.227.227,0,0,0,.182.265A.208.208,0,0,0,279.476,319.387Z"/><path class="cls-8" d="M306.476,307.125a.228.228,0,0,0,.224-.186l.287-1.541a.226.226,0,0,0-.182-.265.23.23,0,0,0-.265.182l-.289,1.54a.231.231,0,0,0,.183.267Z"/><path class="cls-8" d="M290.42,303.851a1.142,1.142,0,1,0,1.141-1.14A1.141,1.141,0,0,0,290.42,303.851Z"/><path class="cls-8" d="M276.822,314.345a1.166,1.166,0,1,0,1.165-1.166A1.167,1.167,0,0,0,276.822,314.345Z"/><path class="cls-8" d="M304.166,302.189a.738.738,0,1,0,.738-.737A.737.737,0,0,0,304.166,302.189Z"/><path class="cls-2" d="M302.274,350.051c-1.149,1.519-.53,2.762,1.373,2.762h2.719c1.905,0,2.523-1.243,1.375-2.762l-.644-.852a2.486,2.486,0,0,0-4.179,0Z"/><path class="cls-9" d="M292.654,348.224c-1.912,2.526-.883,4.592,2.283,4.592h4.52c3.167,0,4.2-2.066,2.284-4.592l-1.069-1.415a4.133,4.133,0,0,0-6.949,0Z"/><path class="cls-10" d="M296.3,148.376a52.552,52.552,0,1,1-52.553-52.552A52.552,52.552,0,0,1,296.3,148.376Z"/><path class="cls-11" d="M266.067,169.893h-7.773a3.984,3.984,0,0,1,3.9-2.985A3.616,3.616,0,0,1,266.067,169.893ZM204.1,149.3c0,1.9,1.817,3.147,3.866,3.147a5.466,5.466,0,0,0,5.627-5.386,10.555,10.555,0,0,0-4.81-1.144C205.78,145.916,204.1,147.391,204.1,149.3Zm75.336,49.912,3.76,30.964-27.764-19.881a66.756,66.756,0,1,1,24-11.083Zm-1.784-29.224,5.454.962,6.951-28.373-9.223-1.63Zm-57.91-27.457c0-6.675-3.906-10.109-11.156-10.109a12.339,12.339,0,0,0-10.155,4.673l4.528,3.1a6.863,6.863,0,0,1,5.481-2.722c2.916,0,5.153,1.817,5.153,4.292v.716a15.543,15.543,0,0,0-6.192-1.1c-5.49,0-9.538,3.1-9.538,7.918,0,4.718,3.861,8.008,8.726,8.008a8.1,8.1,0,0,0,6.63-3.243h.374v2.481h6.149Zm13.965,14.777c5.966,0,9.968-3.623,9.968-7.674,0-3.436-2.291-6.054-7.059-7.2l-3.577-.861c-1.906-.524-3.094-1.043-3.094-2.14,0-1.148,1.575-1.961,3.334-1.961a4.911,4.911,0,0,1,4.529,2.627l5.389-2.193c-1.667-3.82-5.389-5.485-9.823-5.485-5.34,0-9.534,2.718-9.534,7.248,0,4,3.67,6.1,6.571,6.722l3.3.712c2.717.623,3.72,1.336,3.72,2.623,0,1.142-1.433,2.1-3.72,2.1a5.489,5.489,0,0,1-5.191-3.577l-5.576,2.385C224.229,154.017,227.608,157.307,233.71,157.307Zm17.482,12.553c0-3.8-1.868-6.456-5.769-6.456a6.317,6.317,0,0,0-5.478,2.948,4.978,4.978,0,0,0-4.856-2.948,5.815,5.815,0,0,0-4.912,2.62h-.264v-2.1h-4.032v16.066h4.3v-7.805c0-2.719,1.213-4.817,3.377-4.817,1.87,0,2.821,1.083,2.821,3.278v9.344h4.293v-7.805c0-2.719,1.314-4.817,3.544-4.817,1.8,0,2.687,1.083,2.687,3.278v9.344h4.293Zm19.039,1.971c0-4.825-2.851-8.427-8.034-8.427a8.559,8.559,0,1,0,7.774,12.719l-3.577-1.773a4.322,4.322,0,0,1-3.971,2.362,4.19,4.19,0,0,1-4.359-3.769h12.1a1.378,1.378,0,0,1,.029-.36,1.456,1.456,0,0,1,.033-.363Zm.045-15.665-9.389-14.161,8.671-8.441v-.38H261.84L254.021,141h-.286V122.411h-6.25v34.134h6.25V149.01l2.762-2.715,6.384,10.25h7.4Zm12.844,21.123a3.882,3.882,0,1,0-4.5,3.145A3.879,3.879,0,0,0,283.12,177.289Z"/></svg>