<?xml version="1.0" encoding="utf-8"?>
<!-- Generator: Adobe Illustrator 23.0.3, SVG Export Plug-In . SVG Version: 6.00 Build 0)  -->
<svg version="1.1" id="Layer_1" xmlns="http://www.w3.org/2000/svg" xmlns:xlink="http://www.w3.org/1999/xlink" x="0px" y="0px"
	 viewBox="0 0 50 50" style="enable-background:new 0 0 50 50;" xml:space="preserve">
<style type="text/css">
	.st0{fill:#FFFFFF;}
</style>
<g id="HvCRbI_1_">
	<g>
		<path class="st0" d="M31.52,27.69c1.2,0.69,2.3,1.29,3.38,1.94c1.36,0.82,1.76,2.17,1.04,3.32c-0.74,1.19-2,1.32-3.38,0.35
			C22.27,26.08,7.43,32.43,5.6,44.82c-0.06,0.43-0.12,0.87-0.24,1.29c-0.32,1.07-1.12,1.62-2.19,1.52c-1.14-0.1-1.99-0.81-1.91-1.99
			c0.1-1.44,0.35-2.89,0.76-4.27c1.81-5.97,5.59-10.32,11.1-13.2c0.29-0.15,0.58-0.31,0.89-0.47c-8.75-6.75-7.7-17.8-1.94-23.38
			c6-5.82,15.55-5.76,21.48,0.18C38.98,9.93,40.41,20.63,31.52,27.69z M33.61,15.22C33.59,9.11,28.78,4.24,22.76,4.24
			c-5.89,0-10.95,4.94-10.91,10.64c0.05,6.24,4.82,11.13,10.87,11.14C28.65,26.04,33.64,21.09,33.61,15.22z"/>
		<path class="st0" d="M37.99,43.35c-1.49,0-2.79,0.03-4.09-0.01c-1.61-0.04-2.38-0.76-2.38-2.12c0.01-1.31,0.84-2.01,2.45-2.04
			c1.21-0.02,2.43-0.04,3.64-0.05c0.05,0,0.09-0.02,0.39-0.09c0-1.22-0.01-2.5,0-3.79c0.01-1.65,0.89-2.75,2.16-2.75
			c1.19,0,2.04,1.04,2.09,2.66c0.04,1.26,0.01,2.52,0.01,3.97c1.36,0,2.61-0.01,3.85,0c1.61,0.01,2.6,0.78,2.64,2.06
			c0.05,1.33-0.96,2.18-2.66,2.21c-1.12,0.02-2.23,0-3.35,0c-0.09,0-0.17,0.08-0.41,0.19c0,1.22,0.02,2.52,0,3.82
			c-0.03,1.69-0.89,2.65-2.28,2.59c-1.31-0.06-2.03-0.98-2.04-2.65C37.98,46.09,37.99,44.83,37.99,43.35z"/>
	</g>
</g>
</svg>
