<?xml version="1.0" encoding="utf-8"?>
<!-- Generator: Adobe Illustrator 23.0.3, SVG Export Plug-In . SVG Version: 6.00 Build 0)  -->
<svg version="1.1" id="Layer_1" xmlns="http://www.w3.org/2000/svg" xmlns:xlink="http://www.w3.org/1999/xlink" x="0px" y="0px"
	 viewBox="0 0 50 50" style="enable-background:new 0 0 50 50;" xml:space="preserve">
<style type="text/css">
	.st0{fill-rule:evenodd;clip-rule:evenodd;fill:#3196FD;}
</style>
<g>
	<g>
		<path class="st0" d="M25,9.1c0.5-0.6,0.9-1.2,1.4-1.8c2.8-3,6.3-4.7,10.5-4.4c4.5,0.3,8,2.6,10.3,6.3c3.4,5.3,3.6,11,1,16.7
			c-2,4.3-5,7.7-8.4,10.8c-4.3,4-9.2,7.4-14.3,10.2c-0.2,0.1-0.7,0.2-0.9,0.1c-7-3.9-13.4-8.5-18.6-14.6c-2.7-3.1-4.8-6.5-5.6-10.6
			c-1.2-6.3,0.5-11.8,5.5-16c5.4-4.5,13-3.7,17.7,1.6C24,7.9,24.5,8.5,25,9.1z"/>
	</g>
</g>
</svg>
