<?xml version="1.0" encoding="utf-8"?>
<!-- Generator: Adobe Illustrator 23.0.3, SVG Export Plug-In . SVG Version: 6.00 Build 0)  -->
<svg version="1.1" id="Layer_1" xmlns="http://www.w3.org/2000/svg" xmlns:xlink="http://www.w3.org/1999/xlink" x="0px" y="0px"
	 viewBox="0 0 480 448.54" style="enable-background:new 0 0 480 448.54;" xml:space="preserve">
<style type="text/css">
	.st0{opacity:0.2;}
	.st1{fill:#FFFFFF;}
	.st2{fill:url(#SVGID_1_);}
	.st3{clip-path:url(#XMLID_3_);fill:#3D3360;}
	.st4{opacity:0.35;clip-path:url(#XMLID_3_);fill:url(#SVGID_2_);}
	.st5{clip-path:url(#XMLID_5_);fill:#3D3360;}
	.st6{opacity:0.35;clip-path:url(#XMLID_5_);fill:url(#SVGID_3_);}
	.st7{opacity:0.48;clip-path:url(#XMLID_7_);fill:#F57B93;}
	.st8{fill:url(#SVGID_4_);}
	.st9{opacity:0.22;clip-path:url(#XMLID_9_);fill:url(#SVGID_5_);}
	.st10{fill:url(#SVGID_6_);}
	.st11{fill:url(#SVGID_7_);}
	.st12{fill:#FCB8BA;}
	.st13{opacity:0.39;clip-path:url(#XMLID_11_);fill:url(#SVGID_8_);}
	.st14{opacity:0.27;clip-path:url(#XMLID_13_);fill:url(#SVGID_9_);}
	.st15{fill:url(#SVGID_10_);}
	.st16{fill:url(#SVGID_11_);}
	.st17{opacity:0.49;clip-path:url(#XMLID_15_);fill:url(#SVGID_12_);}
	.st18{opacity:0.49;clip-path:url(#XMLID_15_);fill:url(#SVGID_13_);}
	.st19{opacity:0.24;clip-path:url(#XMLID_17_);fill:url(#SVGID_14_);}
	.st20{opacity:0.25;clip-path:url(#XMLID_17_);fill:url(#SVGID_15_);}
	.st21{opacity:0.49;clip-path:url(#XMLID_17_);fill:url(#SVGID_16_);}
	.st22{opacity:0.27;clip-path:url(#XMLID_19_);fill:url(#SVGID_17_);}
	.st23{clip-path:url(#XMLID_19_);fill:url(#SVGID_18_);}
	.st24{opacity:0.39;clip-path:url(#XMLID_21_);fill:url(#SVGID_19_);}
	.st25{opacity:0.39;clip-path:url(#XMLID_23_);fill:url(#SVGID_20_);}
	.st26{fill:url(#SVGID_21_);}
	.st27{fill:url(#SVGID_22_);}
	.st28{fill:url(#SVGID_23_);}
	.st29{fill:#55A1FF;}
	.st30{opacity:0.4;fill:#FFFFFF;}
	.st31{fill:none;stroke:#FFFFFF;stroke-width:3;stroke-linecap:round;stroke-linejoin:round;}
	.st32{fill:none;stroke:#FFFFFF;stroke-width:3;stroke-linecap:round;stroke-linejoin:round;stroke-dasharray:8.5037,8.5037;}
	.st33{fill:none;stroke:#FFFFFF;stroke-width:3;stroke-linecap:round;stroke-linejoin:round;stroke-dasharray:9.2369,9.2369;}
	.st34{fill:#3E9FFF;}
	.st35{fill:#6CB4FF;}
	.st36{fill:#0665BA;}
	.st37{fill:#D0E6FF;}
	.st38{fill:#60A3FE;}
	.st39{fill:#0276CC;}
	.st40{opacity:0.5;}
	.st41{fill:#C2D3EA;}
	.st42{fill:#B6CAE6;}
	.st43{fill:#D9E3F0;}
	.st44{opacity:0.5;fill:#B6CAE6;}
	.st45{opacity:0.3;fill:#B6CAE6;}
	.st46{opacity:0.6;fill:#FFFFFF;}
	.st47{opacity:0.5;fill:url(#SVGID_24_);}
	.st48{opacity:0.1;}
	.st49{opacity:0.5;fill:url(#SVGID_25_);}
</style>
<g>
	<g class="st0">
		<g>
			<g>
				<path class="st1" d="M323.67,194.36H173.85c-8.52,0-15.42-6.91-15.42-15.42c0-8.52,6.91-15.42,15.42-15.42h149.82
					c8.52,0,15.42,6.9,15.42,15.42C339.1,187.45,332.19,194.36,323.67,194.36z"/>
			</g>
			<g>
				<path class="st1" d="M389.04,286.98H236.25c-8.52,0-15.43-6.91-15.43-15.42c0-8.52,6.91-15.43,15.43-15.43h152.78
					c8.52,0,15.43,6.91,15.43,15.43C404.46,280.07,397.56,286.98,389.04,286.98z"/>
			</g>
			<g>
				<path class="st1" d="M234.73,240.63c0-8.52,6.91-15.43,15.42-15.43h-102.4c-8.52,0-15.43,6.91-15.43,15.43
					c0,8.52,6.91,15.42,15.43,15.42h102.4C241.64,256.05,234.73,249.14,234.73,240.63z"/>
				<path class="st1" d="M296.27,240.63c0,8.52-6.91,15.42-15.42,15.42h37.8c8.52,0,15.43-6.9,15.43-15.42
					c0-8.52-6.91-15.43-15.43-15.43h-37.8C289.37,225.2,296.27,232.11,296.27,240.63z"/>
			</g>
			<g>
				<path class="st1" d="M332.39,132.66h-13.11c-8.52,0-15.42-6.91-15.42-15.43c0-8.52,6.9-15.42,15.42-15.42h13.11
					c8.52,0,15.42,6.91,15.42,15.42C347.81,125.76,340.9,132.66,332.39,132.66z"/>
			</g>
			<g>
				<path class="st1" d="M168.94,87.83h-35.11c-8.52,0-15.43-6.91-15.43-15.42s6.91-15.42,15.43-15.42h35.11
					c8.52,0,15.43,6.91,15.43,15.42S177.46,87.83,168.94,87.83z"/>
			</g>
			<g>
				<path class="st1" d="M102.72,256.05H89.61c-8.52,0-15.43-6.9-15.43-15.42c0-8.52,6.91-15.43,15.43-15.43h13.11
					c8.52,0,15.43,6.91,15.43,15.43C118.14,249.14,111.23,256.05,102.72,256.05z"/>
			</g>
			<g>
				<path class="st1" d="M269.06,132.66H155.91c-8.52,0-15.43-6.91-15.43-15.43c0-8.52,6.91-15.42,15.43-15.42h113.16
					c8.52,0,15.43,6.91,15.43,15.42C284.49,125.76,277.58,132.66,269.06,132.66z"/>
			</g>
		</g>
		<path class="st1" d="M254.81,148.09c0-8.52,6.91-15.42,15.42-15.42h-79.11c8.52,0,15.43,6.91,15.43,15.42
			c0,8.52-6.9,15.42-15.43,15.42h79.11C261.72,163.51,254.81,156.61,254.81,148.09z"/>
		<path class="st1" d="M294.23,209.78c0-8.52,6.9-15.43,15.42-15.43H179.53c8.52,0,15.43,6.91,15.43,15.43
			c0,8.52-6.91,15.42-15.43,15.42h130.12C301.13,225.21,294.23,218.3,294.23,209.78z"/>
	</g>
	<g class="st40">
		<path class="st1" d="M355.49,61.85c-1.13,0-1.14,1.77,0,1.77C356.62,63.62,356.62,61.85,355.49,61.85z"/>
		<path class="st1" d="M160.64,75.98c-1.13,0-1.14,1.77,0,1.77C161.78,77.75,161.78,75.98,160.64,75.98z"/>
		<path class="st1" d="M67.05,173.69c-1.13,0-1.14,1.77,0,1.77C68.19,175.46,68.19,173.69,67.05,173.69z"/>
		<path class="st1" d="M150.05,260.22c-1.14,0-1.14,1.77,0,1.77C151.18,261.99,151.19,260.22,150.05,260.22z"/>
		<path class="st1" d="M45.27,226.67c-1.14,0-1.14,1.77,0,1.77C46.41,228.44,46.41,226.67,45.27,226.67z"/>
		<path class="st1" d="M65.28,53.02c-1.14,0-1.14,1.77,0,1.77C66.42,54.79,66.42,53.02,65.28,53.02z"/>
		<path class="st1" d="M263.07,38.89c-1.14,0-1.14,1.77,0,1.77C264.2,40.66,264.21,38.89,263.07,38.89z"/>
		<path class="st1" d="M360.19,217.25c-1.13,0-1.14,1.77,0,1.77C361.33,219.02,361.33,217.25,360.19,217.25z"/>
		<path class="st1" d="M318.4,248.45c-1.13,0-1.14,1.77,0,1.77C319.54,250.22,319.54,248.45,318.4,248.45z"/>
		<path class="st1" d="M374.91,307.91c-1.13,0-1.14,1.76,0,1.76C376.05,309.67,376.05,307.91,374.91,307.91z"/>
		<path class="st1" d="M439.08,230.21c-1.14,0-1.14,1.77,0,1.77C440.21,231.97,440.22,230.21,439.08,230.21z"/>
		<path class="st1" d="M412.59,102.47c-1.14,0-1.14,1.77,0,1.77C413.72,104.24,413.73,102.47,412.59,102.47z"/>
		<path class="st1" d="M441.43,32.42c-1.14,0-1.14,1.77,0,1.77C442.57,34.19,442.57,32.42,441.43,32.42z"/>
		<path class="st1" d="M58.81,116.6c-1.14,0-1.14,1.77,0,1.77C59.94,118.36,59.95,116.6,58.81,116.6z"/>
		<path class="st1" d="M150.64,310.85c-1.14,0-1.14,1.77,0,1.77C151.77,312.62,151.77,310.85,150.64,310.85z"/>
		<path class="st1" d="M107.56,44.07c-0.5-1.64-1.57-2.71-3.2-3.2c-0.49-0.15-0.49-0.27,0-0.41c1.63-0.49,2.7-1.56,3.2-3.2
			c0.15-0.49,0.27-0.49,0.41,0c0.5,1.64,1.57,2.71,3.2,3.2c0.49,0.15,0.49,0.27,0,0.41c-1.64,0.5-2.7,1.56-3.2,3.2
			C107.83,44.56,107.71,44.56,107.56,44.07z"/>
		<path class="st1" d="M41.29,159.36c-0.5-1.64-1.56-2.7-3.2-3.2c-0.49-0.15-0.49-0.27,0-0.41c1.64-0.5,2.71-1.56,3.2-3.2
			c0.15-0.49,0.27-0.49,0.41,0c0.5,1.64,1.57,2.71,3.2,3.2c0.49,0.15,0.49,0.27,0,0.41c-1.64,0.5-2.7,1.56-3.2,3.2
			C41.55,159.85,41.43,159.85,41.29,159.36z"/>
		<path class="st1" d="M408.6,172.4c-0.5-1.63-1.56-2.7-3.2-3.2c-0.49-0.15-0.49-0.27,0-0.41c1.64-0.5,2.7-1.56,3.2-3.2
			c0.14-0.49,0.27-0.49,0.41,0c0.5,1.63,1.56,2.7,3.2,3.2c0.49,0.15,0.49,0.27,0,0.41c-1.64,0.5-2.7,1.57-3.2,3.2
			C408.87,172.89,408.74,172.89,408.6,172.4z"/>
		<path class="st1" d="M321.97,70.8c-0.5-1.63-1.56-2.7-3.2-3.2c-0.49-0.15-0.49-0.27,0-0.41c1.63-0.5,2.7-1.57,3.2-3.2
			c0.15-0.49,0.27-0.49,0.42,0c0.5,1.64,1.56,2.71,3.2,3.2c0.5,0.15,0.5,0.27,0,0.41c-1.63,0.5-2.7,1.56-3.2,3.2
			C322.24,71.3,322.12,71.3,321.97,70.8z"/>
		<path class="st1" d="M319.05,292.9c-0.5-1.64-1.56-2.71-3.2-3.2c-0.49-0.15-0.49-0.27,0-0.41c1.63-0.5,2.7-1.56,3.2-3.2
			c0.15-0.49,0.27-0.49,0.42,0c0.5,1.64,1.56,2.71,3.2,3.2c0.49,0.14,0.49,0.27,0,0.41c-1.64,0.5-2.7,1.56-3.2,3.2
			C319.32,293.39,319.19,293.39,319.05,292.9z"/>
		<path class="st1" d="M93.42,255.13c-0.26-0.84-0.8-1.39-1.64-1.64c-0.25-0.08-0.25-0.14,0-0.21c0.84-0.26,1.39-0.8,1.64-1.64
			c0.07-0.25,0.14-0.25,0.21,0c0.25,0.84,0.8,1.39,1.65,1.64c0.25,0.07,0.25,0.14,0,0.21c-0.84,0.26-1.39,0.8-1.65,1.64
			C93.56,255.38,93.49,255.38,93.42,255.13z"/>
		<path class="st1" d="M180.57,38.63c-0.26-0.84-0.81-1.39-1.65-1.64c-0.25-0.08-0.25-0.14,0-0.21c0.84-0.26,1.39-0.8,1.65-1.64
			c0.08-0.25,0.14-0.25,0.21,0c0.25,0.84,0.8,1.39,1.65,1.64c0.25,0.07,0.25,0.14,0,0.21c-0.84,0.25-1.39,0.8-1.65,1.64
			C180.71,38.89,180.65,38.89,180.57,38.63z"/>
		<path class="st1" d="M399.63,65.37c-0.25-0.84-0.8-1.39-1.64-1.64c-0.25-0.07-0.25-0.14,0-0.21c0.84-0.25,1.39-0.8,1.64-1.64
			c0.08-0.25,0.14-0.25,0.22,0c0.25,0.84,0.8,1.39,1.64,1.64c0.25,0.08,0.25,0.14,0,0.21c-0.84,0.26-1.39,0.8-1.64,1.64
			C399.77,65.62,399.71,65.62,399.63,65.37z"/>
		<path class="st1" d="M426.71,304.97c-0.26-0.84-0.8-1.39-1.65-1.64c-0.25-0.07-0.25-0.14,0-0.21c0.84-0.25,1.39-0.8,1.65-1.64
			c0.07-0.25,0.14-0.25,0.21,0c0.26,0.84,0.8,1.39,1.64,1.64c0.25,0.08,0.25,0.14,0,0.21c-0.84,0.26-1.39,0.81-1.64,1.64
			C426.85,305.22,426.79,305.22,426.71,304.97z"/>
		<path class="st1" d="M103.89,105.98c-0.26-0.84-0.81-1.39-1.64-1.64c-0.26-0.08-0.26-0.14,0-0.22c0.84-0.25,1.39-0.8,1.64-1.64
			c0.07-0.25,0.14-0.25,0.21,0c0.25,0.84,0.8,1.39,1.65,1.64c0.25,0.08,0.25,0.14,0,0.22c-0.85,0.25-1.39,0.8-1.65,1.64
			C104.03,106.24,103.96,106.24,103.89,105.98z"/>
	</g>
	<g>
		<g>
			<g>
				<path class="st41" d="M351.22,187.04c-3.3,15.25-25.83,23.31-50.32,18.01c-24.49-5.3-41.67-21.97-38.37-37.21
					c3.3-15.25,25.84-23.31,50.33-18.01C337.34,155.13,354.52,171.79,351.22,187.04z"/>
				<path class="st42" d="M325.6,137.17c0.04,3.69-2.92,6.72-6.61,6.76c-3.69,0.04-6.72-2.92-6.76-6.61
					c-0.04-3.69,2.92-6.72,6.61-6.76C322.53,130.52,325.56,133.48,325.6,137.17z"/>
				
					<rect x="313.04" y="145.47" transform="matrix(0.2263 -0.974 0.974 0.2263 101.5907 422.1161)" class="st42" width="6.96" height="3.27"/>
			</g>
			<path class="st43" d="M400.93,223.16c-3.43,15.56-51.7,18.11-107.81,5.71c-56.1-12.4-98.8-35.06-95.36-50.62
				c3.44-15.56,51.71-18.11,107.81-5.71C361.67,184.94,404.37,207.6,400.93,223.16z"/>
			<path class="st44" d="M337,229.04l-84.54-19.07L134.54,399.18c-0.98,0.79-1.52,1.61-1.52,2.44c0,8.01,47.41,14.5,105.88,14.5
				c58.48,0,105.89-6.49,105.89-14.5L337,229.04z"/>
			<g>
				<path class="st1" d="M337,229.04c-1.88,8.33-22.33,10.81-45.67,5.55c-23.34-5.27-40.74-16.29-38.86-24.62
					c1.87-8.33,22.33-10.82,45.67-5.55C321.48,209.68,338.88,220.7,337,229.04z"/>
				<path class="st1" d="M246.29,184.46c-0.05,3.04-3.82,5.44-8.43,5.37c-4.61-0.07-8.3-2.59-8.26-5.63
					c0.05-3.04,3.82-5.44,8.43-5.37C242.64,178.91,246.34,181.43,246.29,184.46z"/>
				<path class="st1" d="M294.63,183.95c-0.37,3.02-4.38,5-8.95,4.44c-4.57-0.56-7.98-3.46-7.61-6.48c0.37-3.01,4.38-5,8.95-4.44
					C291.6,178.04,295,180.94,294.63,183.95z"/>
				<path class="st1" d="M344.77,197.94c-0.37,3.01-4.38,5-8.95,4.44c-4.58-0.56-7.98-3.46-7.61-6.48c0.37-3.02,4.38-5,8.95-4.44
					C341.73,192.03,345.14,194.93,344.77,197.94z"/>
				<path class="st1" d="M382.28,224.66c-0.84,2.92-5.11,4.25-9.53,2.97c-4.43-1.28-7.34-4.68-6.5-7.59
					c0.84-2.92,5.11-4.25,9.54-2.97C380.21,218.35,383.12,221.74,382.28,224.66z"/>
			</g>
		</g>
		<path class="st45" d="M344.8,401.61c0,8.01-47.41,14.5-105.89,14.5c-58.48,0-105.88-6.49-105.88-14.5
			c0-8.01,47.41-14.51,105.88-14.51C297.39,387.11,344.8,393.6,344.8,401.61z"/>
	</g>
	<path class="st1" d="M292.09,332.64c-0.14-0.61-3.59-14.77-16.69-18.22c-2.17-2.5-4.53-4.49-6.66-5.99
		c2.82-1.67,9.18-4.78,18.23-5.27c0.94-0.05,1.66-0.86,1.61-1.8c-0.05-0.94-0.9-1.65-1.8-1.61c-11.67,0.63-19.21,5.26-21.22,6.65
		c-0.86-0.49-1.61-0.88-2.22-1.17c0.22-0.61,0.36-1.25,0.36-1.92c0-3.14-2.54-5.69-5.69-5.69c-3.14,0-5.69,2.55-5.69,5.69
		c0,3.14,2.55,5.69,5.69,5.69c1.2,0,2.3-0.37,3.22-1c0.46,0.2,1.15,0.51,2.01,0.96c-2.37,2.51-6.29,7.88-6.92,16.55
		c-0.07,0.94,0.64,1.76,1.58,1.83c0.04,0,0.09,0,0.13,0c0.88,0,1.63-0.69,1.7-1.58c0.62-8.5,4.75-13.31,6.54-15.01
		c2.13,1.41,4.57,3.37,6.77,5.95c0.13,0.25,0.3,0.47,0.53,0.64c4.19,5.21,7.29,12.83,5.24,23.48c-0.18,0.92,0.43,1.82,1.35,2
		c0.11,0.02,0.22,0.03,0.32,0.03c0.8,0,1.52-0.57,1.67-1.38c1.76-9.12,0.02-16.27-3.04-21.76c7.39,4.57,9.63,13.62,9.66,13.72
		c0.19,0.79,0.89,1.32,1.66,1.32c0.13,0,0.26-0.02,0.39-0.05C291.74,334.48,292.31,333.56,292.09,332.64z"/>
	<ellipse class="st46" cx="274.52" cy="400.15" rx="14.06" ry="2.62"/>
	
		<linearGradient id="SVGID_1_" gradientUnits="userSpaceOnUse" x1="189.5033" y1="248.9708" x2="189.5033" y2="368.7493" gradientTransform="matrix(0.9994 0.0358 -0.0358 0.9994 63.2737 34.4717)">
		<stop  offset="0" style="stop-color:#FFFFFF"/>
		<stop  offset="1" style="stop-color:#FFFFFF;stop-opacity:0.3"/>
	</linearGradient>
	<path style="opacity:0.5;fill:url(#SVGID_1_);" d="M480,388.33c-46.9-5.69-99.8-9.84-155.85-11.84
		C179.84,371.32,55.26,381.8,0,401.21c0,0,67.11-130.73,95.34-115.33c28.23,15.4,56.16,89.56,74.32,84.81
		c18.16-4.75,28.52-59.54,53.69-59.24c25.17,0.3,27.53,53.15,46.69,53.24c19.16,0.09,65.55-72.98,102.02-69.99
		C408.54,297.69,473.2,381.18,480,388.33z"/>
</g>
</svg>
