<?xml version="1.0" encoding="utf-8"?>
<!-- Generator: Adobe Illustrator 23.0.3, SVG Export Plug-In . SVG Version: 6.00 Build 0)  -->
<svg version="1.1" id="Layer_1" xmlns="http://www.w3.org/2000/svg" xmlns:xlink="http://www.w3.org/1999/xlink" x="0px" y="0px"
	 viewBox="0 0 50 50" style="enable-background:new 0 0 50 50;" xml:space="preserve">
<style type="text/css">
	.st0{fill:#FFFFFF;}
</style>
<g>
	<g>
		<path class="st0" d="M31.09,8.24l10.17,10.17L15.52,44.15L5.35,33.99L31.09,8.24z M48.98,5.79l-4.54-4.54
			c-1.75-1.75-4.6-1.75-6.36,0L33.74,5.6l10.17,10.17l5.07-5.07C50.34,9.34,50.34,7.15,48.98,5.79z M0.03,48.28
			c-0.19,0.83,0.57,1.58,1.41,1.38l11.33-2.75L2.6,36.74L0.03,48.28z"/>
	</g>
	<g>
		<path class="st0" d="M48.41,50.06H1.59C0.72,50.06,0,49.35,0,48.48c0-0.88,0.71-1.59,1.59-1.59h46.82c0.88,0,1.59,0.71,1.59,1.59
			C50,49.35,49.29,50.06,48.41,50.06z"/>
	</g>
</g>
</svg>
