<?xml version="1.0" encoding="utf-8"?>
<!-- Generator: Adobe Illustrator 23.0.3, SVG Export Plug-In . SVG Version: 6.00 Build 0)  -->
<svg version="1.1" id="Layer_1" xmlns="http://www.w3.org/2000/svg" xmlns:xlink="http://www.w3.org/1999/xlink" x="0px" y="0px"
	 viewBox="0 0 100 100" style="enable-background:new 0 0 100 100;" xml:space="preserve">
<style type="text/css">
	.st0{fill:#C4CDE2;}
</style>
<path class="st0" d="M99.94,21.63C99.86,9.67,91.36,1.18,79.39,1.14C59.77,1.06,40.15,1.07,20.53,1.12
	C8.76,1.16,0.17,9.69,0.07,21.45c-0.09,11.12-0.1,22.24,0,33.36c0.11,11.43,8.77,19.97,20.18,20.03c7.87,0.04,15.73,0.1,23.59-0.05
	c2.45-0.05,4.19,0.63,5.91,2.4c6.79,7.01,13.73,13.88,20.62,20.8c0.19,0.19,0.43,0.33,1.18,0.92c0-8.22,0-15.93,0-24.07
	c2.77,0,5.26,0,7.75,0c11.91,0,20.54-8.49,20.63-20.41C100.02,43.51,100.02,32.57,99.94,21.63z"/>
</svg>
