<svg id="Layer_1" data-name="Layer 1" xmlns="http://www.w3.org/2000/svg" viewBox="0 0 100 100"><defs><style>.cls-1{fill:#79b70b;}.cls-2{fill:#fff;}</style></defs><title>sent</title><path class="cls-1" d="M100,50.124a50,50,0,1,1-50-50A50,50,0,0,1,100,50.124Z"/><path class="cls-2" d="M76.866,31.233a3.161,3.161,0,0,0-4.466-.179L44.234,57.02,32.881,50.437a3.056,3.056,0,0,0-3.768,4.726L41.5,68.462c.129.13.263.262.406.389a4.936,4.936,0,0,0,6.955-.55l.3-.346L76.945,35.429A3.163,3.163,0,0,0,76.866,31.233Z"/></svg>