<?xml version="1.0" encoding="utf-8"?>
<!-- Generator: Adobe Illustrator 23.0.3, SVG Export Plug-In . SVG Version: 6.00 Build 0)  -->
<svg version="1.1" id="Layer_1" xmlns="http://www.w3.org/2000/svg" xmlns:xlink="http://www.w3.org/1999/xlink" x="0px" y="0px"
	 viewBox="0 0 480 479.56" style="enable-background:new 0 0 480 479.56;" xml:space="preserve">
<style type="text/css">
	.st0{opacity:0.2;}
	.st1{fill:#FFFFFF;}
	.st2{fill:url(#SVGID_1_);}
	.st3{clip-path:url(#XMLID_3_);fill:#3D3360;}
	.st4{opacity:0.35;clip-path:url(#XMLID_3_);fill:url(#SVGID_2_);}
	.st5{clip-path:url(#XMLID_5_);fill:#3D3360;}
	.st6{opacity:0.35;clip-path:url(#XMLID_5_);fill:url(#SVGID_3_);}
	.st7{opacity:0.48;clip-path:url(#XMLID_7_);fill:#F57B93;}
	.st8{fill:url(#SVGID_4_);}
	.st9{opacity:0.22;clip-path:url(#XMLID_9_);fill:url(#SVGID_5_);}
	.st10{fill:url(#SVGID_6_);}
	.st11{fill:url(#SVGID_7_);}
	.st12{fill:#FCB8BA;}
	.st13{opacity:0.39;clip-path:url(#XMLID_11_);fill:url(#SVGID_8_);}
	.st14{opacity:0.27;clip-path:url(#XMLID_13_);fill:url(#SVGID_9_);}
	.st15{fill:url(#SVGID_10_);}
	.st16{fill:url(#SVGID_11_);}
	.st17{opacity:0.49;clip-path:url(#XMLID_15_);fill:url(#SVGID_12_);}
	.st18{opacity:0.49;clip-path:url(#XMLID_15_);fill:url(#SVGID_13_);}
	.st19{opacity:0.24;clip-path:url(#XMLID_17_);fill:url(#SVGID_14_);}
	.st20{opacity:0.25;clip-path:url(#XMLID_17_);fill:url(#SVGID_15_);}
	.st21{opacity:0.49;clip-path:url(#XMLID_17_);fill:url(#SVGID_16_);}
	.st22{opacity:0.27;clip-path:url(#XMLID_19_);fill:url(#SVGID_17_);}
	.st23{clip-path:url(#XMLID_19_);fill:url(#SVGID_18_);}
	.st24{opacity:0.39;clip-path:url(#XMLID_21_);fill:url(#SVGID_19_);}
	.st25{opacity:0.39;clip-path:url(#XMLID_23_);fill:url(#SVGID_20_);}
	.st26{fill:url(#SVGID_21_);}
	.st27{fill:url(#SVGID_22_);}
	.st28{fill:url(#SVGID_23_);}
	.st29{fill:#55A1FF;}
	.st30{opacity:0.4;fill:#FFFFFF;}
	.st31{fill:none;stroke:#FFFFFF;stroke-width:3;stroke-linecap:round;stroke-linejoin:round;}
	.st32{fill:none;stroke:#FFFFFF;stroke-width:3;stroke-linecap:round;stroke-linejoin:round;stroke-dasharray:8.5037,8.5037;}
	.st33{fill:none;stroke:#FFFFFF;stroke-width:3;stroke-linecap:round;stroke-linejoin:round;stroke-dasharray:9.2369,9.2369;}
	.st34{fill:#3E9FFF;}
	.st35{fill:#6CB4FF;}
	.st36{fill:#0665BA;}
	.st37{fill:#D0E6FF;}
	.st38{fill:#60A3FE;}
	.st39{fill:#0276CC;}
	.st40{opacity:0.5;}
	.st41{fill:#C2D3EA;}
	.st42{fill:#B6CAE6;}
	.st43{fill:#D9E3F0;}
	.st44{opacity:0.5;fill:#B6CAE6;}
	.st45{opacity:0.3;fill:#B6CAE6;}
	.st46{opacity:0.6;fill:#FFFFFF;}
	.st47{opacity:0.5;fill:url(#SVGID_24_);}
	.st48{opacity:0.1;}
	.st49{opacity:0.5;fill:url(#SVGID_25_);}
</style>
<g>
	<g id="XMLID_41_" class="st0">
		<polygon class="st1" points="100.13,423.06 86.68,423.06 86.68,436.51 73.23,436.51 73.23,449.97 59.77,449.97 59.77,463.42 
			46.32,463.42 46.32,474.48 41.54,474.48 41.54,458.64 55,458.64 55,445.19 68.45,445.19 68.45,431.73 81.91,431.73 81.91,418.28 
			95.36,418.28 95.36,407.21 100.13,407.21 		"/>
	</g>
	<g id="XMLID_29_" class="st0">
		<polygon class="st1" points="440.2,67.53 431.05,67.53 431.05,76.69 421.9,76.69 421.9,85.84 412.74,85.84 412.74,94.99 
			403.59,94.99 403.59,102.51 400.34,102.51 400.34,91.74 409.49,91.74 409.49,82.59 418.65,82.59 418.64,73.43 427.8,73.43 
			427.8,64.28 436.95,64.28 436.95,56.75 440.2,56.75 		"/>
	</g>
	<g id="XMLID_26_" class="st0">
		<g id="XMLID_28_">
			
				<rect x="226.41" y="14.11" transform="matrix(0.7072 -0.707 0.707 0.7072 58.4929 174.7899)" class="st1" width="27.73" height="5.34"/>
		</g>
		<g id="XMLID_27_">
			
				<rect x="237.6" y="2.91" transform="matrix(0.7071 -0.7071 0.7071 0.7071 58.5108 174.8105)" class="st1" width="5.34" height="27.73"/>
		</g>
	</g>
	<g id="XMLID_42_" class="st0">
		<g id="XMLID_44_">
			
				<rect x="181.53" y="213.57" transform="matrix(0.7071 -0.7071 0.7071 0.7071 -95.6793 201.4987)" class="st1" width="27.73" height="5.34"/>
		</g>
		<g id="XMLID_43_">
			
				<rect x="192.72" y="202.38" transform="matrix(0.7071 -0.7071 0.7071 0.7071 -95.6793 201.4987)" class="st1" width="5.34" height="27.73"/>
		</g>
	</g>
	<g id="XMLID_25_" class="st0">
		<path class="st1" d="M27.78,125.03c-7.85,0-15.01-3.98-19.15-10.63c-3.18-5.11-4.17-11.15-2.81-17.01
			c1.36-5.86,4.94-10.83,10.04-14.01c3.57-2.22,7.68-3.4,11.87-3.4c7.85,0,15.01,3.98,19.15,10.63c6.56,10.55,3.31,24.46-7.24,31.02
			C36.07,123.86,31.97,125.03,27.78,125.03z M27.74,84.56c-3.34,0-6.61,0.94-9.46,2.71c-4.07,2.53-6.91,6.5-8,11.16
			c-1.09,4.67-0.3,9.48,2.24,13.55c3.29,5.31,9,8.48,15.26,8.48c3.34,0,6.6-0.94,9.45-2.71c8.41-5.23,10.99-16.32,5.77-24.72
			C39.7,87.73,33.99,84.56,27.74,84.56z"/>
	</g>
	<g id="XMLID_24_" class="st48">
		<path class="st1" d="M440.1,442.45c-6.61,0-12.64-3.35-16.12-8.95c-2.68-4.3-3.51-9.39-2.36-14.32c1.15-4.93,4.16-9.13,8.46-11.8
			c3.01-1.87,6.47-2.86,9.99-2.86c6.61,0,12.64,3.35,16.12,8.95c5.52,8.88,2.79,20.59-6.09,26.12
			C447.09,441.46,443.63,442.45,440.1,442.45z M440.07,408.37c-2.81,0-5.57,0.79-7.96,2.28c-3.42,2.13-5.82,5.47-6.74,9.4
			c-0.92,3.93-0.25,7.99,1.89,11.41c2.77,4.47,7.58,7.14,12.85,7.14c2.81,0,5.56-0.79,7.96-2.28c7.08-4.4,9.26-13.74,4.86-20.82
			C450.15,411.04,445.34,408.37,440.07,408.37z"/>
	</g>
	<g class="st0">
		<g>
			<g>
				<path class="st1" d="M306.96,197.5H173.83c-7.57,0-13.71-6.14-13.71-13.71c0-7.57,6.14-13.7,13.71-13.7h133.13
					c7.57,0,13.71,6.13,13.71,13.7C320.67,191.36,314.53,197.5,306.96,197.5z"/>
			</g>
			<g>
				<path class="st1" d="M365.04,279.8H229.28c-7.57,0-13.71-6.14-13.71-13.71c0-7.57,6.14-13.71,13.71-13.71h135.76
					c7.57,0,13.71,6.14,13.71,13.71C378.75,273.67,372.61,279.8,365.04,279.8z"/>
			</g>
			<g>
				<path class="st1" d="M227.93,238.61c0-7.57,6.14-13.71,13.71-13.71h-90.99c-7.57,0-13.71,6.14-13.71,13.71
					c0,7.57,6.14,13.71,13.71,13.71h90.99C234.06,252.32,227.93,246.18,227.93,238.61z"/>
				<path class="st1" d="M282.61,238.61c0,7.57-6.14,13.71-13.71,13.71h33.59c7.57,0,13.71-6.14,13.71-13.71
					c0-7.57-6.14-13.71-13.71-13.71H268.9C276.47,224.9,282.61,231.04,282.61,238.61z"/>
			</g>
			<g>
				<path class="st1" d="M314.7,142.68h-11.65c-7.57,0-13.71-6.14-13.71-13.71c0-7.57,6.14-13.71,13.71-13.71h11.65
					c7.57,0,13.71,6.14,13.71,13.71C328.41,136.54,322.27,142.68,314.7,142.68z"/>
			</g>
			<g>
				<path class="st1" d="M169.47,102.84h-31.2c-7.57,0-13.71-6.14-13.71-13.7c0-7.57,6.14-13.71,13.71-13.71h31.2
					c7.57,0,13.71,6.14,13.71,13.71C183.17,96.7,177.03,102.84,169.47,102.84z"/>
			</g>
			<g>
				<path class="st1" d="M110.61,252.32H98.97c-7.57,0-13.71-6.14-13.71-13.71c0-7.57,6.14-13.71,13.71-13.71h11.65
					c7.57,0,13.71,6.14,13.71,13.71C124.32,246.18,118.18,252.32,110.61,252.32z"/>
			</g>
			<g>
				<path class="st1" d="M258.43,142.68H157.88c-7.57,0-13.71-6.14-13.71-13.71c0-7.57,6.14-13.71,13.71-13.71h100.55
					c7.57,0,13.71,6.14,13.71,13.71C272.14,136.54,266.01,142.68,258.43,142.68z"/>
			</g>
		</g>
		<path class="st1" d="M245.77,156.38c0-7.57,6.14-13.7,13.71-13.7h-70.3c7.57,0,13.71,6.14,13.71,13.7
			c0,7.57-6.13,13.71-13.71,13.71h70.3C251.91,170.09,245.77,163.95,245.77,156.38z"/>
		<path class="st1" d="M280.8,211.2c0-7.57,6.13-13.71,13.7-13.71H178.87c7.57,0,13.71,6.14,13.71,13.71
			c0,7.57-6.14,13.71-13.71,13.71H294.5C286.93,224.91,280.8,218.77,280.8,211.2z"/>
	</g>
	<g>
		<path class="st45" d="M330.56,385.17c0-8.88-44.12-16.08-98.56-16.08c-54.42,0-98.55,7.2-98.55,16.08
			c0,8.89,44.13,16.09,98.55,16.09C286.43,401.25,330.56,394.05,330.56,385.17z"/>
		<g>
			<path class="st41" d="M284.63,158.69c-0.14,17.88-23.54,32.21-52.27,31.98c-28.73-0.23-51.91-14.91-51.77-32.79
				c0.15-17.89,23.55-32.21,52.28-31.98C261.59,126.11,284.77,140.8,284.63,158.69z"/>
			<path class="st42" d="M240.09,108.71c0.91,4.14-1.71,8.22-5.84,9.13c-4.13,0.91-8.22-1.7-9.13-5.83
				c-0.91-4.14,1.71-8.22,5.84-9.13C235.09,101.96,239.18,104.57,240.09,108.71z"/>
			<polygon class="st42" points="234.4,126.01 230.64,125.93 230.82,117.95 234.57,118.04 			"/>
			<path class="st43" d="M351.88,186.78c-0.1,18.27-53.57,32.79-119.45,32.45c-65.87-0.35-119.2-15.43-119.11-33.7
				c0.1-18.26,53.58-32.79,119.45-32.44C298.66,153.43,351.98,168.52,351.88,186.78z"/>
			<g>
				<path class="st1" d="M162.12,186.7c0.83,3.38-2.64,7.14-7.77,8.41c-5.13,1.27-9.97-0.45-10.8-3.83
					c-0.84-3.38,2.65-7.15,7.78-8.41C156.45,181.6,161.29,183.31,162.12,186.7z"/>
				<path class="st1" d="M215.61,173.31c0.47,3.45-3.39,6.82-8.62,7.53c-5.24,0.71-9.86-1.51-10.33-4.96
					c-0.47-3.45,3.39-6.82,8.62-7.53C210.52,167.64,215.15,169.85,215.61,173.31z"/>
				<path class="st1" d="M275.33,174.4c-0.1,3.48-4.44,6.2-9.72,6.07c-5.27-0.13-9.49-3.05-9.41-6.53c0.09-3.48,4.44-6.2,9.71-6.07
					C271.2,168,275.4,170.92,275.33,174.4z"/>
				<path class="st1" d="M324.57,192.48c-0.42,3.46-5.01,5.75-10.24,5.12c-5.24-0.63-9.16-3.95-8.74-7.4
					c0.42-3.45,5-5.75,10.24-5.12C321.06,185.71,324.98,189.02,324.57,192.48z"/>
			</g>
			<path class="st44" d="M330.19,383.83l-47.91-175.02l-99.35-0.96l-49.09,175.94c-0.24,0.45-0.39,0.91-0.39,1.38
				c0,8.89,44.13,16.09,98.55,16.09c54.43,0,98.56-7.2,98.56-16.09C330.56,384.72,330.42,384.27,330.19,383.83z"/>
			<path class="st1" d="M282.28,208.81c-0.07,7.77-22.38,13.86-49.81,13.6c-27.43-0.26-49.61-6.78-49.53-14.56
				c0.07-7.77,22.37-13.86,49.81-13.6C260.17,194.51,282.36,201.03,282.28,208.81z"/>
		</g>
	</g>
	<path class="st46" d="M255.29,383.49c0,2.62-9.21,4.74-20.57,4.74c-11.36,0-20.57-2.13-20.57-4.74c0-2.62,9.21-4.75,20.57-4.75
		C246.08,378.74,255.29,380.87,255.29,383.49z"/>
	<g class="st40">
		<path class="st1" d="M335.23,79.75c-1.01,0-1.01,1.57,0,1.57C336.24,81.32,336.24,79.75,335.23,79.75z"/>
		<path class="st1" d="M162.09,92.31c-1.01,0-1.01,1.57,0,1.57C163.1,93.88,163.1,92.31,162.09,92.31z"/>
		<path class="st1" d="M78.92,179.14c-1.01,0-1.01,1.57,0,1.57C79.93,180.71,79.93,179.14,78.92,179.14z"/>
		<path class="st1" d="M152.68,256.03c-1.01,0-1.01,1.57,0,1.57C153.68,257.6,153.69,256.03,152.68,256.03z"/>
		<path class="st1" d="M59.57,226.21c-1.01,0-1.01,1.57,0,1.57C60.58,227.78,60.58,226.21,59.57,226.21z"/>
		<path class="st1" d="M77.35,71.91c-1.01,0-1.01,1.57,0,1.57C78.36,73.48,78.36,71.91,77.35,71.91z"/>
		<path class="st1" d="M253.11,59.35c-1.01,0-1.02,1.57,0,1.57C254.11,60.92,254.12,59.35,253.11,59.35z"/>
		<path class="st1" d="M339.41,217.84c-1.01,0-1.01,1.57,0,1.57C340.42,219.42,340.42,217.84,339.41,217.84z"/>
		<path class="st1" d="M302.27,245.57c-1.01,0-1.01,1.57,0,1.57C303.29,247.14,303.29,245.57,302.27,245.57z"/>
		<path class="st1" d="M352.49,298.4c-1.01,0-1.01,1.57,0,1.57S353.5,298.4,352.49,298.4z"/>
		<path class="st1" d="M409.51,229.35c-1.01,0-1.01,1.57,0,1.57C410.52,230.92,410.52,229.35,409.51,229.35z"/>
		<path class="st1" d="M385.97,115.85c-1.01,0-1.01,1.57,0,1.57C386.98,117.41,386.98,115.85,385.97,115.85z"/>
		<path class="st1" d="M411.6,53.6c-1.01,0-1.01,1.57,0,1.57C412.61,55.17,412.61,53.6,411.6,53.6z"/>
		<path class="st1" d="M71.6,128.4c-1.01,0-1.01,1.57,0,1.57C72.61,129.97,72.61,128.4,71.6,128.4z"/>
		<path class="st1" d="M153.2,301.01c-1.01,0-1.01,1.57,0,1.57C154.21,302.58,154.21,301.01,153.2,301.01z"/>
		<path class="st1" d="M114.92,63.95c-0.44-1.46-1.39-2.4-2.84-2.84c-0.44-0.13-0.44-0.24,0-0.37c1.45-0.44,2.4-1.39,2.84-2.85
			c0.13-0.44,0.24-0.44,0.37,0c0.44,1.45,1.39,2.4,2.84,2.85c0.44,0.13,0.44,0.24,0,0.37c-1.45,0.44-2.4,1.39-2.84,2.84
			C115.16,64.39,115.05,64.39,114.92,63.95z"/>
		<path class="st1" d="M56.03,166.4c-0.44-1.45-1.39-2.4-2.84-2.84c-0.43-0.13-0.43-0.24,0-0.37c1.46-0.44,2.41-1.39,2.84-2.84
			c0.13-0.44,0.24-0.44,0.37,0c0.44,1.45,1.39,2.4,2.85,2.84c0.44,0.13,0.44,0.24,0,0.37c-1.45,0.44-2.4,1.39-2.85,2.84
			C56.27,166.84,56.16,166.84,56.03,166.4z"/>
		<path class="st1" d="M382.43,177.98c-0.44-1.45-1.39-2.4-2.84-2.84c-0.44-0.13-0.44-0.24,0-0.37c1.45-0.44,2.4-1.39,2.84-2.85
			c0.13-0.44,0.24-0.44,0.37,0c0.44,1.45,1.39,2.4,2.84,2.85c0.44,0.13,0.44,0.24,0,0.37c-1.46,0.44-2.4,1.39-2.84,2.84
			C382.67,178.42,382.55,178.42,382.43,177.98z"/>
		<path class="st1" d="M305.45,87.71c-0.44-1.45-1.39-2.4-2.84-2.84c-0.44-0.13-0.44-0.24,0-0.37c1.45-0.44,2.4-1.39,2.84-2.84
			c0.13-0.44,0.24-0.44,0.37,0c0.44,1.45,1.39,2.4,2.84,2.84c0.44,0.13,0.44,0.24,0,0.37c-1.45,0.44-2.4,1.39-2.84,2.84
			C305.68,88.14,305.57,88.14,305.45,87.71z"/>
		<path class="st1" d="M302.85,285.06c-0.44-1.46-1.39-2.4-2.84-2.84c-0.44-0.13-0.44-0.24,0-0.37c1.45-0.44,2.4-1.39,2.84-2.85
			c0.13-0.44,0.24-0.44,0.37,0c0.44,1.46,1.39,2.4,2.85,2.85c0.43,0.13,0.43,0.24,0,0.37c-1.46,0.44-2.4,1.39-2.85,2.84
			C303.09,285.5,302.98,285.5,302.85,285.06z"/>
		<path class="st1" d="M102.35,251.5c-0.23-0.75-0.71-1.23-1.46-1.46c-0.22-0.07-0.22-0.13,0-0.19c0.75-0.23,1.23-0.71,1.46-1.46
			c0.07-0.23,0.12-0.23,0.19,0c0.22,0.75,0.71,1.23,1.46,1.46c0.22,0.06,0.22,0.12,0,0.19c-0.75,0.23-1.24,0.71-1.46,1.46
			C102.47,251.73,102.42,251.73,102.35,251.5z"/>
		<path class="st1" d="M179.8,59.12c-0.23-0.75-0.72-1.23-1.46-1.46c-0.22-0.07-0.22-0.13,0-0.19c0.75-0.23,1.24-0.71,1.46-1.46
			c0.07-0.23,0.12-0.23,0.19,0c0.22,0.75,0.71,1.23,1.46,1.46c0.22,0.06,0.22,0.12,0,0.19c-0.75,0.23-1.24,0.71-1.46,1.46
			C179.92,59.35,179.86,59.35,179.8,59.12z"/>
		<path class="st1" d="M374.46,82.88c-0.22-0.75-0.71-1.23-1.46-1.46c-0.23-0.07-0.23-0.12,0-0.19c0.75-0.23,1.23-0.71,1.46-1.46
			c0.07-0.22,0.12-0.22,0.19,0c0.22,0.75,0.71,1.24,1.46,1.46c0.22,0.07,0.22,0.12,0,0.19c-0.75,0.23-1.24,0.71-1.46,1.46
			C374.58,83.1,374.53,83.1,374.46,82.88z"/>
		<path class="st1" d="M398.52,295.78c-0.23-0.74-0.71-1.23-1.46-1.46c-0.22-0.07-0.22-0.12,0-0.19c0.75-0.23,1.23-0.71,1.46-1.46
			c0.07-0.22,0.12-0.22,0.19,0c0.23,0.75,0.71,1.24,1.46,1.46c0.22,0.07,0.22,0.12,0,0.19c-0.75,0.23-1.24,0.72-1.46,1.46
			C398.64,296.01,398.59,296.01,398.52,295.78z"/>
		<path class="st1" d="M111.66,118.97c-0.23-0.75-0.71-1.23-1.46-1.46c-0.23-0.07-0.23-0.12,0-0.19c0.75-0.23,1.23-0.71,1.46-1.46
			c0.07-0.22,0.12-0.22,0.19,0c0.22,0.75,0.71,1.24,1.46,1.46c0.22,0.07,0.22,0.13,0,0.19c-0.75,0.23-1.24,0.71-1.46,1.46
			C111.78,119.2,111.72,119.2,111.66,118.97z"/>
	</g>
	<path class="st1" d="M259.32,320.75c-0.52-0.96-1.72-1.32-2.68-0.8l-19.94,10.77v-2.69c2.72-0.85,4.7-3.35,4.7-6.34
		c0-3.69-2.99-6.68-6.68-6.68c-3.69,0-6.68,2.99-6.68,6.68c0,2.99,1.98,5.5,4.7,6.34v2.69l-19.94-10.77
		c-0.95-0.52-2.16-0.16-2.68,0.8c-0.52,0.96-0.16,2.16,0.8,2.68l21.82,11.79v15.89l-10.52,29.74c-0.36,1.03,0.18,2.16,1.21,2.52
		c0.22,0.08,0.44,0.12,0.66,0.12c0.81,0,1.58-0.51,1.87-1.32l8.81-24.91l9.22,24.94c0.29,0.8,1.05,1.29,1.85,1.29
		c0.23,0,0.46-0.04,0.69-0.12c1.02-0.38,1.55-1.52,1.17-2.54l-11-29.73v-15.88l21.82-11.79
		C259.48,322.91,259.84,321.71,259.32,320.75z M234.72,325.96c-2.32,0-4.21-1.72-4.48-3.92h8.96
		C238.93,324.24,237.04,325.96,234.72,325.96z"/>
	
		<linearGradient id="SVGID_1_" gradientUnits="userSpaceOnUse" x1="187.8913" y1="209.7804" x2="187.8913" y2="329.5589" gradientTransform="matrix(0.9994 0.0358 -0.0358 0.9994 63.4818 52.3802)">
		<stop  offset="0" style="stop-color:#FFFFFF"/>
		<stop  offset="1" style="stop-color:#FFFFFF;stop-opacity:0.3"/>
	</linearGradient>
	<path style="opacity:0.5;fill:url(#SVGID_1_);" d="M480,367.01c-46.9-5.69-99.8-9.84-155.85-11.84
		C179.84,350,55.26,360.48,0,379.89c0,0,67.11-130.73,95.34-115.33c28.23,15.4,56.16,89.56,74.32,84.81
		c18.16-4.75,28.52-59.54,53.69-59.24c25.17,0.3,27.53,53.15,46.69,53.24c19.16,0.09,65.55-72.98,102.02-69.99
		C408.54,276.38,473.2,359.87,480,367.01z"/>
</g>
</svg>
