<?xml version="1.0" standalone="no"?>
<!DOCTYPE svg PUBLIC "-//W3C//DTD SVG 1.1//EN" "http://www.w3.org/Graphics/SVG/1.1/DTD/svg11.dtd" >
<svg xmlns="http://www.w3.org/2000/svg" xmlns:xlink="http://www.w3.org/1999/xlink" version="1.1">
<metadata>
Created by FontForge 20170731 at Fri Jan 26 17:34:45 2018
 By Aleksey,,,
Copyright 2018 Adobe Systems Incorporated. All rights reserved.
</metadata>
<defs>
<font id="SVN-ProductSansBoldItalic" horiz-adv-x="535" >
  <font-face 
    font-family="SVN-Product Sans"
    font-weight="700"
    font-style="italic"
    font-stretch="normal"
    units-per-em="1000"
    panose-1="2 11 7 3 3 5 2 9 2 3"
    ascent="800"
    descent="-200"
    x-height="490"
    cap-height="716"
    bbox="-233 -253 3284 1057"
    underline-thickness="50"
    underline-position="-175"
    slope="-10"
    unicode-range="U+000D-2215"
  />
<missing-glyph horiz-adv-x="570" 
d="M72 716h426v-716h-426v716zM136 60h298v596h-298v-596z" />
    <glyph glyph-name="f_i" unicode="fi" horiz-adv-x="623" 
d="M358 724q32 0 55 -9l-29 -122q-13 7 -33 7q-67 0 -79 -70l-7 -40h315l-86 -490h-131l66 378h-184l-66 -378h-131l66 378h-88l20 112h88l8 48q16 94 72 140t144 46zM540 573q-31 0 -53 21.5t-22 53.5t22 54t53 22q32 0 54.5 -22t22.5 -54q0 -31 -22.5 -53t-54.5 -22z" />
    <glyph glyph-name="f_l" unicode="fl" horiz-adv-x="615" 
d="M363 0l106 599h-115q-33 0 -55 -18.5t-28 -55.5l-6 -35h114l-19 -112h-115l-66 -378h-131l66 378h-88l20 112h88l7 36q19 97 73.5 145.5t159.5 48.5h247l-127 -720h-131z" />
    <glyph glyph-name="f_b" unicode="fb" horiz-adv-x="970" 
d="M655 -16q-54 0 -92.5 21.5t-58.5 53.5h-8l-10 -59h-123l106 599h-115q-33 0 -55 -18.5t-28 -55.5l-6 -35h114l-19 -112h-115l-66 -378h-131l66 378h-88l20 112h88l7 36q19 97 73.5 145.5t159.5 48.5h247l-39 -219l-20 -70h8q20 28 58 51.5t97 23.5q42 0 78.5 -16
t64 -45.5t43.5 -72t16 -94.5q0 -62 -21.5 -115.5t-58.5 -93.5t-86.5 -62.5t-105.5 -22.5zM643 105q31 0 59 12.5t48.5 34t32.5 50t12 61.5q0 55 -30.5 88.5t-84.5 33.5q-36 0 -64.5 -13.5t-48.5 -36t-30.5 -52t-10.5 -60.5q0 -29 9.5 -51t25.5 -37t37 -22.5t45 -7.5z" />
    <glyph glyph-name="f_f" unicode="ff" horiz-adv-x="712" 
d="M673 724q26 0 50 -7t41 -18l-53 -112q-9 6 -20 9.5t-25 3.5q-67 0 -79 -70l-7 -40h122l-20 -112h-122l-66 -378h-131l66 378h-184l-66 -378h-131l66 378h-88l20 112h88l8 48q16 94 72 140t144 46q32 0 55 -9l-29 -122q-13 7 -33 7q-67 0 -79 -70l-7 -40h184l8 48
q16 94 72 140t144 46z" />
    <glyph glyph-name="f_f_b" unicode="ffb" horiz-adv-x="1285" 
d="M970 -16q-54 0 -92.5 21.5t-58.5 53.5h-8l-10 -59h-123l106 599h-115q-34 0 -55.5 -18.5t-27.5 -55.5l-6 -35h114l-19 -112h-115l-66 -378h-131l66 378h-184l-66 -378h-131l66 378h-88l20 112h88l8 48q16 94 72 140t144 46q32 0 55 -9l-29 -122q-13 7 -33 7
q-67 0 -79 -70l-7 -40h184l7 36q19 97 73.5 145.5t159.5 48.5h247l-39 -219l-20 -70h8q20 28 58 51.5t97 23.5q42 0 78.5 -16t64 -45.5t43.5 -72t16 -94.5q0 -62 -21.5 -115.5t-58.5 -93.5t-86.5 -62.5t-105.5 -22.5zM958 105q31 0 59 12.5t48.5 34t32.5 50t12 61.5
q0 55 -30.5 88.5t-84.5 33.5q-36 0 -64.5 -13.5t-48.5 -36t-30.5 -52t-10.5 -60.5q0 -29 9.5 -51t25.5 -37t37 -22.5t45 -7.5z" />
    <glyph glyph-name="f_f_h" unicode="ffh" horiz-adv-x="1260" 
d="M900 515l-25 -89h8q27 38 69 59t93 21q40 0 69 -12.5t48.5 -33.5t29 -49t9.5 -59q0 -23 -6 -59l-52 -293h-131l50 281q3 18 3 29q0 32 -19 53.5t-56 21.5q-30 0 -53.5 -11.5t-41 -31t-28.5 -46t-16 -57.5l-42 -239h-131l106 599h-115q-33 0 -54.5 -18.5t-28.5 -55.5
l-6 -35h114l-19 -112h-115l-66 -378h-131l66 378h-184l-66 -378h-131l66 378h-88l20 112h88l8 48q16 94 72 140t144 46q32 0 55 -9l-29 -122q-13 7 -33 7q-67 0 -79 -70l-7 -40h184l7 36q19 97 73.5 145.5t159.5 48.5h247z" />
    <glyph glyph-name="f_f_i" unicode="ffi" horiz-adv-x="937" 
d="M673 724q32 0 55 -9l-29 -122q-13 7 -33 7q-67 0 -79 -70l-7 -40h315l-86 -490h-131l66 378h-184l-66 -378h-131l66 378h-184l-66 -378h-131l66 378h-88l20 112h88l8 48q16 94 72 140t144 46q32 0 55 -9l-29 -121q-13 7 -33 7q-32 0 -52.5 -18.5t-26.5 -52.5l-7 -40h184
l8 48q16 94 72 140t144 46zM856 573q-31 0 -53 21.5t-22 53.5t22 54t53 22q32 0 54.5 -22t22.5 -54q0 -31 -22.5 -53t-54.5 -22z" />
    <glyph glyph-name="f_f_j" unicode="ffj" horiz-adv-x="937" 
d="M673 724q32 0 55 -9l-29 -122q-15 7 -33 7q-67 0 -79 -70l-7 -40h315l-96 -544q-9 -50 -25 -83t-39 -52.5t-52.5 -28t-65.5 -8.5q-20 0 -43 3.5t-39 10.5l47 116q15 -9 33 -9q22 0 35.5 12.5t18.5 41.5l75 429h-184l-66 -378h-131l66 378h-184l-66 -378h-131l66 378h-88
l20 112h88l8 48q16 94 72 140t144 46q32 0 55 -9l-29 -121q-13 7 -33 7q-32 0 -52.5 -18.5t-26.5 -52.5l-7 -40h184l8 48q16 94 72 140t144 46zM855 573q-31 0 -53 21.5t-22 53.5t22 54t53 22q32 0 54.5 -22t22.5 -54q0 -31 -22.5 -53t-54.5 -22z" />
    <glyph glyph-name="f_f_k" unicode="ffk" horiz-adv-x="1215" 
d="M867 330h8l185 160h166l-1 -8l-216 -180l148 -294l-2 -8h-148l-102 216l-68 -57l-28 -159h-131l106 599h-115q-33 0 -55 -18.5t-28 -55.5l-6 -35h114l-19 -112h-115l-66 -378h-131l66 378h-184l-66 -378h-131l66 378h-88l20 112h88l8 48q16 94 72 140t144 46q32 0 55 -9
l-29 -122q-13 7 -33 7q-67 0 -79 -70l-7 -40h184l7 36q19 97 73.5 145.5t159.5 48.5h247z" />
    <glyph glyph-name="f_f_l" unicode="ffl" horiz-adv-x="929" 
d="M678 0l106 599h-115q-33 0 -55 -18.5t-28 -55.5l-6 -35h114l-19 -112h-115l-66 -378h-131l66 378h-184l-66 -378h-131l66 378h-88l20 112h88l8 48q16 94 72 140t144 46q32 0 55 -9l-29 -122q-13 7 -33 7q-67 0 -79 -70l-7 -40h184l7 36q19 97 73.5 145.5t159.5 48.5h247
l-127 -720h-131z" />
    <glyph glyph-name="f_f_t" unicode="fft" horiz-adv-x="1032" 
d="M851 -8q-64 0 -105 34t-41 104q0 11 1 23.5t4 29.5l34 195h-184l-66 -378h-131l66 378h-184l-66 -378h-131l66 378h-88l20 112h88l8 48q16 94 72 140t144 46q32 0 55 -9l-29 -121q-13 7 -33 7q-32 0 -52.5 -18.5t-26.5 -52.5l-7 -40h184l8 48q16 94 72 140t144 46
q32 0 55 -9l-29 -122q-13 7 -33 7q-67 0 -79 -70l-7 -40h184l27 150h131l-27 -150h120l-19 -112h-121l-33 -189q-1 -5 -1.5 -8t-0.5 -5v-10q0 -21 10.5 -35.5t36.5 -14.5q16 0 26.5 3.5t20.5 9.5l20 -119q-20 -9 -45 -13.5t-58 -4.5z" />
    <glyph glyph-name="f_h" unicode="fh" horiz-adv-x="946" 
d="M585 515l-25 -89h8q27 38 69 59t93 21q40 0 69 -12.5t48.5 -33.5t29 -49t9.5 -59q0 -23 -6 -59l-52 -293h-131l50 281q3 18 3 29q0 32 -19 53.5t-56 21.5q-30 0 -53.5 -11.5t-41 -31t-28.5 -46t-16 -57.5l-42 -239h-131l106 599h-115q-33 0 -54.5 -18.5t-28.5 -55.5
l-6 -35h114l-19 -112h-115l-66 -378h-131l66 378h-88l20 112h88l7 36q19 97 73.5 145.5t159.5 48.5h247z" />
    <glyph glyph-name="f_j" unicode="fj" horiz-adv-x="623" 
d="M179 0h-131l66 378h-88l20 112h88l8 48q16 94 72 140t144 46q32 0 55 -9l-29 -122q-13 7 -33 7q-67 0 -79 -70l-7 -40h315l-95 -544q-9 -50 -25 -83t-39 -52.5t-52.5 -28t-65.5 -8.5q-20 0 -43 3.5t-40 10.5l47 116q15 -9 34 -9q22 0 35 12.5t18 41.5l75 429h-184z
M540 573q-31 0 -53 21.5t-22 53.5t22 54t53 22q32 0 54.5 -22t22.5 -54q0 -31 -22.5 -53t-54.5 -22z" />
    <glyph glyph-name="f_k" unicode="fk" horiz-adv-x="901" 
d="M552 330h8l185 160h167l-2 -8l-216 -180l148 -294l-2 -8h-148l-102 216l-68 -57l-28 -159h-131l106 599h-115q-33 0 -55 -18.5t-28 -55.5l-6 -35h114l-19 -112h-115l-66 -378h-131l66 378h-88l20 112h88l7 36q19 97 73.5 145.5t159.5 48.5h247z" />
    <glyph glyph-name="f_t" unicode="ft" horiz-adv-x="718" 
d="M358 724q32 0 55 -9l-29 -121q-13 7 -33 7q-32 0 -52.5 -18.5t-26.5 -52.5l-7 -40h184l27 150h131l-27 -150h120l-19 -112h-121l-33 -189q-1 -5 -1.5 -8t-0.5 -5v-10q0 -21 10.5 -35.5t36.5 -14.5q16 0 26.5 3.5t20.5 9.5l20 -119q-20 -9 -45 -13.5t-58 -4.5
q-64 0 -105 34t-41 104q0 11 1 23.5t4 29.5l34 195h-184l-66 -378h-131l66 378h-88l20 112h88l8 48q16 94 72 140t144 46z" />
    <glyph glyph-name="r_f" unicode="rf" horiz-adv-x="809" 
d="M190 422h8q24 37 64 59.5t94 22.5q17 0 27 -1.5t18 -3.5l-23 -130q-9 5 -22 8t-33 3q-63 0 -105 -39t-53 -105l-42 -236h-130l86 490h123zM770 724q26 0 50 -7t41 -18l-53 -112q-9 6 -20 9.5t-25 3.5q-67 0 -79 -70l-7 -40h122l-20 -112h-122l-66 -378h-131l66 378h-88
l20 112h88l8 48q16 94 72 140t144 46z" />
    <glyph glyph-name="r_f_f" unicode="rff" horiz-adv-x="1125" 
d="M1085 724q26 0 50 -7t41 -18l-53 -112q-9 6 -20 9.5t-25 3.5q-67 0 -79 -70l-7 -40h122l-20 -112h-122l-66 -378h-131l66 378h-184l-66 -378h-131l66 378h-88l20 112h88l8 48q16 94 72 140t144 46q32 0 55 -9l-29 -122q-13 7 -33 7q-67 0 -79 -70l-7 -40h184l8 48
q16 94 72 140t144 46zM190 422h8q24 37 64 59.5t94 22.5q17 0 27 -1.5t18 -3.5l-23 -130q-9 5 -22 8t-33 3q-63 0 -105 -39t-53 -105l-42 -236h-130l86 490h123z" />
    <glyph glyph-name="r_t" unicode="rt" horiz-adv-x="813" 
d="M190 422h8q24 37 64 59.5t94 22.5q17 0 27 -1.5t18 -3.5l-23 -130q-9 5 -22 8t-33 3q-63 0 -105 -39t-53 -105l-42 -236h-130l86 490h123zM632 -8q-64 0 -105 34t-41 104q0 11 1 23.5t4 29.5l34 195h-86l20 112h86l27 150h131l-27 -150h120l-19 -112h-121l-33 -189
q-1 -5 -1.5 -8t-0.5 -5v-10q0 -21 10.5 -35.5t36.5 -14.5q16 0 26.5 3.5t20.5 9.5l20 -119q-20 -9 -45 -13.5t-58 -4.5z" />
    <glyph glyph-name="t_f" unicode="tf" horiz-adv-x="712" 
d="M211 189q-1 -5 -1.5 -8t-0.5 -5v-10q0 -21 10.5 -35.5t36.5 -14.5q14 0 25 3t22 8l-12 -123q-15 -5 -33 -8.5t-38 -3.5q-64 0 -105 34t-41 104q0 11 1 23.5t4 29.5l34 195h-86l20 112h86l27 150h131l-27 -150h185l8 48q16 94 72 140t144 46q26 0 50 -7t41 -18l-53 -112
q-9 6 -20 9.5t-25 3.5q-67 0 -79 -70l-7 -40h122l-20 -112h-122l-66 -378h-131l66 378h-185z" />
    <glyph glyph-name="t_t" unicode="tt" horiz-adv-x="720" 
d="M539 -8q-64 0 -105 34t-41 104q0 11 1 23.5t4 29.5l34 195h-188l-33 -189q-1 -5 -1.5 -8t-0.5 -5v-10q0 -21 10.5 -35.5t36.5 -14.5q14 0 25 3t22 8l-12 -123q-15 -5 -33 -8.5t-38 -3.5q-64 0 -105 34t-41 104q0 11 1 23.5t4 29.5l34 195h-86l20 112h86l27 150h131
l-27 -150h188l27 150h131l-27 -150h120l-19 -112h-121l-33 -189q-1 -5 -1.5 -8t-0.5 -5v-10q0 -21 10.5 -35.5t36.5 -14.5q16 0 26.5 3.5t20.5 9.5l20 -119q-20 -9 -45 -13.5t-58 -4.5z" />
    <glyph glyph-name=".notdef" horiz-adv-x="570" 
d="M72 716h426v-716h-426v716zM136 60h298v596h-298v-596z" />
    <glyph glyph-name=".null" horiz-adv-x="0" 
 />
    <glyph glyph-name="uni000D" unicode="&#xd;" horiz-adv-x="0" 
 />
    <glyph glyph-name="NULL" horiz-adv-x="0" 
 />
    <glyph glyph-name="NULL" horiz-adv-x="0" 
 />
    <glyph glyph-name="space" unicode=" " horiz-adv-x="220" 
 />
    <glyph glyph-name="exclam" unicode="!" horiz-adv-x="269" 
d="M86 -6q-36 0 -61 25.5t-25 61.5t25 61t61 25t61.5 -25t25.5 -61t-25.5 -61.5t-61.5 -25.5zM94 510l36 206h135l-36 -206l-60 -264h-109z" />
    <glyph glyph-name="quotedbl" unicode="&#x22;" horiz-adv-x="379" 
d="M239 490l40 226h119l-40 -226h-119zM67 490l40 226h119l-40 -226h-119z" />
    <glyph glyph-name="numbersign" unicode="#" horiz-adv-x="657" 
d="M100 0l34 192h-116l20 102h114l18 105h-117l19 102h115l33 183h111l-33 -183h112l33 183h110l-32 -183h115l-18 -102h-115l-18 -105h117l-18 -102h-117l-33 -192h-111l34 192h-112l-34 -192h-111zM260 292h116l19 109h-116z" />
    <glyph glyph-name="dollar" unicode="$" horiz-adv-x="559" 
d="M178 -11q-33 7 -63 22.5t-54.5 40t-41.5 56.5t-23 72l117 47q7 -38 28.5 -69.5t58.5 -44.5l33 191q-32 14 -60 32.5t-49 42.5t-33 54t-12 66q0 40 16 75t45.5 61t71 42.5t91.5 20.5l15 86h89l-16 -90q33 -8 58.5 -23t44 -34t31 -40.5t18.5 -43.5l-118 -45q-8 22 -21 39
t-34 27l-32 -182q78 -35 118 -79t40 -111q0 -48 -17.5 -86t-48 -65.5t-72.5 -43.5t-91 -21l-15 -86h-89zM203 504q0 -41 53 -73l26 149q-34 -6 -56.5 -24.5t-22.5 -51.5zM364 193q0 25 -12 42t-36 31l-28 -157q34 7 55 27.5t21 56.5z" />
    <glyph glyph-name="percent" unicode="%" horiz-adv-x="841" 
d="M105 39l561 662l67 -58l-561 -662zM221 358q-36 0 -65.5 11.5t-51 31.5t-33 47.5t-11.5 59.5q0 38 14.5 73t41 61.5t64 42t82.5 15.5q34 0 62.5 -11t49.5 -31.5t32.5 -48t11.5 -60.5q0 -40 -15.5 -75t-42 -60.5t-62.5 -40.5t-77 -15zM230 456q34 0 56.5 24.5t22.5 59.5
q0 28 -16.5 45t-41.5 17q-37 0 -59.5 -24t-22.5 -59q0 -29 18 -46t43 -17zM582 -16q-36 0 -66 11.5t-51.5 31.5t-33 47.5t-11.5 59.5q0 38 14.5 73t41.5 61.5t64.5 42t82.5 15.5q34 0 62.5 -11t49.5 -31.5t32.5 -48t11.5 -60.5q0 -40 -15.5 -75t-42 -60.5t-62.5 -40.5
t-77 -15zM590 82q34 0 57 24.5t23 59.5q0 28 -17 45t-42 17q-36 0 -59 -24t-23 -59q0 -29 18 -46t43 -17z" />
    <glyph glyph-name="ampersand" unicode="&#x26;" horiz-adv-x="647" 
d="M500 138l55 -89l-107 -65l-36 57q-38 -30 -80.5 -43.5t-97.5 -13.5q-47 0 -88 15.5t-71.5 44t-48.5 69.5t-18 91q0 78 39 138.5t114 102.5q-11 23 -18 46t-7 48q0 39 14 74t41 61.5t65 42t86 15.5q73 0 113.5 -35.5t58.5 -87.5l-117 -51q-5 24 -23.5 41.5t-47.5 17.5
t-48 -18.5t-19 -45.5q0 -17 5.5 -31t16.5 -31l162 -262l79 106l82 -62zM259 102q54 0 95 31l-137 219q-38 -23 -59.5 -54.5t-21.5 -74.5q0 -28 10 -50.5t27 -38t39 -24t47 -8.5z" />
    <glyph glyph-name="quotesingle" unicode="'" horiz-adv-x="207" 
d="M67 490l40 226h119l-40 -226h-119z" />
    <glyph glyph-name="parenleft" unicode="(" horiz-adv-x="359" 
d="M404 706q-52 -51 -93 -104t-69 -109t-42.5 -117t-14.5 -128q0 -50 6 -93.5t16.5 -81.5t25.5 -72.5t34 -67.5l-98 -69q-22 33 -43 73.5t-37 88.5t-25.5 102.5t-9.5 116.5q0 156 69.5 291.5t196.5 243.5z" />
    <glyph glyph-name="parenright" unicode=")" horiz-adv-x="359" 
d="M-45 -62q104 102 161 212.5t57 245.5q0 100 -22 175t-59 140l97 69q22 -33 43 -73.5t37 -88.5t25.5 -103t9.5 -116q0 -156 -69 -291.5t-197 -243.5z" />
    <glyph glyph-name="asterisk" unicode="*" horiz-adv-x="464" 
d="M116 638l102 -39l9 3l20 114h95l-21 -114l8 -3l104 35l26 -86l-116 -43l-5 -9l56 -97l-85 -52l-56 100h-8l-88 -100l-70 59l90 99l-2 9l-94 36z" />
    <glyph glyph-name="plus" unicode="+" horiz-adv-x="569" 
d="M337 329h170l-20 -116h-171l-30 -170h-116l30 170h-170l20 116h171l30 170h116z" />
    <glyph glyph-name="comma" unicode="," horiz-adv-x="271" 
d="M-31 -88l75 92q-16 11 -29 28.5t-13 48.5q0 18 7 33.5t19 27.5t27.5 18.5t33.5 6.5q36 0 61.5 -25t25.5 -61q0 -18 -8.5 -35t-25.5 -37l-118 -142z" />
    <glyph glyph-name="hyphen" unicode="-" horiz-adv-x="451" 
d="M57 368h339l-21 -116h-338z" />
    <glyph glyph-name="period" unicode="." horiz-adv-x="269" 
d="M86 -6q-36 0 -61.5 25.5t-25.5 61.5t25.5 61t61.5 25t61.5 -25t25.5 -61t-25.5 -61.5t-61.5 -25.5z" />
    <glyph glyph-name="slash" unicode="/" horiz-adv-x="480" 
d="M-38 0l423 716h132l-424 -716h-131z" />
    <glyph glyph-name="zero" unicode="0" horiz-adv-x="662" 
d="M279 -16q-54 0 -98.5 19.5t-77 57.5t-50.5 94t-18 129q0 84 25.5 159.5t71 132.5t109 90.5t140.5 33.5q53 0 98 -19.5t77.5 -57.5t50.5 -94t18 -129q0 -84 -25.5 -159.5t-71.5 -132.5t-109.5 -90.5t-139.5 -33.5zM292 107q46 0 83 26t63 67t40 90.5t14 96.5q0 94 -34 142
t-91 48q-46 0 -83 -26t-62.5 -67t-39.5 -90.5t-14 -96.5q0 -94 34.5 -142t89.5 -48z" />
    <glyph glyph-name="one" unicode="1" horiz-adv-x="424" 
d="M145 0l93 529l-116 -46l-42 107l218 94h99l-121 -684h-131z" />
    <glyph glyph-name="two" unicode="2" horiz-adv-x="545" 
d="M-15 0l20 119q34 29 66 56t61 52q13 11 25.5 21.5t25.5 21.5t25 21t23 20q22 19 40 34.5t28 24.5q19 17 34.5 31.5t27 29t17.5 30.5t6 36q0 33 -25 56.5t-64 23.5q-45 0 -71 -25t-39 -60l-116 50q12 30 31.5 58.5t48.5 50.5t68.5 35.5t91.5 13.5q46 0 85 -13.5t67 -37.5
t43.5 -57.5t15.5 -73.5q0 -36 -10.5 -67t-29.5 -59t-46 -54.5t-60 -54.5q-2 -1 -4.5 -3.5t-7.5 -6.5q-10 -9 -23.5 -21t-30.5 -26q-8 -7 -17 -14t-17 -15q-20 -17 -42.5 -36t-47.5 -40l2 -6h273l-20 -115h-454z" />
    <glyph glyph-name="three" unicode="3" horiz-adv-x="560" 
d="M228 -16q-42 0 -80 12t-68 34.5t-50 56t-27 77.5l128 48q5 -49 35 -74.5t76 -25.5q25 0 46.5 7t38 20t26 31.5t9.5 42.5q0 42 -29 63t-80 21h-59l21 119h54q51 0 86 22.5t35 70.5q0 32 -23.5 51t-58.5 19q-41 0 -65.5 -24t-38.5 -54l-116 52q12 28 32 55t48.5 47t67 32.5
t89.5 12.5q44 0 81 -13t63.5 -36t41.5 -53.5t15 -66.5q0 -32 -9 -58t-25 -46.5t-36.5 -35.5t-44.5 -25l-1 -8q34 -18 59.5 -53.5t25.5 -86.5q0 -54 -20 -97.5t-56 -74t-85 -46.5t-106 -16z" />
    <glyph glyph-name="four" unicode="4" horiz-adv-x="616" 
d="M292 0l22 126h-315l19 109l378 449h147l-76 -436h85l-22 -122h-85l-23 -126h-130zM378 489h-8l-201 -241h167z" />
    <glyph glyph-name="five" unicode="5" horiz-adv-x="574" 
d="M233 -16q-39 0 -76.5 11.5t-68.5 34.5t-52.5 57.5t-27.5 81.5l125 46q5 -49 33.5 -79.5t76.5 -30.5q25 0 49 8.5t42 25t29 39.5t11 53q0 43 -25.5 71.5t-70.5 28.5q-31 0 -57.5 -13t-46.5 -33l-119 51l101 348h386l-20 -115h-277l-54 -160l7 -3q21 17 49.5 29.5
t66.5 12.5q40 0 75 -14t61 -40t41 -63.5t15 -85.5q0 -54 -19 -101.5t-54.5 -83t-86 -56t-113.5 -20.5z" />
    <glyph glyph-name="six" unicode="6" horiz-adv-x="568" 
d="M335 440q32 0 63 -14.5t55.5 -40.5t39.5 -63.5t15 -82.5q0 -54 -19.5 -100.5t-55 -81t-86 -54t-112.5 -19.5q-49 0 -89.5 17t-70 46t-45.5 68t-16 83q0 40 9.5 73t27 63.5t42 60.5t54.5 63l218 246l89 -70l-174 -198l5 -6q21 10 50 10zM249 105q27 0 51 9t41 25.5
t27 39.5t10 51q0 45 -29 72.5t-77 27.5q-28 0 -51.5 -9.5t-41 -27t-27 -41t-9.5 -50.5q0 -45 30.5 -71t75.5 -26z" />
    <glyph glyph-name="seven" unicode="7" horiz-adv-x="546" 
d="M21 54l369 500l-2 6h-311l23 124h464l-22 -129l-424 -571z" />
    <glyph glyph-name="eight" unicode="8" horiz-adv-x="576" 
d="M233 -16q-52 0 -93.5 15.5t-71 41.5t-45 60t-15.5 72q0 63 38 112t101 74l1 8q-24 18 -42 47.5t-18 71.5q0 46 20 85.5t54.5 68t80.5 44.5t99 16q44 0 81 -13t63.5 -35.5t41 -54t14.5 -67.5q0 -60 -31 -101.5t-79 -65.5l-1 -8q33 -20 56 -54t23 -88q0 -53 -21.5 -95
t-58.5 -72t-88 -46t-109 -16zM306 414q48 0 79 26t31 66q0 34 -24 55.5t-66 21.5q-48 0 -80 -24.5t-32 -69.5q0 -35 26 -55t66 -20zM244 105q27 0 51 7t42.5 21.5t29.5 35.5t11 48q0 35 -28 58.5t-73 23.5q-26 0 -50 -7.5t-42.5 -21.5t-30 -34.5t-11.5 -46.5
q0 -39 27.5 -61.5t73.5 -22.5z" />
    <glyph glyph-name="nine" unicode="9" horiz-adv-x="568" 
d="M233 245q-30 0 -61.5 14t-57 40.5t-41.5 63.5t-16 82q0 54 19.5 100.5t55 81t86 54t112.5 19.5q49 0 89.5 -16.5t70 -46t45.5 -69.5t16 -86q0 -38 -9.5 -70.5t-27 -62.5t-42 -60t-53.5 -63l-219 -246l-89 70l174 198l-5 6q-20 -9 -47 -9zM317 580q-28 0 -51.5 -9.5
t-41 -26t-27.5 -39.5t-10 -51q0 -45 29.5 -72t77.5 -27q57 0 92.5 35.5t35.5 88.5q0 22 -8.5 41t-22.5 32t-33.5 20.5t-40.5 7.5z" />
    <glyph glyph-name="colon" unicode=":" horiz-adv-x="269" 
d="M86 -6q-36 0 -61.5 25.5t-25.5 61.5t25.5 61t61.5 25t61.5 -25t25.5 -61t-25.5 -61.5t-61.5 -25.5zM145 329q-36 0 -61.5 25.5t-25.5 61.5t25.5 61.5t61.5 25.5t61.5 -25.5t25.5 -61.5t-25.5 -61.5t-61.5 -25.5z" />
    <glyph glyph-name="semicolon" unicode=";" horiz-adv-x="271" 
d="M141 329q-36 0 -61.5 25.5t-25.5 61.5t25.5 61.5t61.5 25.5t61.5 -25.5t25.5 -61.5t-25.5 -61.5t-61.5 -25.5zM-31 -82l75 92q-16 11 -29 28.5t-13 48.5q0 18 7 34t19 27.5t27.5 18.5t33.5 7q36 0 61.5 -25.5t25.5 -61.5q0 -18 -8.5 -35t-25.5 -37l-118 -141z" />
    <glyph glyph-name="less" unicode="&#x3c;" horiz-adv-x="531" 
d="M31 222l18 104l449 188l-23 -133l-277 -109l-2 -8l239 -110l-22 -126z" />
    <glyph glyph-name="equal" unicode="=" horiz-adv-x="581" 
d="M77 477h468l-20 -116h-469zM41 277h469l-21 -116h-469z" />
    <glyph glyph-name="greater" unicode="&#x3e;" horiz-adv-x="531" 
d="M469 320l-19 -104l-449 -188l24 133l277 109l1 8l-238 110l22 126z" />
    <glyph glyph-name="question" unicode="?" horiz-adv-x="514" 
d="M167 246l6 33q4 25 11 45t20 38.5t34.5 37.5t54.5 42q29 20 52 43.5t23 54.5t-22 51t-59 20q-42 0 -69 -25t-39 -59l-106 48q10 31 30.5 59.5t49.5 50t67 34.5t83 13q43 0 79 -13t62.5 -35.5t41 -54t14.5 -68.5q0 -30 -9.5 -55.5t-26 -48t-38 -43t-46.5 -39.5
q-20 -16 -33 -28.5t-22 -24.5t-14.5 -26t-9.5 -33l-3 -17h-131zM202 -6q-36 0 -61.5 25.5t-25.5 61.5t25.5 61t61.5 25t61 -25t25 -61t-25 -61.5t-61 -25.5z" />
    <glyph glyph-name="at" unicode="@" horiz-adv-x="877" 
d="M488 690q69 0 132.5 -22.5t111.5 -64.5t76.5 -102.5t28.5 -136.5q0 -53 -13.5 -101.5t-38.5 -85.5t-61.5 -59t-81.5 -22q-42 0 -70.5 19t-38.5 53q-25 -36 -62.5 -54t-79.5 -18q-35 0 -67 13t-56 37t-38 57t-14 72q0 41 14 82t41.5 73.5t68.5 53t96 20.5q42 0 68 -15
t40 -37h8l7 38h98l-44 -246q-1 -5 -1.5 -9t-0.5 -9q0 -43 41 -43q21 0 37.5 15t28.5 39t18 54.5t6 62.5q0 52 -18 97t-52.5 78t-85 51.5t-114.5 18.5q-73 0 -134.5 -25t-106.5 -69t-70 -105t-25 -133q0 -57 20.5 -104t55 -81.5t80.5 -53.5t96 -19q42 0 76 8.5t64 24.5
l31 -87q-78 -37 -176 -37q-80 0 -144.5 28t-109.5 75t-69.5 109.5t-24.5 131.5q0 96 34.5 175t95 135t143.5 87t180 31zM410 193q24 0 45 9t36.5 25.5t24 39t8.5 49.5q0 42 -25.5 66.5t-63.5 24.5q-27 0 -48.5 -10t-37 -27t-23.5 -39.5t-8 -47.5q0 -45 28 -67.5t64 -22.5z
" />
    <glyph glyph-name="A" unicode="A" horiz-adv-x="716" 
d="M339 716h158l143 -716h-144l-31 171h-273l-90 -171h-153zM442 295l-33 180l-10 86h-8l-40 -86l-95 -180h186z" />
    <glyph glyph-name="B" unicode="B" horiz-adv-x="629" 
d="M135 716h254q52 0 92 -14.5t67 -38.5t41 -56t14 -67t-10.5 -62.5t-27.5 -48t-40 -34t-47 -20.5l-2 -8q39 -18 67 -54t28 -91q0 -51 -21 -92t-58 -70t-86.5 -44.5t-107.5 -15.5h-290zM354 424q51 0 82.5 23.5t31.5 68.5q0 35 -22 57t-62 22h-136l-30 -171h136zM315 123
q24 0 46 6.5t38.5 19t26 31t9.5 42.5q0 38 -23.5 62t-71.5 24h-143l-32 -185h150z" />
    <glyph glyph-name="C" unicode="C" horiz-adv-x="734" 
d="M664 113q-34 -35 -68 -59t-71 -40t-79 -23t-91 -7q-68 0 -127 23t-103 66t-69.5 104.5t-25.5 138.5q0 84 32 159.5t89 132.5t136 90.5t174 33.5q91 0 156 -33t104 -90l-108 -88q-29 39 -69 61t-101 22q-57 0 -107 -22t-88 -60t-60 -89.5t-22 -109.5q0 -48 15.5 -87
t42.5 -66.5t64 -42.5t81 -15q64 0 114 26.5t95 71.5z" />
    <glyph glyph-name="D" unicode="D" horiz-adv-x="719" 
d="M135 716h228q79 0 140 -23.5t102 -65t62 -99t21 -126.5q0 -80 -29.5 -152.5t-85 -128t-134.5 -88.5t-179 -33h-252zM267 128q64 0 117 20t90.5 55t58 82t20.5 102q0 97 -50.5 149t-153.5 52h-102l-82 -460h102z" />
    <glyph glyph-name="E" unicode="E" horiz-adv-x="578" 
d="M247 588l-29 -166h287l-23 -128h-287l-30 -166h320l-23 -128h-454l127 716h454l-23 -128h-319z" />
    <glyph glyph-name="F" unicode="F" horiz-adv-x="558" 
d="M135 716h454l-23 -128h-319l-31 -174h287l-22 -128h-287l-51 -286h-135z" />
    <glyph glyph-name="G" unicode="G" horiz-adv-x="810" 
d="M418 393h351v-30q0 -87 -33.5 -158.5t-87.5 -120.5q-54 -48 -123 -74t-148 -26q-77 0 -140.5 25t-109 70t-71 107.5t-25.5 137.5q0 81 31 155t88 130t136.5 89.5t177.5 33.5q91 0 158.5 -31.5t109.5 -85.5l-107 -91q-25 35 -70 57.5t-106 22.5q-58 0 -109.5 -19.5
t-89.5 -55.5t-60.5 -86.5t-22.5 -112.5q0 -51 16.5 -91.5t46 -68.5t69 -43t85.5 -15q102 0 167 57q24 20 40 47.5t27 61.5h-220z" />
    <glyph glyph-name="H" unicode="H" horiz-adv-x="715" 
d="M135 716h135l-51 -286h302l51 286h134l-127 -716h-134l53 302h-302l-53 -302h-135z" />
    <glyph glyph-name="I" unicode="I" horiz-adv-x="279" 
d="M135 716h135l-127 -716h-135z" />
    <glyph glyph-name="J" unicode="J" horiz-adv-x="555" 
d="M208 -16q-42 0 -79.5 12.5t-66.5 35.5t-48 54.5t-24 70.5l130 50q5 -48 32.5 -71.5t69.5 -23.5q48 0 77.5 30t39.5 84l86 490h134l-86 -489q-11 -65 -35.5 -111t-59.5 -75.5t-78.5 -43t-91.5 -13.5z" />
    <glyph glyph-name="K" unicode="K" horiz-adv-x="669" 
d="M701 708l-312 -298l213 -402l-2 -8h-158l-161 307l-101 -97l-37 -210h-135l127 716h135l-54 -303h8l312 303h167z" />
    <glyph glyph-name="L" unicode="L" horiz-adv-x="534" 
d="M135 716h135l-105 -588h304l-23 -128h-438z" />
    <glyph glyph-name="M" unicode="M" horiz-adv-x="857" 
d="M135 716h129l152 -379h8l284 379h140l-127 -716h-134l63 353l29 120h-8l-239 -321h-78l-129 321h-8l-13 -120l-63 -353h-133z" />
    <glyph glyph-name="N" unicode="N" horiz-adv-x="723" 
d="M135 716h150l210 -480h8l17 138l60 342h134l-127 -716h-134l-222 507h-8l-16 -138l-66 -369h-133z" />
    <glyph glyph-name="O" unicode="O" horiz-adv-x="822" 
d="M366 -16q-72 0 -133.5 24t-106.5 67.5t-70.5 105t-25.5 136.5q0 84 31 159.5t87 132t134.5 90t173.5 33.5q75 0 137 -25t106 -69.5t68.5 -105.5t24.5 -133q0 -84 -31 -159t-87 -132t-134.5 -90.5t-173.5 -33.5zM380 112q57 0 107 22.5t87.5 60.5t59.5 88t22 106
q0 49 -16.5 88.5t-45.5 67.5t-68 43.5t-84 15.5q-59 0 -109 -23t-87.5 -61.5t-58.5 -88.5t-21 -104q0 -49 16.5 -88.5t45.5 -67.5t68 -43.5t84 -15.5z" />
    <glyph glyph-name="P" unicode="P" horiz-adv-x="592" 
d="M8 0l127 716h240q48 0 88 -15t69.5 -42t46 -65t16.5 -84q0 -59 -20.5 -105t-57.5 -77.5t-88.5 -48t-112.5 -16.5h-127l-46 -263h-135zM334 391q54 0 90 26t36 83q0 39 -23.5 63.5t-68.5 24.5h-121l-35 -197h122z" />
    <glyph glyph-name="Q" unicode="Q" horiz-adv-x="822" 
d="M366 -16q-72 0 -133.5 24t-106.5 67.5t-70.5 105t-25.5 136.5q0 84 31 159.5t87 132t134.5 90t173.5 33.5q75 0 137 -25t106 -69.5t68.5 -105.5t24.5 -133q0 -100 -42 -186t-120 -144l38 -76l-119 -61l-37 75q-69 -23 -146 -23zM380 112q42 0 75 10l-59 121l119 62
l56 -115q39 38 62 89.5t23 109.5q0 49 -16.5 88.5t-45.5 67.5t-68 43.5t-84 15.5q-59 0 -109 -23t-87.5 -61.5t-58.5 -88.5t-21 -104q0 -49 16.5 -88.5t45.5 -67.5t68 -43.5t84 -15.5z" />
    <glyph glyph-name="R" unicode="R" horiz-adv-x="620" 
d="M135 716h236q51 0 93 -15.5t72 -42.5t46 -63t16 -78q0 -46 -15 -84.5t-40.5 -68.5t-59.5 -50t-73 -29l-2 -7l140 -270l-2 -8h-147l-138 269h-70l-48 -269h-135zM338 393q54 0 89 27t35 84q0 38 -25.5 63t-70.5 25h-119l-35 -199h126z" />
    <glyph glyph-name="S" unicode="S" horiz-adv-x="575" 
d="M237 -16q-45 0 -85 12.5t-72 38t-54 63.5t-30 89l129 52q2 -27 11 -50t25 -40t38.5 -27t51.5 -10q52 0 88 25t36 70q0 37 -26 62t-90 50l-35 14q-29 11 -55.5 27.5t-46.5 39.5t-32 53.5t-12 69.5q0 45 19.5 83.5t53.5 66t80.5 43.5t100.5 16q55 0 94 -15t64.5 -38
t39.5 -49.5t19 -50.5l-124 -47q-7 32 -32.5 54t-74.5 22q-20 0 -39 -5.5t-34 -15.5t-24 -25t-9 -34q0 -33 24.5 -54.5t75.5 -40.5l42 -15q72 -27 114.5 -73t42.5 -123q0 -52 -20 -95.5t-56 -75t-86.5 -49.5t-111.5 -18z" />
    <glyph glyph-name="T" unicode="T" horiz-adv-x="583" 
d="M160 0l104 588h-200l23 128h535l-23 -128h-200l-104 -588h-135z" />
    <glyph glyph-name="U" unicode="U" horiz-adv-x="669" 
d="M278 -16q-53 0 -97 17t-75.5 48t-49 74.5t-17.5 96.5q0 15 1.5 35.5t6.5 48.5l73 412h135l-77 -435q-2 -14 -3.5 -25t-1.5 -22q0 -55 30 -88.5t93 -33.5q69 0 112.5 45t56.5 120l77 439h135l-79 -447q-26 -146 -109 -215.5t-211 -69.5z" />
    <glyph glyph-name="V" unicode="V" horiz-adv-x="680" 
d="M75 716h144l71 -432l11 -91h8l43 91l230 432h149l-386 -716h-142z" />
    <glyph glyph-name="W" unicode="W" horiz-adv-x="954" 
d="M686 0h-131l-52 346l-7 78h-8l-34 -78l-172 -346h-132l-71 716h141l36 -418l3 -77h8l35 77l157 322h128l47 -322l7 -76h8l28 76l179 418h145z" />
    <glyph glyph-name="X" unicode="X" horiz-adv-x="688" 
d="M259 377l-171 339h169l104 -231h8l182 231h174l-291 -351l183 -365h-165l-121 251h-8l-202 -251h-174z" />
    <glyph glyph-name="Y" unicode="Y" horiz-adv-x="637" 
d="M189 0l59 333l-173 383h156l101 -237h8l181 237h167l-305 -383l-59 -333h-135z" />
    <glyph glyph-name="Z" unicode="Z" horiz-adv-x="596" 
d="M-7 136l436 452h-341l23 128h504l-24 -136l-433 -452h357l-23 -128h-523z" />
    <glyph glyph-name="bracketleft" unicode="[" horiz-adv-x="352" 
d="M152 792h248l-19 -108h-120l-123 -700h120l-19 -108h-247z" />
    <glyph glyph-name="backslash" unicode="\" horiz-adv-x="480" 
d="M262 0l-170 716h124l170 -716h-124z" />
    <glyph glyph-name="bracketright" unicode="]" horiz-adv-x="352" 
d="M199 -124h-248l19 108h120l123 700h-120l19 108h247z" />
    <glyph glyph-name="asciicircum" unicode="^" horiz-adv-x="515" 
d="M380 410l-74 182h-8l-135 -182h-142l245 306h109l137 -306h-132z" />
    <glyph glyph-name="underscore" unicode="_" horiz-adv-x="499" 
d="M-61 -100h497l-20 -116h-498z" />
    <glyph glyph-name="grave" unicode="`" horiz-adv-x="443" 
d="M226 588l-65 136h148l19 -136h-102z" />
    <glyph glyph-name="a" unicode="a" 
d="M290 506q102 0 154.5 -48t52.5 -126q0 -12 -1.5 -24.5t-3.5 -26.5l-50 -281h-129l9 52h-8q-23 -29 -57.5 -48.5t-83.5 -19.5q-37 0 -67.5 11.5t-52 32t-33.5 49t-12 61.5q0 42 16.5 75t47 56.5t73 36t93.5 12.5q37 0 67.5 -6.5t58.5 -16.5l4 15q1 5 1.5 9t0.5 7
q0 32 -26.5 53t-69.5 21q-38 0 -67 -14.5t-52 -41.5l-88 64q40 51 98 74.5t125 23.5zM216 86q25 0 47.5 9.5t40 25t29 36t15.5 42.5q-15 7 -42.5 15.5t-63.5 8.5q-42 0 -72 -18.5t-30 -56.5q0 -31 22.5 -46.5t53.5 -15.5z" />
    <glyph glyph-name="b" unicode="b" horiz-adv-x="600" 
d="M285 -16q-54 0 -92.5 21.5t-58.5 53.5h-8l-10 -59h-123l126 716h131l-38 -215l-20 -70h8q20 28 58 51.5t97 23.5q42 0 78.5 -16t64 -45.5t43.5 -72t16 -94.5q0 -62 -21.5 -115.5t-58.5 -93.5t-86.5 -62.5t-105.5 -22.5zM273 105q31 0 59 12.5t48.5 34t32.5 50t12 61.5
q0 55 -30.5 88.5t-84.5 33.5q-36 0 -64.5 -13.5t-48.5 -36t-30.5 -52t-10.5 -60.5q0 -29 9.5 -51t25.5 -37t37 -22.5t45 -7.5z" />
    <glyph glyph-name="c" unicode="c" horiz-adv-x="545" 
d="M243 -16q-53 0 -96.5 17t-75 47.5t-49 73t-17.5 93.5q0 58 21 110.5t60 92.5t95 64t126 24q85 0 140 -39.5t75 -103.5l-126 -49q-26 71 -107 71q-33 0 -61.5 -12.5t-48.5 -34t-31.5 -50t-11.5 -60.5q0 -27 9 -50t24.5 -39t36.5 -25t45 -9q45 0 75 19.5t51 54.5l112 -54
q-48 -76 -107.5 -108.5t-138.5 -32.5z" />
    <glyph glyph-name="d" unicode="d" horiz-adv-x="600" 
d="M207 -16q-44 0 -81 17t-64 48t-42 73.5t-15 92.5q0 58 20 110.5t57 92.5t87.5 64t112.5 24q24 0 47 -5.5t42.5 -15.5t34 -24t23.5 -30h8l3 70l38 215h130l-126 -716h-122l10 59h-8q-20 -29 -57.5 -52t-97.5 -23zM286 385q-33 0 -60.5 -13t-47.5 -35t-31 -51t-11 -61
q0 -55 33 -87.5t87 -32.5q29 0 56 12t47.5 33t33 51t12.5 66q0 54 -32.5 86t-86.5 32z" />
    <glyph glyph-name="e" unicode="e" horiz-adv-x="556" 
d="M482 120q-43 -64 -101 -100t-145 -36q-54 0 -96.5 18t-72.5 49.5t-46 74t-16 90.5q0 57 21 109t59 92.5t92 64.5t120 24q54 0 94.5 -16.5t68 -44.5t41.5 -65t14 -78q0 -45 -14 -87h-369v-10q1 -27 10.5 -47t25 -32.5t35.5 -19t43 -6.5q48 0 81 18.5t56 53.5zM393 308v4
q0 34 -26.5 60.5t-80.5 26.5q-49 0 -85.5 -26.5t-50.5 -64.5h243z" />
    <glyph glyph-name="f" unicode="f" horiz-adv-x="397" 
d="M358 724q26 0 50 -7t41 -18l-53 -112q-9 6 -20 9.5t-25 3.5q-67 0 -79 -70l-7 -40h122l-20 -112h-122l-66 -378h-131l66 378h-88l20 112h88l8 48q16 94 72 140t144 46z" />
    <glyph glyph-name="g" unicode="g" horiz-adv-x="597" 
d="M209 -232q-49 0 -87 13t-65.5 34t-44.5 48t-24 54l128 47q8 -39 35.5 -59.5t67.5 -20.5q133 0 158 139l7 41h-8q-22 -33 -61 -51t-88 -18q-43 0 -80 16t-64 45t-42.5 70.5t-15.5 92.5q0 52 18.5 103.5t53.5 92.5t85.5 66t115.5 25q51 0 87.5 -18.5t56.5 -50.5h8l9 53h126
l-85 -481q-21 -120 -94 -180.5t-197 -60.5zM269 113q30 0 57 12t47.5 34t33 51.5t12.5 65.5q0 27 -9.5 48t-25 35t-36 21t-41.5 7q-33 0 -61 -13.5t-48 -35.5t-31 -50.5t-11 -59.5q0 -57 32.5 -86t80.5 -29z" />
    <glyph glyph-name="h" unicode="h" horiz-adv-x="574" 
d="M214 515l-24 -89h8q27 38 69 59t93 21q40 0 69 -12.5t48.5 -33.5t29 -49t9.5 -59q0 -23 -6 -59l-52 -293h-131l50 281q3 18 3 29q0 32 -19 53.5t-56 21.5q-30 0 -53.5 -11.5t-41 -31t-28.5 -46t-16 -57.5l-42 -239h-131l126 716h131z" />
    <glyph glyph-name="i" unicode="i" horiz-adv-x="259" 
d="M0 0l86 490h131l-86 -490h-131zM173 573q-31 0 -53 21.5t-22 53.5t22 54t53 22q32 0 54.5 -22t22.5 -54q0 -31 -22.5 -53t-54.5 -22z" />
    <glyph glyph-name="j" unicode="j" horiz-adv-x="259" 
d="M-61 -226q-20 0 -43 3.5t-39 10.5l47 116q15 -9 33 -9q22 0 35.5 12.5t18.5 41.5l95 541h131l-96 -544q-9 -50 -25 -83t-39 -52.5t-52.5 -28t-65.5 -8.5zM174 573q-31 0 -53 21.5t-22 53.5t22 54t53 22q32 0 54.5 -22t22.5 -54q0 -31 -22.5 -53t-54.5 -22z" />
    <glyph glyph-name="k" unicode="k" horiz-adv-x="530" 
d="M183 333h8l182 157h169l-2 -8l-216 -180l148 -294l-2 -8h-148l-102 216l-68 -57l-28 -159h-131l126 716h131z" />
    <glyph glyph-name="l" unicode="l" horiz-adv-x="243" 
d="M-7 0l126 716h131l-126 -716h-131z" />
    <glyph glyph-name="m" unicode="m" horiz-adv-x="880" 
d="M79 490h123l-12 -64h8q28 38 66 59t92 21q57 0 90.5 -26t46.5 -64q26 38 68.5 64t108.5 26q37 0 66 -11.5t48 -31.5t29 -47.5t10 -59.5q0 -13 -1 -25.5t-4 -28.5l-54 -302h-130l50 285q3 16 3 32q0 31 -17 49.5t-53 18.5q-26 0 -47 -11.5t-38 -31t-28.5 -46.5t-17.5 -58
l-42 -238h-131l50 285q3 15 3 31q0 33 -19 51t-53 18q-26 0 -46.5 -11.5t-37 -31t-27.5 -46.5t-17 -58l-42 -238h-131z" />
    <glyph glyph-name="n" unicode="n" horiz-adv-x="574" 
d="M190 426h8q26 38 68 59t93 21q38 0 67 -12.5t49 -33.5t30 -49.5t10 -60.5q0 -14 -1 -29t-4 -32l-52 -289h-130l50 281q1 5 1.5 13.5t0.5 16.5q0 32 -19 53t-57 21q-30 0 -53 -11t-40 -30.5t-28 -46t-17 -57.5l-42 -240h-131l86 490h123z" />
    <glyph glyph-name="o" unicode="o" horiz-adv-x="576" 
d="M303 506q53 0 96.5 -18t74 -49t47 -72.5t16.5 -88.5q0 -62 -22 -116t-61.5 -93.5t-94.5 -62t-120 -22.5q-53 0 -96.5 18t-74 49t-47 72.5t-16.5 89.5q0 62 22 115.5t61.5 93t94.5 62t120 22.5zM252 105q33 0 61 12.5t49 34.5t32.5 50.5t11.5 61.5q0 26 -9 48.5
t-24.5 38.5t-37 25t-45.5 9q-33 0 -61 -12.5t-49 -34.5t-32.5 -50.5t-11.5 -61.5q0 -26 9 -48.5t25 -38.5t37 -25t45 -9z" />
    <glyph glyph-name="p" unicode="p" horiz-adv-x="596" 
d="M367 506q44 0 81 -17.5t64 -48t42 -73t15 -92.5q0 -58 -20 -110.5t-57 -92.5t-88 -64t-112 -24q-24 0 -47 5.5t-42.5 15.5t-34 24t-23.5 30h-8l-3 -70l-36 -205h-131l125 706h122l-10 -59h8q20 29 57.5 52t97.5 23zM288 105q33 0 60.5 13t47.5 35t31 51t11 61
q0 55 -33 87.5t-87 32.5q-29 0 -56 -12t-47.5 -33t-33 -51t-12.5 -66q0 -54 32.5 -86t86.5 -32z" />
    <glyph glyph-name="q" unicode="q" horiz-adv-x="596" 
d="M314 -216l36 205l20 70h-8q-20 -28 -58 -51.5t-97 -23.5q-42 0 -78.5 16t-64 45.5t-43.5 71.5t-16 95q0 62 21.5 115.5t58.5 93.5t86.5 62.5t105.5 22.5q54 0 92.5 -21.5t58.5 -53.5h8l10 59h122l-123 -706h-131zM289 385q-32 0 -59.5 -12.5t-48.5 -34t-33 -50t-12 -61.5
q0 -55 30.5 -88.5t84.5 -33.5q36 0 64.5 13.5t49 36t31 51.5t10.5 61q0 28 -9.5 50t-25.5 37t-37 23t-45 8z" />
    <glyph glyph-name="r" unicode="r" horiz-adv-x="407" 
d="M-7 0l86 490h123l-12 -68h8q24 35 62 58.5t89 23.5q26 0 42.5 -5t28.5 -13l-49 -119q-11 5 -25.5 9t-35.5 4q-57 0 -95.5 -39.5t-49.5 -103.5l-41 -237h-131z" />
    <glyph glyph-name="s" unicode="s" horiz-adv-x="483" 
d="M200 -16q-45 0 -81 11t-62.5 30t-44 44.5t-26.5 54.5l121 49q8 -38 36.5 -56t66.5 -18q34 0 57.5 12.5t23.5 35.5q0 20 -16 32.5t-51 21.5l-53 13q-23 6 -46 17t-41 28t-29.5 40t-11.5 52q0 37 16.5 65.5t45.5 48.5t68 30.5t85 10.5q147 0 195 -118l-120 -44
q-8 27 -32 41.5t-54 14.5q-35 0 -54 -11.5t-19 -30.5q0 -33 55 -46l69 -18q63 -16 94.5 -51.5t31.5 -83.5q0 -41 -17 -73.5t-47 -55t-71 -34.5t-89 -12z" />
    <glyph glyph-name="t" unicode="t" horiz-adv-x="401" 
d="M220 -8q-64 0 -105 34t-41 104q0 11 1 23.5t4 29.5l34 195h-86l20 112h86l27 150h131l-27 -150h120l-19 -112h-121l-33 -189q-1 -5 -1.5 -8t-0.5 -5v-10q0 -21 10.5 -35.5t36.5 -14.5q16 0 26.5 3.5t20.5 9.5l20 -119q-20 -9 -45 -13.5t-58 -4.5z" />
    <glyph glyph-name="u" unicode="u" horiz-adv-x="574" 
d="M345 64h-8q-26 -38 -68 -59t-93 -21q-38 0 -67 12.5t-49 33.5t-30 49.5t-10 60.5q0 14 1 28t4 33l52 289h130l-50 -281q-1 -6 -1.5 -12.5t-0.5 -17.5q0 -32 19 -53t57 -21q30 0 53 11t40 30.5t28 46t17 57.5l42 240h131l-86 -490h-123z" />
    <glyph glyph-name="v" unicode="v" horiz-adv-x="557" 
d="M30 490h148l61 -312h8l178 312h151l-297 -490h-130z" />
    <glyph glyph-name="w" unicode="w" horiz-adv-x="805" 
d="M442 0l-44 309h-6l-153 -309h-139l-72 490h140l31 -307h7l152 307h136l45 -307h7l132 307h146l-241 -490h-141z" />
    <glyph glyph-name="x" unicode="x" horiz-adv-x="514" 
d="M291 0l-67 143h-6l-113 -143h-161l215 257l-126 233h155l63 -136h7l108 136h161l-212 -242l128 -248h-152z" />
    <glyph glyph-name="y" unicode="y" horiz-adv-x="553" 
d="M8 -216l151 245l-122 461h146l71 -298h8l173 298h148l-432 -706h-143z" />
    <glyph glyph-name="z" unicode="z" horiz-adv-x="479" 
d="M-12 108l293 270h-238l20 112h403l-19 -108l-295 -270h250l-19 -112h-414z" />
    <glyph glyph-name="braceleft" unicode="{" horiz-adv-x="337" 
d="M190 -124q-34 0 -62.5 10t-48.5 28.5t-31.5 45t-11.5 59.5q0 19 3 40l27 154q1 3 1 9v8q0 49 -53 49l19 110q26 0 48 15.5t28 50.5l29 163q14 80 65 127t141 47h41l-19 -108h-16q-36 0 -58 -21t-29 -59l-26 -146q-9 -51 -29 -80t-62 -40l-2 -8q29 -8 41.5 -27.5
t12.5 -49.5q0 -11 -1 -21t-3 -22l-26 -146q-1 -7 -1.5 -11.5t-0.5 -11.5q0 -29 17.5 -43t43.5 -14h16l-19 -108h-34z" />
    <glyph glyph-name="bar" unicode="|" horiz-adv-x="264" 
d="M152 792h120l-160 -912h-120z" />
    <glyph glyph-name="braceright" unicode="}" horiz-adv-x="337" 
d="M147 792q34 0 62 -10t48.5 -28.5t32 -45t11.5 -59.5q0 -11 -1 -18.5t-3 -21.5l-27 -154q-1 -3 -1 -8v-9q0 -49 54 -49l-20 -110q-25 0 -47.5 -15.5t-28.5 -50.5l-28 -163q-14 -81 -65 -127.5t-142 -46.5h-41l19 108h17q35 0 57 21t29 59l26 146q9 51 29.5 80t62.5 40l1 8
q-54 16 -54 77q0 11 1.5 21t3.5 22l25 146q2 8 2.5 12.5t0.5 10.5q0 29 -17.5 43t-43.5 14h-17l19 108h35z" />
    <glyph glyph-name="asciitilde" unicode="~" horiz-adv-x="554" 
d="M350 223q-33 0 -58 9t-46 21q-22 11 -42 20t-42 9q-23 0 -37.5 -12.5t-19.5 -30.5h-106q11 70 52.5 112t120.5 42q34 0 59 -9t46 -20q21 -12 40.5 -21t42.5 -9t37 12.5t20 30.5h106q-12 -70 -53 -112t-120 -42z" />
    <glyph glyph-name="uni00A0" unicode="&#xa0;" horiz-adv-x="220" 
 />
    <glyph glyph-name="exclamdown" unicode="&#xa1;" horiz-adv-x="269" 
d="M161 506q36 0 61.5 -25.5t25.5 -61.5t-25.5 -61t-61.5 -25t-61.5 25t-25.5 61t25.5 61.5t61.5 25.5zM153 -10l-36 -206h-135l36 206l60 264h109z" />
    <glyph glyph-name="cent" unicode="&#xa2;" horiz-adv-x="539" 
d="M189 88q-38 8 -68.5 27.5t-52.5 48t-34 65.5t-12 79q0 57 18.5 107t52.5 88t81.5 63t105.5 32l15 86h90l-16 -87q64 -11 101.5 -46.5t55.5 -86.5l-114 -46q-16 50 -62 67l-51 -289q34 8 55 26t41 48l95 -45q-38 -63 -87.5 -98t-123.5 -43l-15 -84h-90zM143 322
q0 -45 17.5 -75.5t48.5 -44.5l51 283q-53 -16 -85 -61t-32 -102z" />
    <glyph glyph-name="sterling" unicode="&#xa3;" horiz-adv-x="538" 
d="M367 505q-5 32 -24.5 55.5t-63.5 23.5q-45 0 -73 -30t-28 -75q0 -38 12 -71.5t24 -65.5h135l-17 -100h-105q-6 -36 -25.5 -66t-48.5 -53l4 -7h148q33 0 51.5 15t31.5 44l94 -44q-26 -64 -69.5 -97.5t-121.5 -33.5h-321l18 106q21 8 41 21t36.5 30.5t27.5 39t13 45.5h-91
l17 100h55q-12 31 -22.5 65t-10.5 77q0 45 17 84.5t48.5 69t76 46t99.5 16.5q46 0 80 -12.5t57.5 -33.5t37.5 -47.5t20 -54.5z" />
    <glyph glyph-name="currency" unicode="&#xa4;" horiz-adv-x="609" 
d="M304 106q-34 0 -65 9.5t-57 26.5l-58 -57l-64 65l58 57q-16 26 -25 55.5t-9 62.5t9 63t25 55l-58 58l64 64l58 -57q26 17 57 26.5t65 9.5q35 0 66 -9.5t57 -26.5l58 57l64 -64l-58 -58q16 -25 24.5 -55t8.5 -63q0 -66 -33 -118l58 -57l-64 -65l-58 57q-26 -17 -57 -26.5
t-66 -9.5zM304 209q24 0 44.5 9t35.5 24.5t23.5 37t8.5 45.5t-8.5 45.5t-23.5 37t-35.5 24.5t-44.5 9t-44.5 -9t-35.5 -24.5t-23.5 -37t-8.5 -45.5t8.5 -45.5t23.5 -37t35.5 -24.5t44.5 -9z" />
    <glyph glyph-name="yen" unicode="&#xa5;" horiz-adv-x="632" 
d="M377 312l-11 -63h161l-20 -116h-162l-24 -133h-134l23 133h-165l20 116h166l11 63h-166l21 116h91l-119 256h157l80 -189l18 -67h8l40 67l142 189h163l-207 -256h89l-21 -116h-161z" />
    <glyph glyph-name="brokenbar" unicode="&#xa6;" horiz-adv-x="264" 
d="M80 376l67 380h120l-67 -380h-120zM-7 -120l72 412h120l-72 -412h-120z" />
    <glyph glyph-name="section" unicode="&#xa7;" horiz-adv-x="560" 
d="M201 -232q-50 0 -90.5 15t-70.5 41.5t-47.5 62t-20.5 77.5l117 43q7 -54 37.5 -86t84.5 -32q21 0 40.5 5.5t34.5 16t24 26.5t9 36q0 40 -27.5 61t-87.5 42l-30 11q-58 20 -96.5 63.5t-38.5 100.5q0 54 29 95t75 67q-23 23 -37.5 53.5t-14.5 65.5q0 45 19 81.5t52 63
t77 41t94 14.5q46 0 81 -12.5t60 -33.5t40.5 -48.5t23.5 -57.5l-128 -47q-3 14 -9.5 28t-17.5 25t-27.5 18t-39.5 7q-18 0 -34.5 -4.5t-29 -13t-20.5 -20.5t-8 -28q0 -30 22.5 -50t79.5 -40l29 -10q75 -27 112.5 -69.5t37.5 -108.5q0 -60 -28 -100t-66 -66q19 -21 29.5 -49
t10.5 -64q0 -45 -20 -85t-54 -70t-79.5 -47.5t-96.5 -17.5zM261 182q5 -2 21 -7.5t29 -10.5q4 -2 6.5 -3t4.5 -2q20 14 35 35t15 48q0 38 -24.5 62.5t-84.5 45.5l-26 9q-28 -12 -49.5 -33.5t-21.5 -50.5q0 -32 24.5 -54t70.5 -39z" />
    <glyph glyph-name="dieresis" unicode="&#xa8;" horiz-adv-x="452" 
d="M372 587q-29 0 -50 21.5t-21 50.5q0 30 21 51t50 21q31 0 51.5 -21t20.5 -51q0 -29 -20.5 -50.5t-51.5 -21.5zM182 587q-30 0 -51 21.5t-21 50.5q0 30 21 51t51 21t50.5 -21t20.5 -51q0 -29 -20.5 -50.5t-50.5 -21.5z" />
    <glyph glyph-name="copyright" unicode="&#xa9;" horiz-adv-x="532" 
d="M266 272q-48 0 -89.5 18t-73 49.5t-49.5 73t-18 89.5q0 47 18 89t49.5 73.5t73 49.5t89.5 18q47 0 89 -18t73.5 -49.5t49.5 -73.5t18 -89q0 -48 -18 -89.5t-49.5 -73t-73.5 -49.5t-89 -18zM266 320q38 0 71 14.5t58 39.5t39 58t14 70q0 38 -14 71t-39 58t-58 39t-71 14
q-37 0 -70 -14t-58 -39t-39.5 -58t-14.5 -71q0 -37 14.5 -70t39.5 -58t58 -39.5t70 -14.5zM270 383q-26 0 -47.5 9.5t-37.5 25.5t-25 38t-9 46q0 25 9 46.5t25 37.5t37.5 25.5t47.5 9.5q31 0 50.5 -11t36.5 -28l-32 -29q-11 11 -22 17.5t-33 6.5q-29 0 -51 -21.5t-22 -53.5
t22 -53.5t51 -21.5q21 0 35 8.5t25 22.5l34 -27q-16 -21 -39 -34.5t-55 -13.5z" />
    <glyph glyph-name="ordfeminine" unicode="&#xaa;" horiz-adv-x="495" 
d="M193 272q-32 0 -59 10t-46.5 27.5t-30.5 41.5t-11 53q0 37 15.5 67t42.5 51t63.5 32.5t78.5 11.5q39 0 69.5 -7t53.5 -18l2 13q1 3 1 8v6q0 32 -23.5 51t-63.5 19q-30 0 -58 -12.5t-46 -37.5l-78 54q30 43 81 66.5t114 23.5q90 0 140.5 -40.5t50.5 -112.5q0 -17 -3 -35
l-46 -258h-117l8 46h-8q-23 -26 -55.5 -43t-74.5 -17zM236 363q21 0 41 8t36 21.5t27 31t14 36.5q-13 6 -38.5 14t-57.5 8q-17 0 -33.5 -3.5t-29.5 -12t-21 -21t-8 -30.5q0 -26 20.5 -39t49.5 -13z" />
    <glyph glyph-name="guillemotleft" unicode="&#xab;" horiz-adv-x="610" 
d="M278 107l-84 -66l-171 230l252 230l67 -74l-181 -163zM501 107l-84 -66l-171 230l252 230l67 -74l-181 -163z" />
    <glyph glyph-name="logicalnot" unicode="&#xac;" horiz-adv-x="594" 
d="M54 404h466l-52 -299h-115l33 185h-352z" />
    <glyph glyph-name="uni00AD" unicode="&#xad;" horiz-adv-x="451" 
d="M57 368h339l-21 -116h-338z" />
    <glyph glyph-name="registered" unicode="&#xae;" horiz-adv-x="532" 
d="M266 272q-48 0 -89.5 18t-73 49.5t-49.5 73t-18 89.5q0 47 18 89t49.5 73.5t73 49.5t89.5 18q47 0 89 -18t73.5 -49.5t49.5 -73.5t18 -89q0 -48 -18 -89.5t-49.5 -73t-73.5 -49.5t-89 -18zM266 320q38 0 71 14.5t58 39.5t39 58t14 70q0 38 -14 71t-39 58t-58 39t-71 14
q-37 0 -70 -14t-58 -39t-39.5 -58t-14.5 -71q0 -37 14.5 -70t39.5 -58t58 -39.5t70 -14.5zM189 389v226h96q29 0 51 -20.5t22 -51.5q0 -23 -14.5 -41.5t-35.5 -24.5l-2 -2l60 -84v-2h-52l-55 84h-24v-84h-46zM281 515q12 0 21.5 7.5t9.5 20.5q0 10 -8 19t-22 9h-47v-56h46z
" />
    <glyph glyph-name="macron" unicode="&#xaf;" horiz-adv-x="416" 
d="M104 609l18 100h296l-18 -100h-296z" />
    <glyph glyph-name="degree" unicode="&#xb0;" horiz-adv-x="325" 
d="M186 442q-24 0 -45.5 8t-38 23t-26 36t-9.5 47q0 32 11 58.5t30.5 45.5t46 29.5t58.5 10.5q24 0 45.5 -8.5t38 -23.5t26 -36t9.5 -46q0 -32 -11 -58.5t-30.5 -45.5t-46.5 -29.5t-58 -10.5zM194 519q23 0 40 16.5t17 41.5q0 20 -12.5 33t-32.5 13q-24 0 -41 -16.5
t-17 -41.5q0 -21 13 -33.5t33 -12.5z" />
    <glyph glyph-name="plusminus" unicode="&#xb1;" horiz-adv-x="569" 
d="M354 424h170l-19 -108h-170l-26 -141h-116l26 141h-171l19 108h171l24 141h116zM-7 0l20 116h456l-20 -116h-456z" />
    <glyph glyph-name="twosuperior" unicode="&#xb2;" horiz-adv-x="317" 
d="M25 350l12 63q19 17 36.5 31.5t33.5 28.5q7 6 13.5 12t13.5 11q13 11 24 20.5t19 16.5q8 8 10 9q4 3 7.5 6t8.5 7q13 11 23.5 25.5t10.5 28.5q0 17 -11.5 26.5t-28.5 9.5q-39 0 -54 -48l-75 29q14 46 51.5 72t91.5 26q55 0 87 -28t32 -73q0 -38 -20 -63t-56 -57
q-5 -4 -10.5 -9t-13.5 -11q-8 -7 -15 -13l-14 -12q-8 -7 -17 -14t-18 -15h135l-15 -79h-261z" />
    <glyph glyph-name="threesuperior" unicode="&#xb3;" horiz-adv-x="335" 
d="M168 342q-48 0 -84.5 25t-45.5 76l77 28q8 -28 23.5 -40t37.5 -12q21 0 38.5 12t17.5 35q0 19 -14.5 29t-39.5 10h-35l13 70h34q23 0 40 10t17 30q0 15 -12 23.5t-26 8.5q-23 0 -36 -11t-20 -25l-72 32q17 36 52 58.5t89 22.5q51 0 83 -26.5t32 -66.5q0 -32 -17.5 -53.5
t-43.5 -34.5q20 -11 32 -30t12 -43q0 -28 -11 -51.5t-31.5 -40.5t-48.5 -26.5t-61 -9.5z" />
    <glyph glyph-name="acute" unicode="&#xb4;" horiz-adv-x="443" 
d="M190 588l66 136h154l-114 -136h-106z" />
    <glyph glyph-name="mu" unicode="&#xb5;" horiz-adv-x="574" 
d="M333 0l12 64h-8q-26 -38 -61 -59t-86 -21q-20 0 -39 6.5t-31 17.5h-8l-2 -65l-28 -159h-130l125 706h130l-50 -281q-1 -6 -1.5 -12.5t-0.5 -17.5q0 -32 19 -53t57 -21q30 0 53 11t40 30.5t28 46t17 57.5l42 240h131l-86 -490h-123z" />
    <glyph glyph-name="paragraph" unicode="&#xb6;" horiz-adv-x="643" 
d="M273 -216v512h-25q-45 0 -85.5 14.5t-71 41.5t-49 66t-18.5 88t18.5 88t49 66t71 41.5t85.5 14.5h315v-932h-110v825h-70v-825h-110z" />
    <glyph glyph-name="periodcentered" unicode="&#xb7;" horiz-adv-x="213" 
d="M103 237q-36 0 -61.5 25.5t-25.5 61.5t25.5 61.5t61.5 25.5t61 -25.5t25 -61.5t-25 -61.5t-61 -25.5z" />
    <glyph glyph-name="cedilla" unicode="&#xb8;" horiz-adv-x="411" 
d="M94 -237q-35 0 -62.5 19t-34.5 47l68 27q2 -12 11 -20t23 -8t25 9t11 26q0 31 -30 31q-9 0 -16 -4.5t-12 -9.5l-55 28l51 92h68l-29 -47q3 1 9 1h9q35 0 57 -24.5t22 -61.5q0 -49 -32 -77t-83 -28z" />
    <glyph glyph-name="onesuperior" unicode="&#xb9;" horiz-adv-x="272" 
d="M121 350l47 262l-65 -26l-29 72l136 58h65l-65 -366h-89z" />
    <glyph glyph-name="ordmasculine" unicode="&#xba;" 
d="M259 272q-45 0 -82.5 14t-64.5 39.5t-42 62.5t-15 84q0 51 19.5 98t54.5 83t84.5 57.5t108.5 21.5q45 0 82.5 -13.5t64.5 -39.5t42 -63t15 -83q0 -53 -20 -100t-56 -83t-85 -57t-106 -21zM269 381q27 0 52 10.5t44 29.5t30 45t11 56q0 45 -27 73t-69 28q-28 0 -52.5 -11
t-43 -30.5t-29.5 -45t-11 -54.5q0 -45 26.5 -73t68.5 -28z" />
    <glyph glyph-name="guillemotright" unicode="&#xbb;" horiz-adv-x="610" 
d="M76 435l83 66l172 -230l-253 -230l-66 74l180 163zM299 435l83 66l172 -230l-253 -230l-66 74l180 163z" />
    <glyph glyph-name="onequarter" unicode="&#xbc;" horiz-adv-x="771" 
d="M516 0l12 65h-173l12 64l212 237h88l-40 -227h47l-13 -74h-47l-12 -65h-86zM541 139l18 104h-8l-90 -104h80zM66 39l588 692l70 -54l-587 -693zM145 350l47 262l-65 -26l-29 72l136 58h65l-65 -366h-89z" />
    <glyph glyph-name="onehalf" unicode="&#xbd;" horiz-adv-x="808" 
d="M436 0l12 63q19 17 36.5 31.5t33.5 28.5q7 6 13.5 12t13.5 11q13 11 24 20.5t19 16.5q8 8 10 9q4 3 7.5 6t8.5 7q13 11 23.5 25.5t10.5 28.5q0 17 -11 26.5t-29 9.5q-40 0 -53 -48l-76 29q14 46 51.5 72t91.5 26q57 0 88 -28t31 -73q0 -38 -20 -63t-56 -57
q-9 -8 -23.5 -20.5t-28.5 -24.5q-8 -7 -17 -14t-18 -15h134l-15 -79h-261zM61 39l588 692l70 -54l-587 -693zM145 350l47 262l-65 -26l-29 72l136 58h65l-65 -366h-89z" />
    <glyph glyph-name="threequarters" unicode="&#xbe;" horiz-adv-x="843" 
d="M192 342q-48 0 -84.5 25t-45.5 76l77 28q8 -28 23.5 -40t37.5 -12q21 0 38.5 12t17.5 35q0 19 -14.5 29t-39.5 10h-35l13 70h34q23 0 40 10t17 30q0 15 -12 23.5t-26 8.5q-23 0 -36 -11t-20 -25l-72 32q17 36 52 58.5t89 22.5q51 0 83 -26.5t32 -66.5q0 -32 -17.5 -53.5
t-43.5 -34.5q20 -11 32 -30t12 -43q0 -28 -11 -51.5t-31.5 -40.5t-48.5 -26.5t-61 -9.5zM587 0l12 65h-173l12 64l212 237h88l-40 -227h47l-13 -74h-47l-12 -65h-86zM612 139l18 104h-8l-90 -104h80zM122 39l588 692l70 -54l-587 -693z" />
    <glyph glyph-name="questiondown" unicode="&#xbf;" horiz-adv-x="503" 
d="M316 254l-6 -33q-4 -24 -11 -44t-20 -39t-34.5 -38.5t-54.5 -41.5q-28 -20 -51.5 -43.5t-23.5 -54.5t22 -51t59 -20q42 0 69 25t39 59l107 -48q-11 -31 -31.5 -59.5t-49.5 -50t-67 -34.5t-83 -13q-43 0 -79 13t-62 35.5t-40.5 54t-14.5 68.5q0 30 9.5 55.5t25.5 48
t37.5 42.5t46.5 40q20 16 33.5 28.5t22 24.5t14 26t9.5 33l3 17h131zM282 506q36 0 61 -25.5t25 -61.5t-25 -61t-61 -25t-61.5 25t-25.5 61t25.5 61.5t61.5 25.5z" />
    <glyph glyph-name="Agrave" unicode="&#xc0;" horiz-adv-x="716" 
d="M421 933l64 -148h-111l-84 148h131zM339 716h158l143 -716h-144l-31 171h-273l-90 -171h-153zM442 295l-33 180l-10 86h-8l-40 -86l-95 -180h186z" />
    <glyph glyph-name="Aacute" unicode="&#xc1;" horiz-adv-x="716" 
d="M594 933l-117 -148h-111l97 148h131zM339 716h158l143 -716h-144l-31 171h-273l-90 -171h-153zM442 295l-33 180l-10 86h-8l-40 -86l-95 -180h186z" />
    <glyph glyph-name="Acircumflex" unicode="&#xc2;" horiz-adv-x="716" 
d="M384 775h-117l145 148h108l65 -148h-107l-32 62zM339 716h158l143 -716h-144l-31 171h-273l-90 -171h-153zM442 295l-33 180l-10 86h-8l-40 -86l-95 -180h186z" />
    <glyph glyph-name="Atilde" unicode="&#xc3;" horiz-adv-x="716" 
d="M481 775q-18 0 -32 6t-26 14q-14 7 -21 12.5t-15 5.5q-21 0 -27 -28h-81q12 65 45 93.5t74 28.5q17 0 31.5 -6t27.5 -13q13 -8 20 -13.5t14 -5.5q21 0 28 28h81q-12 -65 -45.5 -93.5t-73.5 -28.5zM339 716h158l143 -716h-144l-31 171h-273l-90 -171h-153zM442 295
l-33 180l-10 86h-8l-40 -86l-95 -180h186z" />
    <glyph glyph-name="Adieresis" unicode="&#xc4;" horiz-adv-x="716" 
d="M339 716h158l143 -716h-144l-31 171h-273l-90 -171h-153zM442 295l-33 180l-10 86h-8l-40 -86l-95 -180h186zM524 771q-29 0 -50 21.5t-21 50.5q0 30 21 51t50 21q31 0 51.5 -21t20.5 -51q0 -29 -20.5 -50.5t-51.5 -21.5zM334 771q-30 0 -51 21.5t-21 50.5q0 30 21 51
t51 21t50.5 -21t20.5 -51q0 -29 -20.5 -50.5t-50.5 -21.5z" />
    <glyph glyph-name="Aring" unicode="&#xc5;" horiz-adv-x="716" 
d="M319 679q-25 34 -25 77q0 27 10 50.5t28 41.5t41.5 28t50.5 10t50.5 -10t41 -28t28 -41.5t10.5 -50.5q0 -29 -12.5 -55t-33.5 -44l132 -657h-144l-31 171h-273l-90 -171h-153zM442 295l-33 180l-10 86h-8l-40 -86l-95 -180h186zM424 716q17 0 28.5 11.5t11.5 28.5
t-11.5 28.5t-28.5 11.5t-28.5 -11.5t-11.5 -28.5t11.5 -28.5t28.5 -11.5z" />
    <glyph glyph-name="AE" unicode="&#xc6;" horiz-adv-x="1005" 
d="M-62 0l542 716h536l-23 -128h-319l-30 -166h288l-23 -128h-288l-29 -166h319l-22 -128h-454l30 173h-232l-128 -173h-167zM324 301h164l51 287h-10l-43 -70z" />
    <glyph glyph-name="Ccedilla" unicode="&#xc7;" horiz-adv-x="734" 
d="M319 -237q-35 0 -63 19t-34 47l68 27q2 -12 11 -20t22 -8q15 0 25.5 9t10.5 26q0 31 -30 31q-8 0 -15 -4.5t-12 -9.5l-56 28l46 82q-56 9 -104 35.5t-83 68.5t-55 98t-20 124q0 84 32 159.5t89 132.5t136 90.5t174 33.5q91 0 156 -33t104 -90l-108 -88q-29 39 -69 61
t-101 22q-57 0 -107 -22t-88 -60t-60 -89.5t-22 -109.5q0 -48 15.5 -87t42.5 -66.5t64 -42.5t81 -15q64 0 114 26.5t95 71.5l86 -97q-34 -35 -68 -59t-71 -40t-78.5 -23t-90.5 -7l-19 -31q3 1 9 1h9q35 0 57 -24.5t22 -61.5q0 -49 -32 -77t-83 -28z" />
    <glyph glyph-name="Egrave" unicode="&#xc8;" horiz-adv-x="578" 
d="M371 933l64 -148h-111l-84 148h131zM247 588l-29 -166h287l-23 -128h-287l-30 -166h320l-23 -128h-454l127 716h454l-23 -128h-319z" />
    <glyph glyph-name="Eacute" unicode="&#xc9;" horiz-adv-x="578" 
d="M537 933l-117 -148h-111l97 148h131zM247 588l-29 -166h287l-23 -128h-287l-30 -166h320l-23 -128h-454l127 716h454l-23 -128h-319z" />
    <glyph glyph-name="Ecircumflex" unicode="&#xca;" horiz-adv-x="578" 
d="M323 775h-117l145 148h108l65 -148h-107l-32 62zM247 588l-29 -166h287l-23 -128h-287l-30 -166h320l-23 -128h-454l127 716h454l-23 -128h-319z" />
    <glyph glyph-name="Edieresis" unicode="&#xcb;" horiz-adv-x="578" 
d="M459 771q-29 0 -50 21.5t-21 50.5q0 30 21 51t50 21q31 0 51.5 -21t20.5 -51q0 -29 -20.5 -50.5t-51.5 -21.5zM269 771q-30 0 -51 21.5t-21 50.5q0 30 21 51t51 21t50.5 -21t20.5 -51q0 -29 -20.5 -50.5t-50.5 -21.5zM247 588l-29 -166h287l-23 -128h-287l-30 -166h320
l-23 -128h-454l127 716h454l-23 -128h-319z" />
    <glyph glyph-name="Igrave" unicode="&#xcc;" horiz-adv-x="279" 
d="M217 933l64 -148h-111l-84 148h131zM135 716h135l-127 -716h-135z" />
    <glyph glyph-name="Iacute" unicode="&#xcd;" horiz-adv-x="279" 
d="M373 933l-117 -148h-111l97 148h131zM135 716h135l-127 -716h-135z" />
    <glyph glyph-name="Icircumflex" unicode="&#xce;" horiz-adv-x="279" 
d="M135 716h135l-127 -716h-135zM31 774l132 126h119l91 -126l-1 -8h-121l-31 59h-12l-49 -59h-129z" />
    <glyph glyph-name="Idieresis" unicode="&#xcf;" horiz-adv-x="279" 
d="M136 774q-29 0 -49 20.5t-20 48.5q0 29 20 49t49 20t49 -20t20 -49q0 -28 -20 -48.5t-49 -20.5zM309 774q-28 0 -48.5 20.5t-20.5 48.5q0 29 20.5 49t48.5 20q29 0 49 -20t20 -49q0 -28 -20 -48.5t-49 -20.5zM135 716h135l-127 -716h-135z" />
    <glyph glyph-name="Eth" unicode="&#xd0;" horiz-adv-x="779" 
d="M121 302h-75l19 110h76l54 304h228q79 0 140 -23.5t102 -65t62 -99t21 -126.5q0 -80 -29.5 -152.5t-85 -128t-134.5 -88.5t-179 -33h-252zM327 128q64 0 117 20t90.5 55t58 82t20.5 102q0 97 -50.5 149t-153.5 52h-102l-31 -176h184l-20 -110h-184l-31 -174h102z" />
    <glyph glyph-name="Ntilde" unicode="&#xd1;" horiz-adv-x="723" 
d="M135 716h150l210 -480h8l17 138l60 342h134l-127 -716h-134l-222 507h-8l-16 -138l-66 -369h-133zM516 771q-21 0 -38 6.5t-31 15.5q-15 8 -28 14.5t-25 6.5q-25 0 -33 -29h-92q8 66 42.5 97t85.5 31q21 0 38 -6.5t32 -14.5q14 -9 27 -15.5t25 -6.5q25 0 33 29h92
q-8 -66 -42.5 -97t-85.5 -31z" />
    <glyph glyph-name="Ograve" unicode="&#xd2;" horiz-adv-x="822" 
d="M487 933l64 -148h-111l-84 148h131zM366 -16q-72 0 -133.5 24t-106.5 67.5t-70.5 105t-25.5 136.5q0 84 31 159.5t87 132t134.5 90t173.5 33.5q75 0 137 -25t106 -69.5t68.5 -105.5t24.5 -133q0 -84 -31 -159t-87 -132t-134.5 -90.5t-173.5 -33.5zM380 112q57 0 107 22.5
t87.5 60.5t59.5 88t22 106q0 49 -16.5 88.5t-45.5 67.5t-68 43.5t-84 15.5q-59 0 -109 -23t-87.5 -61.5t-58.5 -88.5t-21 -104q0 -49 16.5 -88.5t45.5 -67.5t68 -43.5t84 -15.5z" />
    <glyph glyph-name="Oacute" unicode="&#xd3;" horiz-adv-x="822" 
d="M635 933l-117 -148h-111l97 148h131zM366 -16q-72 0 -133.5 24t-106.5 67.5t-70.5 105t-25.5 136.5q0 84 31 159.5t87 132t134.5 90t173.5 33.5q75 0 137 -25t106 -69.5t68.5 -105.5t24.5 -133q0 -84 -31 -159t-87 -132t-134.5 -90.5t-173.5 -33.5zM380 112
q57 0 107 22.5t87.5 60.5t59.5 88t22 106q0 49 -16.5 88.5t-45.5 67.5t-68 43.5t-84 15.5q-59 0 -109 -23t-87.5 -61.5t-58.5 -88.5t-21 -104q0 -49 16.5 -88.5t45.5 -67.5t68 -43.5t84 -15.5z" />
    <glyph glyph-name="Ocircumflex" unicode="&#xd4;" horiz-adv-x="822" 
d="M366 -16q-72 0 -133.5 24t-106.5 67.5t-70.5 105t-25.5 136.5q0 84 31 159.5t87 132t134.5 90t173.5 33.5q75 0 137 -25t106 -69.5t68.5 -105.5t24.5 -133q0 -84 -31 -159t-87 -132t-134.5 -90.5t-173.5 -33.5zM380 112q57 0 107 22.5t87.5 60.5t59.5 88t22 106
q0 49 -16.5 88.5t-45.5 67.5t-68 43.5t-84 15.5q-59 0 -109 -23t-87.5 -61.5t-58.5 -88.5t-21 -104q0 -49 16.5 -88.5t45.5 -67.5t68 -43.5t84 -15.5zM444 775h-117l145 148h108l65 -148h-107l-32 62z" />
    <glyph glyph-name="Otilde" unicode="&#xd5;" horiz-adv-x="822" 
d="M533 775q-18 0 -32 6t-26 14q-14 7 -21 12.5t-15 5.5q-21 0 -27 -28h-81q12 65 45 93.5t74 28.5q17 0 31.5 -6t27.5 -13q13 -8 20 -13.5t14 -5.5q21 0 28 28h81q-12 -65 -45.5 -93.5t-73.5 -28.5zM366 -16q-72 0 -133.5 24t-106.5 67.5t-70.5 105t-25.5 136.5
q0 84 31 159.5t87 132t134.5 90t173.5 33.5q75 0 137 -25t106 -69.5t68.5 -105.5t24.5 -133q0 -84 -31 -159t-87 -132t-134.5 -90.5t-173.5 -33.5zM380 112q57 0 107 22.5t87.5 60.5t59.5 88t22 106q0 49 -16.5 88.5t-45.5 67.5t-68 43.5t-84 15.5q-59 0 -109 -23
t-87.5 -61.5t-58.5 -88.5t-21 -104q0 -49 16.5 -88.5t45.5 -67.5t68 -43.5t84 -15.5z" />
    <glyph glyph-name="Odieresis" unicode="&#xd6;" horiz-adv-x="822" 
d="M575 771q-29 0 -50 21.5t-21 50.5q0 30 21 51t50 21q31 0 51.5 -21t20.5 -51q0 -29 -20.5 -50.5t-51.5 -21.5zM385 771q-30 0 -51 21.5t-21 50.5q0 30 21 51t51 21t50.5 -21t20.5 -51q0 -29 -20.5 -50.5t-50.5 -21.5zM366 -16q-72 0 -133.5 24t-106.5 67.5t-70.5 105
t-25.5 136.5q0 84 31 159.5t87 132t134.5 90t173.5 33.5q75 0 137 -25t106 -69.5t68.5 -105.5t24.5 -133q0 -84 -31 -159t-87 -132t-134.5 -90.5t-173.5 -33.5zM380 112q57 0 107 22.5t87.5 60.5t59.5 88t22 106q0 49 -16.5 88.5t-45.5 67.5t-68 43.5t-84 15.5
q-59 0 -109 -23t-87.5 -61.5t-58.5 -88.5t-21 -104q0 -49 16.5 -88.5t45.5 -67.5t68 -43.5t84 -15.5z" />
    <glyph glyph-name="multiply" unicode="&#xd7;" horiz-adv-x="611" 
d="M207 275l-133 154l91 78l135 -156l194 159l71 -85l-192 -158l133 -154l-91 -78l-135 156l-194 -159l-71 85z" />
    <glyph glyph-name="Oslash" unicode="&#xd8;" horiz-adv-x="822" 
d="M67 15l53 66q-43 45 -66.5 104t-23.5 132q0 84 31 159.5t87 132t134.5 90t173.5 33.5q88 0 157 -34l56 69l84 -68l-52 -65q45 -45 68 -104t23 -131q0 -84 -31 -159t-87 -132t-134.5 -90.5t-173.5 -33.5q-86 0 -158 34l-56 -70zM380 112q57 0 107 22.5t87.5 60.5t59.5 88
t22 106q0 40 -11.5 74t-31.5 61l-317 -397q37 -15 84 -15zM166 327q0 -42 11.5 -75t31.5 -60l317 396q-39 16 -84 16q-59 0 -109 -23t-87.5 -61.5t-58.5 -88.5t-21 -104z" />
    <glyph glyph-name="Ugrave" unicode="&#xd9;" horiz-adv-x="669" 
d="M412 933l64 -148h-111l-84 148h131zM278 -16q-53 0 -97 17t-75.5 48t-49 74.5t-17.5 96.5q0 15 1.5 35.5t6.5 48.5l73 412h135l-77 -435q-2 -14 -3.5 -25t-1.5 -22q0 -55 30 -88.5t93 -33.5q69 0 112.5 45t56.5 120l77 439h135l-79 -447q-26 -146 -109 -215.5t-211 -69.5
z" />
    <glyph glyph-name="Uacute" unicode="&#xda;" horiz-adv-x="669" 
d="M575 933l-117 -148h-111l97 148h131zM278 -16q-53 0 -97 17t-75.5 48t-49 74.5t-17.5 96.5q0 15 1.5 35.5t6.5 48.5l73 412h135l-77 -435q-2 -14 -3.5 -25t-1.5 -22q0 -55 30 -88.5t93 -33.5q69 0 112.5 45t56.5 120l77 439h135l-79 -447q-26 -146 -109 -215.5
t-211 -69.5z" />
    <glyph glyph-name="Ucircumflex" unicode="&#xdb;" horiz-adv-x="669" 
d="M230 774l132 126h119l91 -126l-1 -8h-121l-31 59h-12l-49 -59h-129zM278 -16q-53 0 -97 17t-75.5 48t-49 74.5t-17.5 96.5q0 15 1.5 35.5t6.5 48.5l73 412h135l-77 -435q-2 -14 -3.5 -25t-1.5 -22q0 -55 30 -88.5t93 -33.5q69 0 112.5 45t56.5 120l77 439h135l-79 -447
q-26 -146 -109 -215.5t-211 -69.5z" />
    <glyph glyph-name="Udieresis" unicode="&#xdc;" horiz-adv-x="669" 
d="M499 771q-29 0 -50 21.5t-21 50.5q0 30 21 51t50 21q31 0 51.5 -21t20.5 -51q0 -29 -20.5 -50.5t-51.5 -21.5zM309 771q-30 0 -51 21.5t-21 50.5q0 30 21 51t51 21t50.5 -21t20.5 -51q0 -29 -20.5 -50.5t-50.5 -21.5zM278 -16q-53 0 -97 17t-75.5 48t-49 74.5t-17.5 96.5
q0 15 1.5 35.5t6.5 48.5l73 412h135l-77 -435q-2 -14 -3.5 -25t-1.5 -22q0 -55 30 -88.5t93 -33.5q69 0 112.5 45t56.5 120l77 439h135l-79 -447q-26 -146 -109 -215.5t-211 -69.5z" />
    <glyph glyph-name="Yacute" unicode="&#xdd;" horiz-adv-x="637" 
d="M549 933l-117 -148h-111l97 148h131zM189 0l59 333l-173 383h156l101 -237h8l181 237h167l-305 -383l-59 -333h-135z" />
    <glyph glyph-name="Thorn" unicode="&#xde;" horiz-adv-x="592" 
d="M8 0l127 716h135l-20 -108h106q48 0 88 -15t69.5 -42.5t46 -65.5t16.5 -84q0 -59 -20.5 -105t-57.5 -77.5t-88.5 -47.5t-112.5 -16h-127l-27 -155h-135zM315 283q54 0 90 26.5t36 81.5q0 40 -23.5 64.5t-68.5 24.5h-121l-35 -197h122z" />
    <glyph glyph-name="germandbls" unicode="&#xdf;" horiz-adv-x="585" 
d="M442 383q38 -18 62.5 -57t24.5 -97q0 -53 -19.5 -96.5t-55 -74.5t-84 -48.5t-105.5 -17.5q-23 0 -38 1t-29 3l21 121q12 -2 24 -3t27 -1q25 0 48.5 7.5t41 22t28 36t10.5 49.5q0 45 -27 70.5t-79 25.5h-25l20 115h20q24 0 45 6.5t36.5 18.5t25 29.5t9.5 40.5
q0 35 -22.5 56t-62.5 21q-45 0 -73.5 -30t-36.5 -76l-89 -505h-131l89 507q9 48 28.5 89.5t51.5 71.5t76 47t103 17q46 0 82.5 -14.5t62 -38.5t39 -56t13.5 -67q0 -33 -9 -59.5t-24 -47t-35 -35t-42 -23.5z" />
    <glyph glyph-name="agrave" unicode="&#xe0;" 
d="M327 707l64 -148h-111l-84 148h131zM290 506q102 0 154.5 -48t52.5 -126q0 -12 -1.5 -24.5t-3.5 -26.5l-50 -281h-129l9 52h-8q-23 -29 -57.5 -48.5t-83.5 -19.5q-37 0 -67.5 11.5t-52 32t-33.5 49t-12 61.5q0 42 16.5 75t47 56.5t73 36t93.5 12.5q37 0 67.5 -6.5
t58.5 -16.5l4 15q1 5 1.5 9t0.5 7q0 32 -26.5 53t-69.5 21q-38 0 -67 -14.5t-52 -41.5l-88 64q40 51 98 74.5t125 23.5zM216 86q25 0 47.5 9.5t40 25t29 36t15.5 42.5q-15 7 -42.5 15.5t-63.5 8.5q-42 0 -72 -18.5t-30 -56.5q0 -31 22.5 -46.5t53.5 -15.5z" />
    <glyph glyph-name="aacute" unicode="&#xe1;" 
d="M488 707l-117 -148h-111l97 148h131zM290 506q102 0 154.5 -48t52.5 -126q0 -12 -1.5 -24.5t-3.5 -26.5l-50 -281h-129l9 52h-8q-23 -29 -57.5 -48.5t-83.5 -19.5q-37 0 -67.5 11.5t-52 32t-33.5 49t-12 61.5q0 42 16.5 75t47 56.5t73 36t93.5 12.5q37 0 67.5 -6.5
t58.5 -16.5l4 15q1 5 1.5 9t0.5 7q0 32 -26.5 53t-69.5 21q-38 0 -67 -14.5t-52 -41.5l-88 64q40 51 98 74.5t125 23.5zM216 86q25 0 47.5 9.5t40 25t29 36t15.5 42.5q-15 7 -42.5 15.5t-63.5 8.5q-42 0 -72 -18.5t-30 -56.5q0 -31 22.5 -46.5t53.5 -15.5z" />
    <glyph glyph-name="acircumflex" unicode="&#xe2;" 
d="M278 559h-117l145 148h108l65 -148h-107l-32 62zM290 506q102 0 154.5 -48t52.5 -126q0 -12 -1.5 -24.5t-3.5 -26.5l-50 -281h-129l9 52h-8q-23 -29 -57.5 -48.5t-83.5 -19.5q-37 0 -67.5 11.5t-52 32t-33.5 49t-12 61.5q0 42 16.5 75t47 56.5t73 36t93.5 12.5
q37 0 67.5 -6.5t58.5 -16.5l4 15q1 5 1.5 9t0.5 7q0 32 -26.5 53t-69.5 21q-38 0 -67 -14.5t-52 -41.5l-88 64q40 51 98 74.5t125 23.5zM216 86q25 0 47.5 9.5t40 25t29 36t15.5 42.5q-15 7 -42.5 15.5t-63.5 8.5q-42 0 -72 -18.5t-30 -56.5q0 -31 22.5 -46.5t53.5 -15.5z
" />
    <glyph glyph-name="atilde" unicode="&#xe3;" 
d="M376 559q-18 0 -32 6t-26 14q-14 7 -21 12.5t-15 5.5q-21 0 -27 -28h-81q12 65 45 93.5t74 28.5q17 0 31.5 -6t27.5 -13q13 -8 20 -13.5t14 -5.5q21 0 28 28h81q-12 -65 -45.5 -93.5t-73.5 -28.5zM290 506q102 0 154.5 -48t52.5 -126q0 -12 -1.5 -24.5t-3.5 -26.5
l-50 -281h-129l9 52h-8q-23 -29 -57.5 -48.5t-83.5 -19.5q-37 0 -67.5 11.5t-52 32t-33.5 49t-12 61.5q0 42 16.5 75t47 56.5t73 36t93.5 12.5q37 0 67.5 -6.5t58.5 -16.5l4 15q1 5 1.5 9t0.5 7q0 32 -26.5 53t-69.5 21q-38 0 -67 -14.5t-52 -41.5l-88 64q40 51 98 74.5
t125 23.5zM216 86q25 0 47.5 9.5t40 25t29 36t15.5 42.5q-15 7 -42.5 15.5t-63.5 8.5q-42 0 -72 -18.5t-30 -56.5q0 -31 22.5 -46.5t53.5 -15.5z" />
    <glyph glyph-name="adieresis" unicode="&#xe4;" 
d="M290 506q102 0 154.5 -48t52.5 -126q0 -12 -1.5 -24.5t-3.5 -26.5l-50 -281h-129l9 52h-8q-23 -29 -57.5 -48.5t-83.5 -19.5q-37 0 -67.5 11.5t-52 32t-33.5 49t-12 61.5q0 42 16.5 75t47 56.5t73 36t93.5 12.5q37 0 67.5 -6.5t58.5 -16.5l4 15q1 5 1.5 9t0.5 7
q0 32 -26.5 53t-69.5 21q-38 0 -67 -14.5t-52 -41.5l-88 64q40 51 98 74.5t125 23.5zM216 86q25 0 47.5 9.5t40 25t29 36t15.5 42.5q-15 7 -42.5 15.5t-63.5 8.5q-42 0 -72 -18.5t-30 -56.5q0 -31 22.5 -46.5t53.5 -15.5zM415 587q-29 0 -50 21.5t-21 50.5q0 30 21 51t50 21
q31 0 51.5 -21t20.5 -51q0 -29 -20.5 -50.5t-51.5 -21.5zM225 587q-30 0 -51 21.5t-21 50.5q0 30 21 51t51 21t50.5 -21t20.5 -51q0 -29 -20.5 -50.5t-50.5 -21.5z" />
    <glyph glyph-name="aring" unicode="&#xe5;" 
d="M290 506q102 0 154.5 -48t52.5 -126q0 -12 -1.5 -24.5t-3.5 -26.5l-50 -281h-129l9 52h-8q-23 -29 -57.5 -48.5t-83.5 -19.5q-37 0 -67.5 11.5t-52 32t-33.5 49t-12 61.5q0 42 16.5 75t47 56.5t73 36t93.5 12.5q37 0 67.5 -6.5t58.5 -16.5l4 15q1 5 1.5 9t0.5 7
q0 32 -26.5 53t-69.5 21q-38 0 -67 -14.5t-52 -41.5l-88 64q40 51 98 74.5t125 23.5zM216 86q25 0 47.5 9.5t40 25t29 36t15.5 42.5q-15 7 -42.5 15.5t-63.5 8.5q-42 0 -72 -18.5t-30 -56.5q0 -31 22.5 -46.5t53.5 -15.5zM319 561q-23 0 -42.5 8.5t-34 23t-23 34t-8.5 42.5
q0 22 8.5 42t23 34.5t34 23t42.5 8.5q22 0 42 -8.5t34.5 -23t23 -34.5t8.5 -42q0 -23 -8.5 -42.5t-23 -34t-34.5 -23t-42 -8.5zM319 634q14 0 24.5 10.5t10.5 24.5t-10.5 24.5t-24.5 10.5t-24 -10.5t-10 -24.5t10 -24.5t24 -10.5z" />
    <glyph glyph-name="ae" unicode="&#xe6;" horiz-adv-x="903" 
d="M829 120q-43 -64 -101 -100t-146 -36q-69 0 -114.5 27.5t-74.5 72.5q-85 -100 -218 -100q-38 0 -68.5 11.5t-52.5 32t-34 49t-12 61.5q0 42 16.5 75t47 56.5t73 36t93.5 12.5q37 0 68.5 -6.5t57.5 -16.5l4 15q1 5 1.5 9t0.5 7q0 35 -26.5 54.5t-68.5 19.5
q-35 0 -65.5 -14.5t-45.5 -40.5l-95 47q70 114 224 114q60 0 100.5 -23t63.5 -59q38 40 86.5 61t105.5 21q52 0 91.5 -16.5t66.5 -44.5t41 -65t14 -78q0 -24 -3.5 -45.5t-10.5 -41.5h-369v-10q2 -54 35.5 -79.5t77.5 -25.5q49 0 82 18.5t56 53.5zM216 86q25 0 47.5 9.5
t40 25t29 36t15.5 42.5q-17 8 -43.5 16t-62.5 8q-42 0 -72 -18.5t-30 -56.5q0 -31 22.5 -46.5t53.5 -15.5zM740 308v4q0 15 -6 30.5t-18.5 28t-33 20.5t-49.5 8q-24 0 -45.5 -7t-39 -19.5t-31 -29t-20.5 -35.5h243z" />
    <glyph glyph-name="ccedilla" unicode="&#xe7;" horiz-adv-x="545" 
d="M202 -237q-35 0 -62.5 19t-34.5 47l68 27q2 -12 11 -20t23 -8t25 9t11 26q0 31 -30 31q-9 0 -16 -4.5t-12 -9.5l-55 28l47 84q-79 18 -125.5 77.5t-46.5 145.5q0 58 21 110.5t60 92.5t95 64t126 24q85 0 140 -39.5t75 -103.5l-126 -49q-26 71 -107 71q-33 0 -61.5 -12.5
t-48.5 -34t-31.5 -50t-11.5 -60.5q0 -27 9 -50t24.5 -39t36.5 -25t45 -9q45 0 75 19.5t51 54.5l112 -54q-48 -76 -107 -108.5t-137 -32.5h-6l-19 -31q3 1 9 1h9q35 0 57 -24.5t22 -61.5q0 -49 -32 -77t-83 -28z" />
    <glyph glyph-name="egrave" unicode="&#xe8;" horiz-adv-x="556" 
d="M316 707l64 -148h-111l-84 148h131zM482 120q-43 -64 -101 -100t-145 -36q-54 0 -96.5 18t-72.5 49.5t-46 74t-16 90.5q0 57 21 109t59 92.5t92 64.5t120 24q54 0 94.5 -16.5t68 -44.5t41.5 -65t14 -78q0 -45 -14 -87h-369v-10q1 -27 10.5 -47t25 -32.5t35.5 -19t43 -6.5
q48 0 81 18.5t56 53.5zM393 308v4q0 34 -26.5 60.5t-80.5 26.5q-49 0 -85.5 -26.5t-50.5 -64.5h243z" />
    <glyph glyph-name="eacute" unicode="&#xe9;" horiz-adv-x="556" 
d="M483 707l-117 -148h-111l97 148h131zM482 120q-43 -64 -101 -100t-145 -36q-54 0 -96.5 18t-72.5 49.5t-46 74t-16 90.5q0 57 21 109t59 92.5t92 64.5t120 24q54 0 94.5 -16.5t68 -44.5t41.5 -65t14 -78q0 -45 -14 -87h-369v-10q1 -27 10.5 -47t25 -32.5t35.5 -19
t43 -6.5q48 0 81 18.5t56 53.5zM393 308v4q0 34 -26.5 60.5t-80.5 26.5q-49 0 -85.5 -26.5t-50.5 -64.5h243z" />
    <glyph glyph-name="ecircumflex" unicode="&#xea;" horiz-adv-x="556" 
d="M275 559h-117l145 148h108l65 -148h-107l-32 62zM482 120q-43 -64 -101 -100t-145 -36q-54 0 -96.5 18t-72.5 49.5t-46 74t-16 90.5q0 57 21 109t59 92.5t92 64.5t120 24q54 0 94.5 -16.5t68 -44.5t41.5 -65t14 -78q0 -45 -14 -87h-369v-10q1 -27 10.5 -47t25 -32.5
t35.5 -19t43 -6.5q48 0 81 18.5t56 53.5zM393 308v4q0 34 -26.5 60.5t-80.5 26.5q-49 0 -85.5 -26.5t-50.5 -64.5h243z" />
    <glyph glyph-name="edieresis" unicode="&#xeb;" horiz-adv-x="556" 
d="M422 587q-29 0 -50 21.5t-21 50.5q0 30 21 51t50 21q31 0 51.5 -21t20.5 -51q0 -29 -20.5 -50.5t-51.5 -21.5zM232 587q-30 0 -51 21.5t-21 50.5q0 30 21 51t51 21t50.5 -21t20.5 -51q0 -29 -20.5 -50.5t-50.5 -21.5zM482 120q-43 -64 -101 -100t-145 -36q-54 0 -96.5 18
t-72.5 49.5t-46 74t-16 90.5q0 57 21 109t59 92.5t92 64.5t120 24q54 0 94.5 -16.5t68 -44.5t41.5 -65t14 -78q0 -45 -14 -87h-369v-10q1 -27 10.5 -47t25 -32.5t35.5 -19t43 -6.5q48 0 81 18.5t56 53.5zM393 308v4q0 34 -26.5 60.5t-80.5 26.5q-49 0 -85.5 -26.5
t-50.5 -64.5h243z" />
    <glyph glyph-name="igrave" unicode="&#xec;" horiz-adv-x="259" 
d="M179 707l48 -148h-111l-68 148h131zM0 0l86 490h131l-86 -490h-131z" />
    <glyph glyph-name="iacute" unicode="&#xed;" horiz-adv-x="259" 
d="M323 707l-112 -148h-111l92 148h131zM0 0l86 490h131l-86 -490h-131z" />
    <glyph glyph-name="icircumflex" unicode="&#xee;" horiz-adv-x="259" 
d="M-2 590l132 126h119l91 -126l-1 -8h-121l-31 59h-12l-49 -59h-129zM0 0l86 490h131l-86 -490h-131z" />
    <glyph glyph-name="idieresis" unicode="&#xef;" horiz-adv-x="259" 
d="M96 591q-28 0 -48.5 20.5t-20.5 48.5q0 29 20.5 49t48.5 20q29 0 49 -20t20 -49q0 -28 -20 -48.5t-49 -20.5zM264 591q-28 0 -48.5 20.5t-20.5 48.5q0 29 20.5 49t48.5 20q29 0 49 -20t20 -49q0 -28 -20 -48.5t-49 -20.5zM0 0l85 490h131l-85 -490h-131z" />
    <glyph glyph-name="eth" unicode="&#xf0;" horiz-adv-x="578" 
d="M404 443q-21 60 -68 103l-123 -51l-31 75l72 30q-39 17 -84 25l35 99q97 -21 172 -74l116 48l31 -74l-83 -34q42 -52 65 -120t23 -155q0 -66 -18 -125.5t-55 -105.5t-93 -73t-131 -27q-46 0 -86 16t-69.5 44.5t-46.5 67.5t-17 85q0 57 20 107.5t56 88t86.5 59.5t111.5 22
q36 0 64 -10.5t45 -25.5zM251 101q28 0 53 12t43.5 32t29.5 46t11 55q0 52 -28 82t-76 30q-32 0 -58 -12t-45 -32.5t-29.5 -47.5t-10.5 -57q0 -51 32 -79.5t78 -28.5z" />
    <glyph glyph-name="ntilde" unicode="&#xf1;" horiz-adv-x="574" 
d="M190 426h8q26 38 68 59t93 21q38 0 67 -12.5t49 -33.5t30 -49.5t10 -60.5q0 -14 -1 -29t-4 -32l-52 -289h-130l50 281q1 5 1.5 13.5t0.5 16.5q0 32 -19 53t-57 21q-30 0 -53 -11t-40 -30.5t-28 -46t-17 -57.5l-42 -240h-131l86 490h123zM404 588q-21 0 -38 6.5t-31 15.5
q-15 8 -28 14.5t-25 6.5q-25 0 -33 -29h-92q8 66 42.5 97t85.5 31q21 0 38 -6.5t32 -14.5q14 -9 27 -15.5t25 -6.5q25 0 33 29h92q-8 -66 -42.5 -97t-85.5 -31z" />
    <glyph glyph-name="ograve" unicode="&#xf2;" horiz-adv-x="576" 
d="M335 707l64 -148h-111l-84 148h131zM303 506q53 0 96.5 -18t74 -49t47 -72.5t16.5 -88.5q0 -62 -22 -116t-61.5 -93.5t-94.5 -62t-120 -22.5q-53 0 -96.5 18t-74 49t-47 72.5t-16.5 89.5q0 62 22 115.5t61.5 93t94.5 62t120 22.5zM252 105q33 0 61 12.5t49 34.5
t32.5 50.5t11.5 61.5q0 26 -9 48.5t-24.5 38.5t-37 25t-45.5 9q-33 0 -61 -12.5t-49 -34.5t-32.5 -50.5t-11.5 -61.5q0 -26 9 -48.5t25 -38.5t37 -25t45 -9z" />
    <glyph glyph-name="oacute" unicode="&#xf3;" horiz-adv-x="576" 
d="M478 707l-117 -148h-111l97 148h131zM303 506q53 0 96.5 -18t74 -49t47 -72.5t16.5 -88.5q0 -62 -22 -116t-61.5 -93.5t-94.5 -62t-120 -22.5q-53 0 -96.5 18t-74 49t-47 72.5t-16.5 89.5q0 62 22 115.5t61.5 93t94.5 62t120 22.5zM252 105q33 0 61 12.5t49 34.5
t32.5 50.5t11.5 61.5q0 26 -9 48.5t-24.5 38.5t-37 25t-45.5 9q-33 0 -61 -12.5t-49 -34.5t-32.5 -50.5t-11.5 -61.5q0 -26 9 -48.5t25 -38.5t37 -25t45 -9z" />
    <glyph glyph-name="ocircumflex" unicode="&#xf4;" horiz-adv-x="576" 
d="M292 559h-117l145 148h108l65 -148h-107l-32 62zM303 506q53 0 96.5 -18t74 -49t47 -72.5t16.5 -88.5q0 -62 -22 -116t-61.5 -93.5t-94.5 -62t-120 -22.5q-53 0 -96.5 18t-74 49t-47 72.5t-16.5 89.5q0 62 22 115.5t61.5 93t94.5 62t120 22.5zM252 105q33 0 61 12.5
t49 34.5t32.5 50.5t11.5 61.5q0 26 -9 48.5t-24.5 38.5t-37 25t-45.5 9q-33 0 -61 -12.5t-49 -34.5t-32.5 -50.5t-11.5 -61.5q0 -26 9 -48.5t25 -38.5t37 -25t45 -9z" />
    <glyph glyph-name="otilde" unicode="&#xf5;" horiz-adv-x="576" 
d="M379 559q-18 0 -32 6t-26 14q-14 7 -21 12.5t-15 5.5q-21 0 -27 -28h-81q12 65 45 93.5t74 28.5q17 0 31.5 -6t27.5 -13q13 -8 20 -13.5t14 -5.5q21 0 28 28h81q-12 -65 -45.5 -93.5t-73.5 -28.5zM303 506q53 0 96.5 -18t74 -49t47 -72.5t16.5 -88.5q0 -62 -22 -116
t-61.5 -93.5t-94.5 -62t-120 -22.5q-53 0 -96.5 18t-74 49t-47 72.5t-16.5 89.5q0 62 22 115.5t61.5 93t94.5 62t120 22.5zM252 105q33 0 61 12.5t49 34.5t32.5 50.5t11.5 61.5q0 26 -9 48.5t-24.5 38.5t-37 25t-45.5 9q-33 0 -61 -12.5t-49 -34.5t-32.5 -50.5t-11.5 -61.5
q0 -26 9 -48.5t25 -38.5t37 -25t45 -9z" />
    <glyph glyph-name="odieresis" unicode="&#xf6;" horiz-adv-x="576" 
d="M434 587q-29 0 -50 21.5t-21 50.5q0 30 21 51t50 21q31 0 51.5 -21t20.5 -51q0 -29 -20.5 -50.5t-51.5 -21.5zM244 587q-30 0 -51 21.5t-21 50.5q0 30 21 51t51 21t50.5 -21t20.5 -51q0 -29 -20.5 -50.5t-50.5 -21.5zM303 506q53 0 96.5 -18t74 -49t47 -72.5t16.5 -88.5
q0 -62 -22 -116t-61.5 -93.5t-94.5 -62t-120 -22.5q-53 0 -96.5 18t-74 49t-47 72.5t-16.5 89.5q0 62 22 115.5t61.5 93t94.5 62t120 22.5zM252 105q33 0 61 12.5t49 34.5t32.5 50.5t11.5 61.5q0 26 -9 48.5t-24.5 38.5t-37 25t-45.5 9q-33 0 -61 -12.5t-49 -34.5
t-32.5 -50.5t-11.5 -61.5q0 -26 9 -48.5t25 -38.5t37 -25t45 -9z" />
    <glyph glyph-name="divide" unicode="&#xf7;" horiz-adv-x="569" 
d="M32 217l19 108h457l-20 -108h-456zM235 -8q-34 0 -58 24t-24 58t24 58t58 24t58 -24t24 -58t-24 -58t-58 -24zM304 386q-34 0 -58 24t-24 58t24 58t58 24q35 0 58.5 -24t23.5 -58t-23.5 -58t-58.5 -24z" />
    <glyph glyph-name="oslash" unicode="&#xf8;" horiz-adv-x="576" 
d="M29 9l36 45q-60 63 -60 159q0 62 22 115.5t61.5 93t94.5 62t120 22.5q57 0 106 -23l45 56l73 -61l-42 -52q25 -30 38.5 -68t13.5 -80q0 -62 -22 -116t-61.5 -93.5t-94.5 -62t-120 -22.5q-49 0 -94 17l-39 -49zM136 226q0 -35 16 -63l174 216q-15 6 -36 6q-33 0 -61 -12.5
t-49 -34.5t-32.5 -50.5t-11.5 -61.5zM252 105q33 0 61 12.5t49 34.5t32.5 50.5t11.5 61.5q0 29 -10 50l-166 -207q10 -2 12 -2h10z" />
    <glyph glyph-name="ugrave" unicode="&#xf9;" horiz-adv-x="574" 
d="M321 707l64 -148h-111l-84 148h131zM345 64h-8q-26 -38 -68 -59t-93 -21q-38 0 -67 12.5t-49 33.5t-30 49.5t-10 60.5q0 14 1 28t4 33l52 289h130l-50 -281q-1 -6 -1.5 -12.5t-0.5 -17.5q0 -32 19 -53t57 -21q30 0 53 11t40 30.5t28 46t17 57.5l42 240h131l-86 -490h-123
z" />
    <glyph glyph-name="uacute" unicode="&#xfa;" horiz-adv-x="574" 
d="M487 707l-117 -148h-111l97 148h131zM345 64h-8q-26 -38 -68 -59t-93 -21q-38 0 -67 12.5t-49 33.5t-30 49.5t-10 60.5q0 14 1 28t4 33l52 289h130l-50 -281q-1 -6 -1.5 -12.5t-0.5 -17.5q0 -32 19 -53t57 -21q30 0 53 11t40 30.5t28 46t17 57.5l42 240h131l-86 -490
h-123z" />
    <glyph glyph-name="ucircumflex" unicode="&#xfb;" horiz-adv-x="574" 
d="M156 575l132 126h119l91 -126l-1 -8h-121l-31 59h-12l-49 -59h-129zM345 64h-8q-26 -38 -68 -59t-93 -21q-38 0 -67 12.5t-49 33.5t-30 49.5t-10 60.5q0 14 1 28t4 33l52 289h130l-50 -281q-1 -6 -1.5 -12.5t-0.5 -17.5q0 -32 19 -53t57 -21q30 0 53 11t40 30.5t28 46
t17 57.5l42 240h131l-86 -490h-123z" />
    <glyph glyph-name="udieresis" unicode="&#xfc;" horiz-adv-x="574" 
d="M435 587q-29 0 -50 21.5t-21 50.5q0 30 21 51t50 21q31 0 51.5 -21t20.5 -51q0 -29 -20.5 -50.5t-51.5 -21.5zM245 587q-30 0 -51 21.5t-21 50.5q0 30 21 51t51 21t50.5 -21t20.5 -51q0 -29 -20.5 -50.5t-50.5 -21.5zM345 64h-8q-26 -38 -68 -59t-93 -21q-38 0 -67 12.5
t-49 33.5t-30 49.5t-10 60.5q0 14 1 28t4 33l52 289h130l-50 -281q-1 -6 -1.5 -12.5t-0.5 -17.5q0 -32 19 -53t57 -21q30 0 53 11t40 30.5t28 46t17 57.5l42 240h131l-86 -490h-123z" />
    <glyph glyph-name="yacute" unicode="&#xfd;" horiz-adv-x="553" 
d="M484 707l-117 -148h-111l97 148h131zM8 -216l151 245l-122 461h146l71 -298h8l173 298h148l-432 -706h-143z" />
    <glyph glyph-name="thorn" unicode="&#xfe;" horiz-adv-x="600" 
d="M371 506q44 0 81 -17.5t64 -48t42 -73t15 -92.5q0 -58 -20 -110.5t-56.5 -92.5t-87.5 -64t-112 -24q-51 0 -90.5 21.5t-57.5 53.5h-8l-2 -70l-37 -205h-131l164 932h131l-38 -215l-19 -70h8q20 29 57 52t97 23zM292 105q33 0 60.5 13t47.5 35t31 51t11 61
q0 55 -32.5 87.5t-87.5 32.5q-29 0 -56 -12t-47.5 -33t-33 -51t-12.5 -66q0 -54 33.5 -86t85.5 -32z" />
    <glyph glyph-name="ydieresis" unicode="&#xff;" horiz-adv-x="553" 
d="M8 -216l151 245l-122 461h146l71 -298h8l173 298h148l-432 -706h-143zM424 587q-29 0 -50 21.5t-21 50.5q0 30 21 51t50 21q31 0 51.5 -21t20.5 -51q0 -29 -20.5 -50.5t-51.5 -21.5zM234 587q-30 0 -51 21.5t-21 50.5q0 30 21 51t51 21t50.5 -21t20.5 -51
q0 -29 -20.5 -50.5t-50.5 -21.5z" />
    <glyph glyph-name="Abreve" unicode="&#x102;" horiz-adv-x="716" 
d="M432 775q-76 0 -105.5 37t-19.5 97h95q-4 -27 8 -39.5t34 -12.5q20 -1 37.5 12t21.5 40h99q-10 -60 -52.5 -97t-117.5 -37zM339 716h158l143 -716h-144l-31 171h-273l-90 -171h-153zM442 295l-33 180l-10 86h-8l-40 -86l-95 -180h186z" />
    <glyph glyph-name="abreve" unicode="&#x103;" 
d="M328 559q-76 0 -105.5 37t-19.5 97h95q-4 -27 8 -39.5t34 -12.5q20 -1 37.5 12t21.5 40h99q-10 -60 -52.5 -97t-117.5 -37zM290 506q102 0 154.5 -48t52.5 -126q0 -12 -1.5 -24.5t-3.5 -26.5l-50 -281h-129l9 52h-8q-23 -29 -57.5 -48.5t-83.5 -19.5q-37 0 -67.5 11.5
t-52 32t-33.5 49t-12 61.5q0 42 16.5 75t47 56.5t73 36t93.5 12.5q37 0 67.5 -6.5t58.5 -16.5l4 15q1 5 1.5 9t0.5 7q0 32 -26.5 53t-69.5 21q-38 0 -67 -14.5t-52 -41.5l-88 64q40 51 98 74.5t125 23.5zM216 86q25 0 47.5 9.5t40 25t29 36t15.5 42.5q-15 7 -42.5 15.5
t-63.5 8.5q-42 0 -72 -18.5t-30 -56.5q0 -31 22.5 -46.5t53.5 -15.5z" />
    <glyph glyph-name="Dcroat" unicode="&#x110;" horiz-adv-x="719" 
d="M17 398h61l57 318h228q79 0 140 -23.5t102 -65t62 -99t21 -126.5q0 -80 -29.5 -152.5t-85 -128t-134.5 -88.5t-179 -33h-252l52 296h-61zM267 128q64 0 117 20t90.5 55t58 82t20.5 102q0 97 -50.5 149t-153.5 52h-102l-34 -190h143l-19 -102h-142l-30 -168h102z" />
    <glyph glyph-name="dcroat" unicode="&#x111;" horiz-adv-x="600" 
d="M315 641h150l13 75h130l-13 -75h59l-19 -96h-57l-96 -545h-122l10 59h-8q-20 -29 -57.5 -52t-97.5 -23q-44 0 -81 17t-64 48t-42 73.5t-15 92.5q0 58 20 110.5t57 92.5t87.5 64t112.5 24q24 0 47 -5.5t42.5 -15.5t34 -24t23.5 -30h8l3 70l8 44h-151zM286 385
q-33 0 -60.5 -13t-47.5 -35t-31 -51t-11 -61q0 -55 33 -87.5t87 -32.5q29 0 56 12t47.5 33t33 51t12.5 66q0 54 -32.5 86t-86.5 32z" />
    <glyph glyph-name="Itilde" unicode="&#x128;" horiz-adv-x="279" 
d="M265 775q-18 0 -32 6t-26 14q-14 7 -21 12.5t-15 5.5q-21 0 -27 -28h-81q12 65 45 93.5t74 28.5q17 0 31.5 -6t27.5 -13q13 -8 20 -13.5t14 -5.5q21 0 28 28h81q-12 -65 -45.5 -93.5t-73.5 -28.5zM135 716h135l-127 -716h-135z" />
    <glyph glyph-name="itilde" unicode="&#x129;" horiz-adv-x="259" 
d="M209 559q-17 0 -29.5 6t-23.5 14q-13 7 -19 12.5t-14 5.5q-20 0 -24 -28h-74q10 66 40 94t68 28q16 0 29 -6t25 -13q12 -8 18 -13.5t13 -5.5q19 0 25 28h74q-10 -65 -41 -93.5t-67 -28.5zM0 0l86 490h131l-86 -490h-131z" />
    <glyph glyph-name="dotlessi" unicode="&#x131;" horiz-adv-x="259" 
d="M0 0l86 490h131l-86 -490h-131z" />
    <glyph glyph-name="OE" unicode="&#x152;" horiz-adv-x="1146" 
d="M815 588l-30 -166h288l-23 -128h-288l-29 -166h319l-22 -128h-454l12 69h-6q-40 -40 -97.5 -62.5t-129.5 -22.5q-69 0 -128.5 24t-103 68t-68.5 105.5t-25 135.5q0 84 31.5 159t87.5 132t133 90.5t169 33.5q79 0 136.5 -25t93.5 -70h7l15 79h454l-23 -128h-319zM381 112
q61 0 110.5 23t84.5 61.5t54 88.5t19 104q0 49 -15.5 88.5t-43.5 67.5t-66.5 43.5t-84.5 15.5q-60 0 -110 -23t-86 -61t-56.5 -88t-20.5 -105q0 -49 16.5 -88.5t46 -67.5t68.5 -43.5t84 -15.5z" />
    <glyph glyph-name="oe" unicode="&#x153;" horiz-adv-x="948" 
d="M880 120q-43 -64 -101.5 -100t-146.5 -36q-61 0 -105.5 23.5t-72.5 62.5q-38 -40 -90.5 -63t-118.5 -23q-54 0 -97 18t-74 49t-47.5 72.5t-16.5 89.5q0 62 22 115.5t61.5 93t94.5 62t120 22.5q60 0 105 -24t74 -66q38 42 90 66t119 24q53 0 93.5 -16.5t68 -44.5t41.5 -65
t14 -78q0 -24 -3.5 -45.5t-10.5 -41.5h-369q-1 -3 -1 -7v-3q1 -27 10.5 -47t25.5 -32.5t36 -19t42 -6.5q49 0 81.5 18.5t55.5 53.5zM258 105q33 0 61 12.5t48.5 34.5t32 50.5t11.5 61.5q0 26 -9 48.5t-24.5 38.5t-37 25t-45.5 9q-33 0 -61 -12.5t-48.5 -34.5t-32 -50.5
t-11.5 -61.5q0 -26 9 -48.5t24.5 -38.5t37 -25t45.5 -9zM791 308v4q0 15 -6 30.5t-18.5 28t-33 20.5t-49.5 8q-24 0 -45.5 -7t-39.5 -19.5t-31 -29t-20 -35.5h243z" />
    <glyph glyph-name="Utilde" unicode="&#x168;" horiz-adv-x="669" 
d="M457 775q-18 0 -32 6t-26 14q-14 7 -21 12.5t-15 5.5q-21 0 -27 -28h-81q12 65 45 93.5t74 28.5q17 0 31.5 -6t27.5 -13q13 -8 20 -13.5t14 -5.5q21 0 28 28h81q-12 -65 -45.5 -93.5t-73.5 -28.5zM278 -16q-53 0 -97 17t-75.5 48t-49 74.5t-17.5 96.5q0 15 1.5 35.5
t6.5 48.5l73 412h135l-77 -435q-2 -14 -3.5 -25t-1.5 -22q0 -55 30 -88.5t93 -33.5q69 0 112.5 45t56.5 120l77 439h135l-79 -447q-26 -146 -109 -215.5t-211 -69.5z" />
    <glyph glyph-name="utilde" unicode="&#x169;" horiz-adv-x="574" 
d="M376 559q-18 0 -32 6t-26 14q-14 7 -21 12.5t-15 5.5q-21 0 -27 -28h-81q12 65 45 93.5t74 28.5q17 0 31.5 -6t27.5 -13q13 -8 20 -13.5t14 -5.5q21 0 28 28h81q-12 -65 -45.5 -93.5t-73.5 -28.5zM345 64h-8q-26 -38 -68 -59t-93 -21q-38 0 -67 12.5t-49 33.5t-30 49.5
t-10 60.5q0 14 1 28t4 33l52 289h130l-50 -281q-1 -6 -1.5 -12.5t-0.5 -17.5q0 -32 19 -53t57 -21q30 0 53 11t40 30.5t28 46t17 57.5l42 240h131l-86 -490h-123z" />
    <glyph glyph-name="Ohorn" unicode="&#x1a0;" horiz-adv-x="822" 
d="M366 -16q-72 0 -133.5 24t-106.5 67.5t-70.5 105t-25.5 136.5q0 84 31 159.5t87 132t134.5 90t173.5 33.5q61 0 110 -16q36 -4 49 -3q8 1 16.5 1h16.5q27 0 44.5 17.5t25.5 65.5l97 -27q-13 -67 -54 -106q-24 -22 -59 -30q43 -44 65 -102q25 -60 25 -133q0 -84 -31 -159
t-87 -132t-134.5 -90.5t-173.5 -33.5zM380 112q57 0 107 22.5t87.5 60.5t59.5 88t22 106q0 49 -16.5 88.5t-45.5 67.5t-68 43.5t-84 15.5q-59 0 -109 -23t-87.5 -61.5t-58.5 -88.5t-21 -104q0 -49 16.5 -88.5t45.5 -67.5t68 -43.5t84 -15.5z" />
    <glyph glyph-name="ohorn" unicode="&#x1a1;" horiz-adv-x="576" 
d="M303 506q49 0 92 -17h11h32q27 0 44.5 17.5t25.5 65.5l97 -27q-13 -67 -54 -106q-23 -20 -54 -29q14 -20 23 -44q17 -42 17 -88q0 -62 -22 -116t-61.5 -93.5t-94.5 -62t-120 -22.5q-53 0 -96.5 18t-74 49t-47 72.5t-16.5 89.5q0 62 22 115.5t61.5 93t94.5 62t120 22.5z
M252 105q33 0 61 12.5t49 34.5t32.5 50.5t11.5 61.5q0 26 -9 48.5t-24.5 38.5t-37 25t-45.5 9q-33 0 -61 -12.5t-49 -34.5t-32.5 -50.5t-11.5 -61.5q0 -26 9 -48.5t25 -38.5t37 -25t45 -9z" />
    <glyph glyph-name="Uhorn" unicode="&#x1af;" horiz-adv-x="669" 
d="M278 -16q-53 0 -97 17t-75.5 48t-49 74.5t-17.5 96.5q0 15 1.5 35.5t6.5 48.5l73 412h135l-77 -435q-2 -14 -3.5 -25t-1.5 -22q0 -55 30 -88.5t93 -33.5q69 0 112.5 45t56.5 120l77 439h96q17 5 27 16q18 18 26 65l97 -27q-13 -67 -54 -106q-29 -26 -72 -33l-64 -362
q-26 -146 -109 -215.5t-211 -69.5z" />
    <glyph glyph-name="uhorn" unicode="&#x1b0;" horiz-adv-x="574" 
d="M345 64h-8q-26 -38 -68 -59t-93 -21q-38 0 -67 12.5t-49 33.5t-30 49.5t-10 60.5q0 14 1 28t4 33l52 289h130l-50 -281q-1 -6 -1.5 -12.5t-0.5 -17.5q0 -32 19 -53t57 -21q30 0 53 11t40 30.5t28 46t17 57.5l42 240h88q17 3 31 17q18 18 26 65l97 -27q-13 -67 -54 -106
q-29 -26 -72 -33l-71 -406h-123z" />
    <glyph glyph-name="circumflex" unicode="&#x2c6;" horiz-adv-x="456" 
d="M97 590l132 126h119l91 -126l-1 -8h-121l-31 59h-12l-49 -59h-129z" />
    <glyph glyph-name="ring" unicode="&#x2da;" horiz-adv-x="408" 
d="M253 564q-23 0 -42.5 8.5t-34 23t-23 34t-8.5 42.5q0 22 8.5 42t23 34.5t34 23t42.5 8.5q22 0 42 -8.5t34.5 -23t23 -34.5t8.5 -42q0 -23 -8.5 -42.5t-23 -34t-34.5 -23t-42 -8.5zM253 637q14 0 24.5 10.5t10.5 24.5t-10.5 24.5t-24.5 10.5t-24 -10.5t-10 -24.5t10 -24.5
t24 -10.5z" />
    <glyph glyph-name="tilde" unicode="&#x2dc;" horiz-adv-x="419" 
d="M320 587q-21 0 -38 6.5t-31 15.5q-15 8 -28 14.5t-25 6.5q-25 0 -33 -29h-92q8 66 42.5 97t85.5 31q21 0 38 -6.5t32 -14.5q14 -9 27 -15.5t25 -6.5q25 0 33 29h92q-8 -66 -42.5 -97t-85.5 -31z" />
    <glyph glyph-name="uni1EA0" unicode="&#x1ea0;" horiz-adv-x="716" 
d="M277 -243q-31 0 -53 21.5t-22 53.5t22 54t53 22q32 0 54.5 -22t22.5 -54q0 -31 -22.5 -53t-54.5 -22zM339 716h158l143 -716h-144l-31 171h-273l-90 -171h-153zM442 295l-33 180l-10 86h-8l-40 -86l-95 -180h186z" />
    <glyph glyph-name="uni1EA1" unicode="&#x1ea1;" 
d="M198 -243q-31 0 -53 21.5t-22 53.5t22 54t53 22q32 0 54.5 -22t22.5 -54q0 -31 -22.5 -53t-54.5 -22zM290 506q102 0 154.5 -48t52.5 -126q0 -12 -1.5 -24.5t-3.5 -26.5l-50 -281h-129l9 52h-8q-23 -29 -57.5 -48.5t-83.5 -19.5q-37 0 -67.5 11.5t-52 32t-33.5 49
t-12 61.5q0 42 16.5 75t47 56.5t73 36t93.5 12.5q37 0 67.5 -6.5t58.5 -16.5l4 15q1 5 1.5 9t0.5 7q0 32 -26.5 53t-69.5 21q-38 0 -67 -14.5t-52 -41.5l-88 64q40 51 98 74.5t125 23.5zM216 86q25 0 47.5 9.5t40 25t29 36t15.5 42.5q-15 7 -42.5 15.5t-63.5 8.5
q-42 0 -72 -18.5t-30 -56.5q0 -31 22.5 -46.5t53.5 -15.5z" />
    <glyph glyph-name="uni1EA2" unicode="&#x1ea2;" horiz-adv-x="716" 
d="M385 785q2 11 6.5 23.5t12.5 21.5q7 9 17 15.5l20 13t17.5 13.5t9.5 18q2 10 -6 14t-17 4q-10 0 -19.5 -4t-23.5 -19l-70 27q21 35 55 52.5t77 17.5q51 0 77.5 -23.5t19.5 -60.5q-5 -29 -17.5 -43.5t-26 -24t-25.5 -18.5t-18 -27h-89zM339 716h158l143 -716h-144l-31 171
h-273l-90 -171h-153zM442 295l-33 180l-10 86h-8l-40 -86l-95 -180h186z" />
    <glyph glyph-name="uni1EA3" unicode="&#x1ea3;" 
d="M284 569q2 11 6.5 23.5t12.5 21.5q7 9 17 15.5l20 13t17.5 13.5t9.5 18q2 10 -6 14t-17 4q-10 0 -19.5 -4t-23.5 -19l-70 27q21 35 55 52.5t77 17.5q51 0 77.5 -23.5t19.5 -60.5q-5 -29 -17.5 -43.5t-26 -24t-25.5 -18.5t-18 -27h-89zM290 506q102 0 154.5 -48t52.5 -126
q0 -12 -1.5 -24.5t-3.5 -26.5l-50 -281h-129l9 52h-8q-23 -29 -57.5 -48.5t-83.5 -19.5q-37 0 -67.5 11.5t-52 32t-33.5 49t-12 61.5q0 42 16.5 75t47 56.5t73 36t93.5 12.5q37 0 67.5 -6.5t58.5 -16.5l4 15q1 5 1.5 9t0.5 7q0 32 -26.5 53t-69.5 21q-38 0 -67 -14.5
t-52 -41.5l-88 64q40 51 98 74.5t125 23.5zM216 86q25 0 47.5 9.5t40 25t29 36t15.5 42.5q-15 7 -42.5 15.5t-63.5 8.5q-42 0 -72 -18.5t-30 -56.5q0 -31 22.5 -46.5t53.5 -15.5z" />
    <glyph glyph-name="uni1EA4" unicode="&#x1ea4;" horiz-adv-x="716" 
d="M339 716h158l143 -716h-144l-31 171h-273l-90 -171h-153zM442 295l-33 180l-10 86h-8l-40 -86l-95 -180h186zM385 775h-117l136 132h108l74 -132h-107l-36 55zM776 994l-96 -117h-111l76 117h131z" />
    <glyph glyph-name="uni1EA5" unicode="&#x1ea5;" 
d="M278 559h-117l136 132h108l74 -132h-107l-36 55zM290 506q102 0 154.5 -48t52.5 -126q0 -12 -1.5 -24.5t-3.5 -26.5l-50 -281h-129l9 52h-8q-23 -29 -57.5 -48.5t-83.5 -19.5q-37 0 -67.5 11.5t-52 32t-33.5 49t-12 61.5q0 42 16.5 75t47 56.5t73 36t93.5 12.5
q37 0 67.5 -6.5t58.5 -16.5l4 15q1 5 1.5 9t0.5 7q0 32 -26.5 53t-69.5 21q-38 0 -67 -14.5t-52 -41.5l-88 64q40 51 98 74.5t125 23.5zM216 86q25 0 47.5 9.5t40 25t29 36t15.5 42.5q-15 7 -42.5 15.5t-63.5 8.5q-42 0 -72 -18.5t-30 -56.5q0 -31 22.5 -46.5t53.5 -15.5z
M669 778l-96 -117h-111l76 117h131z" />
    <glyph glyph-name="uni1EA6" unicode="&#x1ea6;" horiz-adv-x="716" 
d="M339 716h158l143 -716h-144l-31 171h-273l-90 -171h-153zM442 295l-33 180l-10 86h-8l-40 -86l-95 -180h186zM385 775h-117l136 132h108l74 -132h-107l-36 55zM641 994l52 -117h-111l-72 117h131z" />
    <glyph glyph-name="uni1EA7" unicode="&#x1ea7;" 
d="M278 559h-117l136 132h108l74 -132h-107l-36 55zM290 506q102 0 154.5 -48t52.5 -126q0 -12 -1.5 -24.5t-3.5 -26.5l-50 -281h-129l9 52h-8q-23 -29 -57.5 -48.5t-83.5 -19.5q-37 0 -67.5 11.5t-52 32t-33.5 49t-12 61.5q0 42 16.5 75t47 56.5t73 36t93.5 12.5
q37 0 67.5 -6.5t58.5 -16.5l4 15q1 5 1.5 9t0.5 7q0 32 -26.5 53t-69.5 21q-38 0 -67 -14.5t-52 -41.5l-88 64q40 51 98 74.5t125 23.5zM216 86q25 0 47.5 9.5t40 25t29 36t15.5 42.5q-15 7 -42.5 15.5t-63.5 8.5q-42 0 -72 -18.5t-30 -56.5q0 -31 22.5 -46.5t53.5 -15.5z
M534 778l52 -117h-111l-72 117h131z" />
    <glyph glyph-name="uni1EA8" unicode="&#x1ea8;" horiz-adv-x="716" 
d="M339 716h158l143 -716h-144l-31 171h-273l-90 -171h-153zM442 295l-33 180l-10 86h-8l-40 -86l-95 -180h186zM385 775h-117l136 132h108l74 -132h-107l-36 55zM562 867q2 9 6 20t9 19q6 7 14 12.5t15.5 10.5t13 10t6.5 12q2 8 -2.5 11.5t-12.5 3.5q-23 0 -36 -24l-62 24
q17 32 45 47t69 15q42 0 64 -19.5t17 -49.5q-4 -24 -13.5 -36t-20.5 -19.5t-21 -15t-14 -21.5h-77z" />
    <glyph glyph-name="uni1EA9" unicode="&#x1ea9;" 
d="M278 559h-117l136 132h108l74 -132h-107l-36 55zM290 506q102 0 154.5 -48t52.5 -126q0 -12 -1.5 -24.5t-3.5 -26.5l-50 -281h-129l9 52h-8q-23 -29 -57.5 -48.5t-83.5 -19.5q-37 0 -67.5 11.5t-52 32t-33.5 49t-12 61.5q0 42 16.5 75t47 56.5t73 36t93.5 12.5
q37 0 67.5 -6.5t58.5 -16.5l4 15q1 5 1.5 9t0.5 7q0 32 -26.5 53t-69.5 21q-38 0 -67 -14.5t-52 -41.5l-88 64q40 51 98 74.5t125 23.5zM216 86q25 0 47.5 9.5t40 25t29 36t15.5 42.5q-15 7 -42.5 15.5t-63.5 8.5q-42 0 -72 -18.5t-30 -56.5q0 -31 22.5 -46.5t53.5 -15.5z
M455 651q2 9 6 20t9 19q6 7 14 12.5t15.5 10.5t13 10t6.5 12q2 8 -2.5 11.5t-12.5 3.5q-23 0 -36 -24l-62 24q17 32 45 47t69 15q42 0 64 -19.5t17 -49.5q-4 -24 -13.5 -36t-20.5 -19.5t-21 -15t-14 -21.5h-77z" />
    <glyph glyph-name="uni1EAA" unicode="&#x1eaa;" horiz-adv-x="716" 
d="M384 775h-117l131 122h108l79 -122h-107l-37 51zM339 716h158l143 -716h-144l-31 171h-273l-90 -171h-153zM442 295l-33 180l-10 86h-8l-40 -86l-95 -180h186zM510 921q-18 0 -32 5t-26 12q-14 6 -21 11t-15 5q-21 0 -27 -24h-81q12 56 44.5 80t74.5 24q17 0 31.5 -5
t27.5 -11q13 -7 20 -12t14 -5q20 0 28 24h81q-12 -55 -45.5 -79.5t-73.5 -24.5z" />
    <glyph glyph-name="uni1EAB" unicode="&#x1eab;" 
d="M278 559h-117l131 122h108l79 -122h-107l-37 51zM290 506q102 0 154.5 -48t52.5 -126q0 -12 -1.5 -24.5t-3.5 -26.5l-50 -281h-129l9 52h-8q-23 -29 -57.5 -48.5t-83.5 -19.5q-37 0 -67.5 11.5t-52 32t-33.5 49t-12 61.5q0 42 16.5 75t47 56.5t73 36t93.5 12.5
q37 0 67.5 -6.5t58.5 -16.5l4 15q1 5 1.5 9t0.5 7q0 32 -26.5 53t-69.5 21q-38 0 -67 -14.5t-52 -41.5l-88 64q40 51 98 74.5t125 23.5zM216 86q25 0 47.5 9.5t40 25t29 36t15.5 42.5q-15 7 -42.5 15.5t-63.5 8.5q-42 0 -72 -18.5t-30 -56.5q0 -31 22.5 -46.5t53.5 -15.5z
M404 711q-18 0 -32 5t-26 12q-14 6 -21 11t-15 5q-21 0 -27 -24h-81q12 56 44.5 80t74.5 24q17 0 31.5 -5t27.5 -11q13 -7 20 -12t14 -5q20 0 28 24h81q-12 -55 -45.5 -79.5t-73.5 -24.5z" />
    <glyph glyph-name="uni1EAC" unicode="&#x1eac;" horiz-adv-x="716" 
d="M277 -243q-31 0 -53 21.5t-22 53.5t22 54t53 22q32 0 54.5 -22t22.5 -54q0 -31 -22.5 -53t-54.5 -22zM384 775h-117l145 148h108l65 -148h-107l-32 62zM339 716h158l143 -716h-144l-31 171h-273l-90 -171h-153zM442 295l-33 180l-10 86h-8l-40 -86l-95 -180h186z" />
    <glyph glyph-name="uni1EAD" unicode="&#x1ead;" 
d="M198 -243q-31 0 -53 21.5t-22 53.5t22 54t53 22q32 0 54.5 -22t22.5 -54q0 -31 -22.5 -53t-54.5 -22zM278 559h-117l145 148h108l65 -148h-107l-32 62zM290 506q102 0 154.5 -48t52.5 -126q0 -12 -1.5 -24.5t-3.5 -26.5l-50 -281h-129l9 52h-8q-23 -29 -57.5 -48.5
t-83.5 -19.5q-37 0 -67.5 11.5t-52 32t-33.5 49t-12 61.5q0 42 16.5 75t47 56.5t73 36t93.5 12.5q37 0 67.5 -6.5t58.5 -16.5l4 15q1 5 1.5 9t0.5 7q0 32 -26.5 53t-69.5 21q-38 0 -67 -14.5t-52 -41.5l-88 64q40 51 98 74.5t125 23.5zM216 86q25 0 47.5 9.5t40 25t29 36
t15.5 42.5q-15 7 -42.5 15.5t-63.5 8.5q-42 0 -72 -18.5t-30 -56.5q0 -31 22.5 -46.5t53.5 -15.5z" />
    <glyph glyph-name="uni1EAE" unicode="&#x1eae;" horiz-adv-x="716" 
d="M339 716h158l143 -716h-144l-31 171h-273l-90 -171h-153zM442 295l-33 180l-10 86h-8l-40 -86l-95 -180h186zM432 775q-76 0 -106.5 32.5t-21.5 84.5h95q-3 -24 9 -34.5t34 -10.5q20 -1 37.5 10t20.5 35h99q-9 -52 -50.5 -84.5t-116.5 -32.5zM597 1031l-96 -117h-111
l76 117h131z" />
    <glyph glyph-name="uni1EAF" unicode="&#x1eaf;" 
d="M328 559q-76 0 -106.5 32.5t-21.5 84.5h95q-3 -24 9 -34.5t34 -10.5q20 -1 37.5 10t20.5 35h99q-9 -52 -50.5 -84.5t-116.5 -32.5zM290 506q102 0 154.5 -48t52.5 -126q0 -12 -1.5 -24.5t-3.5 -26.5l-50 -281h-129l9 52h-8q-23 -29 -57.5 -48.5t-83.5 -19.5
q-37 0 -67.5 11.5t-52 32t-33.5 49t-12 61.5q0 42 16.5 75t47 56.5t73 36t93.5 12.5q37 0 67.5 -6.5t58.5 -16.5l4 15q1 5 1.5 9t0.5 7q0 32 -26.5 53t-69.5 21q-38 0 -67 -14.5t-52 -41.5l-88 64q40 51 98 74.5t125 23.5zM216 86q25 0 47.5 9.5t40 25t29 36t15.5 42.5
q-15 7 -42.5 15.5t-63.5 8.5q-42 0 -72 -18.5t-30 -56.5q0 -31 22.5 -46.5t53.5 -15.5zM493 815l-96 -117h-111l76 117h131z" />
    <glyph glyph-name="uni1EB0" unicode="&#x1eb0;" horiz-adv-x="716" 
d="M339 716h158l143 -716h-144l-31 171h-273l-90 -171h-153zM442 295l-33 180l-10 86h-8l-40 -86l-95 -180h186zM432 775q-76 0 -106.5 32.5t-21.5 84.5h95q-3 -24 9 -34.5t34 -10.5q20 -1 37.5 10t20.5 35h99q-9 -52 -50.5 -84.5t-116.5 -32.5zM461 1031l52 -117h-111
l-72 117h131z" />
    <glyph glyph-name="uni1EB1" unicode="&#x1eb1;" 
d="M328 559q-76 0 -106.5 32.5t-21.5 84.5h95q-3 -24 9 -34.5t34 -10.5q20 -1 37.5 10t20.5 35h99q-9 -52 -50.5 -84.5t-116.5 -32.5zM290 506q102 0 154.5 -48t52.5 -126q0 -12 -1.5 -24.5t-3.5 -26.5l-50 -281h-129l9 52h-8q-23 -29 -57.5 -48.5t-83.5 -19.5
q-37 0 -67.5 11.5t-52 32t-33.5 49t-12 61.5q0 42 16.5 75t47 56.5t73 36t93.5 12.5q37 0 67.5 -6.5t58.5 -16.5l4 15q1 5 1.5 9t0.5 7q0 32 -26.5 53t-69.5 21q-38 0 -67 -14.5t-52 -41.5l-88 64q40 51 98 74.5t125 23.5zM216 86q25 0 47.5 9.5t40 25t29 36t15.5 42.5
q-15 7 -42.5 15.5t-63.5 8.5q-42 0 -72 -18.5t-30 -56.5q0 -31 22.5 -46.5t53.5 -15.5zM357 815l52 -117h-111l-72 117h131z" />
    <glyph glyph-name="uni1EB2" unicode="&#x1eb2;" horiz-adv-x="716" 
d="M339 716h158l143 -716h-144l-31 171h-273l-90 -171h-153zM442 295l-33 180l-10 86h-8l-40 -86l-95 -180h186zM412 908q2 8 6 18.5t9 17.5q6 7 13 12t13.5 9.5t11 9.5t5.5 11q3 14 -13 14q-19 0 -31 -23l-63 23q32 57 112 57q42 0 65 -18t18 -46q-3 -22 -12.5 -33t-20 -18
t-20.5 -14t-14 -20h-79zM432 775q-76 0 -107.5 31.5t-23.5 82.5h95q-2 -23 10 -33.5t34 -10.5q20 -1 37.5 10t19.5 34h99q-8 -51 -48.5 -82.5t-115.5 -31.5z" />
    <glyph glyph-name="uni1EB3" unicode="&#x1eb3;" 
d="M290 506q102 0 154.5 -48t52.5 -126q0 -12 -1.5 -24.5t-3.5 -26.5l-50 -281h-129l9 52h-8q-23 -29 -57.5 -48.5t-83.5 -19.5q-37 0 -67.5 11.5t-52 32t-33.5 49t-12 61.5q0 42 16.5 75t47 56.5t73 36t93.5 12.5q37 0 67.5 -6.5t58.5 -16.5l4 15q1 5 1.5 9t0.5 7
q0 32 -26.5 53t-69.5 21q-38 0 -67 -14.5t-52 -41.5l-88 64q40 51 98 74.5t125 23.5zM216 86q25 0 47.5 9.5t40 25t29 36t15.5 42.5q-15 7 -42.5 15.5t-63.5 8.5q-42 0 -72 -18.5t-30 -56.5q0 -31 22.5 -46.5t53.5 -15.5zM309 692q2 8 6 18.5t9 17.5q6 7 13 12t13.5 9.5
t11 9.5t5.5 11q3 14 -13 14q-19 0 -31 -23l-63 23q32 57 112 57q42 0 65 -18t18 -46q-3 -22 -12.5 -33t-20 -18t-20.5 -14t-14 -20h-79zM329 559q-76 0 -107.5 31.5t-23.5 82.5h95q-2 -23 10 -33.5t34 -10.5q20 -1 37.5 10t19.5 34h99q-8 -51 -48.5 -82.5t-115.5 -31.5z" />
    <glyph glyph-name="uni1EB4" unicode="&#x1eb4;" horiz-adv-x="716" 
d="M339 716h158l143 -716h-144l-31 171h-273l-90 -171h-153zM442 295l-33 180l-10 86h-8l-40 -86l-95 -180h186zM432 775q-76 0 -106.5 32.5t-21.5 84.5h95q-3 -24 9 -34.5t34 -10.5q20 -1 37.5 10t20.5 35h99q-9 -52 -50.5 -84.5t-116.5 -32.5zM513 918q-18 0 -32 5t-26 12
q-14 5 -21 9.5t-15 4.5q-21 0 -27 -23h-81q11 54 44.5 77.5t74.5 23.5q17 0 31.5 -5t27.5 -11t20 -10.5t14 -4.5q20 0 28 23h81q-11 -54 -45 -77.5t-74 -23.5z" />
    <glyph glyph-name="uni1EB5" unicode="&#x1eb5;" 
d="M328 559q-76 0 -106.5 32.5t-21.5 84.5h95q-3 -24 9 -34.5t34 -10.5q20 -1 37.5 10t20.5 35h99q-9 -52 -50.5 -84.5t-116.5 -32.5zM290 506q102 0 154.5 -48t52.5 -126q0 -12 -1.5 -24.5t-3.5 -26.5l-50 -281h-129l9 52h-8q-23 -29 -57.5 -48.5t-83.5 -19.5
q-37 0 -67.5 11.5t-52 32t-33.5 49t-12 61.5q0 42 16.5 75t47 56.5t73 36t93.5 12.5q37 0 67.5 -6.5t58.5 -16.5l4 15q1 5 1.5 9t0.5 7q0 32 -26.5 53t-69.5 21q-38 0 -67 -14.5t-52 -41.5l-88 64q40 51 98 74.5t125 23.5zM216 86q25 0 47.5 9.5t40 25t29 36t15.5 42.5
q-15 7 -42.5 15.5t-63.5 8.5q-42 0 -72 -18.5t-30 -56.5q0 -31 22.5 -46.5t53.5 -15.5zM409 702q-18 0 -32 5t-26 12q-14 5 -21 9.5t-15 4.5q-21 0 -27 -23h-81q11 54 44.5 77.5t74.5 23.5q17 0 31.5 -5t27.5 -11t20 -10.5t14 -4.5q20 0 28 23h81q-11 -54 -45 -77.5
t-74 -23.5z" />
    <glyph glyph-name="uni1EB6" unicode="&#x1eb6;" horiz-adv-x="716" 
d="M277 -243q-31 0 -53 21.5t-22 53.5t22 54t53 22q32 0 54.5 -22t22.5 -54q0 -31 -22.5 -53t-54.5 -22zM432 775q-76 0 -105.5 37t-19.5 97h95q-4 -27 8 -39.5t34 -12.5q20 -1 37.5 12t21.5 40h99q-10 -60 -52.5 -97t-117.5 -37zM339 716h158l143 -716h-144l-31 171h-273
l-90 -171h-153zM442 295l-33 180l-10 86h-8l-40 -86l-95 -180h186z" />
    <glyph glyph-name="uni1EB7" unicode="&#x1eb7;" 
d="M198 -243q-31 0 -53 21.5t-22 53.5t22 54t53 22q32 0 54.5 -22t22.5 -54q0 -31 -22.5 -53t-54.5 -22zM328 559q-76 0 -105.5 37t-19.5 97h95q-4 -27 8 -39.5t34 -12.5q20 -1 37.5 12t21.5 40h99q-10 -60 -52.5 -97t-117.5 -37zM290 506q102 0 154.5 -48t52.5 -126
q0 -12 -1.5 -24.5t-3.5 -26.5l-50 -281h-129l9 52h-8q-23 -29 -57.5 -48.5t-83.5 -19.5q-37 0 -67.5 11.5t-52 32t-33.5 49t-12 61.5q0 42 16.5 75t47 56.5t73 36t93.5 12.5q37 0 67.5 -6.5t58.5 -16.5l4 15q1 5 1.5 9t0.5 7q0 32 -26.5 53t-69.5 21q-38 0 -67 -14.5
t-52 -41.5l-88 64q40 51 98 74.5t125 23.5zM216 86q25 0 47.5 9.5t40 25t29 36t15.5 42.5q-15 7 -42.5 15.5t-63.5 8.5q-42 0 -72 -18.5t-30 -56.5q0 -31 22.5 -46.5t53.5 -15.5z" />
    <glyph glyph-name="uni1EB8" unicode="&#x1eb8;" horiz-adv-x="578" 
d="M209 -243q-31 0 -53 21.5t-22 53.5t22 54t53 22q32 0 54.5 -22t22.5 -54q0 -31 -22.5 -53t-54.5 -22zM247 588l-29 -166h287l-23 -128h-287l-30 -166h320l-23 -128h-454l127 716h454l-23 -128h-319z" />
    <glyph glyph-name="uni1EB9" unicode="&#x1eb9;" horiz-adv-x="556" 
d="M201 -243q-31 0 -53 21.5t-22 53.5t22 54t53 22q32 0 54.5 -22t22.5 -54q0 -31 -22.5 -53t-54.5 -22zM482 120q-43 -64 -101 -100t-145 -36q-54 0 -96.5 18t-72.5 49.5t-46 74t-16 90.5q0 57 21 109t59 92.5t92 64.5t120 24q54 0 94.5 -16.5t68 -44.5t41.5 -65t14 -78
q0 -45 -14 -87h-369v-10q1 -27 10.5 -47t25 -32.5t35.5 -19t43 -6.5q48 0 81 18.5t56 53.5zM393 308v4q0 34 -26.5 60.5t-80.5 26.5q-49 0 -85.5 -26.5t-50.5 -64.5h243z" />
    <glyph glyph-name="uni1EBA" unicode="&#x1eba;" horiz-adv-x="578" 
d="M326 785q2 11 6.5 23.5t12.5 21.5q7 9 17 15.5l20 13t17.5 13.5t9.5 18q2 10 -6 14t-17 4q-10 0 -19.5 -4t-23.5 -19l-70 27q21 35 55 52.5t77 17.5q51 0 77.5 -23.5t19.5 -60.5q-5 -29 -17.5 -43.5t-26 -24t-25.5 -18.5t-18 -27h-89zM247 588l-29 -166h287l-23 -128
h-287l-30 -166h320l-23 -128h-454l127 716h454l-23 -128h-319z" />
    <glyph glyph-name="uni1EBB" unicode="&#x1ebb;" horiz-adv-x="556" 
d="M278 569q2 11 6.5 23.5t12.5 21.5q7 9 17 15.5l20 13t17.5 13.5t9.5 18q2 10 -6 14t-17 4q-10 0 -19.5 -4t-23.5 -19l-70 27q21 35 55 52.5t77 17.5q51 0 77.5 -23.5t19.5 -60.5q-5 -29 -17.5 -43.5t-26 -24t-25.5 -18.5t-18 -27h-89zM482 120q-43 -64 -101 -100
t-145 -36q-54 0 -96.5 18t-72.5 49.5t-46 74t-16 90.5q0 57 21 109t59 92.5t92 64.5t120 24q54 0 94.5 -16.5t68 -44.5t41.5 -65t14 -78q0 -45 -14 -87h-369v-10q1 -27 10.5 -47t25 -32.5t35.5 -19t43 -6.5q48 0 81 18.5t56 53.5zM393 308v4q0 34 -26.5 60.5t-80.5 26.5
q-49 0 -85.5 -26.5t-50.5 -64.5h243z" />
    <glyph glyph-name="uni1EBC" unicode="&#x1ebc;" horiz-adv-x="578" 
d="M430 775q-18 0 -32 6t-26 14q-14 7 -21 12.5t-15 5.5q-21 0 -27 -28h-81q12 65 45 93.5t74 28.5q17 0 31.5 -6t27.5 -13q13 -8 20 -13.5t14 -5.5q21 0 28 28h81q-12 -65 -45.5 -93.5t-73.5 -28.5zM247 588l-29 -166h287l-23 -128h-287l-30 -166h320l-23 -128h-454
l127 716h454l-23 -128h-319z" />
    <glyph glyph-name="uni1EBD" unicode="&#x1ebd;" horiz-adv-x="556" 
d="M369 559q-18 0 -32 6t-26 14q-14 7 -21 12.5t-15 5.5q-21 0 -27 -28h-81q12 65 45 93.5t74 28.5q17 0 31.5 -6t27.5 -13q13 -8 20 -13.5t14 -5.5q21 0 28 28h81q-12 -65 -45.5 -93.5t-73.5 -28.5zM482 120q-43 -64 -101 -100t-145 -36q-54 0 -96.5 18t-72.5 49.5t-46 74
t-16 90.5q0 57 21 109t59 92.5t92 64.5t120 24q54 0 94.5 -16.5t68 -44.5t41.5 -65t14 -78q0 -45 -14 -87h-369v-10q1 -27 10.5 -47t25 -32.5t35.5 -19t43 -6.5q48 0 81 18.5t56 53.5zM393 308v4q0 34 -26.5 60.5t-80.5 26.5q-49 0 -85.5 -26.5t-50.5 -64.5h243z" />
    <glyph glyph-name="uni1EBE" unicode="&#x1ebe;" horiz-adv-x="578" 
d="M247 588l-29 -166h287l-23 -128h-287l-30 -166h320l-23 -128h-454l127 716h454l-23 -128h-319zM324 775h-117l136 132h108l74 -132h-107l-36 55zM715 994l-96 -117h-111l76 117h131z" />
    <glyph glyph-name="uni1EBF" unicode="&#x1ebf;" horiz-adv-x="556" 
d="M275 559h-117l136 132h108l74 -132h-107l-36 55zM482 120q-43 -64 -101 -100t-145 -36q-54 0 -96.5 18t-72.5 49.5t-46 74t-16 90.5q0 57 21 109t59 92.5t92 64.5t120 24q54 0 94.5 -16.5t68 -44.5t41.5 -65t14 -78q0 -45 -14 -87h-369v-10q1 -27 10.5 -47t25 -32.5
t35.5 -19t43 -6.5q48 0 81 18.5t56 53.5zM393 308v4q0 34 -26.5 60.5t-80.5 26.5q-49 0 -85.5 -26.5t-50.5 -64.5h243zM666 778l-96 -117h-111l76 117h131z" />
    <glyph glyph-name="uni1EC0" unicode="&#x1ec0;" horiz-adv-x="578" 
d="M247 588l-29 -166h287l-23 -128h-287l-30 -166h320l-23 -128h-454l127 716h454l-23 -128h-319zM324 775h-117l136 132h108l74 -132h-107l-36 55zM580 994l52 -117h-111l-72 117h131z" />
    <glyph glyph-name="uni1EC1" unicode="&#x1ec1;" horiz-adv-x="556" 
d="M275 559h-117l136 132h108l74 -132h-107l-36 55zM482 120q-43 -64 -101 -100t-145 -36q-54 0 -96.5 18t-72.5 49.5t-46 74t-16 90.5q0 57 21 109t59 92.5t92 64.5t120 24q54 0 94.5 -16.5t68 -44.5t41.5 -65t14 -78q0 -45 -14 -87h-369v-10q1 -27 10.5 -47t25 -32.5
t35.5 -19t43 -6.5q48 0 81 18.5t56 53.5zM393 308v4q0 34 -26.5 60.5t-80.5 26.5q-49 0 -85.5 -26.5t-50.5 -64.5h243zM531 778l52 -117h-111l-72 117h131z" />
    <glyph glyph-name="uni1EC2" unicode="&#x1ec2;" horiz-adv-x="578" 
d="M247 588l-29 -166h287l-23 -128h-287l-30 -166h320l-23 -128h-454l127 716h454l-23 -128h-319zM324 775h-117l136 132h108l74 -132h-107l-36 55zM501 867q2 9 6 20t9 19q6 7 14 12.5t15.5 10.5t13 10t6.5 12q2 8 -2.5 11.5t-12.5 3.5q-23 0 -36 -24l-62 24q17 32 45 47
t69 15q42 0 64 -19.5t17 -49.5q-4 -24 -13.5 -36t-20.5 -19.5t-21 -15t-14 -21.5h-77z" />
    <glyph glyph-name="uni1EC3" unicode="&#x1ec3;" horiz-adv-x="556" 
d="M275 559h-117l136 132h108l74 -132h-107l-36 55zM482 120q-43 -64 -101 -100t-145 -36q-54 0 -96.5 18t-72.5 49.5t-46 74t-16 90.5q0 57 21 109t59 92.5t92 64.5t120 24q54 0 94.5 -16.5t68 -44.5t41.5 -65t14 -78q0 -45 -14 -87h-369v-10q1 -27 10.5 -47t25 -32.5
t35.5 -19t43 -6.5q48 0 81 18.5t56 53.5zM393 308v4q0 34 -26.5 60.5t-80.5 26.5q-49 0 -85.5 -26.5t-50.5 -64.5h243zM452 651q2 9 6 20t9 19q6 7 14 12.5t15.5 10.5t13 10t6.5 12q2 8 -2.5 11.5t-12.5 3.5q-23 0 -36 -24l-62 24q17 32 45 47t69 15q42 0 64 -19.5t17 -49.5
q-4 -24 -13.5 -36t-20.5 -19.5t-21 -15t-14 -21.5h-77z" />
    <glyph glyph-name="uni1EC4" unicode="&#x1ec4;" horiz-adv-x="578" 
d="M247 588l-29 -166h287l-23 -128h-287l-30 -166h320l-23 -128h-454l127 716h454l-23 -128h-319zM327 775h-117l131 122h108l79 -122h-107l-37 51zM453 921q-18 0 -32 5t-26 12q-14 6 -21 11t-15 5q-21 0 -27 -24h-81q12 56 44.5 80t74.5 24q17 0 31.5 -5t27.5 -11
q13 -7 20 -12t14 -5q20 0 28 24h81q-12 -55 -45.5 -79.5t-73.5 -24.5z" />
    <glyph glyph-name="uni1EC5" unicode="&#x1ec5;" horiz-adv-x="556" 
d="M482 120q-43 -64 -101 -100t-145 -36q-54 0 -96.5 18t-72.5 49.5t-46 74t-16 90.5q0 57 21 109t59 92.5t92 64.5t120 24q54 0 94.5 -16.5t68 -44.5t41.5 -65t14 -78q0 -45 -14 -87h-369v-10q1 -27 10.5 -47t25 -32.5t35.5 -19t43 -6.5q48 0 81 18.5t56 53.5zM393 308v4
q0 34 -26.5 60.5t-80.5 26.5q-49 0 -85.5 -26.5t-50.5 -64.5h243zM275 559h-117l131 122h108l79 -122h-107l-37 51zM401 711q-18 0 -32 5t-26 12q-14 6 -21 11t-15 5q-21 0 -27 -24h-81q12 56 44.5 80t74.5 24q17 0 31.5 -5t27.5 -11q13 -7 20 -12t14 -5q20 0 28 24h81
q-12 -55 -45.5 -79.5t-73.5 -24.5z" />
    <glyph glyph-name="uni1EC6" unicode="&#x1ec6;" horiz-adv-x="578" 
d="M323 775h-117l148 148h108l62 -148h-107l-29 62zM247 588l-29 -166h287l-23 -128h-287l-30 -166h320l-23 -128h-454l127 716h454l-23 -128h-319zM209 -243q-31 0 -53 21.5t-22 53.5t22 54t53 22q32 0 54.5 -22t22.5 -54q0 -31 -22.5 -53t-54.5 -22z" />
    <glyph glyph-name="uni1EC7" unicode="&#x1ec7;" horiz-adv-x="556" 
d="M201 -243q-31 0 -53 21.5t-22 53.5t22 54t53 22q32 0 54.5 -22t22.5 -54q0 -31 -22.5 -53t-54.5 -22zM275 559h-117l145 148h108l65 -148h-107l-32 62zM482 120q-43 -64 -101 -100t-145 -36q-54 0 -96.5 18t-72.5 49.5t-46 74t-16 90.5q0 57 21 109t59 92.5t92 64.5
t120 24q54 0 94.5 -16.5t68 -44.5t41.5 -65t14 -78q0 -45 -14 -87h-369v-10q1 -27 10.5 -47t25 -32.5t35.5 -19t43 -6.5q48 0 81 18.5t56 53.5zM393 308v4q0 34 -26.5 60.5t-80.5 26.5q-49 0 -85.5 -26.5t-50.5 -64.5h243z" />
    <glyph glyph-name="uni1EC8" unicode="&#x1ec8;" horiz-adv-x="279" 
d="M167 785q2 11 6.5 23.5t12.5 21.5q7 9 17 15.5l20 13t17.5 13.5t9.5 18q2 10 -6 14t-17 4q-10 0 -19.5 -4t-23.5 -19l-70 27q21 35 55 52.5t77 17.5q51 0 77.5 -23.5t19.5 -60.5q-5 -29 -17.5 -43.5t-26 -24t-25.5 -18.5t-18 -27h-89zM135 716h135l-127 -716h-135z" />
    <glyph glyph-name="uni1EC9" unicode="&#x1ec9;" horiz-adv-x="259" 
d="M120 569q2 11 6.5 23.5t12.5 21.5q7 9 17 15.5l20 13t17.5 13.5t9.5 18q2 10 -6 14t-17 4q-10 0 -19.5 -4t-23.5 -19l-70 27q21 35 55 52.5t77 17.5q51 0 77.5 -23.5t19.5 -60.5q-5 -29 -17.5 -43.5t-26 -24t-25.5 -18.5t-18 -27h-89zM0 0l86 490h131l-86 -490h-131z" />
    <glyph glyph-name="uni1ECA" unicode="&#x1eca;" horiz-adv-x="279" 
d="M52 -243q-31 0 -53 21.5t-22 53.5t22 54t53 22q32 0 54.5 -22t22.5 -54q0 -31 -22.5 -53t-54.5 -22zM135 716h135l-127 -716h-135z" />
    <glyph glyph-name="uni1ECB" unicode="&#x1ecb;" horiz-adv-x="259" 
d="M47 -243q-31 0 -53 21.5t-22 53.5t22 54t53 22q32 0 54.5 -22t22.5 -54q0 -31 -22.5 -53t-54.5 -22zM0 0l86 490h131l-86 -490h-131zM173 573q-31 0 -53 21.5t-22 53.5t22 54t53 22q32 0 54.5 -22t22.5 -54q0 -31 -22.5 -53t-54.5 -22z" />
    <glyph glyph-name="uni1ECC" unicode="&#x1ecc;" horiz-adv-x="822" 
d="M300 -243q-31 0 -53 21.5t-22 53.5t22 54t53 22q32 0 54.5 -22t22.5 -54q0 -31 -22.5 -53t-54.5 -22zM366 -16q-72 0 -133.5 24t-106.5 67.5t-70.5 105t-25.5 136.5q0 84 31 159.5t87 132t134.5 90t173.5 33.5q75 0 137 -25t106 -69.5t68.5 -105.5t24.5 -133
q0 -84 -31 -159t-87 -132t-134.5 -90.5t-173.5 -33.5zM380 112q57 0 107 22.5t87.5 60.5t59.5 88t22 106q0 49 -16.5 88.5t-45.5 67.5t-68 43.5t-84 15.5q-59 0 -109 -23t-87.5 -61.5t-58.5 -88.5t-21 -104q0 -49 16.5 -88.5t45.5 -67.5t68 -43.5t84 -15.5z" />
    <glyph glyph-name="uni1ECD" unicode="&#x1ecd;" horiz-adv-x="576" 
d="M190 -243q-31 0 -53 21.5t-22 53.5t22 54t53 22q32 0 54.5 -22t22.5 -54q0 -31 -22.5 -53t-54.5 -22zM303 506q53 0 96.5 -18t74 -49t47 -72.5t16.5 -88.5q0 -62 -22 -116t-61.5 -93.5t-94.5 -62t-120 -22.5q-53 0 -96.5 18t-74 49t-47 72.5t-16.5 89.5q0 62 22 115.5
t61.5 93t94.5 62t120 22.5zM252 105q33 0 61 12.5t49 34.5t32.5 50.5t11.5 61.5q0 26 -9 48.5t-24.5 38.5t-37 25t-45.5 9q-33 0 -61 -12.5t-49 -34.5t-32.5 -50.5t-11.5 -61.5q0 -26 9 -48.5t25 -38.5t37 -25t45 -9z" />
    <glyph glyph-name="uni1ECE" unicode="&#x1ece;" horiz-adv-x="822" 
d="M427 785q2 11 6.5 23.5t12.5 21.5q7 9 17 15.5l20 13t17.5 13.5t9.5 18q2 10 -6 14t-17 4q-10 0 -19.5 -4t-23.5 -19l-70 27q21 35 55 52.5t77 17.5q51 0 77.5 -23.5t19.5 -60.5q-5 -29 -17.5 -43.5t-26 -24t-25.5 -18.5t-18 -27h-89zM366 -16q-72 0 -133.5 24
t-106.5 67.5t-70.5 105t-25.5 136.5q0 84 31 159.5t87 132t134.5 90t173.5 33.5q75 0 137 -25t106 -69.5t68.5 -105.5t24.5 -133q0 -84 -31 -159t-87 -132t-134.5 -90.5t-173.5 -33.5zM380 112q57 0 107 22.5t87.5 60.5t59.5 88t22 106q0 49 -16.5 88.5t-45.5 67.5t-68 43.5
t-84 15.5q-59 0 -109 -23t-87.5 -61.5t-58.5 -88.5t-21 -104q0 -49 16.5 -88.5t45.5 -67.5t68 -43.5t84 -15.5z" />
    <glyph glyph-name="uni1ECF" unicode="&#x1ecf;" horiz-adv-x="576" 
d="M284 569q2 11 6.5 23.5t12.5 21.5q7 9 17 15.5l20 13t17.5 13.5t9.5 18q2 10 -6 14t-17 4q-10 0 -19.5 -4t-23.5 -19l-70 27q21 35 55 52.5t77 17.5q51 0 77.5 -23.5t19.5 -60.5q-5 -29 -17.5 -43.5t-26 -24t-25.5 -18.5t-18 -27h-89zM303 506q53 0 96.5 -18t74 -49
t47 -72.5t16.5 -88.5q0 -62 -22 -116t-61.5 -93.5t-94.5 -62t-120 -22.5q-53 0 -96.5 18t-74 49t-47 72.5t-16.5 89.5q0 62 22 115.5t61.5 93t94.5 62t120 22.5zM252 105q33 0 61 12.5t49 34.5t32.5 50.5t11.5 61.5q0 26 -9 48.5t-24.5 38.5t-37 25t-45.5 9q-33 0 -61 -12.5
t-49 -34.5t-32.5 -50.5t-11.5 -61.5q0 -26 9 -48.5t25 -38.5t37 -25t45 -9z" />
    <glyph glyph-name="uni1ED0" unicode="&#x1ed0;" horiz-adv-x="822" 
d="M444 775h-117l136 132h108l74 -132h-107l-36 55zM366 -16q-72 0 -133.5 24t-106.5 67.5t-70.5 105t-25.5 136.5q0 84 31 159.5t87 132t134.5 90t173.5 33.5q75 0 137 -25t106 -69.5t68.5 -105.5t24.5 -133q0 -84 -31 -159t-87 -132t-134.5 -90.5t-173.5 -33.5zM380 112
q57 0 107 22.5t87.5 60.5t59.5 88t22 106q0 49 -16.5 88.5t-45.5 67.5t-68 43.5t-84 15.5q-59 0 -109 -23t-87.5 -61.5t-58.5 -88.5t-21 -104q0 -49 16.5 -88.5t45.5 -67.5t68 -43.5t84 -15.5zM835 994l-96 -117h-111l76 117h131z" />
    <glyph glyph-name="uni1ED1" unicode="&#x1ed1;" horiz-adv-x="576" 
d="M292 559h-117l136 132h108l74 -132h-107l-36 55zM303 506q53 0 96.5 -18t74 -49t47 -72.5t16.5 -88.5q0 -62 -22 -116t-61.5 -93.5t-94.5 -62t-120 -22.5q-53 0 -96.5 18t-74 49t-47 72.5t-16.5 89.5q0 62 22 115.5t61.5 93t94.5 62t120 22.5zM252 105q33 0 61 12.5
t49 34.5t32.5 50.5t11.5 61.5q0 26 -9 48.5t-24.5 38.5t-37 25t-45.5 9q-33 0 -61 -12.5t-49 -34.5t-32.5 -50.5t-11.5 -61.5q0 -26 9 -48.5t25 -38.5t37 -25t45 -9zM683 778l-96 -117h-111l76 117h131z" />
    <glyph glyph-name="uni1ED2" unicode="&#x1ed2;" horiz-adv-x="822" 
d="M444 775h-117l136 132h108l74 -132h-107l-36 55zM366 -16q-72 0 -133.5 24t-106.5 67.5t-70.5 105t-25.5 136.5q0 84 31 159.5t87 132t134.5 90t173.5 33.5q75 0 137 -25t106 -69.5t68.5 -105.5t24.5 -133q0 -84 -31 -159t-87 -132t-134.5 -90.5t-173.5 -33.5zM380 112
q57 0 107 22.5t87.5 60.5t59.5 88t22 106q0 49 -16.5 88.5t-45.5 67.5t-68 43.5t-84 15.5q-59 0 -109 -23t-87.5 -61.5t-58.5 -88.5t-21 -104q0 -49 16.5 -88.5t45.5 -67.5t68 -43.5t84 -15.5zM700 994l52 -117h-111l-72 117h131z" />
    <glyph glyph-name="uni1ED3" unicode="&#x1ed3;" horiz-adv-x="576" 
d="M292 559h-117l136 132h108l74 -132h-107l-36 55zM303 506q53 0 96.5 -18t74 -49t47 -72.5t16.5 -88.5q0 -62 -22 -116t-61.5 -93.5t-94.5 -62t-120 -22.5q-53 0 -96.5 18t-74 49t-47 72.5t-16.5 89.5q0 62 22 115.5t61.5 93t94.5 62t120 22.5zM252 105q33 0 61 12.5
t49 34.5t32.5 50.5t11.5 61.5q0 26 -9 48.5t-24.5 38.5t-37 25t-45.5 9q-33 0 -61 -12.5t-49 -34.5t-32.5 -50.5t-11.5 -61.5q0 -26 9 -48.5t25 -38.5t37 -25t45 -9zM548 778l52 -117h-111l-72 117h131z" />
    <glyph glyph-name="uni1ED4" unicode="&#x1ed4;" horiz-adv-x="822" 
d="M444 775h-117l136 132h108l74 -132h-107l-36 55zM366 -16q-72 0 -133.5 24t-106.5 67.5t-70.5 105t-25.5 136.5q0 84 31 159.5t87 132t134.5 90t173.5 33.5q75 0 137 -25t106 -69.5t68.5 -105.5t24.5 -133q0 -84 -31 -159t-87 -132t-134.5 -90.5t-173.5 -33.5zM380 112
q57 0 107 22.5t87.5 60.5t59.5 88t22 106q0 49 -16.5 88.5t-45.5 67.5t-68 43.5t-84 15.5q-59 0 -109 -23t-87.5 -61.5t-58.5 -88.5t-21 -104q0 -49 16.5 -88.5t45.5 -67.5t68 -43.5t84 -15.5zM621 867q2 9 6 20t9 19q6 7 14 12.5t15.5 10.5t13 10t6.5 12q2 8 -2.5 11.5
t-12.5 3.5q-23 0 -36 -24l-62 24q17 32 45 47t69 15q42 0 64 -19.5t17 -49.5q-4 -24 -13.5 -36t-20.5 -19.5t-21 -15t-14 -21.5h-77z" />
    <glyph glyph-name="uni1ED5" unicode="&#x1ed5;" horiz-adv-x="576" 
d="M292 559h-117l136 132h108l74 -132h-107l-36 55zM303 506q53 0 96.5 -18t74 -49t47 -72.5t16.5 -88.5q0 -62 -22 -116t-61.5 -93.5t-94.5 -62t-120 -22.5q-53 0 -96.5 18t-74 49t-47 72.5t-16.5 89.5q0 62 22 115.5t61.5 93t94.5 62t120 22.5zM252 105q33 0 61 12.5
t49 34.5t32.5 50.5t11.5 61.5q0 26 -9 48.5t-24.5 38.5t-37 25t-45.5 9q-33 0 -61 -12.5t-49 -34.5t-32.5 -50.5t-11.5 -61.5q0 -26 9 -48.5t25 -38.5t37 -25t45 -9zM469 651q2 9 6 20t9 19q6 7 14 12.5t15.5 10.5t13 10t6.5 12q2 8 -2.5 11.5t-12.5 3.5q-23 0 -36 -24
l-62 24q17 32 45 47t69 15q42 0 64 -19.5t17 -49.5q-4 -24 -13.5 -36t-20.5 -19.5t-21 -15t-14 -21.5h-77z" />
    <glyph glyph-name="uni1ED6" unicode="&#x1ed6;" horiz-adv-x="822" 
d="M444 775h-117l131 122h108l79 -122h-107l-37 51zM366 -16q-72 0 -133.5 24t-106.5 67.5t-70.5 105t-25.5 136.5q0 84 31 159.5t87 132t134.5 90t173.5 33.5q75 0 137 -25t106 -69.5t68.5 -105.5t24.5 -133q0 -84 -31 -159t-87 -132t-134.5 -90.5t-173.5 -33.5zM380 112
q57 0 107 22.5t87.5 60.5t59.5 88t22 106q0 49 -16.5 88.5t-45.5 67.5t-68 43.5t-84 15.5q-59 0 -109 -23t-87.5 -61.5t-58.5 -88.5t-21 -104q0 -49 16.5 -88.5t45.5 -67.5t68 -43.5t84 -15.5zM570 921q-18 0 -32 5t-26 12q-14 6 -21 11t-15 5q-21 0 -27 -24h-81
q12 56 44.5 80t74.5 24q17 0 31.5 -5t27.5 -11q13 -7 20 -12t14 -5q20 0 28 24h81q-12 -55 -45.5 -79.5t-73.5 -24.5z" />
    <glyph glyph-name="uni1ED7" unicode="&#x1ed7;" horiz-adv-x="576" 
d="M303 506q53 0 96.5 -18t74 -49t47 -72.5t16.5 -88.5q0 -62 -22 -116t-61.5 -93.5t-94.5 -62t-120 -22.5q-53 0 -96.5 18t-74 49t-47 72.5t-16.5 89.5q0 62 22 115.5t61.5 93t94.5 62t120 22.5zM252 105q33 0 61 12.5t49 34.5t32.5 50.5t11.5 61.5q0 26 -9 48.5
t-24.5 38.5t-37 25t-45.5 9q-33 0 -61 -12.5t-49 -34.5t-32.5 -50.5t-11.5 -61.5q0 -26 9 -48.5t25 -38.5t37 -25t45 -9zM292 559h-117l131 122h108l79 -122h-107l-37 51zM418 711q-18 0 -32 5t-26 12q-14 6 -21 11t-15 5q-21 0 -27 -24h-81q12 56 44.5 80t74.5 24
q17 0 31.5 -5t27.5 -11q13 -7 20 -12t14 -5q20 0 28 24h81q-12 -55 -45.5 -79.5t-73.5 -24.5z" />
    <glyph glyph-name="uni1ED8" unicode="&#x1ed8;" horiz-adv-x="822" 
d="M300 -243q-31 0 -53 21.5t-22 53.5t22 54t53 22q32 0 54.5 -22t22.5 -54q0 -31 -22.5 -53t-54.5 -22zM366 -16q-72 0 -133.5 24t-106.5 67.5t-70.5 105t-25.5 136.5q0 84 31 159.5t87 132t134.5 90t173.5 33.5q75 0 137 -25t106 -69.5t68.5 -105.5t24.5 -133
q0 -84 -31 -159t-87 -132t-134.5 -90.5t-173.5 -33.5zM380 112q57 0 107 22.5t87.5 60.5t59.5 88t22 106q0 49 -16.5 88.5t-45.5 67.5t-68 43.5t-84 15.5q-59 0 -109 -23t-87.5 -61.5t-58.5 -88.5t-21 -104q0 -49 16.5 -88.5t45.5 -67.5t68 -43.5t84 -15.5zM444 775h-117
l145 148h108l65 -148h-107l-32 62z" />
    <glyph glyph-name="uni1ED9" unicode="&#x1ed9;" horiz-adv-x="576" 
d="M190 -243q-31 0 -53 21.5t-22 53.5t22 54t53 22q32 0 54.5 -22t22.5 -54q0 -31 -22.5 -53t-54.5 -22zM292 559h-117l145 148h108l65 -148h-107l-32 62zM303 506q53 0 96.5 -18t74 -49t47 -72.5t16.5 -88.5q0 -62 -22 -116t-61.5 -93.5t-94.5 -62t-120 -22.5
q-53 0 -96.5 18t-74 49t-47 72.5t-16.5 89.5q0 62 22 115.5t61.5 93t94.5 62t120 22.5zM252 105q33 0 61 12.5t49 34.5t32.5 50.5t11.5 61.5q0 26 -9 48.5t-24.5 38.5t-37 25t-45.5 9q-33 0 -61 -12.5t-49 -34.5t-32.5 -50.5t-11.5 -61.5q0 -26 9 -48.5t25 -38.5t37 -25
t45 -9z" />
    <glyph glyph-name="uni1EDA" unicode="&#x1eda;" horiz-adv-x="822" 
d="M635 933l-117 -148h-111l97 148h131zM366 -16q-72 0 -133.5 24t-106.5 67.5t-70.5 105t-25.5 136.5q0 84 31 159.5t87 132t134.5 90t173.5 33.5q61 0 110 -16q36 -4 49 -3q8 1 16.5 1h16.5q27 0 44.5 17.5t25.5 65.5l97 -27q-13 -67 -54 -106q-24 -22 -59 -30
q43 -44 65 -102q25 -60 25 -133q0 -84 -31 -159t-87 -132t-134.5 -90.5t-173.5 -33.5zM380 112q57 0 107 22.5t87.5 60.5t59.5 88t22 106q0 49 -16.5 88.5t-45.5 67.5t-68 43.5t-84 15.5q-59 0 -109 -23t-87.5 -61.5t-58.5 -88.5t-21 -104q0 -49 16.5 -88.5t45.5 -67.5
t68 -43.5t84 -15.5z" />
    <glyph glyph-name="uni1EDB" unicode="&#x1edb;" horiz-adv-x="576" 
d="M478 707l-117 -148h-111l97 148h131zM303 506q49 0 92 -17h11h32q27 0 44.5 17.5t25.5 65.5l97 -27q-13 -67 -54 -106q-23 -20 -54 -29q14 -20 23 -44q17 -42 17 -88q0 -62 -22 -116t-61.5 -93.5t-94.5 -62t-120 -22.5q-53 0 -96.5 18t-74 49t-47 72.5t-16.5 89.5
q0 62 22 115.5t61.5 93t94.5 62t120 22.5zM252 105q33 0 61 12.5t49 34.5t32.5 50.5t11.5 61.5q0 26 -9 48.5t-24.5 38.5t-37 25t-45.5 9q-33 0 -61 -12.5t-49 -34.5t-32.5 -50.5t-11.5 -61.5q0 -26 9 -48.5t25 -38.5t37 -25t45 -9z" />
    <glyph glyph-name="uni1EDC" unicode="&#x1edc;" horiz-adv-x="822" 
d="M487 933l64 -148h-111l-84 148h131zM366 -16q-72 0 -133.5 24t-106.5 67.5t-70.5 105t-25.5 136.5q0 84 31 159.5t87 132t134.5 90t173.5 33.5q61 0 110 -16q36 -4 49 -3q8 1 16.5 1h16.5q27 0 44.5 17.5t25.5 65.5l97 -27q-13 -67 -54 -106q-24 -22 -59 -30
q43 -44 65 -102q25 -60 25 -133q0 -84 -31 -159t-87 -132t-134.5 -90.5t-173.5 -33.5zM380 112q57 0 107 22.5t87.5 60.5t59.5 88t22 106q0 49 -16.5 88.5t-45.5 67.5t-68 43.5t-84 15.5q-59 0 -109 -23t-87.5 -61.5t-58.5 -88.5t-21 -104q0 -49 16.5 -88.5t45.5 -67.5
t68 -43.5t84 -15.5z" />
    <glyph glyph-name="uni1EDD" unicode="&#x1edd;" horiz-adv-x="576" 
d="M335 707l64 -148h-111l-84 148h131zM303 506q49 0 92 -17h11h32q27 0 44.5 17.5t25.5 65.5l97 -27q-13 -67 -54 -106q-23 -20 -54 -29q14 -20 23 -44q17 -42 17 -88q0 -62 -22 -116t-61.5 -93.5t-94.5 -62t-120 -22.5q-53 0 -96.5 18t-74 49t-47 72.5t-16.5 89.5
q0 62 22 115.5t61.5 93t94.5 62t120 22.5zM252 105q33 0 61 12.5t49 34.5t32.5 50.5t11.5 61.5q0 26 -9 48.5t-24.5 38.5t-37 25t-45.5 9q-33 0 -61 -12.5t-49 -34.5t-32.5 -50.5t-11.5 -61.5q0 -26 9 -48.5t25 -38.5t37 -25t45 -9z" />
    <glyph glyph-name="uni1EDE" unicode="&#x1ede;" horiz-adv-x="822" 
d="M427 785q2 11 6.5 23.5t12.5 21.5q7 9 17 15.5l20 13t17.5 13.5t9.5 18q2 10 -6 14t-17 4q-10 0 -19.5 -4t-23.5 -19l-70 27q21 35 55 52.5t77 17.5q51 0 77.5 -23.5t19.5 -60.5q-5 -29 -17.5 -43.5t-26 -24t-25.5 -18.5t-18 -27h-89zM366 -16q-72 0 -133.5 24
t-106.5 67.5t-70.5 105t-25.5 136.5q0 84 31 159.5t87 132t134.5 90t173.5 33.5q61 0 110 -16q36 -4 49 -3q8 1 16.5 1h16.5q27 0 44.5 17.5t25.5 65.5l97 -27q-13 -67 -54 -106q-24 -22 -59 -30q43 -44 65 -102q25 -60 25 -133q0 -84 -31 -159t-87 -132t-134.5 -90.5
t-173.5 -33.5zM380 112q57 0 107 22.5t87.5 60.5t59.5 88t22 106q0 49 -16.5 88.5t-45.5 67.5t-68 43.5t-84 15.5q-59 0 -109 -23t-87.5 -61.5t-58.5 -88.5t-21 -104q0 -49 16.5 -88.5t45.5 -67.5t68 -43.5t84 -15.5z" />
    <glyph glyph-name="uni1EDF" unicode="&#x1edf;" horiz-adv-x="576" 
d="M284 569q2 11 6.5 23.5t12.5 21.5q7 9 17 15.5l20 13t17.5 13.5t9.5 18q2 10 -6 14t-17 4q-10 0 -19.5 -4t-23.5 -19l-70 27q21 35 55 52.5t77 17.5q51 0 77.5 -23.5t19.5 -60.5q-5 -29 -17.5 -43.5t-26 -24t-25.5 -18.5t-18 -27h-89zM303 506q49 0 92 -17h11h32
q27 0 44.5 17.5t25.5 65.5l97 -27q-13 -67 -54 -106q-23 -20 -54 -29q14 -20 23 -44q17 -42 17 -88q0 -62 -22 -116t-61.5 -93.5t-94.5 -62t-120 -22.5q-53 0 -96.5 18t-74 49t-47 72.5t-16.5 89.5q0 62 22 115.5t61.5 93t94.5 62t120 22.5zM252 105q33 0 61 12.5t49 34.5
t32.5 50.5t11.5 61.5q0 26 -9 48.5t-24.5 38.5t-37 25t-45.5 9q-33 0 -61 -12.5t-49 -34.5t-32.5 -50.5t-11.5 -61.5q0 -26 9 -48.5t25 -38.5t37 -25t45 -9z" />
    <glyph glyph-name="uni1EE0" unicode="&#x1ee0;" horiz-adv-x="822" 
d="M533 775q-18 0 -32 6t-26 14q-14 7 -21 12.5t-15 5.5q-21 0 -27 -28h-81q12 65 45 93.5t74 28.5q17 0 31.5 -6t27.5 -13q13 -8 20 -13.5t14 -5.5q21 0 28 28h81q-12 -65 -45.5 -93.5t-73.5 -28.5zM366 -16q-72 0 -133.5 24t-106.5 67.5t-70.5 105t-25.5 136.5
q0 84 31 159.5t87 132t134.5 90t173.5 33.5q61 0 110 -16q36 -4 49 -3q8 1 16.5 1h16.5q27 0 44.5 17.5t25.5 65.5l97 -27q-13 -67 -54 -106q-24 -22 -59 -30q43 -44 65 -102q25 -60 25 -133q0 -84 -31 -159t-87 -132t-134.5 -90.5t-173.5 -33.5zM380 112q57 0 107 22.5
t87.5 60.5t59.5 88t22 106q0 49 -16.5 88.5t-45.5 67.5t-68 43.5t-84 15.5q-59 0 -109 -23t-87.5 -61.5t-58.5 -88.5t-21 -104q0 -49 16.5 -88.5t45.5 -67.5t68 -43.5t84 -15.5z" />
    <glyph glyph-name="uni1EE1" unicode="&#x1ee1;" horiz-adv-x="576" 
d="M379 559q-18 0 -32 6t-26 14q-14 7 -21 12.5t-15 5.5q-21 0 -27 -28h-81q12 65 45 93.5t74 28.5q17 0 31.5 -6t27.5 -13q13 -8 20 -13.5t14 -5.5q21 0 28 28h81q-12 -65 -45.5 -93.5t-73.5 -28.5zM303 506q49 0 92 -17h11h32q27 0 44.5 17.5t25.5 65.5l97 -27
q-13 -67 -54 -106q-23 -20 -54 -29q14 -20 23 -44q17 -42 17 -88q0 -62 -22 -116t-61.5 -93.5t-94.5 -62t-120 -22.5q-53 0 -96.5 18t-74 49t-47 72.5t-16.5 89.5q0 62 22 115.5t61.5 93t94.5 62t120 22.5zM252 105q33 0 61 12.5t49 34.5t32.5 50.5t11.5 61.5q0 26 -9 48.5
t-24.5 38.5t-37 25t-45.5 9q-33 0 -61 -12.5t-49 -34.5t-32.5 -50.5t-11.5 -61.5q0 -26 9 -48.5t25 -38.5t37 -25t45 -9z" />
    <glyph glyph-name="uni1EE2" unicode="&#x1ee2;" horiz-adv-x="822" 
d="M300 -243q-31 0 -53 21.5t-22 53.5t22 54t53 22q32 0 54.5 -22t22.5 -54q0 -31 -22.5 -53t-54.5 -22zM366 -16q-72 0 -133.5 24t-106.5 67.5t-70.5 105t-25.5 136.5q0 84 31 159.5t87 132t134.5 90t173.5 33.5q61 0 110 -16q36 -4 49 -3q8 1 16.5 1h16.5q27 0 44.5 17.5
t25.5 65.5l97 -27q-13 -67 -54 -106q-24 -22 -59 -30q43 -44 65 -102q25 -60 25 -133q0 -84 -31 -159t-87 -132t-134.5 -90.5t-173.5 -33.5zM380 112q57 0 107 22.5t87.5 60.5t59.5 88t22 106q0 49 -16.5 88.5t-45.5 67.5t-68 43.5t-84 15.5q-59 0 -109 -23t-87.5 -61.5
t-58.5 -88.5t-21 -104q0 -49 16.5 -88.5t45.5 -67.5t68 -43.5t84 -15.5z" />
    <glyph glyph-name="uni1EE3" unicode="&#x1ee3;" horiz-adv-x="576" 
d="M190 -243q-31 0 -53 21.5t-22 53.5t22 54t53 22q32 0 54.5 -22t22.5 -54q0 -31 -22.5 -53t-54.5 -22zM303 506q49 0 92 -17h11h32q27 0 44.5 17.5t25.5 65.5l97 -27q-13 -67 -54 -106q-23 -20 -54 -29q14 -20 23 -44q17 -42 17 -88q0 -62 -22 -116t-61.5 -93.5t-94.5 -62
t-120 -22.5q-53 0 -96.5 18t-74 49t-47 72.5t-16.5 89.5q0 62 22 115.5t61.5 93t94.5 62t120 22.5zM252 105q33 0 61 12.5t49 34.5t32.5 50.5t11.5 61.5q0 26 -9 48.5t-24.5 38.5t-37 25t-45.5 9q-33 0 -61 -12.5t-49 -34.5t-32.5 -50.5t-11.5 -61.5q0 -26 9 -48.5t25 -38.5
t37 -25t45 -9z" />
    <glyph glyph-name="uni1EE4" unicode="&#x1ee4;" horiz-adv-x="669" 
d="M238 -243q-31 0 -53 21.5t-22 53.5t22 54t53 22q32 0 54.5 -22t22.5 -54q0 -31 -22.5 -53t-54.5 -22zM278 -16q-53 0 -97 17t-75.5 48t-49 74.5t-17.5 96.5q0 15 1.5 35.5t6.5 48.5l73 412h135l-77 -435q-2 -14 -3.5 -25t-1.5 -22q0 -55 30 -88.5t93 -33.5q69 0 112.5 45
t56.5 120l77 439h135l-79 -447q-26 -146 -109 -215.5t-211 -69.5z" />
    <glyph glyph-name="uni1EE5" unicode="&#x1ee5;" horiz-adv-x="574" 
d="M196 -243q-31 0 -53 21.5t-22 53.5t22 54t53 22q32 0 54.5 -22t22.5 -54q0 -31 -22.5 -53t-54.5 -22zM345 64h-8q-26 -38 -68 -59t-93 -21q-38 0 -67 12.5t-49 33.5t-30 49.5t-10 60.5q0 14 1 28t4 33l52 289h130l-50 -281q-1 -6 -1.5 -12.5t-0.5 -17.5q0 -32 19 -53
t57 -21q30 0 53 11t40 30.5t28 46t17 57.5l42 240h131l-86 -490h-123z" />
    <glyph glyph-name="uni1EE6" unicode="&#x1ee6;" horiz-adv-x="669" 
d="M363 785q2 11 6.5 23.5t12.5 21.5q7 9 17 15.5l20 13t17.5 13.5t9.5 18q2 10 -6 14t-17 4q-10 0 -19.5 -4t-23.5 -19l-70 27q21 35 55 52.5t77 17.5q51 0 77.5 -23.5t19.5 -60.5q-5 -29 -17.5 -43.5t-26 -24t-25.5 -18.5t-18 -27h-89zM278 -16q-53 0 -97 17t-75.5 48
t-49 74.5t-17.5 96.5q0 15 1.5 35.5t6.5 48.5l73 412h135l-77 -435q-2 -14 -3.5 -25t-1.5 -22q0 -55 30 -88.5t93 -33.5q69 0 112.5 45t56.5 120l77 439h135l-79 -447q-26 -146 -109 -215.5t-211 -69.5z" />
    <glyph glyph-name="uni1EE7" unicode="&#x1ee7;" horiz-adv-x="574" 
d="M274 569q2 11 6.5 23.5t12.5 21.5q7 9 17 15.5l20 13t17.5 13.5t9.5 18q2 10 -6 14t-17 4q-10 0 -19.5 -4t-23.5 -19l-70 27q21 35 55 52.5t77 17.5q51 0 77.5 -23.5t19.5 -60.5q-5 -29 -17.5 -43.5t-26 -24t-25.5 -18.5t-18 -27h-89zM345 64h-8q-26 -38 -68 -59t-93 -21
q-38 0 -67 12.5t-49 33.5t-30 49.5t-10 60.5q0 14 1 28t4 33l52 289h130l-50 -281q-1 -6 -1.5 -12.5t-0.5 -17.5q0 -32 19 -53t57 -21q30 0 53 11t40 30.5t28 46t17 57.5l42 240h131l-86 -490h-123z" />
    <glyph glyph-name="uni1EE8" unicode="&#x1ee8;" horiz-adv-x="669" 
d="M575 933l-117 -148h-111l97 148h131zM278 -16q-53 0 -97 17t-75.5 48t-49 74.5t-17.5 96.5q0 15 1.5 35.5t6.5 48.5l73 412h135l-77 -435q-2 -14 -3.5 -25t-1.5 -22q0 -55 30 -88.5t93 -33.5q69 0 112.5 45t56.5 120l77 439h96q17 5 27 16q18 18 26 65l97 -27
q-13 -67 -54 -106q-29 -26 -72 -33l-64 -362q-26 -146 -109 -215.5t-211 -69.5z" />
    <glyph glyph-name="uni1EE9" unicode="&#x1ee9;" horiz-adv-x="574" 
d="M487 707l-117 -148h-111l97 148h131zM345 64h-8q-26 -38 -68 -59t-93 -21q-38 0 -67 12.5t-49 33.5t-30 49.5t-10 60.5q0 14 1 28t4 33l52 289h130l-50 -281q-1 -6 -1.5 -12.5t-0.5 -17.5q0 -32 19 -53t57 -21q30 0 53 11t40 30.5t28 46t17 57.5l42 240h88q17 3 31 17
q18 18 26 65l97 -27q-13 -67 -54 -106q-29 -26 -72 -33l-71 -406h-123z" />
    <glyph glyph-name="uni1EEA" unicode="&#x1eea;" horiz-adv-x="669" 
d="M412 933l64 -148h-111l-84 148h131zM278 -16q-53 0 -97 17t-75.5 48t-49 74.5t-17.5 96.5q0 15 1.5 35.5t6.5 48.5l73 412h135l-77 -435q-2 -14 -3.5 -25t-1.5 -22q0 -55 30 -88.5t93 -33.5q69 0 112.5 45t56.5 120l77 439h96q17 5 27 16q18 18 26 65l97 -27
q-13 -67 -54 -106q-29 -26 -72 -33l-64 -362q-26 -146 -109 -215.5t-211 -69.5z" />
    <glyph glyph-name="uni1EEB" unicode="&#x1eeb;" horiz-adv-x="574" 
d="M321 707l64 -148h-111l-84 148h131zM345 64h-8q-26 -38 -68 -59t-93 -21q-38 0 -67 12.5t-49 33.5t-30 49.5t-10 60.5q0 14 1 28t4 33l52 289h130l-50 -281q-1 -6 -1.5 -12.5t-0.5 -17.5q0 -32 19 -53t57 -21q30 0 53 11t40 30.5t28 46t17 57.5l42 240h88q17 3 31 17
q18 18 26 65l97 -27q-13 -67 -54 -106q-29 -26 -72 -33l-71 -406h-123z" />
    <glyph glyph-name="uni1EEC" unicode="&#x1eec;" horiz-adv-x="669" 
d="M363 785q2 11 6.5 23.5t12.5 21.5q7 9 17 15.5l20 13t17.5 13.5t9.5 18q2 10 -6 14t-17 4q-10 0 -19.5 -4t-23.5 -19l-70 27q21 35 55 52.5t77 17.5q51 0 77.5 -23.5t19.5 -60.5q-5 -29 -17.5 -43.5t-26 -24t-25.5 -18.5t-18 -27h-89zM278 -16q-53 0 -97 17t-75.5 48
t-49 74.5t-17.5 96.5q0 15 1.5 35.5t6.5 48.5l73 412h135l-77 -435q-2 -14 -3.5 -25t-1.5 -22q0 -55 30 -88.5t93 -33.5q69 0 112.5 45t56.5 120l77 439h96q17 5 27 16q18 18 26 65l97 -27q-13 -67 -54 -106q-29 -26 -72 -33l-64 -362q-26 -146 -109 -215.5t-211 -69.5z" />
    <glyph glyph-name="uni1EED" unicode="&#x1eed;" horiz-adv-x="574" 
d="M274 569q2 11 6.5 23.5t12.5 21.5q7 9 17 15.5l20 13t17.5 13.5t9.5 18q2 10 -6 14t-17 4q-10 0 -19.5 -4t-23.5 -19l-70 27q21 35 55 52.5t77 17.5q51 0 77.5 -23.5t19.5 -60.5q-5 -29 -17.5 -43.5t-26 -24t-25.5 -18.5t-18 -27h-89zM345 64h-8q-26 -38 -68 -59t-93 -21
q-38 0 -67 12.5t-49 33.5t-30 49.5t-10 60.5q0 14 1 28t4 33l52 289h130l-50 -281q-1 -6 -1.5 -12.5t-0.5 -17.5q0 -32 19 -53t57 -21q30 0 53 11t40 30.5t28 46t17 57.5l42 240h88q17 3 31 17q18 18 26 65l97 -27q-13 -67 -54 -106q-29 -26 -72 -33l-71 -406h-123z" />
    <glyph glyph-name="uni1EEE" unicode="&#x1eee;" horiz-adv-x="669" 
d="M457 775q-18 0 -32 6t-26 14q-14 7 -21 12.5t-15 5.5q-21 0 -27 -28h-81q12 65 45 93.5t74 28.5q17 0 31.5 -6t27.5 -13q13 -8 20 -13.5t14 -5.5q21 0 28 28h81q-12 -65 -45.5 -93.5t-73.5 -28.5zM278 -16q-53 0 -97 17t-75.5 48t-49 74.5t-17.5 96.5q0 15 1.5 35.5
t6.5 48.5l73 412h135l-77 -435q-2 -14 -3.5 -25t-1.5 -22q0 -55 30 -88.5t93 -33.5q69 0 112.5 45t56.5 120l77 439h96q17 5 27 16q18 18 26 65l97 -27q-13 -67 -54 -106q-29 -26 -72 -33l-64 -362q-26 -146 -109 -215.5t-211 -69.5z" />
    <glyph glyph-name="uni1EEF" unicode="&#x1eef;" horiz-adv-x="574" 
d="M376 559q-18 0 -32 6t-26 14q-14 7 -21 12.5t-15 5.5q-21 0 -27 -28h-81q12 65 45 93.5t74 28.5q17 0 31.5 -6t27.5 -13q13 -8 20 -13.5t14 -5.5q21 0 28 28h81q-12 -65 -45.5 -93.5t-73.5 -28.5zM345 64h-8q-26 -38 -68 -59t-93 -21q-38 0 -67 12.5t-49 33.5t-30 49.5
t-10 60.5q0 14 1 28t4 33l52 289h130l-50 -281q-1 -6 -1.5 -12.5t-0.5 -17.5q0 -32 19 -53t57 -21q30 0 53 11t40 30.5t28 46t17 57.5l42 240h88q17 3 31 17q18 18 26 65l97 -27q-13 -67 -54 -106q-29 -26 -72 -33l-71 -406h-123z" />
    <glyph glyph-name="uni1EF0" unicode="&#x1ef0;" horiz-adv-x="669" 
d="M238 -243q-31 0 -53 21.5t-22 53.5t22 54t53 22q32 0 54.5 -22t22.5 -54q0 -31 -22.5 -53t-54.5 -22zM278 -16q-53 0 -97 17t-75.5 48t-49 74.5t-17.5 96.5q0 15 1.5 35.5t6.5 48.5l73 412h135l-77 -435q-2 -14 -3.5 -25t-1.5 -22q0 -55 30 -88.5t93 -33.5q69 0 112.5 45
t56.5 120l77 439h96q17 5 27 16q18 18 26 65l97 -27q-13 -67 -54 -106q-29 -26 -72 -33l-64 -362q-26 -146 -109 -215.5t-211 -69.5z" />
    <glyph glyph-name="uni1EF1" unicode="&#x1ef1;" horiz-adv-x="574" 
d="M196 -243q-31 0 -53 21.5t-22 53.5t22 54t53 22q32 0 54.5 -22t22.5 -54q0 -31 -22.5 -53t-54.5 -22zM345 64h-8q-26 -38 -68 -59t-93 -21q-38 0 -67 12.5t-49 33.5t-30 49.5t-10 60.5q0 14 1 28t4 33l52 289h130l-50 -281q-1 -6 -1.5 -12.5t-0.5 -17.5q0 -32 19 -53
t57 -21q30 0 53 11t40 30.5t28 46t17 57.5l42 240h88q17 3 31 17q18 18 26 65l97 -27q-13 -67 -54 -106q-29 -26 -72 -33l-71 -406h-123z" />
    <glyph glyph-name="Ygrave" unicode="&#x1ef2;" horiz-adv-x="637" 
d="M373 933l64 -148h-111l-84 148h131zM189 0l59 333l-173 383h156l101 -237h8l181 237h167l-305 -383l-59 -333h-135z" />
    <glyph glyph-name="ygrave" unicode="&#x1ef3;" horiz-adv-x="553" 
d="M308 707l64 -148h-111l-84 148h131zM8 -216l151 245l-122 461h146l71 -298h8l173 298h148l-432 -706h-143z" />
    <glyph glyph-name="uni1EF4" unicode="&#x1ef4;" horiz-adv-x="637" 
d="M238 -243q-31 0 -53 21.5t-22 53.5t22 54t53 22q32 0 54.5 -22t22.5 -54q0 -31 -22.5 -53t-54.5 -22zM189 0l59 333l-173 383h156l101 -237h8l181 237h167l-305 -383l-59 -333h-135z" />
    <glyph glyph-name="uni1EF5" unicode="&#x1ef5;" horiz-adv-x="553" 
d="M373 -243q-31 0 -53 21.5t-22 53.5t22 54t53 22q32 0 54.5 -22t22.5 -54q0 -31 -22.5 -53t-54.5 -22zM8 -216l151 245l-122 461h146l71 -298h8l173 298h148l-432 -706h-143z" />
    <glyph glyph-name="uni1EF6" unicode="&#x1ef6;" horiz-adv-x="637" 
d="M338 785q2 11 6.5 23.5t12.5 21.5q7 9 17 15.5l20 13t17.5 13.5t9.5 18q2 10 -6 14t-17 4q-10 0 -19.5 -4t-23.5 -19l-70 27q21 35 55 52.5t77 17.5q51 0 77.5 -23.5t19.5 -60.5q-5 -29 -17.5 -43.5t-26 -24t-25.5 -18.5t-18 -27h-89zM189 0l59 333l-173 383h156
l101 -237h8l181 237h167l-305 -383l-59 -333h-135z" />
    <glyph glyph-name="uni1EF7" unicode="&#x1ef7;" horiz-adv-x="553" 
d="M268 569q2 11 6.5 23.5t12.5 21.5q7 9 17 15.5l20 13t17.5 13.5t9.5 18q2 10 -6 14t-17 4q-10 0 -19.5 -4t-23.5 -19l-70 27q21 35 55 52.5t77 17.5q51 0 77.5 -23.5t19.5 -60.5q-5 -29 -17.5 -43.5t-26 -24t-25.5 -18.5t-18 -27h-89zM8 -216l151 245l-122 461h146
l71 -298h8l173 298h148l-432 -706h-143z" />
    <glyph glyph-name="uni1EF8" unicode="&#x1ef8;" horiz-adv-x="637" 
d="M443 775q-18 0 -32 6t-26 14q-14 7 -21 12.5t-15 5.5q-21 0 -27 -28h-81q12 65 45 93.5t74 28.5q17 0 31.5 -6t27.5 -13q13 -8 20 -13.5t14 -5.5q21 0 28 28h81q-12 -65 -45.5 -93.5t-73.5 -28.5zM189 0l59 333l-173 383h156l101 -237h8l181 237h167l-305 -383l-59 -333
h-135z" />
    <glyph glyph-name="uni1EF9" unicode="&#x1ef9;" horiz-adv-x="553" 
d="M363 559q-18 0 -32 6t-26 14q-14 7 -21 12.5t-15 5.5q-21 0 -27 -28h-81q12 65 45 93.5t74 28.5q17 0 31.5 -6t27.5 -13q13 -8 20 -13.5t14 -5.5q21 0 28 28h81q-12 -65 -45.5 -93.5t-73.5 -28.5zM8 -216l151 245l-122 461h146l71 -298h8l173 298h148l-432 -706h-143z
" />
    <glyph glyph-name="endash" unicode="&#x2013;" horiz-adv-x="611" 
d="M58 368h498l-20 -116h-499z" />
    <glyph glyph-name="emdash" unicode="&#x2014;" horiz-adv-x="917" 
d="M58 368h805l-20 -116h-806z" />
    <glyph glyph-name="quoteleft" unicode="&#x2018;" horiz-adv-x="269" 
d="M264 689l-66 -77q20 -9 35 -29.5t15 -49.5q0 -18 -7 -33.5t-18.5 -27.5t-27 -18.5t-33.5 -6.5q-36 0 -61.5 25t-25.5 61q0 18 8.5 36.5t23.5 37.5l104 125z" />
    <glyph glyph-name="quoteright" unicode="&#x2019;" horiz-adv-x="269" 
d="M83 490l66 77q-20 8 -35 28.5t-15 49.5q0 18 7 34t19 28t27.5 18.5t33.5 6.5q36 0 61.5 -25t25.5 -62q0 -17 -8.5 -35.5t-23.5 -37.5l-105 -125z" />
    <glyph glyph-name="quotesinglbase" unicode="&#x201a;" horiz-adv-x="269" 
d="M-9 -76l66 77q-20 8 -35 28.5t-15 49.5q0 18 7 34t19 28t27.5 18.5t33.5 6.5q36 0 61.5 -25t25.5 -62q0 -17 -8.5 -35.5t-23.5 -37.5l-105 -125z" />
    <glyph glyph-name="quotedblleft" unicode="&#x201c;" horiz-adv-x="488" 
d="M264 689l-66 -77q20 -9 35 -29.5t15 -49.5q0 -18 -7 -33.5t-18.5 -27.5t-27 -18.5t-33.5 -6.5q-36 0 -61.5 25t-25.5 61q0 18 8.5 36.5t23.5 37.5l104 125zM483 689l-66 -77q20 -9 35 -29.5t15 -49.5q0 -18 -7 -33.5t-18.5 -27.5t-27 -18.5t-33.5 -6.5q-36 0 -61.5 25
t-25.5 61q0 18 8.5 36.5t23.5 37.5l104 125z" />
    <glyph glyph-name="quotedblright" unicode="&#x201d;" horiz-adv-x="488" 
d="M83 490l66 77q-20 8 -35 28.5t-15 49.5q0 18 7 34t19 28t27.5 18.5t33.5 6.5q36 0 61.5 -25t25.5 -62q0 -17 -8.5 -35.5t-23.5 -37.5l-105 -125zM302 490l66 77q-20 8 -35 28.5t-15 49.5q0 18 7 34t19 28t27.5 18.5t33.5 6.5q36 0 61.5 -25t25.5 -62q0 -17 -8.5 -35.5
t-23.5 -37.5l-105 -125z" />
    <glyph glyph-name="quotedblbase" unicode="&#x201e;" horiz-adv-x="479" 
d="M-9 -76l66 77q-20 8 -35 28.5t-15 49.5q0 18 7 34t19 28t27.5 18.5t33.5 6.5q36 0 61.5 -25t25.5 -62q0 -17 -8.5 -35.5t-23.5 -37.5l-105 -125zM199 -76l66 77q-20 8 -35 28.5t-15 49.5q0 18 7 34t19 28t27.5 18.5t33.5 6.5q36 0 61.5 -25t25.5 -62q0 -17 -8.5 -35.5
t-23.5 -37.5l-105 -125z" />
    <glyph glyph-name="bullet" unicode="&#x2022;" horiz-adv-x="421" 
d="M205 193q-27 0 -51 10.5t-41.5 28t-28 41.5t-10.5 51t10.5 51t28 41.5t41.5 28t51 10.5t50.5 -10.5t41.5 -28t28 -41.5t10 -51t-10 -51t-28 -41.5t-41.5 -28t-50.5 -10.5z" />
    <glyph glyph-name="ellipsis" unicode="&#x2026;" horiz-adv-x="752" 
d="M86 -6q-36 0 -61.5 25.5t-25.5 61.5t25.5 61t61.5 25t61.5 -25t25.5 -61t-25.5 -61.5t-61.5 -25.5zM327 -6q-36 0 -61.5 25.5t-25.5 61.5t25.5 61t61.5 25t61.5 -25t25.5 -61t-25.5 -61.5t-61.5 -25.5zM569 -6q-36 0 -61.5 25.5t-25.5 61.5t25.5 61t61.5 25t61.5 -25
t25.5 -61t-25.5 -61.5t-61.5 -25.5z" />
    <glyph glyph-name="guilsinglleft" unicode="&#x2039;" horiz-adv-x="387" 
d="M278 107l-84 -66l-171 230l252 230l67 -74l-181 -163z" />
    <glyph glyph-name="guilsinglright" unicode="&#x203a;" horiz-adv-x="387" 
d="M76 435l83 66l172 -230l-253 -230l-66 74l180 163z" />
    <glyph glyph-name="fraction" unicode="&#x2044;" horiz-adv-x="192" 
d="M-233 39l588 692l70 -54l-587 -693z" />
    <glyph glyph-name="uni2074" unicode="&#x2074;" horiz-adv-x="362" 
d="M198 350l12 65h-172l11 64l213 237h87l-40 -227h47l-13 -74h-47l-12 -65h-86zM223 489l19 104h-8l-91 -104h80z" />
    <glyph glyph-name="Euro" unicode="&#x20ac;" horiz-adv-x="653" 
d="M44 469h87q23 50 58.5 92.5t83 73t106 48t126.5 17.5q49 0 88.5 -13t71.5 -36l-71 -106q-21 14 -47 22.5t-61 8.5q-69 0 -122 -29.5t-87 -77.5h211l-16 -94h-238q-8 -37 -8 -66h234l-16 -94h-202q22 -54 66.5 -80.5t99.5 -26.5q42 0 69.5 9t54.5 25l49 -107
q-42 -26 -86.5 -38.5t-99.5 -12.5t-103 16t-86.5 45.5t-65 72.5t-38.5 97h-102l16 94h78q1 16 2.5 32.5t4.5 33.5h-73z" />
    <glyph glyph-name="minus" unicode="&#x2212;" horiz-adv-x="569" 
d="M30 213l20 116h457l-20 -116h-457z" />
    <glyph glyph-name="uni2215" unicode="&#x2215;" horiz-adv-x="480" 
d="M-38 0l423 716h132l-424 -716h-131z" />
    <glyph glyph-name="Lslash" horiz-adv-x="617" 
d="M134 247l-59 -33l-49 91l132 74l60 337h134l-44 -250l121 68l49 -88l-193 -109l-37 -209h303l-22 -128h-438z" />
    <glyph glyph-name="uniF8FF" horiz-adv-x="1000" 
d="M891 451q4 -21 5.5 -42t1.5 -44q0 -89 -28.5 -163.5t-81 -128.5t-126 -84t-163.5 -30q-86 0 -162 32.5t-132.5 89t-89 132.5t-32.5 162t32.5 162t89 132.5t132.5 89t162 32.5q85 0 154.5 -28.5t123.5 -79.5l-119 -120q-65 62 -159 62q-51 0 -96 -20t-78 -54t-52.5 -79.5
t-19.5 -96.5t19.5 -96.5t52.5 -80t78 -54.5t96 -20q46 0 84 12.5t67 34.5t47.5 52.5t25.5 66.5h-224v161h392z" />
    <glyph glyph-name="one.numerator" horiz-adv-x="272" 
d="M121 350l47 262l-65 -26l-29 72l136 58h65l-65 -366h-89z" />
    <glyph glyph-name="two.denominator" horiz-adv-x="317" 
d="M-36 0l12 63q19 17 36.5 31.5t33.5 28.5q7 6 13.5 12t13.5 11q13 11 24 20.5t19 16.5q8 8 10 9q4 3 7.5 6t8.5 7q13 11 23.5 25.5t10.5 28.5q0 17 -11 26.5t-29 9.5q-40 0 -53 -48l-76 29q14 46 51.5 72t91.5 26q57 0 88 -28t31 -73q0 -38 -20 -63t-56 -57
q-9 -8 -23.5 -20.5t-28.5 -24.5q-8 -7 -17 -14t-18 -15h134l-15 -79h-261z" />
    <glyph glyph-name="two.numerator" horiz-adv-x="317" 
d="M25 350l12 63q19 17 36.5 31.5t33.5 28.5q7 6 13.5 12t13.5 11q13 11 24 20.5t19 16.5q8 8 10 9q4 3 7.5 6t8.5 7q13 11 23.5 25.5t10.5 28.5q0 17 -11.5 26.5t-28.5 9.5q-39 0 -54 -48l-75 29q14 46 51.5 72t91.5 26q55 0 87 -28t32 -73q0 -38 -20 -63t-56 -57
q-5 -4 -10.5 -9t-13.5 -11q-8 -7 -15 -13l-14 -12q-8 -7 -17 -14t-18 -15h135l-15 -79h-261z" />
    <glyph glyph-name="three.numerator" horiz-adv-x="335" 
d="M168 342q-48 0 -84.5 25t-45.5 76l77 28q8 -28 23.5 -40t37.5 -12q21 0 38.5 12t17.5 35q0 19 -14.5 29t-39.5 10h-35l13 70h34q23 0 40 10t17 30q0 15 -12 23.5t-26 8.5q-23 0 -36 -11t-20 -25l-72 32q17 36 52 58.5t89 22.5q51 0 83 -26.5t32 -66.5q0 -32 -17.5 -53.5
t-43.5 -34.5q20 -11 32 -30t12 -43q0 -28 -11 -51.5t-31.5 -40.5t-48.5 -26.5t-61 -9.5z" />
    <glyph glyph-name="four.denominator" horiz-adv-x="362" 
d="M136 0l12 65h-173l12 64l212 237h88l-40 -227h47l-13 -74h-47l-12 -65h-86zM161 139l18 104h-8l-90 -104h80z" />
    <glyph glyph-name="four.numerator" horiz-adv-x="362" 
d="M198 350l12 65h-172l11 64l213 237h87l-40 -227h47l-13 -74h-47l-12 -65h-86zM223 489l19 104h-8l-91 -104h80z" />
    <glyph glyph-name="r.alt" horiz-adv-x="401" 
d="M190 422h8q24 37 64 59.5t94 22.5q17 0 27 -1.5t18 -3.5l-23 -130q-9 5 -22 8t-33 3q-63 0 -105 -39t-53 -105l-42 -236h-130l86 490h123z" />
    <glyph glyph-name="uni03BC" horiz-adv-x="574" 
d="M333 0l12 64h-8q-26 -38 -61 -59t-86 -21q-20 0 -39 6.5t-31 17.5h-8l-2 -65l-28 -159h-130l125 706h130l-50 -281q-1 -6 -1.5 -12.5t-0.5 -17.5q0 -32 19 -53t57 -21q30 0 53 11t40 30.5t28 46t17 57.5l42 240h131l-86 -490h-123z" />
    <glyph glyph-name="uni2103" horiz-adv-x="969" 
d="M602 -16q-71 0 -128 24t-97.5 65.5t-62.5 98t-22 121.5q0 81 30 154.5t84.5 130t130.5 89.5t168 33q160 0 245 -115l-103 -86q-28 35 -64 56t-97 21q-56 0 -103.5 -21t-82.5 -57.5t-55 -86t-20 -106.5q0 -91 52 -144t140 -53q63 0 107 21.5t86 66.5l79 -92
q-61 -64 -130 -92t-157 -28zM175 442q-24 0 -45.5 8t-38 23t-26 36t-9.5 47q0 32 11 58.5t30.5 45.5t46 29.5t58.5 10.5q24 0 45.5 -8.5t38 -23.5t26 -36t9.5 -46q0 -32 -11 -58.5t-30.5 -45.5t-46.5 -29.5t-58 -10.5zM183 519q23 0 40 16.5t17 41.5q0 20 -12.5 33t-32.5 13
q-24 0 -41 -16.5t-17 -41.5q0 -21 13 -33.5t33 -12.5z" />
    <glyph glyph-name="uni2109" horiz-adv-x="833" 
d="M302 0l121 684h435l-22 -124h-305l-28 -164h274l-22 -124h-274l-49 -272h-130zM186 442q-24 0 -45.5 8t-38 23t-26 36t-9.5 47q0 32 11 58.5t30.5 45.5t46 29.5t58.5 10.5q24 0 45.5 -8.5t38 -23.5t26 -36t9.5 -46q0 -32 -11 -58.5t-30.5 -45.5t-46.5 -29.5t-58 -10.5z
M194 519q23 0 40 16.5t17 41.5q0 20 -12.5 33t-32.5 13q-24 0 -41 -16.5t-17 -41.5q0 -21 13 -33.5t33 -12.5z" />
    <glyph glyph-name="uni2190" horiz-adv-x="1123" 
d="M287 248v-177l-239 239l239 239v-177h780v-124h-780z" />
    <glyph glyph-name="uni2191" horiz-adv-x="559" 
d="M341 -145h-124v740h-177l239 240l240 -240h-178v-740z" />
    <glyph glyph-name="uni2192" horiz-adv-x="1123" 
d="M56 248v124h779v177l240 -239l-240 -239v177h-779z" />
    <glyph glyph-name="uni2193" horiz-adv-x="559" 
d="M341 71h178l-240 -239l-239 239h177v741h124v-741z" />
    <glyph glyph-name="uni2196" horiz-adv-x="792" 
d="M792 67l-88 -88l-538 537l-126 -125v338h339l-126 -125z" />
    <glyph glyph-name="uni2197" horiz-adv-x="792" 
d="M539 604l-126 125h339v-338l-126 125l-538 -537l-88 88z" />
    <glyph glyph-name="uni2198" horiz-adv-x="792" 
d="M253 112l126 -125h-339v338l126 -125l538 537l88 -88z" />
    <glyph glyph-name="uni2199" horiz-adv-x="792" 
d="M0 649l88 88l538 -537l126 125v-338h-339l126 125z" />
    <glyph glyph-name="uni2639" horiz-adv-x="836" 
d="M287 395q-23 0 -39.5 16.5t-16.5 40.5q0 23 16.5 39t39.5 16t39.5 -16t16.5 -39q0 -24 -16.5 -40.5t-39.5 -16.5zM549 395q-23 0 -39.5 16.5t-16.5 40.5q0 23 16.5 39t39.5 16t39.5 -16t16.5 -39q0 -24 -16.5 -40.5t-39.5 -16.5zM418 -16q-77 0 -145 29.5t-119 80.5
t-80.5 119t-29.5 145t29.5 145t80.5 119t119 80.5t145 29.5t145 -29.5t119 -80.5t80.5 -119t29.5 -145t-29.5 -145t-80.5 -119t-119 -80.5t-145 -29.5zM418 48q64 0 120.5 24.5t98.5 67t66.5 99t24.5 119.5q0 64 -24.5 120.5t-66.5 98.5t-98.5 66.5t-120.5 24.5
q-63 0 -119.5 -24.5t-99 -66.5t-67 -98.5t-24.5 -120.5q0 -63 24.5 -119.5t67 -99t99 -67t119.5 -24.5zM418 301q63 0 113 -32.5t74 -86.5l-67 -31q-17 35 -49.5 55t-70.5 20t-70.5 -20t-48.5 -55l-68 31q24 54 74 86.5t113 32.5z" />
    <glyph glyph-name="uni263A" horiz-adv-x="836" 
d="M549 395q-23 0 -39.5 16.5t-16.5 40.5q0 23 16.5 39t39.5 16t39.5 -16t16.5 -39q0 -24 -16.5 -40.5t-39.5 -16.5zM287 395q-23 0 -39.5 16.5t-16.5 40.5q0 23 16.5 39t39.5 16t39.5 -16t16.5 -39q0 -24 -16.5 -40.5t-39.5 -16.5zM418 152q-63 0 -113 32.5t-74 86.5l68 31
q16 -35 48.5 -55t70.5 -20t70.5 20t49.5 55l67 -31q-24 -54 -74 -86.5t-113 -32.5zM418 -16q-77 0 -145 29.5t-119 80.5t-80.5 119t-29.5 145t29.5 145t80.5 119t119 80.5t145 29.5t145 -29.5t119 -80.5t80.5 -119t29.5 -145t-29.5 -145t-80.5 -119t-119 -80.5t-145 -29.5z
M418 48q64 0 120.5 24.5t98.5 67t66.5 99t24.5 119.5q0 64 -24.5 120.5t-66.5 98.5t-98.5 66.5t-120.5 24.5q-63 0 -119.5 -24.5t-99 -66.5t-67 -98.5t-24.5 -120.5q0 -63 24.5 -119.5t67 -99t99 -67t119.5 -24.5z" />
    <glyph glyph-name="uni2780" horiz-adv-x="836" 
d="M386 177v263l-66 -29l-33 75l123 57h65v-366h-89zM418 -16q-77 0 -145 29.5t-119 80.5t-80.5 119t-29.5 145t29.5 145t80.5 119t119 80.5t145 29.5t145 -29.5t119 -80.5t80.5 -119t29.5 -145t-29.5 -145t-80.5 -119t-119 -80.5t-145 -29.5zM418 69q60 0 112.5 23
t91.5 62.5t62 92t23 111.5q0 60 -23 112.5t-62 91.5t-91.5 62t-112.5 23q-59 0 -111.5 -23t-92 -62t-62.5 -91.5t-23 -112.5q0 -59 23 -111.5t62.5 -92t92 -62.5t111.5 -23z" />
    <glyph glyph-name="uni2781" horiz-adv-x="836" 
d="M287 177v63q16 17 30.5 31.5l28.5 28.5l69 69q18 17 29.5 32t11.5 35q0 14 -11.5 25t-29.5 11q-42 0 -52 -50l-80 31q11 45 47 71.5t85 26.5q28 0 52 -8t41.5 -22t27.5 -34t10 -44q0 -18 -6.5 -34.5t-16 -31t-20 -26.5t-19.5 -21l-45 -45q-7 -7 -14.5 -14t-15.5 -15h139
v-79h-261zM418 -16q-77 0 -145 29.5t-119 80.5t-80.5 119t-29.5 145t29.5 145t80.5 119t119 80.5t145 29.5t145 -29.5t119 -80.5t80.5 -119t29.5 -145t-29.5 -145t-80.5 -119t-119 -80.5t-145 -29.5zM418 69q60 0 112.5 23t91.5 62.5t62 92t23 111.5q0 60 -23 112.5
t-62 91.5t-91.5 62t-112.5 23q-59 0 -111.5 -23t-92 -62t-62.5 -91.5t-23 -112.5q0 -59 23 -111.5t62.5 -92t92 -62.5t111.5 -23z" />
    <glyph glyph-name="uni2782" horiz-adv-x="836" 
d="M417 169q-48 0 -88 23.5t-53 77.5l83 30q5 -30 22 -42t36 -12q20 0 34.5 12t14.5 32t-16 31t-41 11h-38v70h34q23 0 36.5 9.5t13.5 28.5q0 16 -11.5 25t-28.5 9q-22 0 -34 -11.5t-17 -25.5l-78 31q13 36 45 59.5t86 23.5q28 0 51 -8t39.5 -22.5t25.5 -33t9 -39.5
q0 -48 -43 -78q24 -13 40 -34.5t16 -49.5t-11.5 -49.5t-30.5 -36.5t-44 -23t-52 -8zM418 -16q-77 0 -145 29.5t-119 80.5t-80.5 119t-29.5 145t29.5 145t80.5 119t119 80.5t145 29.5t145 -29.5t119 -80.5t80.5 -119t29.5 -145t-29.5 -145t-80.5 -119t-119 -80.5t-145 -29.5z
M418 69q60 0 112.5 23t91.5 62.5t62 92t23 111.5q0 60 -23 112.5t-62 91.5t-91.5 62t-112.5 23q-59 0 -111.5 -23t-92 -62t-62.5 -91.5t-23 -112.5q0 -59 23 -111.5t62.5 -92t92 -62.5t111.5 -23z" />
    <glyph glyph-name="uni2783" horiz-adv-x="836" 
d="M419 177v65h-172v64l171 237h87v-227h48v-74h-48v-65h-86zM419 423h-8l-76 -107h84v107zM418 -16q-77 0 -145 29.5t-119 80.5t-80.5 119t-29.5 145t29.5 145t80.5 119t119 80.5t145 29.5t145 -29.5t119 -80.5t80.5 -119t29.5 -145t-29.5 -145t-80.5 -119t-119 -80.5
t-145 -29.5zM418 69q60 0 112.5 23t91.5 62.5t62 92t23 111.5q0 60 -23 112.5t-62 91.5t-91.5 62t-112.5 23q-59 0 -111.5 -23t-92 -62t-62.5 -91.5t-23 -112.5q0 -59 23 -111.5t62.5 -92t92 -62.5t111.5 -23z" />
    <glyph glyph-name="uni2784" horiz-adv-x="836" 
d="M418 -16q-77 0 -145 29.5t-119 80.5t-80.5 119t-29.5 145t29.5 145t80.5 119t119 80.5t145 29.5t145 -29.5t119 -80.5t80.5 -119t29.5 -145t-29.5 -145t-80.5 -119t-119 -80.5t-145 -29.5zM418 69q60 0 112.5 23t91.5 62.5t62 92t23 111.5q0 60 -23 112.5t-62 91.5
t-91.5 62t-112.5 23q-59 0 -111.5 -23t-92 -62t-62.5 -91.5t-23 -112.5q0 -59 23 -111.5t62.5 -92t92 -62.5t111.5 -23zM417 169q-21 0 -42 5t-40 16t-33 28t-21 42l79 31q5 -21 20 -33t36 -12q22 0 36.5 14.5t14.5 37.5t-14.5 37.5t-35.5 14.5q-17 0 -30.5 -8t-21.5 -21
l-73 32l23 189h219v-72h-152l-11 -66q26 17 62 17q24 0 46 -8.5t38.5 -24.5t26.5 -39.5t10 -52.5t-11 -52.5t-30 -40t-44 -25.5t-52 -9z" />
    <glyph glyph-name="uni2785" horiz-adv-x="836" 
d="M418 -16q-77 0 -145 29.5t-119 80.5t-80.5 119t-29.5 145t29.5 145t80.5 119t119 80.5t145 29.5t145 -29.5t119 -80.5t80.5 -119t29.5 -145t-29.5 -145t-80.5 -119t-119 -80.5t-145 -29.5zM418 69q60 0 112.5 23t91.5 62.5t62 92t23 111.5q0 60 -23 112.5t-62 91.5
t-91.5 62t-112.5 23q-59 0 -111.5 -23t-92 -62t-62.5 -91.5t-23 -112.5q0 -59 23 -111.5t62.5 -92t92 -62.5t111.5 -23zM414 169q-30 0 -55 10.5t-43.5 28t-28.5 41t-10 49.5q0 32 13 59t30 52q10 15 28 40l36 50q11 14 22 29t22 31l67 -49l-76 -96q7 4 19 4q21 0 41.5 -9
t36.5 -25.5t25.5 -39t9.5 -48.5t-10.5 -49t-29.5 -40.5t-44 -27.5t-53 -10zM413 245q23 0 36.5 15t13.5 36q0 20 -13.5 35.5t-36.5 15.5q-22 0 -35.5 -15.5t-13.5 -35.5q0 -21 13 -36t36 -15z" />
    <glyph glyph-name="uni2786" horiz-adv-x="836" 
d="M418 -16q-77 0 -145 29.5t-119 80.5t-80.5 119t-29.5 145t29.5 145t80.5 119t119 80.5t145 29.5t145 -29.5t119 -80.5t80.5 -119t29.5 -145t-29.5 -145t-80.5 -119t-119 -80.5t-145 -29.5zM418 69q60 0 112.5 23t91.5 62.5t62 92t23 111.5q0 60 -23 112.5t-62 91.5
t-91.5 62t-112.5 23q-59 0 -111.5 -23t-92 -62t-62.5 -91.5t-23 -112.5q0 -59 23 -111.5t62.5 -92t92 -62.5t111.5 -23zM307 202l152 260h-164v81h261v-77l-171 -304z" />
    <glyph glyph-name="uni2787" horiz-adv-x="836" 
d="M418 -16q-77 0 -145 29.5t-119 80.5t-80.5 119t-29.5 145t29.5 145t80.5 119t119 80.5t145 29.5t145 -29.5t119 -80.5t80.5 -119t29.5 -145t-29.5 -145t-80.5 -119t-119 -80.5t-145 -29.5zM418 69q60 0 112.5 23t91.5 62.5t62 92t23 111.5q0 60 -23 112.5t-62 91.5
t-91.5 62t-112.5 23q-59 0 -111.5 -23t-92 -62t-62.5 -91.5t-23 -112.5q0 -59 23 -111.5t62.5 -92t92 -62.5t111.5 -23zM418 169q-26 0 -51 7.5t-44.5 22t-31 36t-11.5 48.5q0 28 14 50.5t38 36.5q-19 12 -29.5 32t-10.5 40q0 25 10 45t27.5 34.5t40 22t48.5 7.5
q25 0 48 -7.5t40.5 -22t27.5 -34.5t10 -45q0 -20 -10.5 -40t-29.5 -32q24 -14 38 -36.5t14 -50.5t-12 -49t-31.5 -35.5t-44.5 -22t-50 -7.5zM418 402q15 0 27.5 10t12.5 27q0 16 -11.5 26.5t-28.5 10.5t-28.5 -10t-11.5 -27t12 -27t28 -10zM418 244q19 0 34.5 12.5
t15.5 32.5t-15.5 32.5t-34.5 12.5q-20 0 -35 -12.5t-15 -32.5t15 -32.5t35 -12.5z" />
    <glyph glyph-name="uni2788" horiz-adv-x="836" 
d="M418 -16q-77 0 -145 29.5t-119 80.5t-80.5 119t-29.5 145t29.5 145t80.5 119t119 80.5t145 29.5t145 -29.5t119 -80.5t80.5 -119t29.5 -145t-29.5 -145t-80.5 -119t-119 -80.5t-145 -29.5zM418 69q60 0 112.5 23t91.5 62.5t62 92t23 111.5q0 60 -23 112.5t-62 91.5
t-91.5 62t-112.5 23q-59 0 -111.5 -23t-92 -62t-62.5 -91.5t-23 -112.5q0 -59 23 -111.5t62.5 -92t92 -62.5t111.5 -23zM415 551q30 0 55 -10.5t43.5 -28t28.5 -41t10 -49.5q0 -32 -13 -59t-30 -52q-5 -8 -12.5 -17.5t-15.5 -22.5q-9 -13 -18 -25.5t-18 -24.5
q-11 -14 -22 -29t-22 -31l-67 49l77 96q-7 -4 -20 -4q-21 0 -41.5 9t-36.5 25.5t-25.5 39t-9.5 48.5t10.5 49t29.5 40.5t43.5 27.5t53.5 10zM416 475q-23 0 -36.5 -15t-13.5 -36q0 -20 13.5 -35.5t36.5 -15.5q22 0 36 15.5t14 35.5q0 21 -13.5 36t-36.5 15z" />
    <glyph glyph-name="uni278A" horiz-adv-x="836" 
d="M475 543h-65l-123 -57l32 -75l67 29v-263h89v366zM418 -16q-77 0 -145 29.5t-119 80.5t-80.5 119t-29.5 145t29.5 145t80.5 119t119 80.5t145 29.5t145 -29.5t119 -80.5t80.5 -119t29.5 -145t-29.5 -145t-80.5 -119t-119 -80.5t-145 -29.5z" />
    <glyph glyph-name="uni278B" horiz-adv-x="836" 
d="M548 256h-140q8 8 15.5 15t14.5 14l45 45q9 9 19.5 21t20.5 26.5t16.5 31t6.5 34.5q0 24 -10 44t-28 34t-42 22t-52 8q-49 0 -85 -26.5t-47 -71.5l81 -31q5 26 18.5 38t32.5 12q18 0 29.5 -11t11.5 -25q0 -20 -11.5 -35t-29.5 -32l-3 -3t-5 -6l-60 -60l-60 -60v-63h262
v79zM418 -16q-77 0 -145 29.5t-119 80.5t-80.5 119t-29.5 145t29.5 145t80.5 119t119 80.5t145 29.5t145 -29.5t119 -80.5t80.5 -119t29.5 -145t-29.5 -145t-80.5 -119t-119 -80.5t-145 -29.5z" />
    <glyph glyph-name="uni278C" horiz-adv-x="836" 
d="M417 168q27 0 52 8t44 23t30.5 36.5t11.5 49.5q0 27 -18 49.5t-48 34.5q23 10 38 30.5t15 48.5q0 43 -34 72.5t-91 29.5q-54 0 -85 -24t-44 -60l76 -31q5 14 16.5 26.5t34.5 12.5q17 0 28.5 -9.5t11.5 -25.5q0 -19 -13.5 -28.5t-36.5 -9.5h-35v-71h39q25 0 40.5 -10.5
t15.5 -30.5t-14 -32t-34 -12q-19 0 -36 12t-22 41l-83 -30q13 -52 53 -76t88 -24zM418 -16q-77 0 -145 29.5t-119 80.5t-80.5 119t-29.5 145t29.5 145t80.5 119t119 80.5t145 29.5t145 -29.5t119 -80.5t80.5 -119t29.5 -145t-29.5 -145t-80.5 -119t-119 -80.5t-145 -29.5z
" />
    <glyph glyph-name="uni278D" horiz-adv-x="836" 
d="M504 242h48v74h-48v227h-87l-171 -237v-64h172v-65h86v65zM334 316l76 107h8v-107h-84zM418 -16q-77 0 -145 29.5t-119 80.5t-80.5 119t-29.5 145t29.5 145t80.5 119t119 80.5t145 29.5t145 -29.5t119 -80.5t80.5 -119t29.5 -145t-29.5 -145t-80.5 -119t-119 -80.5
t-145 -29.5z" />
    <glyph glyph-name="uni278E" horiz-adv-x="836" 
d="M418 -16q-77 0 -145 29.5t-119 80.5t-80.5 119t-29.5 145t29.5 145t80.5 119t119 80.5t145 29.5t145 -29.5t119 -80.5t80.5 -119t29.5 -145t-29.5 -145t-80.5 -119t-119 -80.5t-145 -29.5zM418 169q27 0 52 9t43.5 25.5t30 40t11.5 52.5t-10 52.5t-26.5 39.5t-38 24.5
t-45.5 8.5q-19 0 -37 -7.5t-29 -21.5l14 78h152v72h-219l-23 -189l73 -32q8 13 21 21t31 8q21 0 35 -14.5t14 -37.5t-14 -37.5t-36 -14.5q-21 0 -36 12t-20 33l-79 -31q7 -25 21 -42t32.5 -28t40 -16t42.5 -5z" />
    <glyph glyph-name="uni278F" horiz-adv-x="836" 
d="M418 -16q-77 0 -145 29.5t-119 80.5t-80.5 119t-29.5 145t29.5 145t80.5 119t119 80.5t145 29.5t145 -29.5t119 -80.5t80.5 -119t29.5 -145t-29.5 -145t-80.5 -119t-119 -80.5t-145 -29.5zM414 169q28 0 53 10t44 27.5t29.5 40.5t10.5 49t-9.5 48.5t-25.5 39t-36.5 25.5
t-41.5 9q-13 0 -20 -4l77 96l-67 49q-11 -16 -22 -31t-22 -29l-36 -50t-28 -40q-17 -25 -30 -52t-13 -59q0 -26 10 -49.5t28.5 -41t43.5 -28t55 -10.5zM413 245q-23 0 -36.5 15t-13.5 36q0 20 14 35.5t36 15.5q23 0 36.5 -15.5t13.5 -35.5q0 -21 -13.5 -36t-36.5 -15z" />
    <glyph glyph-name="uni2790" horiz-adv-x="836" 
d="M418 -16q-77 0 -145 29.5t-119 80.5t-80.5 119t-29.5 145t29.5 145t80.5 119t119 80.5t145 29.5t145 -29.5t119 -80.5t80.5 -119t29.5 -145t-29.5 -145t-80.5 -119t-119 -80.5t-145 -29.5zM386 162l170 304v77h-260v-81h158l-147 -260z" />
    <glyph glyph-name="uni2791" horiz-adv-x="836" 
d="M418 -16q-77 0 -145 29.5t-119 80.5t-80.5 119t-29.5 145t29.5 145t80.5 119t119 80.5t145 29.5t145 -29.5t119 -80.5t80.5 -119t29.5 -145t-29.5 -145t-80.5 -119t-119 -80.5t-145 -29.5zM418 169q25 0 50 7.5t44.5 22t31.5 35.5t12 49t-15 50.5t-40 36.5q20 12 31.5 32
t11.5 40q0 25 -10 45t-27.5 34.5t-40.5 22t-48 7.5q-26 0 -48.5 -7.5t-40 -22t-27.5 -34.5t-10 -45q0 -20 11.5 -40t31.5 -32q-25 -14 -40 -36.5t-15 -50.5q0 -27 11.5 -48.5t31 -36t44.5 -22t51 -7.5zM418 402q-16 0 -28 10t-12 27t11.5 27t28.5 10t28.5 -10.5t11.5 -26.5
q0 -17 -12.5 -27t-27.5 -10zM418 244q-20 0 -35 12.5t-15 32.5t15 32.5t35 12.5q19 0 34.5 -12.5t15.5 -32.5t-15.5 -32.5t-34.5 -12.5z" />
    <glyph glyph-name="uni2792" horiz-adv-x="836" 
d="M418 -16q-77 0 -145 29.5t-119 80.5t-80.5 119t-29.5 145t29.5 145t80.5 119t119 80.5t145 29.5t145 -29.5t119 -80.5t80.5 -119t29.5 -145t-29.5 -145t-80.5 -119t-119 -80.5t-145 -29.5zM415 551q-29 0 -53.5 -10t-43.5 -27.5t-29.5 -40.5t-10.5 -49t9.5 -48.5
t25.5 -39t36.5 -25.5t41.5 -9q13 0 20 4l-77 -96l67 -49q11 16 22 31t22 29q9 12 18 24.5t18 25.5q8 13 15.5 22.5t12.5 17.5q17 25 30 52t13 59q0 26 -10 49.5t-28.5 41t-43.5 28t-55 10.5zM416 475q23 0 36.5 -15t13.5 -36q0 -20 -14 -35.5t-36 -15.5q-23 0 -36.5 15.5
t-13.5 35.5q0 21 13.5 36t36.5 15z" />
    <glyph glyph-name="Google.logo" horiz-adv-x="3284" 
d="M460 -16q-85 0 -160.5 32.5t-132.5 88t-90 130t-33 159.5t33 159.5t90 130t132.5 88t160.5 32.5q94 0 162.5 -32.5t118.5 -80.5l-79 -79q-36 34 -85.5 57t-116.5 23q-62 0 -115.5 -23.5t-93.5 -64t-62.5 -95t-22.5 -115.5q0 -62 22.5 -116t62.5 -94.5t93.5 -64
t115.5 -23.5q40 0 72 7.5t57 19t44 26t34 29.5q49 49 61 141h-268v112h377q6 -30 6 -70q0 -32 -5 -66t-16 -68.5t-29.5 -67t-46.5 -60.5q-54 -57 -123.5 -86t-162.5 -29zM1148 -16q-55 0 -103 20t-84 55t-57 83.5t-21 105.5t21 105.5t57 84t84 55t103 19.5t103 -19.5t84 -55
t57 -84t21 -105.5t-21 -105.5t-57 -83.5t-84 -55t-103 -20zM1148 88q30 0 57 12t47.5 33t32.5 50.5t12 64.5q0 36 -12 65.5t-32.5 50.5t-47.5 32.5t-57 11.5t-57 -11.5t-47.5 -32.5t-32.5 -50.5t-12 -65.5q0 -35 12 -64.5t32.5 -50.5t47.5 -33t57 -12zM1726 -16
q-55 0 -103 20t-84 55t-57 83.5t-21 105.5t21 105.5t57 84t84 55t103 19.5t103 -19.5t84 -55t57 -84t21 -105.5t-21 -105.5t-57 -83.5t-84 -55t-103 -20zM1726 88q30 0 57 12t47.5 33t32.5 50.5t12 64.5q0 36 -12 65.5t-32.5 50.5t-47.5 32.5t-57 11.5t-57 -11.5
t-47.5 -32.5t-32.5 -50.5t-12 -65.5q0 -35 12 -64.5t32.5 -50.5t47.5 -33t57 -12zM2294 -253q-48 0 -86.5 14.5t-67.5 37t-49 50.5t-31 54l101 42q7 -17 18.5 -33.5t28 -30t38 -22t48.5 -8.5q66 0 103.5 39.5t37.5 115.5v38h-4q-20 -24 -55.5 -42t-83.5 -18
q-50 0 -95.5 20.5t-80.5 55.5t-56 83t-21 104t21 104.5t56 84t80.5 56t95.5 20.5q48 0 83.5 -18t55.5 -41h4v43h110v-474q0 -73 -20 -125t-54.5 -85.5t-80 -49t-96.5 -15.5zM2302 88q30 0 55.5 12t44.5 33t30 50t11 64t-11 64.5t-30 51t-44.5 33.5t-55.5 12t-56.5 -12
t-47 -33.5t-32 -51t-11.5 -64.5t11.5 -64t32 -50t47 -33t56.5 -12zM2741 0h-116v776h116v-776zM3059 -16q-56 0 -104 20.5t-83 56t-55 83.5t-20 104q0 59 20 107.5t53.5 83.5t79 54t96.5 19t90 -18t66.5 -44t44.5 -55t25 -51l12 -30l-353 -146q41 -80 128 -80q45 0 76 20
t54 53l90 -60q-11 -16 -30 -36.5t-46 -38.5t-63 -30t-81 -12zM3148 354q-10 25 -36.5 40.5t-61.5 15.5q-23 0 -47.5 -9.5t-45 -29t-33.5 -48.5t-12 -67z" />
    <glyph glyph-name="G.logo" horiz-adv-x="861" 
d="M460 -16q-85 0 -160.5 32.5t-132.5 88t-90 130t-33 159.5t33 159.5t90 130t132.5 88t160.5 32.5q94 0 162.5 -32.5t118.5 -80.5l-79 -79q-36 34 -85.5 57t-116.5 23q-62 0 -115.5 -23.5t-93.5 -64t-62.5 -95t-22.5 -115.5q0 -62 22.5 -116t62.5 -94.5t93.5 -64
t115.5 -23.5q40 0 72 7.5t57 19t44 26t34 29.5q49 49 61 141h-268v112h377q6 -30 6 -70q0 -32 -5 -66t-16 -68.5t-29.5 -67t-46.5 -60.5q-54 -57 -123.5 -86t-162.5 -29z" />
    <glyph glyph-name="o.logo" horiz-adv-x="578" 
d="M287 -16q-55 0 -103 20t-84 55t-57 83.5t-21 105.5t21 105.5t57 84t84 55t103 19.5t103 -19.5t84 -55t57 -84t21 -105.5t-21 -105.5t-57 -83.5t-84 -55t-103 -20zM287 88q30 0 57 12t47.5 33t32.5 50.5t12 64.5q0 36 -12 65.5t-32.5 50.5t-47.5 32.5t-57 11.5t-57 -11.5
t-47.5 -32.5t-32.5 -50.5t-12 -65.5q0 -35 12 -64.5t32.5 -50.5t47.5 -33t57 -12z" />
    <glyph glyph-name="g.logo" horiz-adv-x="566" 
d="M277 -253q-48 0 -86.5 14.5t-67.5 37t-49 50.5t-31 54l101 42q7 -17 18.5 -33.5t28 -30t38 -22t48.5 -8.5q66 0 103.5 39.5t37.5 115.5v38h-4q-20 -24 -55.5 -42t-83.5 -18q-50 0 -95.5 20.5t-80.5 55.5t-56 83t-21 104t21 104.5t56 84t80.5 56t95.5 20.5q48 0 83.5 -18
t55.5 -41h4v43h110v-474q0 -73 -20 -125t-54.5 -85.5t-80 -49t-96.5 -15.5zM285 88q30 0 55.5 12t44.5 33t30 50t11 64t-11 64.5t-30 51t-44.5 33.5t-55.5 12t-56.5 -12t-47 -33.5t-32 -51t-11.5 -64.5t11.5 -64t32 -50t47 -33t56.5 -12z" />
    <glyph glyph-name="l.logo" horiz-adv-x="187" 
d="M158 0h-116v776h116v-776z" />
    <glyph glyph-name="e.logo" horiz-adv-x="514" 
d="M289 -16q-56 0 -104 20.5t-83 56t-55 83.5t-20 104q0 59 20 107.5t53.5 83.5t79 54t96.5 19t90 -18t66.5 -44t44.5 -55t25 -51l12 -30l-353 -146q41 -80 128 -80q45 0 76 20t54 53l90 -60q-11 -16 -30 -36.5t-46 -38.5t-63 -30t-81 -12zM378 354q-10 25 -36.5 40.5
t-61.5 15.5q-23 0 -47.5 -9.5t-45 -29t-33.5 -48.5t-12 -67z" />
    </font>
</defs>
</svg>
