<?xml version="1.0" standalone="no"?>
<!DOCTYPE svg PUBLIC "-//W3C//DTD SVG 1.1//EN" "http://www.w3.org/Graphics/SVG/1.1/DTD/svg11.dtd" >
<svg xmlns="http://www.w3.org/2000/svg" xmlns:xlink="http://www.w3.org/1999/xlink" version="1.1">
<metadata>
Created by FontForge 20170731 at Fri Jan 26 17:34:34 2018
 By Aleksey,,,
Copyright 2018 Adobe Systems Incorporated. All rights reserved.
</metadata>
<defs>
<font id="SVN-ProductSansItalic" horiz-adv-x="542" >
  <font-face 
    font-family="SVN-Product Sans"
    font-weight="400"
    font-style="italic"
    font-stretch="normal"
    units-per-em="1000"
    panose-1="2 11 4 3 3 5 2 9 2 3"
    ascent="800"
    descent="-200"
    x-height="490"
    cap-height="716"
    bbox="-238 -253 3284 1027"
    underline-thickness="84"
    underline-position="-244"
    slope="-10"
    unicode-range="U+000D-2215"
  />
<missing-glyph horiz-adv-x="570" 
d="M72 716h426v-716h-426v716zM136 60h298v596h-298v-596z" />
    <glyph glyph-name="f_i" unicode="fi" horiz-adv-x="584" 
d="M345 724q24 0 42.5 -5.5t32.5 -14.5l-38 -78q-8 5 -20 8.5t-26 3.5q-35 0 -61 -20.5t-34 -65.5l-11 -62h312l-86 -490h-92l71 406h-220l-71 -406h-92l71 406h-92l15 84h92l13 71q14 78 66.5 120.5t127.5 42.5zM584 634q0 -24 -18 -42t-44 -18q-24 0 -42 18t-18 42
q0 26 18 44t42 18q26 0 44 -18t18 -44z" />
    <glyph glyph-name="f_l" unicode="fl" horiz-adv-x="576" 
d="M364 0l112 636h-138q-82 0 -97 -84l-11 -62h119l-15 -84h-119l-71 -406h-92l71 406h-92l15 84h92l14 73q12 70 61.5 113.5t139.5 43.5h230l-127 -720h-92z" />
    <glyph glyph-name="f_b" unicode="fb" horiz-adv-x="947" 
d="M619 -16q-51 0 -91 24t-61 60h-4l-12 -68h-87l112 636h-138q-82 0 -97 -84l-11 -62h119l-15 -84h-119l-71 -406h-92l71 406h-92l15 84h92l14 73q12 70 61.5 113.5t139.5 43.5h230l-41 -230l-16 -68h4q25 34 66 59t104 25q43 0 80 -16t64.5 -45.5t43 -72t15.5 -95.5
q0 -57 -21.5 -109.5t-59.5 -93.5t-90 -65.5t-113 -24.5zM626 68q38 0 71.5 15.5t58 43t39 64.5t14.5 80q0 72 -34.5 111.5t-100.5 39.5q-39 0 -73 -17.5t-58.5 -46.5t-38.5 -66.5t-14 -77.5q0 -72 39 -109t97 -37z" />
    <glyph glyph-name="f_f" unicode="ff" horiz-adv-x="680" 
d="M657 724q24 0 42.5 -5.5t32.5 -14.5l-38 -78q-8 5 -20 8.5t-26 3.5q-35 0 -61 -20.5t-34 -65.5l-11 -62h128l-15 -84h-128l-71 -406h-92l71 406h-220l-71 -406h-92l71 406h-92l15 84h92l13 71q14 78 66.5 120.5t127.5 42.5q24 0 42.5 -5.5t32.5 -14.5l-38 -78
q-8 5 -20 8.5t-26 3.5q-35 0 -61 -20.5t-34 -65.5l-11 -62h220l13 71q14 78 66.5 120.5t127.5 42.5z" />
    <glyph glyph-name="f_f_b" unicode="ffb" horiz-adv-x="1259" 
d="M931 -16q-51 0 -91 24t-61 60h-4l-12 -68h-87l112 636h-138q-82 0 -97 -84l-11 -62h119l-15 -84h-119l-71 -406h-92l71 406h-220l-71 -406h-92l71 406h-92l15 84h92l13 71q14 78 66.5 120.5t127.5 42.5q24 0 42.5 -5.5t32.5 -14.5l-38 -78q-8 5 -20 8.5t-26 3.5
q-35 0 -61 -20.5t-34 -65.5l-11 -62h220l14 73q12 70 61.5 113.5t139.5 43.5h230l-41 -230l-16 -68h4q25 34 66 59t104 25q43 0 80 -16t64.5 -45.5t43 -72t15.5 -95.5q0 -57 -21.5 -109.5t-59.5 -93.5t-90 -65.5t-113 -24.5zM938 68q38 0 71.5 15.5t58 43t39 64.5t14.5 80
q0 72 -34.5 111.5t-100.5 39.5q-39 0 -73 -17.5t-58.5 -46.5t-38.5 -66.5t-14 -77.5q0 -72 39 -109t97 -37z" />
    <glyph glyph-name="f_f_h" unicode="ffh" horiz-adv-x="1225" 
d="M854 490l-16 -68h4q27 36 71.5 60t98.5 24q41 0 71 -11.5t49 -31.5t28 -46.5t9 -56.5q0 -12 -1.5 -26.5t-5.5 -37.5l-53 -296h-92l52 294q2 10 3 19.5t1 17.5q0 45 -26.5 68t-71.5 23q-31 0 -58 -13t-48.5 -34.5t-35.5 -49.5t-19 -58l-46 -267h-92l112 636h-138
q-82 0 -97 -84l-11 -62h119l-15 -84h-119l-71 -406h-92l71 406h-220l-71 -406h-92l71 406h-92l15 84h92l13 71q14 78 66.5 120.5t127.5 42.5q24 0 42.5 -5.5t32.5 -14.5l-38 -78q-8 5 -20 8.5t-26 3.5q-35 0 -61 -20.5t-34 -65.5l-11 -62h220l14 73q12 70 61.5 113.5
t139.5 43.5h230z" />
    <glyph glyph-name="f_f_i" unicode="ffi" horiz-adv-x="896" 
d="M657 724q24 0 42.5 -5.5t32.5 -14.5l-38 -78q-8 5 -20 8.5t-26 3.5q-35 0 -61 -20.5t-34 -65.5l-11 -62h312l-86 -490h-92l71 406h-220l-71 -406h-92l71 406h-220l-71 -406h-92l71 406h-92l15 84h92l13 71q14 78 66.5 120.5t127.5 42.5q24 0 42.5 -5.5t32.5 -14.5
l-38 -78q-8 5 -20 8.5t-26 3.5q-35 0 -61 -20.5t-34 -65.5l-11 -62h220l13 71q14 78 66.5 120.5t127.5 42.5zM896 634q0 -24 -18 -42t-44 -18q-24 0 -42 18t-18 42q0 26 18 44t42 18q26 0 44 -18t18 -44z" />
    <glyph glyph-name="f_f_j" unicode="ffj" horiz-adv-x="896" 
d="M657 724q24 0 42.5 -5.5t32.5 -14.5l-38 -78q-8 5 -20 8.5t-26 3.5q-35 0 -61 -20.5t-34 -65.5l-11 -62h312l-100 -568q-14 -81 -58.5 -114.5t-107.5 -33.5q-34 0 -55 10l35 80q12 -6 30 -6q52 0 64 65l85 483h-220l-71 -406h-92l71 406h-220l-71 -406h-92l71 406h-92
l15 84h92l13 71q14 78 66.5 120.5t127.5 42.5q24 0 42.5 -5.5t32.5 -14.5l-38 -78q-8 5 -20 8.5t-26 3.5q-35 0 -61 -20.5t-34 -65.5l-11 -62h220l13 71q14 78 66.5 120.5t127.5 42.5zM896 634q0 -24 -18 -42t-44 -18q-24 0 -42 18t-18 42q0 26 18 44t42 18q26 0 44 -18
t18 -44z" />
    <glyph glyph-name="f_f_k" unicode="ffk" horiz-adv-x="1166" 
d="M817 278l246 212h121l-1 -4l-225 -190l149 -292l-1 -4h-108l-114 233l-88 -75l-28 -158h-92l112 636h-138q-82 0 -97 -84l-11 -62h119l-15 -84h-119l-71 -406h-92l71 406h-220l-71 -406h-92l71 406h-92l15 84h92l13 71q14 78 66.5 120.5t127.5 42.5q24 0 42.5 -5.5
t32.5 -14.5l-38 -78q-8 5 -20 8.5t-26 3.5q-35 0 -61 -20.5t-34 -65.5l-11 -62h220l14 73q12 70 61.5 113.5t139.5 43.5h230z" />
    <glyph glyph-name="f_f_l" unicode="ffl" horiz-adv-x="888" 
d="M676 0l112 636h-138q-82 0 -97 -84l-11 -62h119l-15 -84h-119l-71 -406h-92l71 406h-220l-71 -406h-92l71 406h-92l15 84h92l13 71q14 78 66.5 120.5t127.5 42.5q24 0 42.5 -5.5t32.5 -14.5l-38 -78q-8 5 -20 8.5t-26 3.5q-35 0 -61 -20.5t-34 -65.5l-11 -62h220l14 73
q12 70 61.5 113.5t139.5 43.5h230l-127 -720h-92z" />
    <glyph glyph-name="f_f_t" unicode="fft" horiz-adv-x="983" 
d="M818 -8q-25 0 -47 8t-38 22.5t-25.5 35.5t-9.5 47q0 8 1 21t4 29l44 251h-220l-71 -406h-92l71 406h-220l-71 -406h-92l71 406h-92l15 84h92l13 71q14 78 66.5 120.5t127.5 42.5q24 0 42.5 -5.5t32.5 -14.5l-38 -78q-8 5 -20 8.5t-26 3.5q-35 0 -61 -20.5t-34 -65.5
l-11 -62h220l13 71q14 78 66.5 120.5t127.5 42.5q24 0 42.5 -5.5t32.5 -14.5l-38 -78q-8 5 -20 8.5t-26 3.5q-35 0 -61 -20.5t-34 -65.5l-11 -62h220l27 150h92l-27 -150h120l-15 -84h-120l-42 -238q-1 -12 -3 -22q-1 -5 -1.5 -9.5t-0.5 -8.5q0 -22 12 -36t37 -14
q17 0 25.5 2t19.5 7l15 -82q-20 -7 -39.5 -10t-43.5 -3z" />
    <glyph glyph-name="f_h" unicode="fh" horiz-adv-x="913" 
d="M542 490l-16 -68h4q27 36 71.5 60t98.5 24q41 0 71 -11.5t49 -31.5t28 -46.5t9 -56.5q0 -12 -1.5 -26.5t-5.5 -37.5l-53 -296h-92l52 294q2 10 3 19.5t1 17.5q0 45 -26.5 68t-71.5 23q-31 0 -58 -13t-48.5 -34.5t-35.5 -49.5t-19 -58l-46 -267h-92l112 636h-138
q-82 0 -97 -84l-11 -62h119l-15 -84h-119l-71 -406h-92l71 406h-92l15 84h92l14 73q12 70 61.5 113.5t139.5 43.5h230z" />
    <glyph glyph-name="f_j" unicode="fj" horiz-adv-x="584" 
d="M144 0h-92l71 406h-92l15 84h92l13 71q14 78 66.5 120.5t127.5 42.5q24 0 42.5 -5.5t32.5 -14.5l-38 -78q-8 5 -20 8.5t-26 3.5q-35 0 -61 -20.5t-34 -65.5l-11 -62h312l-100 -568q-14 -81 -58.5 -114.5t-107.5 -33.5q-34 0 -55 10l35 80q12 -6 30 -6q52 0 64 65l85 483
h-220zM586 634q0 -24 -18 -42t-44 -18q-24 0 -42 18t-18 42q0 26 18 44t42 18q26 0 44 -18t18 -44z" />
    <glyph glyph-name="f_k" unicode="fk" horiz-adv-x="854" 
d="M505 278l246 212h121l-1 -4l-225 -190l149 -292l-1 -4h-108l-114 233l-88 -75l-28 -158h-92l112 636h-138q-82 0 -97 -84l-11 -62h119l-15 -84h-119l-71 -406h-92l71 406h-92l15 84h92l14 73q12 70 61.5 113.5t139.5 43.5h230z" />
    <glyph glyph-name="f_t" unicode="ft" horiz-adv-x="671" 
d="M345 724q24 0 42.5 -5.5t32.5 -14.5l-38 -78q-8 5 -20 8.5t-26 3.5q-35 0 -61 -20.5t-34 -65.5l-11 -62h220l27 150h92l-27 -150h120l-15 -84h-120l-42 -238q-1 -12 -3 -22q-1 -5 -1.5 -9.5t-0.5 -8.5q0 -22 12 -36t37 -14q17 0 25.5 2t19.5 7l15 -82q-20 -7 -39.5 -10
t-43.5 -3q-25 0 -47 8t-38 22.5t-25.5 35.5t-9.5 47q0 8 1 21t4 29l44 251h-220l-71 -406h-92l71 406h-92l15 84h92l13 71q14 78 66.5 120.5t127.5 42.5z" />
    <glyph glyph-name="r_f" unicode="rf" horiz-adv-x="748" 
d="M725 724q24 0 42.5 -5.5t32.5 -14.5l-38 -78q-8 5 -20 8.5t-26 3.5q-35 0 -61 -20.5t-34 -65.5l-11 -62h128l-15 -84h-128l-71 -406h-92l71 406h-92l15 84h92l13 71q14 78 66.5 120.5t127.5 42.5zM153 410h4q22 48 69.5 71t102.5 23q14 0 20 -0.5t13 -1.5l-17 -96
q-12 4 -41 4q-31 0 -59.5 -10.5t-52 -30.5t-39.5 -48t-22 -62l-46 -259h-92l86 490h88z" />
    <glyph glyph-name="r_f_f" unicode="rff" horiz-adv-x="1060" 
d="M153 410h4q22 48 69.5 71t102.5 23q14 0 20 -0.5t13 -1.5l-17 -96q-12 4 -41 4q-31 0 -59.5 -10.5t-52 -30.5t-39.5 -48t-22 -62l-46 -259h-92l86 490h88zM1037 724q24 0 42.5 -5.5t32.5 -14.5l-38 -78q-8 5 -20 8.5t-26 3.5q-35 0 -61 -20.5t-34 -65.5l-11 -62h128
l-15 -84h-128l-71 -406h-92l71 406h-220l-71 -406h-92l71 406h-92l15 84h92l13 71q14 78 66.5 120.5t127.5 42.5q24 0 42.5 -5.5t32.5 -14.5l-38 -78q-8 5 -20 8.5t-26 3.5q-35 0 -61 -20.5t-34 -65.5l-11 -62h220l13 71q14 78 66.5 120.5t127.5 42.5z" />
    <glyph glyph-name="r_t" unicode="rt" horiz-adv-x="734" 
d="M569 -8q-25 0 -47 8t-38 22.5t-25.5 35.5t-9.5 47q0 8 1 21t4 29l44 251h-86l15 84h86l27 150h92l-27 -150h120l-15 -84h-120l-42 -238q-1 -12 -3 -22q-1 -5 -1.5 -9.5t-0.5 -8.5q0 -22 12 -36t37 -14q17 0 25.5 2t19.5 7l15 -82q-20 -7 -39.5 -10t-43.5 -3zM153 410h4
q22 48 69.5 71t102.5 23q14 0 20 -0.5t13 -1.5l-17 -96q-12 4 -41 4q-31 0 -59.5 -10.5t-52 -30.5t-39.5 -48t-22 -62l-46 -259h-92l86 490h88z" />
    <glyph glyph-name="t_f" unicode="tf" horiz-adv-x="675" 
d="M168 168q-1 -12 -3 -22q-1 -5 -1.5 -9.5t-0.5 -8.5q0 -22 12 -36t37 -14q17 0 25.5 2t19.5 7l15 -82q-20 -7 -39.5 -10t-43.5 -3q-25 0 -47 8t-38 22.5t-25.5 35.5t-9.5 47q0 8 1 21t4 29l44 251h-86l15 84h86l27 150h92l-27 -150h220l13 71q14 78 66.5 120.5t127.5 42.5
q24 0 42.5 -5.5t32.5 -14.5l-38 -78q-8 5 -20 8.5t-26 3.5q-35 0 -61 -20.5t-34 -65.5l-11 -62h128l-15 -84h-128l-71 -406h-92l71 406h-220z" />
    <glyph glyph-name="t_t" unicode="tt" horiz-adv-x="674" 
d="M509 -8q-25 0 -47 8t-38 22.5t-25.5 35.5t-9.5 47q0 8 1 21t4 29l44 251h-228l-42 -238q-1 -12 -3 -22q-1 -5 -1.5 -9.5t-0.5 -8.5q0 -22 12 -36t37 -14q17 0 25.5 2t19.5 7l15 -82q-20 -7 -39.5 -10t-43.5 -3q-25 0 -47 8t-38 22.5t-25.5 35.5t-9.5 47q0 8 1 21t4 29
l44 251h-86l15 84h86l27 150h92l-27 -150h228l27 150h92l-27 -150h120l-15 -84h-120l-42 -238q-1 -12 -3 -22q-1 -5 -1.5 -9.5t-0.5 -8.5q0 -22 12 -36t37 -14q17 0 25.5 2t19.5 7l15 -82q-20 -7 -39.5 -10t-43.5 -3z" />
    <glyph glyph-name=".notdef" horiz-adv-x="570" 
d="M72 716h426v-716h-426v716zM136 60h298v596h-298v-596z" />
    <glyph glyph-name=".null" horiz-adv-x="0" 
 />
    <glyph glyph-name="uni000D" unicode="&#xd;" horiz-adv-x="0" 
 />
    <glyph glyph-name="NULL" horiz-adv-x="0" 
 />
    <glyph glyph-name="NULL" horiz-adv-x="0" 
 />
    <glyph glyph-name="space" unicode=" " horiz-adv-x="220" 
 />
    <glyph glyph-name="exclam" unicode="!" horiz-adv-x="232" 
d="M65 -6q-29 0 -48.5 19.5t-19.5 48.5t19.5 48.5t48.5 19.5t48.5 -19.5t19.5 -48.5t-19.5 -48.5t-48.5 -19.5zM93 490l40 226h92l-40 -226l-57 -268h-72z" />
    <glyph glyph-name="quotedbl" unicode="&#x22;" horiz-adv-x="320" 
d="M215 490l40 226h84l-40 -226h-84zM67 490l40 226h84l-40 -226h-84z" />
    <glyph glyph-name="numbersign" unicode="#" horiz-adv-x="632" 
d="M107 0l35 203h-123l15 76h121l24 135h-125l14 76h124l34 194h80l-34 -194h136l34 194h80l-34 -194h123l-14 -76h-122l-24 -135h126l-14 -76h-125l-35 -203h-80l35 203h-136l-35 -203h-80zM235 279h136l24 135h-136z" />
    <glyph glyph-name="dollar" unicode="$" horiz-adv-x="533" 
d="M170 -12q-31 6 -60.5 20t-53.5 36.5t-40.5 53.5t-21.5 71l87 33q4 -46 30.5 -80t74.5 -45l42 240q-32 14 -59.5 32t-48 41t-32.5 52.5t-12 65.5q0 37 15 70t43 58.5t68.5 42t92.5 20.5l15 85h76l-16 -88q61 -12 96.5 -50t49.5 -84l-88 -35q-8 27 -25 48t-48 30l-40 -227
q34 -17 62.5 -35.5t48 -40t30.5 -48.5t11 -62q0 -46 -17 -82t-46.5 -62.5t-70 -42t-87.5 -19.5l-15 -86h-76zM373 184q0 38 -20 60.5t-55 40.5l-37 -211q46 6 79 32.5t33 77.5zM170 506q0 -57 74 -96l35 200q-48 -5 -78.5 -29t-30.5 -75z" />
    <glyph glyph-name="percent" unicode="%" horiz-adv-x="814" 
d="M98 33l562 659l50 -42l-561 -658zM208 358q-33 0 -60 11t-46.5 31t-30.5 47t-11 60q0 40 15 75.5t42 61.5t63.5 41t78.5 15q33 0 60 -11t46.5 -31t30.5 -47t11 -60q0 -41 -15 -76t-42 -61t-63.5 -41t-78.5 -15zM217 425q51 0 83 34t32 86q0 42 -23.5 65t-58.5 23
q-51 0 -83 -34t-32 -86q0 -42 23.5 -65t58.5 -23zM551 -16q-33 0 -60 11t-46.5 31t-30.5 47t-11 60q0 40 15 75.5t42 61.5t63.5 41t78.5 15q33 0 60 -11t46.5 -31t30.5 -47t11 -60q0 -41 -15 -76t-42 -61t-63.5 -41t-78.5 -15zM560 51q51 0 83 34t32 86q0 42 -23.5 65
t-58.5 23q-51 0 -83 -34t-32 -86q0 -42 23.5 -65t58.5 -23z" />
    <glyph glyph-name="ampersand" unicode="&#x26;" horiz-adv-x="618" 
d="M469 121l55 -93l-81 -44l-38 65q-79 -65 -179 -65q-45 0 -85.5 15t-70.5 43.5t-47.5 69t-17.5 91.5q0 78 39 141.5t126 105.5q-14 25 -23.5 52t-9.5 58t12 62t35.5 55.5t58 39.5t79.5 15q69 0 108 -34.5t55 -92.5l-91 -36q-3 12 -8.5 25t-14.5 24.5t-23.5 18.5t-35.5 7
q-33 0 -57 -22.5t-24 -61.5q0 -20 6.5 -38t16.5 -35l174 -296l75 109l60 -44zM235 68q42 0 73 12.5t57 36.5l-155 265q-50 -24 -85 -67t-35 -107q0 -28 10.5 -53t29.5 -44.5t45.5 -31t59.5 -11.5z" />
    <glyph glyph-name="quotesingle" unicode="'" horiz-adv-x="172" 
d="M67 490l40 226h84l-40 -226h-84z" />
    <glyph glyph-name="parenleft" unicode="(" horiz-adv-x="330" 
d="M375 732q-53 -50 -95 -103.5t-71 -114.5t-45 -129.5t-16 -147.5q0 -102 26.5 -181.5t65.5 -143.5l-66 -48q-22 31 -43.5 71.5t-38 90t-27 106.5t-10.5 122q0 78 20 153t55.5 143t84.5 126.5t108 103.5z" />
    <glyph glyph-name="parenright" unicode=")" horiz-adv-x="330" 
d="M-43 -88q52 49 94.5 103t71.5 115t45 129.5t16 147.5q0 102 -26.5 181.5t-65.5 143.5l66 48q22 -31 43 -71.5t38 -90t27.5 -107t10.5 -121.5q0 -78 -20 -153t-55.5 -143t-84.5 -126.5t-108 -103.5z" />
    <glyph glyph-name="asterisk" unicode="*" horiz-adv-x="436" 
d="M111 635l104 -40l5 2l21 119h76l-21 -119l5 -2l105 37l24 -70l-117 -43l-3 -7l57 -99l-70 -45l-57 102h-6l-92 -102l-57 49l99 105l-1 7l-101 38z" />
    <glyph glyph-name="plus" unicode="+" horiz-adv-x="550" 
d="M304 309h181l-13 -76h-181l-32 -181h-76l32 181h-181l13 76h181l32 181h76z" />
    <glyph glyph-name="comma" unicode="," horiz-adv-x="232" 
d="M-22 -81l67 81q-5 2 -12 6.5t-13 12t-10.5 18.5t-4.5 25q0 29 20.5 48.5t46.5 19.5q29 0 49 -19.5t20 -48.5q0 -17 -12.5 -35t-29.5 -39l-84 -100z" />
    <glyph glyph-name="hyphen" unicode="-" horiz-adv-x="432" 
d="M53 348h320l-13 -76h-320z" />
    <glyph glyph-name="period" unicode="." horiz-adv-x="232" 
d="M64 -6q-29 0 -48.5 19.5t-19.5 48.5t19.5 48.5t48.5 19.5t48.5 -19.5t19.5 -48.5t-19.5 -48.5t-48.5 -19.5z" />
    <glyph glyph-name="slash" unicode="/" horiz-adv-x="437" 
d="M-38 0l423 716h88l-424 -716h-87z" />
    <glyph glyph-name="zero" unicode="0" horiz-adv-x="638" 
d="M267 -16q-53 0 -96 21t-73 59.5t-46 93.5t-16 124q0 85 25.5 161t70.5 133t106 90.5t132 33.5q111 0 171.5 -77.5t60.5 -218.5q0 -86 -25.5 -162.5t-70.5 -133.5t-106 -90.5t-133 -33.5zM275 72q45 0 86.5 25t74 68.5t52 103t19.5 127.5q0 100 -36.5 158t-111.5 58
q-43 0 -84 -26t-73 -70.5t-51.5 -103t-19.5 -124.5q0 -105 39 -160.5t105 -55.5z" />
    <glyph glyph-name="one" unicode="1" horiz-adv-x="384" 
d="M143 0l100 567l-134 -54l-30 77l218 94h59l-121 -684h-92z" />
    <glyph glyph-name="two" unicode="2" horiz-adv-x="520" 
d="M-20 0l16 92q32 28 62.5 54.5t59.5 51.5q12 11 24.5 21.5t25.5 21.5q37 32 70 61t53 47q22 20 42 38.5t34.5 37.5t23 40t8.5 46q0 46 -28.5 73.5t-82.5 27.5q-28 0 -49.5 -10t-37.5 -25t-27 -32t-17 -32l-82 37q10 26 28.5 53t46 48.5t65 35t85.5 13.5q42 0 77.5 -13
t62 -36.5t41 -55.5t14.5 -69q0 -38 -12 -70t-32.5 -60.5t-47 -54.5t-56.5 -52q-4 -4 -9.5 -8.5t-12.5 -10.5q-7 -7 -15 -13.5t-17 -14.5t-18.5 -16t-19.5 -16l-20 -18t-20 -17q-23 -20 -48.5 -42t-52.5 -45h316l-15 -88h-435z" />
    <glyph glyph-name="three" unicode="3" horiz-adv-x="531" 
d="M211 -16q-36 0 -71 10.5t-64 31.5t-49 53t-25 76l90 35q6 -57 41 -87.5t89 -30.5q30 0 57 8.5t47.5 25.5t32.5 41.5t12 56.5q0 54 -34.5 82.5t-86.5 28.5h-59l15 86h52q66 0 105 30t39 87q0 43 -31 68.5t-76 25.5q-26 0 -46.5 -8.5t-36.5 -21.5t-27 -29t-18 -32l-82 38
q12 27 31 52.5t46 45t63 31.5t81 12q41 0 76 -12.5t60.5 -35t40 -53t14.5 -66.5q0 -66 -33.5 -106.5t-85.5 -62.5v-4q35 -16 61.5 -54t26.5 -92q0 -53 -20.5 -95.5t-55.5 -72.5t-81.5 -46t-97.5 -16z" />
    <glyph glyph-name="four" unicode="4" horiz-adv-x="589" 
d="M301 0l26 144h-325l12 70l395 470h105l-80 -454h88l-15 -86h-88l-26 -144h-92zM398 549h-4l-262 -319h210z" />
    <glyph glyph-name="five" unicode="5" horiz-adv-x="555" 
d="M216 -16q-35 0 -70 11.5t-64.5 34.5t-49.5 57.5t-24 81.5l88 33q5 -57 36 -93.5t88 -36.5q36 0 67 11t54 31.5t36.5 49t13.5 64.5q0 57 -32.5 92.5t-89.5 35.5q-35 0 -68 -16t-57 -43l-86 40l105 347h359l-15 -88h-284l-60 -196l4 -1q26 19 58.5 30t67.5 11q43 0 78 -14
t60.5 -40t39.5 -63.5t14 -84.5q0 -51 -19.5 -97.5t-55 -81t-85 -55t-109.5 -20.5z" />
    <glyph glyph-name="six" unicode="6" horiz-adv-x="549" 
d="M304 434q39 0 73 -15.5t58.5 -42.5t39 -65t14.5 -83q0 -57 -21.5 -102.5t-57 -77t-82 -48t-97.5 -16.5q-45 0 -85 15.5t-69 43t-46 66t-17 85.5q0 33 7.5 62t22.5 56.5t37 56t51 61.5l237 270l65 -51l-201 -230l2 -2q15 8 31 12.5t38 4.5zM238 72q33 0 61.5 10.5t50 30
t33.5 47t12 61.5q0 58 -36 94.5t-96 36.5q-35 0 -63.5 -12t-49 -33t-31.5 -49.5t-11 -61.5q0 -27 10.5 -50t28.5 -39.5t41.5 -25.5t49.5 -9z" />
    <glyph glyph-name="seven" unicode="7" horiz-adv-x="523" 
d="M16 37l409 559h-342l17 88h441l-16 -94l-439 -606z" />
    <glyph glyph-name="eight" unicode="8" horiz-adv-x="544" 
d="M214 -16q-47 0 -85 14t-65 38.5t-41.5 57t-14.5 70.5q0 69 40.5 119.5t103.5 74.5l1 4q-26 21 -46 51t-20 78q0 42 18 80t50 66.5t75.5 45.5t94.5 17q84 0 134.5 -45.5t50.5 -123.5q0 -35 -11 -62.5t-28 -48t-38 -35t-40 -23.5l-1 -4q35 -18 60.5 -57t25.5 -87
q0 -53 -22 -95.5t-58.5 -72.5t-84.5 -46t-99 -16zM285 401q28 0 52.5 9t41.5 25t27 36t10 43q0 48 -28 73t-73 25q-29 0 -53 -8.5t-42 -23.5t-28 -36.5t-10 -47.5q0 -45 29 -70t74 -25zM222 72q28 0 57 9.5t52 27t37.5 43t14.5 57.5q0 24 -9.5 43.5t-26 33.5t-39 21.5
t-48.5 7.5q-30 0 -58.5 -10t-50 -28.5t-35 -45t-13.5 -58.5q0 -46 34 -73.5t85 -27.5z" />
    <glyph glyph-name="nine" unicode="9" horiz-adv-x="549" 
d="M248 250q-39 0 -73.5 15.5t-60 42.5t-40.5 65t-15 83q0 57 21.5 102.5t57 77t82 48t97.5 16.5q45 0 85 -15.5t69 -43t46 -66.5t17 -85q0 -33 -7.5 -62t-22.5 -56.5t-37 -56t-51 -61.5l-237 -270l-65 51l201 230l-2 2q-31 -17 -65 -17zM310 612q-33 0 -61.5 -10.5t-50 -30
t-33.5 -47t-12 -61.5q0 -58 36 -94.5t96 -36.5q35 0 63.5 12t49 33t31.5 49.5t11 61.5q0 27 -10.5 49.5t-28.5 39t-41.5 26t-49.5 9.5z" />
    <glyph glyph-name="colon" unicode=":" horiz-adv-x="232" 
d="M64 -6q-29 0 -48.5 19.5t-19.5 48.5t19.5 48.5t48.5 19.5t48.5 -19.5t19.5 -48.5t-19.5 -48.5t-48.5 -19.5zM129 360q-29 0 -48.5 19.5t-19.5 48.5t19.5 48.5t48.5 19.5t48.5 -19.5t19.5 -48.5t-19.5 -48.5t-48.5 -19.5z" />
    <glyph glyph-name="semicolon" unicode=";" horiz-adv-x="232" 
d="M129 360q-29 0 -48.5 19.5t-19.5 48.5t19.5 48.5t48.5 19.5t48.5 -19.5t19.5 -48.5t-19.5 -48.5t-48.5 -19.5zM-22 -62l67 81q-5 2 -12 6.5t-13 12t-10.5 18.5t-4.5 25q0 29 20.5 48.5t46.5 19.5q29 0 49 -19.5t20 -48.5q0 -17 -12.5 -35t-29.5 -39l-84 -100z" />
    <glyph glyph-name="less" unicode="&#x3c;" horiz-adv-x="506" 
d="M35 237l11 68l423 185l-15 -88l-316 -132l-1 -4l269 -135l-14 -79z" />
    <glyph glyph-name="equal" unicode="=" horiz-adv-x="562" 
d="M72 452h450l-13 -76h-450zM39 262h450l-14 -76h-450z" />
    <glyph glyph-name="greater" unicode="&#x3e;" horiz-adv-x="506" 
d="M440 305l-11 -68l-423 -185l15 88l316 132l1 4l-269 135l14 79z" />
    <glyph glyph-name="question" unicode="?" horiz-adv-x="493" 
d="M167 222l8 47q4 22 11 41t19.5 37t32.5 36t50 40q17 13 34.5 27.5t31 30.5t22 34.5t8.5 39.5q0 39 -27 64t-75 25q-26 0 -47 -8t-37 -21.5t-27 -30.5t-17 -36l-80 36q10 30 29 57t46.5 47t64 32t81.5 12q40 0 74 -13t58.5 -35t38 -52t13.5 -64q0 -33 -11 -60.5t-29 -51
t-42 -44t-49 -40.5q-34 -26 -54.5 -52t-25.5 -58l-7 -40h-94zM185 -6q-29 0 -48.5 19.5t-19.5 48.5t19.5 48.5t48.5 19.5t48.5 -19.5t19.5 -48.5t-19.5 -48.5t-48.5 -19.5z" />
    <glyph glyph-name="at" unicode="@" horiz-adv-x="868" 
d="M482 690q70 0 132.5 -23.5t110 -66.5t75.5 -103.5t28 -134.5q0 -51 -12.5 -98.5t-36 -85t-57.5 -60t-77 -22.5q-39 0 -66.5 19.5t-38.5 53.5q-26 -35 -65 -54t-82 -19q-33 0 -64 13t-55 36t-38.5 56t-14.5 74q0 40 14.5 81t43 74t70 53.5t96.5 20.5q45 0 76.5 -18
t46.5 -41h4l8 45h72l-46 -261q-1 -5 -1.5 -10.5t-0.5 -10.5q0 -16 11 -31.5t38 -15.5q23 0 42 18t32.5 46.5t20.5 64t7 70.5q0 59 -21 106.5t-58.5 81.5t-91 52t-117.5 18q-77 0 -142 -26.5t-112 -73t-73.5 -110.5t-26.5 -138q0 -62 22 -113t59.5 -88.5t87 -58t105.5 -20.5
q77 0 136 28l23 -67q-39 -17 -80 -25t-86 -8q-75 0 -138 27.5t-109 75t-71.5 111t-25.5 134.5q0 89 33.5 166.5t92.5 134.5t141 90t179 33zM413 172q28 0 53 11t43.5 30.5t29 45.5t10.5 57q0 51 -29 81.5t-80 30.5q-32 0 -57 -12t-43 -32.5t-27.5 -47.5t-9.5 -58
q0 -54 32.5 -80t77.5 -26z" />
    <glyph glyph-name="A" unicode="A" horiz-adv-x="668" 
d="M345 716h104l143 -716h-99l-34 194h-301l-105 -194h-104zM442 280l-60 323h-4l-174 -323h238z" />
    <glyph glyph-name="B" unicode="B" horiz-adv-x="594" 
d="M135 716h245q45 0 80 -14t59.5 -38t37 -56t12.5 -67t-10.5 -62t-28 -48t-40.5 -35.5t-47 -23.5l-1 -4q43 -23 69 -58.5t26 -90.5q0 -47 -20 -87t-54.5 -69t-81 -46t-100.5 -17h-273zM339 409q58 0 97.5 30t39.5 88q0 42 -26.5 71.5t-77.5 29.5h-161l-39 -219h167zM301 88
q24 0 49.5 8t45.5 23.5t33 40t13 57.5q0 48 -30.5 77t-84.5 29h-170l-41 -235h185z" />
    <glyph glyph-name="C" unicode="C" horiz-adv-x="729" 
d="M652 111q-34 -32 -68 -56t-70.5 -40t-77.5 -23.5t-89 -7.5q-69 0 -127 23t-100 65t-65.5 101t-23.5 132q0 83 32.5 160t90.5 136.5t137.5 95t173.5 35.5q41 0 78.5 -9.5t69 -25.5t56.5 -38t41 -47l-74 -61q-33 48 -75.5 70.5t-105.5 22.5q-69 0 -129.5 -28t-105 -74.5
t-70 -107t-25.5 -124.5q0 -54 17.5 -98t49 -75t74 -48t92.5 -17q75 0 130 28.5t105 77.5z" />
    <glyph glyph-name="D" unicode="D" horiz-adv-x="691" 
d="M135 716h219q75 0 132.5 -24t96 -65.5t58.5 -98t20 -121.5q0 -80 -28.5 -153.5t-82.5 -130t-133 -90t-179 -33.5h-230zM243 88q69 0 128 24t102.5 66.5t68 99.5t24.5 123q0 112 -59.5 169.5t-168.5 57.5h-127l-95 -540h127z" />
    <glyph glyph-name="E" unicode="E" 
d="M211 628l-40 -227h294l-15 -86h-294l-40 -227h326l-16 -88h-418l127 716h418l-16 -88h-326z" />
    <glyph glyph-name="F" unicode="F" horiz-adv-x="522" 
d="M135 716h418l-16 -88h-326l-41 -235h294l-15 -86h-294l-55 -307h-92z" />
    <glyph glyph-name="G" unicode="G" horiz-adv-x="801" 
d="M413 383h347q0 -13 -1.5 -25.5t-3.5 -28.5q-12 -75 -40.5 -130t-70.5 -100q-109 -115 -292 -115q-62 0 -120 22.5t-102.5 65t-71.5 103.5t-27 138q0 84 31.5 160t89 133.5t138 91.5t179.5 34q39 0 76 -8t69 -22t58 -34.5t43 -45.5l-75 -63q-25 40 -75.5 62.5t-110.5 22.5
q-69 0 -129 -25t-104.5 -69t-69.5 -104t-25 -130q0 -59 19.5 -104.5t52.5 -76.5t76 -47t90 -16q66 0 119.5 22.5t93.5 64.5q52 54 75 138h-254z" />
    <glyph glyph-name="H" unicode="H" horiz-adv-x="686" 
d="M135 716h92l-55 -307h358l55 307h92l-127 -716h-92l57 323h-358l-57 -323h-92z" />
    <glyph glyph-name="I" unicode="I" horiz-adv-x="236" 
d="M135 716h92l-127 -716h-92z" />
    <glyph glyph-name="J" unicode="J" horiz-adv-x="524" 
d="M185 -16q-39 0 -73 11.5t-60 33.5t-42.5 52.5t-20.5 68.5l90 35q3 -32 13.5 -53.5t26.5 -34.5t36 -19t42 -6q28 0 53.5 11t45.5 30.5t33.5 45.5t18.5 55l88 502h92l-87 -494q-11 -62 -34.5 -106.5t-57.5 -74t-75.5 -43.5t-88.5 -14z" />
    <glyph glyph-name="K" unicode="K" horiz-adv-x="622" 
d="M664 712l-320 -307l213 -401l-1 -4h-109l-176 334l-134 -127l-37 -207h-92l127 716h92l-64 -366h4l376 366h122z" />
    <glyph glyph-name="L" unicode="L" horiz-adv-x="498" 
d="M135 716h92l-111 -628h310l-16 -88h-402z" />
    <glyph glyph-name="M" unicode="M" horiz-adv-x="830" 
d="M135 716h88l172 -436h4l323 436h99l-127 -716h-92l75 425l25 120h-4l-293 -393h-54l-155 393h-4l-17 -120l-75 -425h-92z" />
    <glyph glyph-name="N" unicode="N" horiz-adv-x="696" 
d="M135 716h105l256 -557h4l21 138l74 419h92l-127 -716h-88l-269 584h-4l-20 -138l-79 -446h-92z" />
    <glyph glyph-name="O" unicode="O" horiz-adv-x="810" 
d="M358 -16q-69 0 -128.5 23.5t-104 66.5t-69.5 102.5t-25 131.5q0 82 30.5 158.5t86 135.5t133.5 94.5t173 35.5q68 0 127.5 -23.5t103.5 -66.5t69 -102.5t25 -131.5q0 -82 -30.5 -158.5t-86 -135.5t-133 -94.5t-171.5 -35.5zM367 72q67 0 124.5 28t100.5 74t67.5 105.5
t24.5 121.5q0 57 -19 102t-51.5 76.5t-76.5 48t-94 16.5q-67 0 -125 -28t-100.5 -74t-67 -105t-24.5 -122q0 -57 19 -102t51.5 -76.5t76.5 -48t94 -16.5z" />
    <glyph glyph-name="P" unicode="P" horiz-adv-x="564" 
d="M8 0l127 716h238q42 0 78 -13.5t62 -38t40.5 -59t14.5 -75.5q0 -57 -20 -101.5t-55 -75.5t-83.5 -47t-105.5 -16h-152l-52 -290h-92zM321 378q31 0 58.5 8t48.5 25t33 43.5t12 63.5q0 51 -31 80.5t-77 29.5h-154l-44 -250h154z" />
    <glyph glyph-name="Q" unicode="Q" horiz-adv-x="810" 
d="M358 -16q-69 0 -128.5 23.5t-104 66.5t-69.5 102.5t-25 131.5q0 82 30.5 158.5t86 135.5t133.5 94.5t173 35.5q68 0 127.5 -23.5t103.5 -66.5t69 -102.5t25 -131.5q0 -51 -12 -100t-34.5 -93t-55 -82.5t-72.5 -68.5l34 -70l-82 -42l-33 66q-38 -16 -79 -25t-87 -9z
M367 72q32 0 60.5 6.5t56.5 18.5l-63 129l83 44l60 -122q55 48 87.5 114.5t32.5 138.5q0 57 -19 102t-51.5 76.5t-76.5 48t-94 16.5q-67 0 -125 -28t-100.5 -74t-67 -105t-24.5 -122q0 -57 19 -102t51.5 -76.5t76.5 -48t94 -16.5z" />
    <glyph glyph-name="R" unicode="R" horiz-adv-x="578" 
d="M135 716h237q42 0 78 -13.5t62.5 -38.5t41 -60.5t14.5 -79.5t-15 -81.5t-42 -67t-65.5 -50t-85.5 -29.5l-3 -3l148 -289l-1 -4h-104l-144 290h-104l-52 -290h-92zM315 376q32 0 61 9.5t50.5 28t34 46t12.5 63.5q0 43 -29.5 74t-86.5 31h-146l-44 -252h148z" />
    <glyph glyph-name="S" unicode="S" horiz-adv-x="553" 
d="M224 -16q-43 0 -81 12.5t-68 37.5t-50.5 61t-27.5 83l89 36q3 -30 14 -55.5t29.5 -45t45 -30.5t60.5 -11q29 0 57.5 9.5t50.5 27t35.5 42t13.5 55.5q0 45 -30 72.5t-97 53.5l-43 16q-27 10 -52.5 25t-45.5 36.5t-32.5 50t-12.5 66.5q0 45 19.5 83t52.5 65t77 42.5
t93 15.5q53 0 91 -15t63 -37.5t38 -48.5t16 -47l-89 -33q-2 14 -9 30.5t-21.5 30.5t-38 23t-57.5 9q-29 0 -54 -7.5t-44 -21.5t-30 -34.5t-11 -46.5q0 -42 28.5 -67t80.5 -44l43 -16q33 -12 62.5 -29t51 -40.5t34.5 -52.5t13 -65q0 -56 -20.5 -99.5t-56 -74t-84 -46.5
t-103.5 -16z" />
    <glyph glyph-name="T" unicode="T" horiz-adv-x="540" 
d="M160 0l111 628h-200l16 88h492l-16 -88h-200l-111 -628h-92z" />
    <glyph glyph-name="U" unicode="U" horiz-adv-x="642" 
d="M258 -16q-44 0 -84 15t-70.5 42.5t-48.5 67.5t-18 90q0 15 1 36.5t8 61.5l74 419h92l-78 -442q-4 -22 -5 -35.5t-1 -24.5q0 -63 35 -102.5t110 -39.5q43 0 77.5 14.5t61 40t43 60t23.5 75.5l80 454h92l-82 -465q-23 -128 -101 -197.5t-209 -69.5z" />
    <glyph glyph-name="V" unicode="V" horiz-adv-x="632" 
d="M75 716h100l93 -581h4l307 581h104l-387 -716h-96z" />
    <glyph glyph-name="W" unicode="W" horiz-adv-x="922" 
d="M652 0h-94l-71 472h-4l-238 -472h-94l-72 716h94l52 -563h4l235 467h88l72 -467h4l245 563h96z" />
    <glyph glyph-name="X" unicode="X" horiz-adv-x="632" 
d="M260 375l-167 341h108l126 -272h4l221 272h113l-288 -348l182 -368h-109l-142 293h-4l-243 -293h-108z" />
    <glyph glyph-name="Y" unicode="Y" horiz-adv-x="594" 
d="M189 0l59 333l-173 383h105l125 -291h4l225 291h111l-305 -383l-59 -333h-92z" />
    <glyph glyph-name="Z" unicode="Z" horiz-adv-x="564" 
d="M-14 96l472 532h-363l16 88h472l-17 -96l-473 -532h383l-16 -88h-491z" />
    <glyph glyph-name="bracketleft" unicode="[" horiz-adv-x="308" 
d="M152 792h204l-13 -76h-121l-134 -764h120l-13 -76h-203z" />
    <glyph glyph-name="backslash" unicode="\" horiz-adv-x="437" 
d="M261 0l-170 716h84l170 -716h-84z" />
    <glyph glyph-name="bracketright" unicode="]" horiz-adv-x="308" 
d="M155 -124h-203l13 76h119l134 764h-119l13 76h204z" />
    <glyph glyph-name="asciicircum" unicode="^" horiz-adv-x="470" 
d="M375 410l-88 218h-4l-161 -218h-101l241 306h72l133 -306h-92z" />
    <glyph glyph-name="underscore" unicode="_" horiz-adv-x="480" 
d="M-68 -140h479l-14 -76h-479z" />
    <glyph glyph-name="grave" unicode="`" horiz-adv-x="400" 
d="M209 588l-49 128h98l29 -128h-78z" />
    <glyph glyph-name="a" unicode="a" horiz-adv-x="510" 
d="M287 506q96 0 144 -44t48 -119q0 -12 -1.5 -25.5t-3.5 -27.5l-52 -290h-88l12 68h-4q-24 -35 -66 -59.5t-94 -24.5q-36 0 -67 10.5t-53.5 30.5t-35.5 47.5t-13 62.5q0 42 18.5 76t50.5 57.5t75.5 36.5t94.5 13q42 0 73 -8.5t60 -21.5l4 21q2 10 2 20q0 43 -31 69t-82 26
q-39 0 -69.5 -15t-59.5 -50l-72 51q35 48 89.5 72t120.5 24zM201 66q31 0 59.5 11t51 30.5t38.5 46t21 56.5q-14 10 -30 17q-16 6 -39.5 11.5t-56.5 5.5q-25 0 -49.5 -6t-43.5 -19t-31 -32t-12 -44q0 -19 8 -33.5t20.5 -24t29 -14.5t34.5 -5z" />
    <glyph glyph-name="b" unicode="b" horiz-adv-x="576" 
d="M248 -16q-51 0 -91 24t-61 60h-4l-12 -68h-87l126 716h92l-40 -226l-16 -68h4q25 34 66 59t104 25q43 0 80 -16t64.5 -45.5t43 -72t15.5 -95.5q0 -57 -21.5 -109.5t-59.5 -93.5t-90 -65.5t-113 -24.5zM255 68q38 0 71.5 15.5t58 43t39 64.5t14.5 80q0 72 -34.5 111.5
t-100.5 39.5q-39 0 -73 -17.5t-58.5 -46.5t-38.5 -66.5t-14 -77.5q0 -72 39 -109t97 -37z" />
    <glyph glyph-name="c" unicode="c" horiz-adv-x="522" 
d="M218 -16q-48 0 -87.5 17.5t-67 48t-43 72t-15.5 88.5q0 64 23 118.5t62.5 94t93 61.5t114.5 22q45 0 79 -12.5t58.5 -32.5t39.5 -45.5t22 -50.5l-86 -33q-12 42 -42.5 66t-81.5 24q-40 0 -74.5 -15.5t-59.5 -43t-39.5 -65t-14.5 -81.5q0 -30 9 -57.5t26 -47.5t43 -32
t59 -12q48 0 85 25t63 68l74 -35q-23 -36 -47 -63t-52 -44.5t-62 -26t-79 -8.5z" />
    <glyph glyph-name="d" unicode="d" horiz-adv-x="576" 
d="M208 -16q-43 0 -80 16t-64.5 45.5t-43 72t-15.5 95.5q0 57 21.5 109.5t59.5 93.5t90 65.5t113 24.5q51 0 91 -24t61 -60h4l8 68l40 226h92l-126 -716h-88l12 68h-4q-25 -34 -66.5 -59t-104.5 -25zM282 422q-38 0 -71.5 -15.5t-58.5 -43t-39 -64.5t-14 -80
q0 -72 34.5 -111.5t100.5 -39.5q39 0 73 17.5t58.5 46.5t38.5 66.5t14 77.5q0 72 -39 109t-97 37z" />
    <glyph glyph-name="e" unicode="e" horiz-adv-x="536" 
d="M459 116q-39 -66 -100 -99t-131 -33q-54 0 -95.5 18t-70 48.5t-43 71t-14.5 86.5q0 57 19.5 110.5t56.5 95.5t89.5 67t117.5 25q51 0 90 -16t65 -44t39 -65t13 -80q0 -18 -2 -38t-7 -35h-386q-1 -5 -1 -9v-7v-13q0 -33 11.5 -58t30.5 -41t43 -24t49 -8q51 0 90 24t65 64z
M402 304v11q0 21 -7.5 40.5t-23 34t-38.5 23.5t-54 9q-60 0 -102.5 -32t-59.5 -86h285z" />
    <glyph glyph-name="f" unicode="f" horiz-adv-x="368" 
d="M345 724q24 0 42.5 -5.5t32.5 -14.5l-38 -78q-8 5 -20 8.5t-26 3.5q-35 0 -61 -20.5t-34 -65.5l-11 -62h128l-15 -84h-128l-71 -406h-92l71 406h-92l15 84h92l13 71q14 78 66.5 120.5t127.5 42.5z" />
    <glyph glyph-name="g" unicode="g" horiz-adv-x="576" 
d="M195 -232q-46 0 -81.5 14t-60.5 35.5t-39.5 47t-19.5 48.5l89 34q7 -42 38 -68.5t83 -26.5q78 0 126.5 45.5t62.5 123.5l8 47h-4q-23 -37 -67 -60.5t-104 -23.5q-42 0 -78.5 15.5t-64 45t-43.5 72.5t-16 99q0 51 19.5 103t56 93.5t88.5 67.5t118 26q57 0 96.5 -25.5
t57.5 -58.5h4l12 68h88l-87 -490q-11 -62 -38 -106t-64.5 -72t-84 -41t-95.5 -13zM250 68q39 0 73 17t59 46.5t39.5 68t14.5 82.5q0 34 -10.5 60t-28 44t-41.5 27t-51 9q-45 0 -80 -18t-59 -47.5t-36.5 -66.5t-12.5 -75q0 -72 38 -109.5t95 -37.5z" />
    <glyph glyph-name="h" unicode="h" 
d="M171 490l-16 -68h4q27 36 71.5 60t98.5 24q41 0 71 -11.5t49 -31.5t28 -46.5t9 -56.5q0 -12 -1.5 -26.5t-5.5 -37.5l-53 -296h-92l52 294q2 10 3 19.5t1 17.5q0 45 -26.5 68t-71.5 23q-31 0 -58 -13t-48.5 -34.5t-35.5 -49.5t-19 -58l-46 -267h-92l126 716h92z" />
    <glyph glyph-name="i" unicode="i" horiz-adv-x="220" 
d="M0 0l86 490h92l-86 -490h-92zM215 634q0 -24 -18 -42t-44 -18q-24 0 -42 18t-18 42q0 26 18 44t42 18q26 0 44 -18t18 -44z" />
    <glyph glyph-name="j" unicode="j" horiz-adv-x="220" 
d="M-88 -226q-34 0 -55 10l35 80q12 -6 30 -6q52 0 64 65l100 567h92l-100 -568q-14 -81 -58.5 -114.5t-107.5 -33.5zM215 634q0 -24 -18 -42t-44 -18q-24 0 -42 18t-18 42q0 26 18 44t42 18q26 0 44 -18t18 -44z" />
    <glyph glyph-name="k" unicode="k" horiz-adv-x="483" 
d="M135 282l240 208h126l-1 -4l-225 -190l149 -292l-1 -4h-108l-114 233l-88 -75l-28 -158h-92l126 716h92z" />
    <glyph glyph-name="l" unicode="l" horiz-adv-x="204" 
d="M-7 0l126 716h92l-126 -716h-92z" />
    <glyph glyph-name="m" unicode="m" horiz-adv-x="852" 
d="M79 490h88l-12 -68h4q26 39 67 61.5t96 22.5t91.5 -24.5t50.5 -69.5q27 43 73.5 68.5t107.5 25.5q76 0 113.5 -40t37.5 -101q0 -17 -2 -35t-7 -43l-50 -287h-92l51 292q2 14 3.5 25.5t1.5 22.5q0 39 -21.5 60.5t-69.5 21.5q-29 0 -54.5 -13t-45.5 -34t-33 -48.5
t-18 -55.5l-48 -271h-92l51 292q2 14 3.5 25.5t1.5 22.5q0 39 -23 60.5t-68 21.5q-30 0 -55.5 -13t-45 -34.5t-32.5 -48.5t-18 -55l-48 -271h-92z" />
    <glyph glyph-name="n" unicode="n" 
d="M155 422h4q25 36 68 60t98 24q72 0 115.5 -41t43.5 -110q0 -15 -1.5 -34t-5.5 -39l-50 -282h-92l52 294q2 10 3 20t1 20q0 45 -27.5 66.5t-73.5 21.5q-30 0 -56.5 -12t-47 -32.5t-34.5 -48t-19 -58.5l-48 -271h-92l86 490h88z" />
    <glyph glyph-name="o" unicode="o" horiz-adv-x="560" 
d="M298 506q51 0 93.5 -18.5t72.5 -50.5t46.5 -74.5t16.5 -90.5q0 -61 -22 -113.5t-61 -91.5t-93 -61t-117 -22q-51 0 -93.5 18.5t-72.5 50.5t-46.5 74.5t-16.5 90.5q0 61 22 113.5t61 91.5t93 61t117 22zM243 68q44 0 79.5 16.5t60 44t37.5 63t13 74.5q0 34 -11.5 62.5
t-31 49.5t-46 32.5t-55.5 11.5q-44 0 -79.5 -16.5t-60 -44t-37.5 -63t-13 -74.5q0 -34 11.5 -62.5t31 -49.5t46 -32.5t55.5 -11.5z" />
    <glyph glyph-name="p" unicode="p" horiz-adv-x="572" 
d="M336 506q43 0 80 -16t64.5 -45.5t43 -72t15.5 -95.5q0 -57 -21.5 -109.5t-59.5 -93.5t-90 -65.5t-113 -24.5q-51 0 -91 24t-61 60h-4l-8 -68l-39 -216h-92l125 706h88l-12 -68h4q25 34 66.5 59t104.5 25zM262 68q38 0 71.5 15.5t58 43t39 64.5t14.5 80q0 72 -34.5 111.5
t-100.5 39.5q-39 0 -73 -17.5t-58.5 -46.5t-38.5 -66.5t-14 -77.5q0 -72 39 -109t97 -37z" />
    <glyph glyph-name="q" unicode="q" horiz-adv-x="572" 
d="M329 -216l38 216l16 68h-4q-25 -34 -66.5 -59t-104.5 -25q-43 0 -80 16t-64.5 45.5t-43 72t-15.5 95.5q0 57 21.5 109.5t59.5 93.5t90 65.5t113 24.5q51 0 91 -24t61 -60h4l12 68h87l-123 -706h-92zM282 422q-38 0 -71.5 -15.5t-58.5 -43t-39 -64.5t-14 -80
q0 -72 34.5 -111.5t100.5 -39.5q39 0 73 17.5t58.5 46.5t38.5 66.5t14 77.5q0 72 -39 109t-97 37z" />
    <glyph glyph-name="r" unicode="r" horiz-adv-x="363" 
d="M-7 0l86 490h88l-14 -80h4q23 42 66 68t94 26q23 0 35.5 -3t25.5 -9l-39 -89q-13 4 -24.5 5.5t-28.5 1.5q-27 0 -52.5 -11t-46.5 -30.5t-35.5 -47t-20.5 -60.5l-46 -261h-92z" />
    <glyph glyph-name="s" unicode="s" horiz-adv-x="455" 
d="M186 -16q-42 0 -75.5 11t-58 29.5t-40.5 44t-24 55.5l88 35q10 -46 43 -69.5t76 -23.5q48 0 76 20t28 49q0 28 -18 45t-60 28l-56 15q-53 14 -87.5 44.5t-34.5 86.5q0 33 16 61t43 48t63 31.5t77 11.5q70 0 119 -32.5t66 -83.5l-88 -34q-11 28 -36 48t-67 20
q-43 0 -70 -16.5t-27 -46.5q0 -19 15 -35t52 -26l63 -17q60 -17 93 -51.5t33 -85.5q0 -37 -15 -67t-43 -51t-66.5 -32.5t-84.5 -11.5z" />
    <glyph glyph-name="t" unicode="t" horiz-adv-x="354" 
d="M189 -8q-25 0 -47 8t-38 22.5t-25.5 35.5t-9.5 47q0 8 1 21t4 29l44 251h-86l15 84h86l27 150h92l-27 -150h120l-15 -84h-120l-42 -238q-1 -12 -3 -22q-1 -5 -1.5 -9.5t-0.5 -8.5q0 -22 12 -36t37 -14q17 0 25.5 2t19.5 7l15 -82q-20 -7 -39.5 -10t-43.5 -3z" />
    <glyph glyph-name="u" unicode="u" 
d="M348 68h-4q-25 -36 -68 -60t-98 -24q-72 0 -115.5 41t-43.5 110q0 15 1.5 34t5.5 39l50 282h92l-52 -294q-2 -10 -3 -20t-1 -20q0 -45 27.5 -66.5t73.5 -21.5q30 0 56.5 12t47 32.5t34.5 48t19 58.5l48 271h92l-86 -490h-88z" />
    <glyph glyph-name="v" unicode="v" horiz-adv-x="498" 
d="M27 490h98l77 -380h2l213 380h100l-287 -490h-92z" />
    <glyph glyph-name="w" unicode="w" horiz-adv-x="754" 
d="M434 0l-55 376l-188 -376h-93l-71 490h94l43 -370h1l187 370h95l55 -370h1l174 370h96l-245 -490h-94z" />
    <glyph glyph-name="x" unicode="x" horiz-adv-x="472" 
d="M294 0l-90 182h-1l-149 -182h-111l216 252l-124 238h104l86 -172h1l143 172h112l-213 -243l130 -247h-104z" />
    <glyph glyph-name="y" unicode="y" horiz-adv-x="498" 
d="M5 -216l158 247l-121 459h97l86 -353h2l205 353h102l-432 -706h-97z" />
    <glyph glyph-name="z" unicode="z" horiz-adv-x="460" 
d="M-18 80l334 326h-268l15 84h384l-14 -80l-334 -326h280l-15 -84h-395z" />
    <glyph glyph-name="braceleft" unicode="{" horiz-adv-x="318" 
d="M183 -124q-30 0 -56 9t-44.5 25.5t-29 39.5t-10.5 52q0 21 3 39l30 171q1 5 1.5 10.5t0.5 10.5q0 32 -16.5 47.5t-44.5 15.5l13 76q30 0 55.5 19.5t33.5 64.5l30 171q14 81 59 123t132 42h26l-13 -76h-22q-38 0 -64 -23.5t-34 -68.5l-31 -171q-9 -51 -30.5 -77.5
t-58.5 -39.5l-1 -4q26 -10 39.5 -29t13.5 -51q0 -20 -4 -37l-31 -171q-3 -18 -3 -26q0 -33 20.5 -49.5t48.5 -16.5h22l-13 -76h-22z" />
    <glyph glyph-name="bar" unicode="|" horiz-adv-x="228" 
d="M152 792h84l-161 -912h-83z" />
    <glyph glyph-name="braceright" unicode="}" horiz-adv-x="318" 
d="M134 792q30 0 56 -9t44.5 -25.5t29 -40t10.5 -51.5q0 -21 -3 -39l-30 -171q-1 -5 -1.5 -10.5t-0.5 -10.5q0 -32 16.5 -47.5t44.5 -15.5l-13 -76q-30 0 -55.5 -19.5t-33.5 -64.5l-30 -171q-14 -81 -59 -123t-132 -42h-26l13 76h22q38 0 64 23.5t34 68.5l31 171
q9 51 30.5 77.5t58.5 39.5l1 4q-26 10 -39.5 29t-13.5 51q0 20 4 37l31 171q3 18 3 26q0 33 -20.5 49.5t-48.5 16.5h-22l13 76h22z" />
    <glyph glyph-name="asciitilde" unicode="~" horiz-adv-x="530" 
d="M356 234q-29 0 -57 10t-55 23q-27 12 -52.5 22t-49.5 10q-26 0 -41 -16.5t-20 -34.5h-72q7 63 41.5 98.5t98.5 35.5q28 0 56 -10t55 -22q27 -13 53 -23t50 -10q26 0 41 16.5t20 34.5h72q-7 -63 -41.5 -98.5t-98.5 -35.5z" />
    <glyph glyph-name="uni00A0" unicode="&#xa0;" horiz-adv-x="220" 
 />
    <glyph glyph-name="exclamdown" unicode="&#xa1;" horiz-adv-x="232" 
d="M139 506q29 0 48.5 -19.5t19.5 -48.5t-19.5 -48.5t-48.5 -19.5t-48.5 19.5t-19.5 48.5t19.5 48.5t48.5 19.5zM111 10l-40 -226h-92l40 226l57 268h72z" />
    <glyph glyph-name="cent" unicode="&#xa2;" horiz-adv-x="522" 
d="M194 86q-38 7 -69.5 27t-54 49.5t-35 67.5t-12.5 81q0 59 19.5 109.5t54.5 88.5t83 61.5t105 28.5l15 85h76l-16 -87q33 -6 58.5 -20t44 -32.5t30.5 -40t18 -43.5l-87 -34q-19 67 -78 86l-61 -345q38 9 64 32.5t47 57.5l76 -35q-40 -65 -86 -98.5t-116 -40.5l-15 -84h-76
zM116 318q0 -54 24 -94t69 -55l61 347q-35 -6 -63 -23.5t-48.5 -43.5t-31.5 -59.5t-11 -71.5z" />
    <glyph glyph-name="sterling" unicode="&#xa3;" horiz-adv-x="519" 
d="M383 523q-5 17 -12.5 33t-20 28.5t-30.5 20t-44 7.5q-27 0 -50.5 -10t-40.5 -28t-26.5 -42t-9.5 -52q0 -41 16 -79q15 -39 27 -78h138l-13 -77h-115q-2 -46 -25.5 -85t-60.5 -69l4 -4h176q37 0 58.5 15.5t36.5 41.5l70 -32q-27 -55 -69 -84t-112 -29h-309l14 80
q25 11 47.5 28t39.5 38t27.5 45.5t10.5 50.5v4h-96l13 77h66q-6 18 -12 36.5t-13 38.5q-13 36 -13 83q0 43 16 83t46.5 70t74 48t98.5 18q42 0 73 -12t53 -31.5t35.5 -45t21.5 -53.5z" />
    <glyph glyph-name="currency" unicode="&#xa4;" horiz-adv-x="598" 
d="M299 106q-73 0 -127 42l-59 -57l-53 54l60 58q-17 26 -27 57t-10 65t10 65t27 57l-60 59l53 54l59 -57q53 41 127 41t127 -41l59 57l53 -54l-59 -58q17 -26 26.5 -57t9.5 -66q0 -34 -9.5 -65t-26.5 -57l59 -58l-53 -54l-59 57q-54 -42 -127 -42zM299 186q27 0 51 11
t42 29.5t28.5 44t10.5 54.5t-10.5 54.5t-28.5 44t-42 29.5t-51 11t-51 -11t-42 -29.5t-28.5 -44t-10.5 -54.5t10.5 -54.5t28.5 -44t42 -29.5t51 -11z" />
    <glyph glyph-name="yen" unicode="&#xa5;" horiz-adv-x="572" 
d="M328 326l-15 -84h167l-14 -76h-167l-29 -166h-92l29 166h-171l14 76h171l15 84h-171l13 76h122l-131 282h101l121 -282h4l216 282h106l-228 -282h119l-13 -76h-167z" />
    <glyph glyph-name="brokenbar" unicode="&#xa6;" horiz-adv-x="228" 
d="M82 376l67 380h84l-67 -380h-84zM-5 -120l72 412h84l-73 -412h-83z" />
    <glyph glyph-name="section" unicode="&#xa7;" horiz-adv-x="535" 
d="M192 -232q-39 0 -76 12.5t-66.5 37t-49 60.5t-23.5 83l87 35q3 -28 13 -53t27 -44.5t41.5 -31t56.5 -11.5q28 0 52.5 7t43 21.5t29.5 35.5t11 48q0 49 -32 76t-98 47l-3 1q-71 23 -116 66t-45 105q0 26 9.5 50t25.5 44.5t37.5 37t44.5 27.5q-27 23 -43.5 55t-16.5 70
t15.5 71.5t44 59t69.5 40t92 14.5q45 0 79 -12.5t58 -32.5t39 -46.5t21 -53.5l-91 -35q-2 14 -9 30.5t-21 30t-35 22.5t-50 9q-21 0 -42 -5.5t-37.5 -16.5t-26.5 -27t-10 -37q0 -38 30.5 -62.5t91.5 -47.5l3 -1q36 -14 66.5 -31.5t52 -40t34 -50.5t12.5 -63q0 -57 -27.5 -97
t-72.5 -66q21 -21 33.5 -50t12.5 -69q0 -43 -17 -81.5t-48 -67.5t-76 -46t-100 -17zM250 174q34 -12 69 -28q28 14 50 40.5t22 59.5q0 81 -124 124l-19 6q-20 -6 -39 -16t-34 -23t-24.5 -30t-9.5 -36q0 -35 28.5 -57.5t80.5 -39.5z" />
    <glyph glyph-name="dieresis" unicode="&#xa8;" horiz-adv-x="400" 
d="M335 602q-23 0 -40 17t-17 40q0 25 17 41t40 16q25 0 41 -16t16 -41q0 -23 -16 -40t-41 -17zM167 602q-23 0 -40 17t-17 40q0 25 17 41t40 16q25 0 41 -16t16 -41q0 -23 -16 -40t-41 -17z" />
    <glyph glyph-name="copyright" unicode="&#xa9;" horiz-adv-x="532" 
d="M266 272q-48 0 -89.5 18t-73 49.5t-49.5 73t-18 89.5q0 47 18 89t49.5 73.5t73 49.5t89.5 18q47 0 89 -18t73.5 -49.5t49.5 -73.5t18 -89q0 -48 -18 -89.5t-49.5 -73t-73.5 -49.5t-89 -18zM266 320q38 0 71 14.5t58 39.5t39 58t14 70q0 38 -14 71t-39 58t-58 39t-71 14
q-37 0 -70 -14t-58 -39t-39.5 -58t-14.5 -71q0 -37 14.5 -70t39.5 -58t58 -39.5t70 -14.5zM270 383q-26 0 -47.5 9.5t-37.5 25.5t-25 38t-9 46q0 25 9 46.5t25 37.5t37.5 25.5t47.5 9.5q31 0 50.5 -11t36.5 -28l-32 -29q-11 11 -22 17.5t-33 6.5q-29 0 -51 -21.5t-22 -53.5
t22 -53.5t51 -21.5q21 0 35 8.5t25 22.5l34 -27q-16 -21 -39 -34.5t-55 -13.5z" />
    <glyph glyph-name="ordfeminine" unicode="&#xaa;" horiz-adv-x="478" 
d="M200 272q-33 0 -61 9t-48.5 26t-32 41.5t-11.5 55.5q0 39 18 69t47.5 50.5t67.5 31.5t79 11q45 0 75 -9t50 -19l2 15q1 4 1 9v7q0 42 -28.5 63.5t-66.5 21.5t-66.5 -11.5t-51.5 -41.5l-68 40q10 17 27 33.5t41 29t55 20.5t70 8q36 0 67.5 -10.5t55 -30t37 -47.5t13.5 -62
q0 -17 -3 -35l-46 -261h-84l11 62h-4q-23 -30 -60.5 -53t-85.5 -23zM218 348q28 0 53.5 9t46.5 25t35 38t19 49q-11 7 -27 15q-14 5 -34.5 10t-48.5 5q-21 0 -42.5 -4.5t-39.5 -15t-29.5 -27t-11.5 -40.5q0 -17 7.5 -29t19 -20t25.5 -11.5t27 -3.5z" />
    <glyph glyph-name="guillemotleft" unicode="&#xab;" horiz-adv-x="556" 
d="M243 100l-60 -48l-163 219l240 219l47 -53l-187 -171zM443 100l-60 -48l-163 219l240 219l47 -53l-187 -171z" />
    <glyph glyph-name="logicalnot" unicode="&#xac;" horiz-adv-x="562" 
d="M48 385h434l-49 -280h-72l36 204h-362z" />
    <glyph glyph-name="uni00AD" unicode="&#xad;" horiz-adv-x="432" 
d="M53 348h320l-13 -76h-320z" />
    <glyph glyph-name="registered" unicode="&#xae;" horiz-adv-x="532" 
d="M266 272q-48 0 -89.5 18t-73 49.5t-49.5 73t-18 89.5q0 47 18 89t49.5 73.5t73 49.5t89.5 18q47 0 89 -18t73.5 -49.5t49.5 -73.5t18 -89q0 -48 -18 -89.5t-49.5 -73t-73.5 -49.5t-89 -18zM266 320q38 0 71 14.5t58 39.5t39 58t14 70q0 38 -14 71t-39 58t-58 39t-71 14
q-37 0 -70 -14t-58 -39t-39.5 -58t-14.5 -71q0 -37 14.5 -70t39.5 -58t58 -39.5t70 -14.5zM189 389v226h96q29 0 51 -20.5t22 -51.5q0 -23 -14.5 -41.5t-35.5 -24.5l-2 -2l60 -84v-2h-52l-55 84h-24v-84h-46zM281 515q12 0 21.5 7.5t9.5 20.5q0 10 -8 19t-22 9h-47v-56h46z
" />
    <glyph glyph-name="macron" unicode="&#xaf;" horiz-adv-x="400" 
d="M106 623l13 72h280l-13 -72h-280z" />
    <glyph glyph-name="degree" unicode="&#xb0;" horiz-adv-x="325" 
d="M186 442q-24 0 -45.5 8t-38 23t-26 36t-9.5 47q0 32 11 58.5t30.5 45.5t46 29.5t58.5 10.5q24 0 45.5 -8.5t38 -23.5t26 -36t9.5 -46q0 -32 -11 -58.5t-30.5 -45.5t-46.5 -29.5t-58 -10.5zM192 506q29 0 50 20.5t21 51.5q0 26 -15.5 42t-40.5 16q-29 0 -50 -20.5
t-21 -51.5q0 -26 15.5 -42t40.5 -16z" />
    <glyph glyph-name="plusminus" unicode="&#xb1;" horiz-adv-x="550" 
d="M315 372h181l-13 -76h-181l-28 -157h-76l28 157h-181l13 76h181l28 157h76zM-7 0l13 76h438l-14 -76h-437z" />
    <glyph glyph-name="twosuperior" unicode="&#xb2;" horiz-adv-x="304" 
d="M23 350l11 60q21 18 39.5 34.5t35.5 30.5l28 24t26 22q5 5 10 9t9 7t6 5l3 3q17 13 35 32.5t18 41.5q0 20 -13.5 30.5t-33.5 10.5q-45 0 -67 -58l-60 27q14 46 50 70.5t84 24.5q51 0 82 -28t31 -70q0 -20 -6 -36.5t-16.5 -31t-24.5 -27.5t-29 -26q-5 -5 -12.5 -10.5
t-15.5 -13.5l-36 -30l-22 -18t-22 -19h151l-12 -64h-249z" />
    <glyph glyph-name="threesuperior" unicode="&#xb3;" horiz-adv-x="323" 
d="M161 342q-43 0 -79 24t-45 76l65 23q8 -32 25 -45.5t41 -13.5q27 0 47 16.5t20 40.5q0 47 -61 47h-32l11 60h37q26 0 43.5 14.5t17.5 36.5q0 20 -13.5 29.5t-30.5 9.5q-27 0 -42 -14.5t-23 -28.5l-58 25q14 36 48.5 59t82.5 23t78.5 -26.5t30.5 -65.5q0 -30 -20.5 -55
t-45.5 -35q22 -11 35.5 -30.5t13.5 -46.5q0 -26 -11 -48.5t-30.5 -39t-46.5 -26t-58 -9.5z" />
    <glyph glyph-name="acute" unicode="&#xb4;" horiz-adv-x="400" 
d="M188 588l75 128h102l-95 -128h-82z" />
    <glyph glyph-name="mu" unicode="&#xb5;" 
d="M336 0l12 68h-4q-25 -36 -68 -60t-98 -24q-28 0 -52.5 11t-38.5 29h-4l-6 -56l-34 -184h-91l124 706h92l-52 -294q-2 -10 -3 -20t-1 -20q0 -45 27.5 -66.5t73.5 -21.5q30 0 56.5 12t47 32.5t34.5 48t19 58.5l48 271h92l-86 -490h-88z" />
    <glyph glyph-name="paragraph" unicode="&#xb6;" horiz-adv-x="624" 
d="M292 -216v512h-44q-45 0 -85.5 14.5t-71 41.5t-49 66t-18.5 88t18.5 88t49 66t71 41.5t85.5 14.5h296v-932h-84v844h-84v-844h-84z" />
    <glyph glyph-name="periodcentered" unicode="&#xb7;" horiz-adv-x="176" 
d="M88 256q-29 0 -48.5 19.5t-19.5 48.5t19.5 48.5t48.5 19.5t48.5 -19.5t19.5 -48.5t-19.5 -48.5t-48.5 -19.5z" />
    <glyph glyph-name="cedilla" unicode="&#xb8;" horiz-adv-x="400" 
d="M84 -237q-34 0 -59.5 19.5t-31.5 47.5l56 23q2 -14 12.5 -24t26.5 -10q18 0 32 12t14 35q0 14 -9.5 24.5t-26.5 10.5q-11 0 -18.5 -4t-15.5 -12l-43 22l51 93h56l-29 -48q4 1 8 1.5t12 0.5q35 0 55.5 -24.5t20.5 -63.5q0 -45 -30 -74t-81 -29z" />
    <glyph glyph-name="onesuperior" unicode="&#xb9;" horiz-adv-x="242" 
d="M110 350l50 282l-63 -25l-22 55l124 54h46l-65 -366h-70z" />
    <glyph glyph-name="ordmasculine" unicode="&#xba;" horiz-adv-x="516" 
d="M249 272q-44 0 -79.5 14.5t-61 40.5t-39.5 62t-14 80q0 48 18 95t52 84.5t81.5 60.5t107.5 23q44 0 80 -14t61 -39.5t38.5 -61.5t13.5 -81q0 -53 -20 -100.5t-55 -84t-82 -58t-101 -21.5zM256 352q32 0 61.5 13t51.5 36.5t35 56.5t13 73q0 28 -9.5 50t-25 38t-36.5 24.5
t-43 8.5q-34 0 -63 -14.5t-50 -38.5t-33 -56t-12 -68q0 -57 32.5 -90t78.5 -33z" />
    <glyph glyph-name="guillemotright" unicode="&#xbb;" horiz-adv-x="556" 
d="M78 442l60 48l163 -219l-240 -219l-47 53l187 171zM278 442l60 48l163 -219l-240 -219l-47 53l187 171z" />
    <glyph glyph-name="onequarter" unicode="&#xbc;" horiz-adv-x="736" 
d="M494 0l13 72h-171l8 48l218 246h67l-41 -234h48l-11 -60h-48l-13 -72h-70zM518 132l22 126h-4l-112 -126h94zM50 34l592 690l53 -42l-589 -691zM135 350l50 282l-63 -25l-22 55l124 54h46l-65 -366h-70z" />
    <glyph glyph-name="onehalf" unicode="&#xbd;" horiz-adv-x="776" 
d="M436 0l11 60q21 18 39.5 34.5t35.5 30.5l28 24t26 22q5 5 10 9t9 7t6 5l3 3q17 13 35 32.5t18 41.5q0 20 -13.5 30.5t-33.5 10.5q-45 0 -67 -58l-60 27q14 46 50 70.5t84 24.5q51 0 82 -28t31 -70q0 -20 -6 -36.5t-16.5 -31t-24.5 -27.5t-29 -26q-5 -5 -12.5 -10.5
t-15.5 -13.5l-36 -30l-22 -18t-22 -19h151l-12 -64h-249zM50 34l592 690l53 -42l-589 -691zM135 350l50 282l-63 -25l-22 55l124 54h46l-65 -366h-70z" />
    <glyph glyph-name="threequarters" unicode="&#xbe;" horiz-adv-x="829" 
d="M588 0l13 72h-171l8 48l218 246h67l-41 -234h48l-11 -60h-48l-13 -72h-70zM612 132l22 126h-4l-112 -126h94zM117 34l592 690l53 -42l-589 -691zM185 342q-43 0 -79 24t-45 76l65 23q8 -32 25 -45.5t41 -13.5q27 0 47 16.5t20 40.5q0 47 -61 47h-32l11 60h37
q26 0 43.5 14.5t17.5 36.5q0 20 -13.5 29.5t-30.5 9.5q-27 0 -42 -14.5t-23 -28.5l-58 25q14 36 48.5 59t82.5 23t78.5 -26.5t30.5 -65.5q0 -30 -20.5 -55t-45.5 -35q22 -11 35.5 -30.5t13.5 -46.5q0 -26 -11 -48.5t-30.5 -39t-46.5 -26t-58 -9.5z" />
    <glyph glyph-name="questiondown" unicode="&#xbf;" horiz-adv-x="482" 
d="M297 278l-8 -47q-4 -23 -11 -41.5t-19.5 -36.5t-32.5 -36t-50 -40q-17 -13 -34.5 -27.5t-31 -30.5t-22 -34.5t-8.5 -39.5q0 -39 27 -64t75 -25q26 0 47 8t37 21.5t27 30.5t17 36l80 -36q-11 -30 -29.5 -57t-46 -47t-63.5 -32t-82 -12q-41 0 -74.5 13t-58 35t-38 52
t-13.5 64q0 33 11 60.5t29 51t41.5 44t49.5 40.5q34 26 54.5 52t25.5 58l7 40h94zM279 506q29 0 48.5 -19.5t19.5 -48.5t-19.5 -48.5t-48.5 -19.5t-48.5 19.5t-19.5 48.5t19.5 48.5t48.5 19.5z" />
    <glyph glyph-name="Agrave" unicode="&#xc0;" horiz-adv-x="668" 
d="M396 926l60 -141h-85l-80 141h105zM345 716h104l143 -716h-99l-34 194h-301l-105 -194h-104zM442 280l-60 323h-4l-174 -323h238z" />
    <glyph glyph-name="Aacute" unicode="&#xc1;" horiz-adv-x="668" 
d="M555 926l-112 -141h-85l92 141h105zM345 716h104l143 -716h-99l-34 194h-301l-105 -194h-104zM442 280l-60 323h-4l-174 -323h238z" />
    <glyph glyph-name="Acircumflex" unicode="&#xc2;" horiz-adv-x="668" 
d="M349 775h-95l146 141h80l70 -141h-83l-42 69zM345 716h104l143 -716h-99l-34 194h-301l-105 -194h-104zM442 280l-60 323h-4l-174 -323h238z" />
    <glyph glyph-name="Atilde" unicode="&#xc3;" horiz-adv-x="668" 
d="M464 775q-29 0 -54 20q-23 20 -37 20q-27 0 -34 -31h-70q7 48 36 77.5t72 29.5q32 0 55 -20t36 -20q27 0 34 31h70q-7 -48 -35 -77.5t-73 -29.5zM345 716h104l143 -716h-99l-34 194h-301l-105 -194h-104zM442 280l-60 323h-4l-174 -323h238z" />
    <glyph glyph-name="Adieresis" unicode="&#xc4;" horiz-adv-x="668" 
d="M345 716h104l143 -716h-99l-34 194h-301l-105 -194h-104zM442 280l-60 323h-4l-174 -323h238zM490 786q-23 0 -40 17t-17 40q0 25 17 41t40 16q25 0 41 -16t16 -41q0 -23 -16 -40t-41 -17zM322 786q-23 0 -40 17t-17 40q0 25 17 41t40 16q25 0 41 -16t16 -41
q0 -23 -16 -40t-41 -17z" />
    <glyph glyph-name="Aring" unicode="&#xc5;" horiz-adv-x="668" 
d="M326 682q-14 14 -22.5 33t-8.5 41q0 45 29.5 74.5t74.5 29.5q21 0 40 -8t33.5 -22t22.5 -33t8 -41q0 -26 -12.5 -49t-32.5 -37l134 -670h-99l-34 194h-301l-105 -194h-104zM442 280l-60 323h-4l-174 -323h238zM399 716q17 0 28.5 11.5t11.5 28.5t-11.5 28.5t-28.5 11.5
t-28.5 -11.5t-11.5 -28.5q0 -16 10.5 -27.5t25.5 -12.5h4z" />
    <glyph glyph-name="AE" unicode="&#xc6;" horiz-adv-x="960" 
d="M-59 0l552 716h478l-16 -88h-326l-40 -227h294l-15 -86h-294l-40 -227h326l-16 -88h-418l34 194h-259l-148 -194h-112zM267 280h208l62 348h-4l-39 -51z" />
    <glyph glyph-name="Ccedilla" unicode="&#xc7;" horiz-adv-x="729" 
d="M316 -237q-34 0 -59.5 19.5t-31.5 47.5l56 23q2 -14 12.5 -24t26.5 -10q18 0 32 12t14 35q0 14 -9.5 24.5t-26.5 10.5q-11 0 -18.5 -4t-15.5 -12l-43 22l44 81q-59 7 -108 33t-84 67t-54.5 96t-19.5 121q0 83 32.5 160t90.5 136.5t137.5 95t173.5 35.5q41 0 78.5 -9.5
t69 -25.5t56.5 -38t41 -47l-74 -61q-33 48 -75.5 70.5t-105.5 22.5q-69 0 -129.5 -28t-105 -74.5t-70 -107t-25.5 -124.5q0 -54 17.5 -98t49 -75t74 -48t92.5 -17q75 0 130 28.5t105 77.5l59 -67q-68 -65 -138.5 -96t-163.5 -31l-19 -32q4 1 8 1.5t12 0.5q35 0 55.5 -24.5
t20.5 -63.5q0 -45 -30 -74t-81 -29z" />
    <glyph glyph-name="Egrave" unicode="&#xc8;" 
d="M349 926l60 -141h-85l-80 141h105zM211 628l-40 -227h294l-15 -86h-294l-40 -227h326l-16 -88h-418l127 716h418l-16 -88h-326z" />
    <glyph glyph-name="Eacute" unicode="&#xc9;" 
d="M496 926l-112 -141h-85l92 141h105zM211 628l-40 -227h294l-15 -86h-294l-40 -227h326l-16 -88h-418l127 716h418l-16 -88h-326z" />
    <glyph glyph-name="Ecircumflex" unicode="&#xca;" 
d="M297 775h-95l146 141h80l70 -141h-83l-42 69zM211 628l-40 -227h294l-15 -86h-294l-40 -227h326l-16 -88h-418l127 716h418l-16 -88h-326z" />
    <glyph glyph-name="Edieresis" unicode="&#xcb;" 
d="M211 628l-40 -227h294l-15 -86h-294l-40 -227h326l-16 -88h-418l127 716h418l-16 -88h-326zM431 786q-23 0 -40 17t-17 40q0 25 17 41t40 16q25 0 41 -16t16 -41q0 -23 -16 -40t-41 -17zM263 786q-23 0 -40 17t-17 40q0 25 17 41t40 16q25 0 41 -16t16 -41q0 -23 -16 -40
t-41 -17z" />
    <glyph glyph-name="Igrave" unicode="&#xcc;" horiz-adv-x="236" 
d="M188 926l60 -141h-85l-80 141h105zM135 716h92l-127 -716h-92z" />
    <glyph glyph-name="Iacute" unicode="&#xcd;" horiz-adv-x="236" 
d="M342 926l-112 -141h-85l92 141h105zM135 716h92l-127 -716h-92z" />
    <glyph glyph-name="Icircumflex" unicode="&#xce;" horiz-adv-x="236" 
d="M135 716h92l-127 -716h-92zM38 783l124 117h80l82 -117l-1 -5h-83l-41 60h-8l-59 -60h-95z" />
    <glyph glyph-name="Idieresis" unicode="&#xcf;" horiz-adv-x="236" 
d="M131 787q-23 0 -40 17t-17 40q0 25 17 41t40 16q25 0 41 -16t16 -41q0 -23 -16 -40t-41 -17zM267 787q-23 0 -40 17t-17 40q0 25 17 41t40 16q25 0 41 -16t16 -41q0 -23 -16 -40t-41 -17zM135 716h92l-127 -716h-92z" />
    <glyph glyph-name="Eth" unicode="&#xd0;" horiz-adv-x="751" 
d="M124 319h-75l13 76h76l57 321h219q75 0 132.5 -24t96 -65.5t58.5 -98t20 -121.5q0 -80 -28.5 -153.5t-82.5 -130t-133 -90t-179 -33.5h-230zM303 88q69 0 128 24t102.5 66.5t68 99.5t24.5 123q0 112 -59.5 169.5t-168.5 57.5h-127l-41 -233h200l-13 -76h-201l-40 -231
h127z" />
    <glyph glyph-name="Ntilde" unicode="&#xd1;" horiz-adv-x="696" 
d="M135 716h105l256 -557h4l21 138l74 419h92l-127 -716h-88l-269 584h-4l-20 -138l-79 -446h-92zM543 778q-18 0 -33.5 7t-29.5 16q-15 8 -30 15t-33 7q-30 0 -39 -35h-76q8 60 38.5 89t75.5 29q18 0 34 -7t31 -15q14 -9 29 -16t32 -7q30 0 39 35h76q-8 -60 -38.5 -89
t-75.5 -29z" />
    <glyph glyph-name="Ograve" unicode="&#xd2;" horiz-adv-x="810" 
d="M485 926l60 -141h-85l-80 141h105zM358 -16q-69 0 -128.5 23.5t-104 66.5t-69.5 102.5t-25 131.5q0 82 30.5 158.5t86 135.5t133.5 94.5t173 35.5q68 0 127.5 -23.5t103.5 -66.5t69 -102.5t25 -131.5q0 -82 -30.5 -158.5t-86 -135.5t-133 -94.5t-171.5 -35.5zM367 72
q67 0 124.5 28t100.5 74t67.5 105.5t24.5 121.5q0 57 -19 102t-51.5 76.5t-76.5 48t-94 16.5q-67 0 -125 -28t-100.5 -74t-67 -105t-24.5 -122q0 -57 19 -102t51.5 -76.5t76.5 -48t94 -16.5z" />
    <glyph glyph-name="Oacute" unicode="&#xd3;" horiz-adv-x="810" 
d="M630 926l-112 -141h-85l92 141h105zM358 -16q-69 0 -128.5 23.5t-104 66.5t-69.5 102.5t-25 131.5q0 82 30.5 158.5t86 135.5t133.5 94.5t173 35.5q68 0 127.5 -23.5t103.5 -66.5t69 -102.5t25 -131.5q0 -82 -30.5 -158.5t-86 -135.5t-133 -94.5t-171.5 -35.5zM367 72
q67 0 124.5 28t100.5 74t67.5 105.5t24.5 121.5q0 57 -19 102t-51.5 76.5t-76.5 48t-94 16.5q-67 0 -125 -28t-100.5 -74t-67 -105t-24.5 -122q0 -57 19 -102t51.5 -76.5t76.5 -48t94 -16.5z" />
    <glyph glyph-name="Ocircumflex" unicode="&#xd4;" horiz-adv-x="810" 
d="M432 775h-95l146 141h80l70 -141h-83l-42 69zM358 -16q-69 0 -128.5 23.5t-104 66.5t-69.5 102.5t-25 131.5q0 82 30.5 158.5t86 135.5t133.5 94.5t173 35.5q68 0 127.5 -23.5t103.5 -66.5t69 -102.5t25 -131.5q0 -82 -30.5 -158.5t-86 -135.5t-133 -94.5t-171.5 -35.5z
M367 72q67 0 124.5 28t100.5 74t67.5 105.5t24.5 121.5q0 57 -19 102t-51.5 76.5t-76.5 48t-94 16.5q-67 0 -125 -28t-100.5 -74t-67 -105t-24.5 -122q0 -57 19 -102t51.5 -76.5t76.5 -48t94 -16.5z" />
    <glyph glyph-name="Otilde" unicode="&#xd5;" horiz-adv-x="810" 
d="M534 775q-29 0 -54 20q-23 20 -37 20q-27 0 -34 -31h-70q7 48 36 77.5t72 29.5q32 0 55 -20t36 -20q27 0 34 31h70q-7 -48 -35 -77.5t-73 -29.5zM358 -16q-69 0 -128.5 23.5t-104 66.5t-69.5 102.5t-25 131.5q0 82 30.5 158.5t86 135.5t133.5 94.5t173 35.5
q68 0 127.5 -23.5t103.5 -66.5t69 -102.5t25 -131.5q0 -82 -30.5 -158.5t-86 -135.5t-133 -94.5t-171.5 -35.5zM367 72q67 0 124.5 28t100.5 74t67.5 105.5t24.5 121.5q0 57 -19 102t-51.5 76.5t-76.5 48t-94 16.5q-67 0 -125 -28t-100.5 -74t-67 -105t-24.5 -122
q0 -57 19 -102t51.5 -76.5t76.5 -48t94 -16.5z" />
    <glyph glyph-name="Odieresis" unicode="&#xd6;" horiz-adv-x="810" 
d="M358 -16q-69 0 -128.5 23.5t-104 66.5t-69.5 102.5t-25 131.5q0 82 30.5 158.5t86 135.5t133.5 94.5t173 35.5q68 0 127.5 -23.5t103.5 -66.5t69 -102.5t25 -131.5q0 -82 -30.5 -158.5t-86 -135.5t-133 -94.5t-171.5 -35.5zM367 72q67 0 124.5 28t100.5 74t67.5 105.5
t24.5 121.5q0 57 -19 102t-51.5 76.5t-76.5 48t-94 16.5q-67 0 -125 -28t-100.5 -74t-67 -105t-24.5 -122q0 -57 19 -102t51.5 -76.5t76.5 -48t94 -16.5zM558 786q-23 0 -40 17t-17 40q0 25 17 41t40 16q25 0 41 -16t16 -41q0 -23 -16 -40t-41 -17zM390 786q-23 0 -40 17
t-17 40q0 25 17 41t40 16q25 0 41 -16t16 -41q0 -23 -16 -40t-41 -17z" />
    <glyph glyph-name="multiply" unicode="&#xd7;" 
d="M203 274l-130 153l57 49l131 -154l187 156l46 -56l-186 -155l130 -152l-57 -49l-131 153l-188 -156l-46 56z" />
    <glyph glyph-name="Oslash" unicode="&#xd8;" horiz-adv-x="810" 
d="M73 6l53 67q-45 43 -70 102.5t-25 132.5q0 82 30.5 158.5t86 135.5t133.5 94.5t173 35.5q46 0 87.5 -11t78.5 -31l54 68l63 -48l-54 -67q45 -43 70.5 -102.5t25.5 -132.5q0 -82 -30.5 -158.5t-86 -135.5t-133 -94.5t-171.5 -35.5q-48 0 -89.5 11t-78.5 31l-53 -67z
M126 315q0 -105 60 -168l375 469q-53 28 -118 28q-67 0 -125 -28t-100.5 -74t-67 -105t-24.5 -122zM367 72q67 0 124.5 28t100.5 74t67.5 105.5t24.5 121.5q0 54 -16 95.5t-44 72.5l-375 -470q26 -13 56 -20t62 -7z" />
    <glyph glyph-name="Ugrave" unicode="&#xd9;" horiz-adv-x="642" 
d="M383 926l60 -141h-85l-80 141h105zM258 -16q-44 0 -84 15t-70.5 42.5t-48.5 67.5t-18 90q0 15 1 36.5t8 61.5l74 419h92l-78 -442q-4 -22 -5 -35.5t-1 -24.5q0 -63 35 -102.5t110 -39.5q43 0 77.5 14.5t61 40t43 60t23.5 75.5l80 454h92l-82 -465q-23 -128 -101 -197.5
t-209 -69.5z" />
    <glyph glyph-name="Uacute" unicode="&#xda;" horiz-adv-x="642" 
d="M541 926l-112 -141h-85l92 141h105zM258 -16q-44 0 -84 15t-70.5 42.5t-48.5 67.5t-18 90q0 15 1 36.5t8 61.5l74 419h92l-78 -442q-4 -22 -5 -35.5t-1 -24.5q0 -63 35 -102.5t110 -39.5q43 0 77.5 14.5t61 40t43 60t23.5 75.5l80 454h92l-82 -465q-23 -128 -101 -197.5
t-209 -69.5z" />
    <glyph glyph-name="Ucircumflex" unicode="&#xdb;" horiz-adv-x="642" 
d="M258 -16q-44 0 -84 15t-70.5 42.5t-48.5 67.5t-18 90q0 15 1 36.5t8 61.5l74 419h92l-78 -442q-4 -22 -5 -35.5t-1 -24.5q0 -63 35 -102.5t110 -39.5q43 0 77.5 14.5t61 40t43 60t23.5 75.5l80 454h92l-82 -465q-23 -128 -101 -197.5t-209 -69.5zM237 783l124 117h80
l82 -117l-1 -5h-83l-41 60h-8l-59 -60h-95z" />
    <glyph glyph-name="Udieresis" unicode="&#xdc;" horiz-adv-x="642" 
d="M258 -16q-44 0 -84 15t-70.5 42.5t-48.5 67.5t-18 90q0 15 1 36.5t8 61.5l74 419h92l-78 -442q-4 -22 -5 -35.5t-1 -24.5q0 -63 35 -102.5t110 -39.5q43 0 77.5 14.5t61 40t43 60t23.5 75.5l80 454h92l-82 -465q-23 -128 -101 -197.5t-209 -69.5zM475 786q-23 0 -40 17
t-17 40q0 25 17 41t40 16q25 0 41 -16t16 -41q0 -23 -16 -40t-41 -17zM307 786q-23 0 -40 17t-17 40q0 25 17 41t40 16q25 0 41 -16t16 -41q0 -23 -16 -40t-41 -17z" />
    <glyph glyph-name="Yacute" unicode="&#xdd;" horiz-adv-x="594" 
d="M505 926l-112 -141h-85l92 141h105zM189 0l59 333l-173 383h105l125 -291h4l225 291h111l-305 -383l-59 -333h-92z" />
    <glyph glyph-name="Thorn" unicode="&#xde;" horiz-adv-x="564" 
d="M8 0l127 716h92l-22 -122h147q42 0 78 -13.5t62 -38t40.5 -59t14.5 -75.5q0 -57 -20 -101.5t-55 -75.5t-83.5 -47t-105.5 -16h-153l-30 -168h-92zM300 256q31 0 58.5 8t48.5 25t33 43.5t12 63.5q0 51 -31 80.5t-77 29.5h-154l-44 -250h154z" />
    <glyph glyph-name="germandbls" unicode="&#xdf;" horiz-adv-x="562" 
d="M416 385q38 -19 64 -58t26 -96q0 -54 -20.5 -98.5t-55.5 -75.5t-83 -48t-103 -17q-17 0 -32 1t-29 3l15 88q15 -2 29 -3t24 -1q33 0 62 9t51 27t34.5 44.5t12.5 61.5q0 51 -30.5 84.5t-97.5 33.5h-31l15 86h25q27 0 53 8t46.5 23.5t33 38.5t12.5 53q0 45 -30 70t-78 25
q-55 0 -90.5 -35.5t-45.5 -92.5l-91 -516h-94l91 516q8 46 26 85.5t47.5 68.5t71 45.5t95.5 16.5q44 0 80 -13.5t61 -37.5t38.5 -56t13.5 -68q0 -64 -32.5 -105.5t-83.5 -62.5v-4z" />
    <glyph glyph-name="agrave" unicode="&#xe0;" horiz-adv-x="510" 
d="M317 710l60 -141h-85l-80 141h105zM287 506q96 0 144 -44t48 -119q0 -12 -1.5 -25.5t-3.5 -27.5l-52 -290h-88l12 68h-4q-24 -35 -66 -59.5t-94 -24.5q-36 0 -67 10.5t-53.5 30.5t-35.5 47.5t-13 62.5q0 42 18.5 76t50.5 57.5t75.5 36.5t94.5 13q42 0 73 -8.5t60 -21.5
l4 21q2 10 2 20q0 43 -31 69t-82 26q-39 0 -69.5 -15t-59.5 -50l-72 51q35 48 89.5 72t120.5 24zM201 66q31 0 59.5 11t51 30.5t38.5 46t21 56.5q-14 10 -30 17q-16 6 -39.5 11.5t-56.5 5.5q-25 0 -49.5 -6t-43.5 -19t-31 -32t-12 -44q0 -19 8 -33.5t20.5 -24t29 -14.5
t34.5 -5z" />
    <glyph glyph-name="aacute" unicode="&#xe1;" horiz-adv-x="510" 
d="M468 710l-112 -141h-85l92 141h105zM287 506q96 0 144 -44t48 -119q0 -12 -1.5 -25.5t-3.5 -27.5l-52 -290h-88l12 68h-4q-24 -35 -66 -59.5t-94 -24.5q-36 0 -67 10.5t-53.5 30.5t-35.5 47.5t-13 62.5q0 42 18.5 76t50.5 57.5t75.5 36.5t94.5 13q42 0 73 -8.5t60 -21.5
l4 21q2 10 2 20q0 43 -31 69t-82 26q-39 0 -69.5 -15t-59.5 -50l-72 51q35 48 89.5 72t120.5 24zM201 66q31 0 59.5 11t51 30.5t38.5 46t21 56.5q-14 10 -30 17q-16 6 -39.5 11.5t-56.5 5.5q-25 0 -49.5 -6t-43.5 -19t-31 -32t-12 -44q0 -19 8 -33.5t20.5 -24t29 -14.5
t34.5 -5z" />
    <glyph glyph-name="acircumflex" unicode="&#xe2;" horiz-adv-x="510" 
d="M287 506q96 0 144 -44t48 -119q0 -12 -1.5 -25.5t-3.5 -27.5l-52 -290h-88l12 68h-4q-24 -35 -66 -59.5t-94 -24.5q-36 0 -67 10.5t-53.5 30.5t-35.5 47.5t-13 62.5q0 42 18.5 76t50.5 57.5t75.5 36.5t94.5 13q42 0 73 -8.5t60 -21.5l4 21q2 10 2 20q0 43 -31 69t-82 26
q-39 0 -69.5 -15t-59.5 -50l-72 51q35 48 89.5 72t120.5 24zM201 66q31 0 59.5 11t51 30.5t38.5 46t21 56.5q-14 10 -30 17q-16 6 -39.5 11.5t-56.5 5.5q-25 0 -49.5 -6t-43.5 -19t-31 -32t-12 -44q0 -19 8 -33.5t20.5 -24t29 -14.5t34.5 -5zM262 559h-95l146 141h80
l70 -141h-83l-42 69z" />
    <glyph glyph-name="atilde" unicode="&#xe3;" horiz-adv-x="510" 
d="M364 559q-29 0 -54 20q-23 20 -37 20q-27 0 -34 -31h-70q7 48 36 77.5t72 29.5q32 0 55 -20t36 -20q27 0 34 31h70q-7 -48 -35 -77.5t-73 -29.5zM287 506q96 0 144 -44t48 -119q0 -12 -1.5 -25.5t-3.5 -27.5l-52 -290h-88l12 68h-4q-24 -35 -66 -59.5t-94 -24.5
q-36 0 -67 10.5t-53.5 30.5t-35.5 47.5t-13 62.5q0 42 18.5 76t50.5 57.5t75.5 36.5t94.5 13q42 0 73 -8.5t60 -21.5l4 21q2 10 2 20q0 43 -31 69t-82 26q-39 0 -69.5 -15t-59.5 -50l-72 51q35 48 89.5 72t120.5 24zM201 66q31 0 59.5 11t51 30.5t38.5 46t21 56.5
q-14 10 -30 17q-16 6 -39.5 11.5t-56.5 5.5q-25 0 -49.5 -6t-43.5 -19t-31 -32t-12 -44q0 -19 8 -33.5t20.5 -24t29 -14.5t34.5 -5z" />
    <glyph glyph-name="adieresis" unicode="&#xe4;" horiz-adv-x="510" 
d="M287 506q96 0 144 -44t48 -119q0 -12 -1.5 -25.5t-3.5 -27.5l-52 -290h-88l12 68h-4q-24 -35 -66 -59.5t-94 -24.5q-36 0 -67 10.5t-53.5 30.5t-35.5 47.5t-13 62.5q0 42 18.5 76t50.5 57.5t75.5 36.5t94.5 13q42 0 73 -8.5t60 -21.5l4 21q2 10 2 20q0 43 -31 69t-82 26
q-39 0 -69.5 -15t-59.5 -50l-72 51q35 48 89.5 72t120.5 24zM201 66q31 0 59.5 11t51 30.5t38.5 46t21 56.5q-14 10 -30 17q-16 6 -39.5 11.5t-56.5 5.5q-25 0 -49.5 -6t-43.5 -19t-31 -32t-12 -44q0 -19 8 -33.5t20.5 -24t29 -14.5t34.5 -5zM391 602q-23 0 -40 17t-17 40
q0 25 17 41t40 16q25 0 41 -16t16 -41q0 -23 -16 -40t-41 -17zM223 602q-23 0 -40 17t-17 40q0 25 17 41t40 16q25 0 41 -16t16 -41q0 -23 -16 -40t-41 -17z" />
    <glyph glyph-name="aring" unicode="&#xe5;" horiz-adv-x="510" 
d="M287 506q96 0 144 -44t48 -119q0 -12 -1.5 -25.5t-3.5 -27.5l-52 -290h-88l12 68h-4q-24 -35 -66 -59.5t-94 -24.5q-36 0 -67 10.5t-53.5 30.5t-35.5 47.5t-13 62.5q0 42 18.5 76t50.5 57.5t75.5 36.5t94.5 13q42 0 73 -8.5t60 -21.5l4 21q2 10 2 20q0 43 -31 69t-82 26
q-39 0 -69.5 -15t-59.5 -50l-72 51q35 48 89.5 72t120.5 24zM201 66q31 0 59.5 11t51 30.5t38.5 46t21 56.5q-14 10 -30 17q-16 6 -39.5 11.5t-56.5 5.5q-25 0 -49.5 -6t-43.5 -19t-31 -32t-12 -44q0 -19 8 -33.5t20.5 -24t29 -14.5t34.5 -5zM307 565q-22 0 -41 8t-33 22.5
t-22 33.5t-8 40q0 45 29.5 74.5t74.5 29.5q21 0 40 -8t33.5 -22t22.5 -33t8 -41q0 -21 -8 -40t-22.5 -33.5t-33.5 -22.5t-40 -8zM307 624q18 0 31 13.5t13 31.5t-13 31t-31 13t-31 -13t-13 -31t13 -31.5t31 -13.5z" />
    <glyph glyph-name="ae" unicode="&#xe6;" horiz-adv-x="905" 
d="M828 116q-39 -66 -100.5 -99t-134.5 -33q-72 0 -119.5 32t-71.5 83q-38 -52 -92.5 -83.5t-123.5 -31.5q-38 0 -69.5 10.5t-54.5 30.5t-36 47.5t-13 62.5q0 42 18.5 76t50.5 57.5t76 36.5t94 13q42 0 73 -8.5t60 -21.5l4 21q1 5 1.5 10t0.5 10q0 45 -31 70t-79 25
q-42 0 -78 -18.5t-54 -50.5l-77 41q31 48 83.5 79t136.5 31q60 0 101 -26.5t62 -68.5q37 43 89.5 69t116.5 26q50 0 88 -15.5t63.5 -43.5t38.5 -65.5t13 -80.5q0 -18 -2 -37t-7 -36h-385q-1 -5 -1.5 -13.5t-0.5 -15.5q0 -33 11.5 -58t30 -41t42 -24t47.5 -8q52 0 91 23.5
t65 63.5zM201 66q31 0 59.5 11t51 30.5t38.5 46t21 56.5q-14 10 -30 17q-16 6 -39.5 11.5t-56.5 5.5q-25 0 -49.5 -6t-43.5 -18.5t-31 -31.5t-12 -45q0 -19 8 -33.5t20.5 -24t29 -14.5t34.5 -5zM771 304v11q0 16 -5 35t-19 35t-38 26.5t-61 10.5q-57 0 -100 -32t-60 -86h283
z" />
    <glyph glyph-name="ccedilla" unicode="&#xe7;" horiz-adv-x="522" 
d="M188 -237q-34 0 -59.5 19.5t-31.5 47.5l56 23q2 -14 12.5 -24t26.5 -10q18 0 32 12t14 35q0 14 -9.5 24.5t-26.5 10.5q-11 0 -18.5 -4t-15.5 -12l-43 22l45 82q-38 8 -68.5 28t-52 49.5t-33 66t-11.5 77.5q0 64 23 118.5t62.5 94t93 61.5t114.5 22q45 0 79 -12.5
t58.5 -32.5t39.5 -45.5t22 -50.5l-86 -33q-12 42 -42.5 66t-81.5 24q-40 0 -74.5 -15.5t-59.5 -43t-39.5 -65t-14.5 -81.5q0 -30 9 -57.5t26 -47.5t43 -32t59 -12q48 0 85 25t63 68l74 -35q-23 -36 -47 -63t-52 -44.5t-61.5 -26t-75.5 -8.5l-19 -32q4 1 8 1.5t12 0.5
q35 0 55.5 -24.5t20.5 -63.5q0 -45 -30 -74t-81 -29z" />
    <glyph glyph-name="egrave" unicode="&#xe8;" horiz-adv-x="536" 
d="M301 710l60 -141h-85l-80 141h105zM459 116q-39 -66 -100 -99t-131 -33q-54 0 -95.5 18t-70 48.5t-43 71t-14.5 86.5q0 57 19.5 110.5t56.5 95.5t89.5 67t117.5 25q51 0 90 -16t65 -44t39 -65t13 -80q0 -18 -2 -38t-7 -35h-386q-1 -5 -1 -9v-7v-13q0 -33 11.5 -58
t30.5 -41t43 -24t49 -8q51 0 90 24t65 64zM402 304v11q0 21 -7.5 40.5t-23 34t-38.5 23.5t-54 9q-60 0 -102.5 -32t-59.5 -86h285z" />
    <glyph glyph-name="eacute" unicode="&#xe9;" horiz-adv-x="536" 
d="M464 710l-112 -141h-85l92 141h105zM459 116q-39 -66 -100 -99t-131 -33q-54 0 -95.5 18t-70 48.5t-43 71t-14.5 86.5q0 57 19.5 110.5t56.5 95.5t89.5 67t117.5 25q51 0 90 -16t65 -44t39 -65t13 -80q0 -18 -2 -38t-7 -35h-386q-1 -5 -1 -9v-7v-13q0 -33 11.5 -58
t30.5 -41t43 -24t49 -8q51 0 90 24t65 64zM402 304v11q0 21 -7.5 40.5t-23 34t-38.5 23.5t-54 9q-60 0 -102.5 -32t-59.5 -86h285z" />
    <glyph glyph-name="ecircumflex" unicode="&#xea;" horiz-adv-x="536" 
d="M459 116q-39 -66 -100 -99t-131 -33q-54 0 -95.5 18t-70 48.5t-43 71t-14.5 86.5q0 57 19.5 110.5t56.5 95.5t89.5 67t117.5 25q51 0 90 -16t65 -44t39 -65t13 -80q0 -18 -2 -38t-7 -35h-386q-1 -5 -1 -9v-7v-13q0 -33 11.5 -58t30.5 -41t43 -24t49 -8q51 0 90 24t65 64z
M402 304v11q0 21 -7.5 40.5t-23 34t-38.5 23.5t-54 9q-60 0 -102.5 -32t-59.5 -86h285zM252 559h-95l146 141h80l70 -141h-83l-42 69z" />
    <glyph glyph-name="edieresis" unicode="&#xeb;" horiz-adv-x="536" 
d="M459 116q-39 -66 -100 -99t-131 -33q-54 0 -95.5 18t-70 48.5t-43 71t-14.5 86.5q0 57 19.5 110.5t56.5 95.5t89.5 67t117.5 25q51 0 90 -16t65 -44t39 -65t13 -80q0 -18 -2 -38t-7 -35h-386q-1 -5 -1 -9v-7v-13q0 -33 11.5 -58t30.5 -41t43 -24t49 -8q51 0 90 24t65 64z
M402 304v11q0 21 -7.5 40.5t-23 34t-38.5 23.5t-54 9q-60 0 -102.5 -32t-59.5 -86h285zM401 602q-23 0 -40 17t-17 40q0 25 17 41t40 16q25 0 41 -16t16 -41q0 -23 -16 -40t-41 -17zM233 602q-23 0 -40 17t-17 40q0 25 17 41t40 16q25 0 41 -16t16 -41q0 -23 -16 -40
t-41 -17z" />
    <glyph glyph-name="igrave" unicode="&#xec;" horiz-adv-x="220" 
d="M160 710l40 -141h-85l-60 141h105zM0 0l86 490h92l-86 -490h-92z" />
    <glyph glyph-name="iacute" unicode="&#xed;" horiz-adv-x="220" 
d="M278 710l-97 -141h-85l77 141h105zM0 0l86 490h92l-86 -490h-92z" />
    <glyph glyph-name="icircumflex" unicode="&#xee;" horiz-adv-x="220" 
d="M0 0l86 490h92l-86 -490h-92zM6 599l124 117h80l82 -117l-1 -5h-83l-41 60h-8l-59 -60h-95z" />
    <glyph glyph-name="idieresis" unicode="&#xef;" horiz-adv-x="220" 
d="M93 602q-23 0 -40 17t-17 40q0 25 17 41t40 16q25 0 41 -16t16 -41q0 -23 -16 -40t-41 -17zM229 602q-23 0 -40 17t-17 40q0 25 17 41t40 16q25 0 41 -16t16 -41q0 -23 -16 -40t-41 -17zM0 0l86 490h92l-86 -490h-92z" />
    <glyph glyph-name="eth" unicode="&#xf0;" horiz-adv-x="571" 
d="M421 426q-11 42 -29 74.5t-43 58.5l-130 -53l-26 63l94 38q-22 13 -46 23t-52 17l31 77q48 -13 88 -33t73 -46l113 47l25 -62l-86 -36q45 -55 67 -123.5t22 -149.5q0 -64 -17 -124.5t-51.5 -108t-87 -76t-123.5 -28.5q-47 0 -88.5 16t-73 44.5t-49.5 68.5t-18 89
q0 54 20.5 103.5t56.5 87t86 59.5t109 22q45 0 77 -15t53 -36zM252 72q32 0 62 13.5t53 36.5t37 55t14 68q0 63 -33.5 103.5t-102.5 40.5q-38 0 -69.5 -14t-54.5 -39t-36 -58t-13 -72q0 -32 11.5 -56.5t31 -42t45.5 -26.5t55 -9z" />
    <glyph glyph-name="ntilde" unicode="&#xf1;" 
d="M155 422h4q25 36 68 60t98 24q72 0 115.5 -41t43.5 -110q0 -15 -1.5 -34t-5.5 -39l-50 -282h-92l52 294q2 10 3 20t1 20q0 45 -27.5 66.5t-73.5 21.5q-30 0 -56.5 -12t-47 -32.5t-34.5 -48t-19 -58.5l-48 -271h-92l86 490h88zM394 595q-18 0 -33.5 7t-29.5 16
q-15 8 -30 15t-33 7q-30 0 -39 -35h-76q8 60 38.5 89t75.5 29q18 0 34 -7t31 -15q14 -9 29 -16t32 -7q30 0 39 35h76q-8 -60 -38.5 -89t-75.5 -29z" />
    <glyph glyph-name="ograve" unicode="&#xf2;" horiz-adv-x="560" 
d="M300 710l60 -141h-85l-80 141h105zM298 506q51 0 93.5 -18.5t72.5 -50.5t46.5 -74.5t16.5 -90.5q0 -61 -22 -113.5t-61 -91.5t-93 -61t-117 -22q-51 0 -93.5 18.5t-72.5 50.5t-46.5 74.5t-16.5 90.5q0 61 22 113.5t61 91.5t93 61t117 22zM243 68q44 0 79.5 16.5t60 44
t37.5 63t13 74.5q0 34 -11.5 62.5t-31 49.5t-46 32.5t-55.5 11.5q-44 0 -79.5 -16.5t-60 -44t-37.5 -63t-13 -74.5q0 -34 11.5 -62.5t31 -49.5t46 -32.5t55.5 -11.5z" />
    <glyph glyph-name="oacute" unicode="&#xf3;" horiz-adv-x="560" 
d="M459 710l-112 -141h-85l92 141h105zM298 506q51 0 93.5 -18.5t72.5 -50.5t46.5 -74.5t16.5 -90.5q0 -61 -22 -113.5t-61 -91.5t-93 -61t-117 -22q-51 0 -93.5 18.5t-72.5 50.5t-46.5 74.5t-16.5 90.5q0 61 22 113.5t61 91.5t93 61t117 22zM243 68q44 0 79.5 16.5t60 44
t37.5 63t13 74.5q0 34 -11.5 62.5t-31 49.5t-46 32.5t-55.5 11.5q-44 0 -79.5 -16.5t-60 -44t-37.5 -63t-13 -74.5q0 -34 11.5 -62.5t31 -49.5t46 -32.5t55.5 -11.5z" />
    <glyph glyph-name="ocircumflex" unicode="&#xf4;" horiz-adv-x="560" 
d="M265 559h-95l146 141h80l70 -141h-83l-42 69zM298 506q51 0 93.5 -18.5t72.5 -50.5t46.5 -74.5t16.5 -90.5q0 -61 -22 -113.5t-61 -91.5t-93 -61t-117 -22q-51 0 -93.5 18.5t-72.5 50.5t-46.5 74.5t-16.5 90.5q0 61 22 113.5t61 91.5t93 61t117 22zM243 68
q44 0 79.5 16.5t60 44t37.5 63t13 74.5q0 34 -11.5 62.5t-31 49.5t-46 32.5t-55.5 11.5q-44 0 -79.5 -16.5t-60 -44t-37.5 -63t-13 -74.5q0 -34 11.5 -62.5t31 -49.5t46 -32.5t55.5 -11.5z" />
    <glyph glyph-name="otilde" unicode="&#xf5;" horiz-adv-x="560" 
d="M361 559q-29 0 -54 20q-23 20 -37 20q-27 0 -34 -31h-70q7 48 36 77.5t72 29.5q32 0 55 -20t36 -20q27 0 34 31h70q-7 -48 -35 -77.5t-73 -29.5zM298 506q51 0 93.5 -18.5t72.5 -50.5t46.5 -74.5t16.5 -90.5q0 -61 -22 -113.5t-61 -91.5t-93 -61t-117 -22
q-51 0 -93.5 18.5t-72.5 50.5t-46.5 74.5t-16.5 90.5q0 61 22 113.5t61 91.5t93 61t117 22zM243 68q44 0 79.5 16.5t60 44t37.5 63t13 74.5q0 34 -11.5 62.5t-31 49.5t-46 32.5t-55.5 11.5q-44 0 -79.5 -16.5t-60 -44t-37.5 -63t-13 -74.5q0 -34 11.5 -62.5t31 -49.5
t46 -32.5t55.5 -11.5z" />
    <glyph glyph-name="odieresis" unicode="&#xf6;" horiz-adv-x="560" 
d="M298 506q51 0 93.5 -18.5t72.5 -50.5t46.5 -74.5t16.5 -90.5q0 -61 -22 -113.5t-61 -91.5t-93 -61t-117 -22q-51 0 -93.5 18.5t-72.5 50.5t-46.5 74.5t-16.5 90.5q0 61 22 113.5t61 91.5t93 61t117 22zM243 68q44 0 79.5 16.5t60 44t37.5 63t13 74.5q0 34 -11.5 62.5
t-31 49.5t-46 32.5t-55.5 11.5q-44 0 -79.5 -16.5t-60 -44t-37.5 -63t-13 -74.5q0 -34 11.5 -62.5t31 -49.5t46 -32.5t55.5 -11.5zM415 602q-23 0 -40 17t-17 40q0 25 17 41t40 16q25 0 41 -16t16 -41q0 -23 -16 -40t-41 -17zM247 602q-23 0 -40 17t-17 40q0 25 17 41t40 16
q25 0 41 -16t16 -41q0 -23 -16 -40t-41 -17z" />
    <glyph glyph-name="divide" unicode="&#xf7;" horiz-adv-x="550" 
d="M33 233l14 76h438l-14 -76h-438zM227 20q-29 0 -48.5 19.5t-19.5 48.5t19.5 48.5t48.5 19.5t48.5 -19.5t19.5 -48.5t-19.5 -48.5t-48.5 -19.5zM291 386q-29 0 -48.5 19.5t-19.5 48.5t19.5 48.5t48.5 19.5t48.5 -19.5t19.5 -48.5t-19.5 -48.5t-48.5 -19.5z" />
    <glyph glyph-name="oslash" unicode="&#xf8;" horiz-adv-x="560" 
d="M298 506q67 0 120 -33l45 57l57 -44l-48 -59q26 -32 40.5 -71t14.5 -84q0 -61 -22 -113.5t-61 -91.5t-93 -61t-117 -22q-28 0 -52.5 5.5t-46.5 15.5l-34 -42l-58 43l32 40q-33 32 -51.5 76.5t-18.5 95.5q0 61 22 113.5t61 91.5t93 61t117 22zM99 224q0 -63 35 -104
l226 282q-32 20 -71 20q-44 0 -79.5 -16.5t-60 -44t-37.5 -63t-13 -74.5zM243 68q44 0 79.5 16.5t60 44t37.5 63t13 74.5q0 23 -6 44.5t-16 39.5l-218 -273q22 -9 50 -9z" />
    <glyph glyph-name="ugrave" unicode="&#xf9;" 
d="M292 710l60 -141h-85l-80 141h105zM348 68h-4q-25 -36 -68 -60t-98 -24q-72 0 -115.5 41t-43.5 110q0 15 1.5 34t5.5 39l50 282h92l-52 -294q-2 -10 -3 -20t-1 -20q0 -45 27.5 -66.5t73.5 -21.5q30 0 56.5 12t47 32.5t34.5 48t19 58.5l48 271h92l-86 -490h-88z" />
    <glyph glyph-name="uacute" unicode="&#xfa;" 
d="M456 710l-112 -141h-85l92 141h105zM348 68h-4q-25 -36 -68 -60t-98 -24q-72 0 -115.5 41t-43.5 110q0 15 1.5 34t5.5 39l50 282h92l-52 -294q-2 -10 -3 -20t-1 -20q0 -45 27.5 -66.5t73.5 -21.5q30 0 56.5 12t47 32.5t34.5 48t19 58.5l48 271h92l-86 -490h-88z" />
    <glyph glyph-name="ucircumflex" unicode="&#xfb;" 
d="M348 68h-4q-25 -36 -68 -60t-98 -24q-72 0 -115.5 41t-43.5 110q0 15 1.5 34t5.5 39l50 282h92l-52 -294q-2 -10 -3 -20t-1 -20q0 -45 27.5 -66.5t73.5 -21.5q30 0 56.5 12t47 32.5t34.5 48t19 58.5l48 271h92l-86 -490h-88zM169 584l124 117h80l82 -117l-1 -5h-83
l-41 60h-8l-59 -60h-95z" />
    <glyph glyph-name="udieresis" unicode="&#xfc;" 
d="M348 68h-4q-25 -36 -68 -60t-98 -24q-72 0 -115.5 41t-43.5 110q0 15 1.5 34t5.5 39l50 282h92l-52 -294q-2 -10 -3 -20t-1 -20q0 -45 27.5 -66.5t73.5 -21.5q30 0 56.5 12t47 32.5t34.5 48t19 58.5l48 271h92l-86 -490h-88zM408 602q-23 0 -40 17t-17 40q0 25 17 41
t40 16q25 0 41 -16t16 -41q0 -23 -16 -40t-41 -17zM240 602q-23 0 -40 17t-17 40q0 25 17 41t40 16q25 0 41 -16t16 -41q0 -23 -16 -40t-41 -17z" />
    <glyph glyph-name="yacute" unicode="&#xfd;" horiz-adv-x="498" 
d="M446 710l-112 -141h-85l92 141h105zM5 -216l158 247l-121 459h97l86 -353h2l205 353h102l-432 -706h-97z" />
    <glyph glyph-name="thorn" unicode="&#xfe;" horiz-adv-x="576" 
d="M349 506q43 0 80 -16t64.5 -45.5t43 -72t15.5 -95.5q0 -57 -21.5 -109.5t-59.5 -93.5t-90 -65.5t-113 -24.5q-51 0 -91 24t-61 60h-4l-8 -68l-38 -216h-92l164 932h92l-40 -226l-16 -68h4q25 34 66.5 59t104.5 25zM275 68q38 0 71.5 15.5t58 43t39 64.5t14.5 80
q0 72 -34.5 111.5t-100.5 39.5q-39 0 -73 -17.5t-58.5 -46.5t-38.5 -66.5t-14 -77.5q0 -72 39 -109t97 -37z" />
    <glyph glyph-name="ydieresis" unicode="&#xff;" horiz-adv-x="498" 
d="M5 -216l158 247l-121 459h97l86 -353h2l205 353h102l-432 -706h-97zM385 602q-23 0 -40 17t-17 40q0 25 17 41t40 16q25 0 41 -16t16 -41q0 -23 -16 -40t-41 -17zM217 602q-23 0 -40 17t-17 40q0 25 17 41t40 16q25 0 41 -16t16 -41q0 -23 -16 -40t-41 -17z" />
    <glyph glyph-name="Abreve" unicode="&#x102;" horiz-adv-x="668" 
d="M412 775q-66 0 -92.5 34t-16.5 91h76q-5 -32 9 -45.5t38 -12.5q22 -1 41.5 12.5t24.5 45.5h76q-10 -57 -50 -91t-106 -34zM345 716h104l143 -716h-99l-34 194h-301l-105 -194h-104zM442 280l-60 323h-4l-174 -323h238z" />
    <glyph glyph-name="abreve" unicode="&#x103;" horiz-adv-x="510" 
d="M328 559q-66 0 -92.5 34t-16.5 91h76q-5 -32 9 -45.5t38 -12.5q22 -1 41.5 12.5t24.5 45.5h76q-10 -57 -50 -91t-106 -34zM287 506q96 0 144 -44t48 -119q0 -12 -1.5 -25.5t-3.5 -27.5l-52 -290h-88l12 68h-4q-24 -35 -66 -59.5t-94 -24.5q-36 0 -67 10.5t-53.5 30.5
t-35.5 47.5t-13 62.5q0 42 18.5 76t50.5 57.5t75.5 36.5t94.5 13q42 0 73 -8.5t60 -21.5l4 21q2 10 2 20q0 43 -31 69t-82 26q-39 0 -69.5 -15t-59.5 -50l-72 51q35 48 89.5 72t120.5 24zM201 66q31 0 59.5 11t51 30.5t38.5 46t21 56.5q-14 10 -30 17q-16 6 -39.5 11.5
t-56.5 5.5q-25 0 -49.5 -6t-43.5 -19t-31 -32t-12 -44q0 -19 8 -33.5t20.5 -24t29 -14.5t34.5 -5z" />
    <glyph glyph-name="Dcroat" unicode="&#x110;" horiz-adv-x="691" 
d="M6 389h71l58 327h219q75 0 132.5 -24t96 -65.5t58.5 -98t20 -121.5q0 -80 -28.5 -153.5t-82.5 -130t-133 -90t-179 -33.5h-230l55 310h-71zM243 88q69 0 128 24t102.5 66.5t68 99.5t24.5 123q0 112 -59.5 169.5t-168.5 57.5h-127l-42 -239h157l-14 -79h-157l-39 -222h127
z" />
    <glyph glyph-name="dcroat" unicode="&#x111;" horiz-adv-x="576" 
d="M313 639h166l14 77h92l-14 -77h62l-12 -71h-62l-100 -568h-88l12 68h-4q-25 -34 -66.5 -59t-104.5 -25q-43 0 -80 16t-64.5 45.5t-43 72t-15.5 95.5q0 57 21.5 109.5t59.5 93.5t90 65.5t113 24.5q51 0 91 -24t61 -60h4l8 68l14 78h-166zM282 422q-38 0 -71.5 -15.5
t-58.5 -43t-39 -64.5t-14 -80q0 -72 34.5 -111.5t100.5 -39.5q39 0 73 17.5t58.5 46.5t38.5 66.5t14 77.5q0 72 -39 109t-97 37z" />
    <glyph glyph-name="Itilde" unicode="&#x128;" horiz-adv-x="236" 
d="M247 775q-29 0 -54 20q-23 20 -37 20q-27 0 -34 -31h-70q7 48 36 77.5t72 29.5q32 0 55 -20t36 -20q27 0 34 31h70q-7 -48 -35 -77.5t-73 -29.5zM135 716h92l-127 -716h-92z" />
    <glyph glyph-name="itilde" unicode="&#x129;" horiz-adv-x="220" 
d="M195 559q-27 0 -50 20q-22 20 -34 20q-24 0 -31 -31h-64q6 48 33 77.5t66 29.5q30 0 50 -20q22 -20 34 -20q24 0 31 31h64q-6 -48 -32.5 -77.5t-66.5 -29.5zM0 0l86 490h92l-86 -490h-92z" />
    <glyph glyph-name="dotlessi" unicode="&#x131;" horiz-adv-x="220" 
d="M0 0l86 490h92l-86 -490h-92z" />
    <glyph glyph-name="OE" unicode="&#x152;" horiz-adv-x="1149" 
d="M821 628l-40 -227h294l-15 -86h-294l-40 -227h326l-16 -88h-418l16 91q-55 -51 -123.5 -79t-152.5 -28q-69 0 -128.5 23.5t-104 66.5t-69.5 102.5t-25 131.5q0 82 30.5 158.5t86 135.5t134 94.5t173.5 35.5q87 0 156.5 -36t111.5 -102l22 122h418l-16 -88h-326zM367 72
q67 0 124.5 28t100.5 74t67.5 105.5t24.5 121.5q0 57 -19 102t-51.5 76.5t-76.5 48t-94 16.5q-67 0 -125 -28t-100.5 -74t-67 -105t-24.5 -122q0 -57 19 -102t51.5 -76.5t76.5 -48t94 -16.5z" />
    <glyph glyph-name="oe" unicode="&#x153;" horiz-adv-x="952" 
d="M892 116q-39 -66 -100.5 -99t-134.5 -33q-67 0 -112.5 28t-70.5 76q-38 -48 -95 -76t-129 -28q-51 0 -93.5 18.5t-72.5 50.5t-46.5 74.5t-16.5 90.5q0 61 22 113.5t61 91.5t93 61t117 22q67 0 116 -30.5t76 -81.5q36 51 91 81.5t128 30.5q50 0 88 -15.5t63.5 -43.5
t38.5 -65.5t13 -80.5q0 -37 -9 -73h-385q-1 -5 -1.5 -13.5t-0.5 -15.5q0 -33 11.5 -58t30 -41t42 -24t47.5 -8q52 0 91 23.5t65 63.5zM259 68q44 0 79.5 16.5t60 44t37.5 63t13 74.5q0 34 -11.5 62.5t-31 49.5t-46 32.5t-55.5 11.5q-44 0 -79.5 -16.5t-60 -44t-37.5 -63
t-13 -74.5q0 -34 11.5 -62.5t31 -49.5t46 -32.5t55.5 -11.5zM835 304v11q0 16 -5 35t-19 35t-38 26.5t-61 10.5q-57 0 -100 -32t-60 -86h283z" />
    <glyph glyph-name="Utilde" unicode="&#x168;" horiz-adv-x="642" 
d="M445 775q-29 0 -54 20q-23 20 -37 20q-27 0 -34 -31h-70q7 48 36 77.5t72 29.5q32 0 55 -20t36 -20q27 0 34 31h70q-7 -48 -35 -77.5t-73 -29.5zM258 -16q-44 0 -84 15t-70.5 42.5t-48.5 67.5t-18 90q0 15 1 36.5t8 61.5l74 419h92l-78 -442q-4 -22 -5 -35.5t-1 -24.5
q0 -63 35 -102.5t110 -39.5q43 0 77.5 14.5t61 40t43 60t23.5 75.5l80 454h92l-82 -465q-23 -128 -101 -197.5t-209 -69.5z" />
    <glyph glyph-name="utilde" unicode="&#x169;" 
d="M356 559q-29 0 -54 20q-23 20 -37 20q-27 0 -34 -31h-70q7 48 36 77.5t72 29.5q32 0 55 -20t36 -20q27 0 34 31h70q-7 -48 -35 -77.5t-73 -29.5zM348 68h-4q-25 -36 -68 -60t-98 -24q-72 0 -115.5 41t-43.5 110q0 15 1.5 34t5.5 39l50 282h92l-52 -294q-2 -10 -3 -20
t-1 -20q0 -45 27.5 -66.5t73.5 -21.5q30 0 56.5 12t47 32.5t34.5 48t19 58.5l48 271h92l-86 -490h-88z" />
    <glyph glyph-name="Ohorn" unicode="&#x1a0;" horiz-adv-x="810" 
d="M358 -16q-69 0 -128.5 23.5t-104 66.5t-69.5 102.5t-25 131.5q0 82 30.5 158.5t86 135.5t133.5 94.5t173 35.5q51 0 99 -14q18 -2 29.5 -3t16.5 -1h16.5t20.5 1q26 0 43 17t24 60l76 -25q-12 -63 -52 -94q-22 -18 -49 -24l7 -7q45 -43 69.5 -102.5t24.5 -131.5
q0 -82 -30.5 -158.5t-86 -135.5t-133 -94.5t-171.5 -35.5zM367 72q67 0 124.5 28t100.5 74t67.5 105.5t24.5 121.5q0 57 -19 102t-51.5 76.5t-76.5 48t-94 16.5q-67 0 -125 -28t-100.5 -74t-67 -105t-24.5 -122q0 -57 19 -102t51.5 -76.5t76.5 -48t94 -16.5z" />
    <glyph glyph-name="ohorn" unicode="&#x1a1;" horiz-adv-x="560" 
d="M298 506q41 0 80 -14q16 -2 23 -3q14 -2 37 0q26 0 43 17t24 60l76 -25q-12 -63 -52 -94q-25 -19 -53 -25q20 -24 34 -60q17 -43 17 -90q0 -61 -22 -113.5t-61 -91.5t-93 -61t-117 -22q-51 0 -93.5 18.5t-72.5 50.5t-46.5 74.5t-16.5 90.5q0 61 22 113.5t61 91.5t93 61
t117 22zM243 68q44 0 79.5 16.5t60 44t37.5 63t13 74.5q0 34 -11.5 62.5t-31 49.5t-46 32.5t-55.5 11.5q-44 0 -79.5 -16.5t-60 -44t-37.5 -63t-13 -74.5q0 -34 11.5 -62.5t31 -49.5t46 -32.5t55.5 -11.5z" />
    <glyph glyph-name="Uhorn" unicode="&#x1af;" horiz-adv-x="642" 
d="M258 -16q-44 0 -84 15t-70.5 42.5t-48.5 67.5t-18 90q0 15 1 36.5t8 61.5l74 419h92l-78 -442q-4 -22 -5 -35.5t-1 -24.5q0 -63 35 -102.5t110 -39.5q43 0 77.5 14.5t61 40t43 60t23.5 75.5l80 454h71q18 3 31 16q16 16 24 60l76 -25q-12 -63 -52 -94q-31 -25 -71 -28
l-69 -394q-23 -128 -101 -197.5t-209 -69.5z" />
    <glyph glyph-name="uhorn" unicode="&#x1b0;" 
d="M348 68h-4q-25 -36 -68 -60t-98 -24q-72 0 -115.5 41t-43.5 110q0 15 1.5 34t5.5 39l50 282h92l-52 -294q-2 -10 -3 -20t-1 -20q0 -45 27.5 -66.5t73.5 -21.5q30 0 56.5 12t47 32.5t34.5 48t19 58.5l48 271h71q18 3 31 16q16 16 24 60l76 -25q-12 -63 -52 -94
q-31 -25 -71 -28l-73 -419h-88z" />
    <glyph glyph-name="circumflex" unicode="&#x2c6;" horiz-adv-x="400" 
d="M98 599l124 117h80l82 -117l-1 -5h-83l-41 60h-8l-59 -60h-95z" />
    <glyph glyph-name="ring" unicode="&#x2da;" horiz-adv-x="400" 
d="M250 568q-22 0 -41 8t-33 22.5t-22 33.5t-8 40q0 45 29.5 74.5t74.5 29.5q21 0 40 -8t33.5 -22t22.5 -33t8 -41q0 -21 -8 -40t-22.5 -33.5t-33.5 -22.5t-40 -8zM250 627q18 0 31 13.5t13 31.5t-13 31t-31 13t-31 -13t-13 -31t13 -31.5t31 -13.5z" />
    <glyph glyph-name="tilde" unicode="&#x2dc;" horiz-adv-x="400" 
d="M315 594q-18 0 -33.5 7t-29.5 16q-15 8 -30 15t-33 7q-30 0 -39 -35h-76q8 60 38.5 89t75.5 29q18 0 34 -7t31 -15q14 -9 29 -16t32 -7q30 0 39 35h76q-8 -60 -38.5 -89t-75.5 -29z" />
    <glyph glyph-name="uni1EA0" unicode="&#x1ea0;" horiz-adv-x="668" 
d="M302 -154q0 -24 -18 -42t-44 -18q-24 0 -42 18t-18 42q0 26 18 44t42 18q26 0 44 -18t18 -44zM345 716h104l143 -716h-99l-34 194h-301l-105 -194h-104zM442 280l-60 323h-4l-174 -323h238z" />
    <glyph glyph-name="uni1EA1" unicode="&#x1ea1;" horiz-adv-x="510" 
d="M236 -154q0 -24 -18 -42t-44 -18q-24 0 -42 18t-18 42q0 26 18 44t42 18q26 0 44 -18t18 -44zM287 506q96 0 144 -44t48 -119q0 -12 -1.5 -25.5t-3.5 -27.5l-52 -290h-88l12 68h-4q-24 -35 -66 -59.5t-94 -24.5q-36 0 -67 10.5t-53.5 30.5t-35.5 47.5t-13 62.5
q0 42 18.5 76t50.5 57.5t75.5 36.5t94.5 13q42 0 73 -8.5t60 -21.5l4 21q2 10 2 20q0 43 -31 69t-82 26q-39 0 -69.5 -15t-59.5 -50l-72 51q35 48 89.5 72t120.5 24zM201 66q31 0 59.5 11t51 30.5t38.5 46t21 56.5q-14 10 -30 17q-16 6 -39.5 11.5t-56.5 5.5q-25 0 -49.5 -6
t-43.5 -19t-31 -32t-12 -44q0 -19 8 -33.5t20.5 -24t29 -14.5t34.5 -5z" />
    <glyph glyph-name="uni1EA2" unicode="&#x1ea2;" horiz-adv-x="668" 
d="M375 785q2 11 6.5 23t11.5 20q6 9 15.5 15.5t18.5 13t16 13.5t9 18q2 8 -4 15t-20 7t-23.5 -4t-23.5 -22l-54 22q20 35 48.5 50.5t66.5 15.5q48 0 69 -22t15 -57q-5 -28 -19.5 -43t-29.5 -25q-9 -8 -19.5 -16t-15.5 -24h-67zM345 716h104l143 -716h-99l-34 194h-301
l-105 -194h-104zM442 280l-60 323h-4l-174 -323h238z" />
    <glyph glyph-name="uni1EA3" unicode="&#x1ea3;" horiz-adv-x="510" 
d="M291 569q2 11 6.5 23t11.5 20q6 9 15.5 15.5t18.5 13t16 13.5t9 18q2 8 -4 15t-20 7t-23.5 -4t-23.5 -22l-54 22q20 35 48.5 50.5t66.5 15.5q48 0 69 -22t15 -57q-5 -28 -19.5 -43t-29.5 -25q-9 -8 -19.5 -16t-15.5 -24h-67zM287 506q96 0 144 -44t48 -119
q0 -12 -1.5 -25.5t-3.5 -27.5l-52 -290h-88l12 68h-4q-24 -35 -66 -59.5t-94 -24.5q-36 0 -67 10.5t-53.5 30.5t-35.5 47.5t-13 62.5q0 42 18.5 76t50.5 57.5t75.5 36.5t94.5 13q42 0 73 -8.5t60 -21.5l4 21q2 10 2 20q0 43 -31 69t-82 26q-39 0 -69.5 -15t-59.5 -50l-72 51
q35 48 89.5 72t120.5 24zM201 66q31 0 59.5 11t51 30.5t38.5 46t21 56.5q-14 10 -30 17q-16 6 -39.5 11.5t-56.5 5.5q-25 0 -49.5 -6t-43.5 -19t-31 -32t-12 -44q0 -19 8 -33.5t20.5 -24t29 -14.5t34.5 -5z" />
    <glyph glyph-name="uni1EA4" unicode="&#x1ea4;" horiz-adv-x="668" 
d="M345 716h104l143 -716h-99l-34 194h-301l-105 -194h-104zM442 280l-60 323h-4l-174 -323h238zM349 775h-95l142 126h80l74 -126h-83l-46 62zM708 990l-92 -113h-85l72 113h105z" />
    <glyph glyph-name="uni1EA5" unicode="&#x1ea5;" horiz-adv-x="510" 
d="M263 559h-95l142 126h80l74 -126h-83l-46 62zM287 506q96 0 144 -44t48 -119q0 -12 -1.5 -25.5t-3.5 -27.5l-52 -290h-88l12 68h-4q-24 -35 -66 -59.5t-94 -24.5q-36 0 -67 10.5t-53.5 30.5t-35.5 47.5t-13 62.5q0 42 18.5 76t50.5 57.5t75.5 36.5t94.5 13q42 0 73 -8.5
t60 -21.5l4 21q2 10 2 20q0 43 -31 69t-82 26q-39 0 -69.5 -15t-59.5 -50l-72 51q35 48 89.5 72t120.5 24zM201 66q31 0 59.5 11t51 30.5t38.5 46t21 56.5q-14 10 -30 17q-16 6 -39.5 11.5t-56.5 5.5q-25 0 -49.5 -6t-43.5 -19t-31 -32t-12 -44q0 -19 8 -33.5t20.5 -24
t29 -14.5t34.5 -5zM622 774l-92 -113h-85l72 113h105z" />
    <glyph glyph-name="uni1EA6" unicode="&#x1ea6;" horiz-adv-x="668" 
d="M345 716h104l143 -716h-99l-34 194h-301l-105 -194h-104zM442 280l-60 323h-4l-174 -323h238zM349 775h-95l142 126h80l74 -126h-83l-46 62zM577 990l51 -113h-85l-71 113h105z" />
    <glyph glyph-name="uni1EA7" unicode="&#x1ea7;" horiz-adv-x="510" 
d="M287 506q96 0 144 -44t48 -119q0 -12 -1.5 -25.5t-3.5 -27.5l-52 -290h-88l12 68h-4q-24 -35 -66 -59.5t-94 -24.5q-36 0 -67 10.5t-53.5 30.5t-35.5 47.5t-13 62.5q0 42 18.5 76t50.5 57.5t75.5 36.5t94.5 13q42 0 73 -8.5t60 -21.5l4 21q2 10 2 20q0 43 -31 69t-82 26
q-39 0 -69.5 -15t-59.5 -50l-72 51q35 48 89.5 72t120.5 24zM201 66q31 0 59.5 11t51 30.5t38.5 46t21 56.5q-14 10 -30 17q-16 6 -39.5 11.5t-56.5 5.5q-25 0 -49.5 -6t-43.5 -19t-31 -32t-12 -44q0 -19 8 -33.5t20.5 -24t29 -14.5t34.5 -5zM262 559h-95l142 126h80
l74 -126h-83l-46 62zM490 774l51 -113h-85l-71 113h105z" />
    <glyph glyph-name="uni1EA8" unicode="&#x1ea8;" horiz-adv-x="668" 
d="M345 716h104l143 -716h-99l-34 194h-301l-105 -194h-104zM442 280l-60 323h-4l-174 -323h238zM349 775h-95l142 126h80l74 -126h-83l-46 62zM533 867q2 9 5.5 18t10.5 16q6 7 15 12.5t18 10.5t15.5 11t8.5 14q2 15 -24 15q-6 0 -16.5 -1.5t-23.5 -16.5l-55 18
q19 28 46 40.5t64 12.5q48 0 69 -17t16 -46q-5 -23 -18.5 -35t-26.5 -19q-10 -7 -20.5 -13.5t-14.5 -19.5h-69z" />
    <glyph glyph-name="uni1EA9" unicode="&#x1ea9;" horiz-adv-x="510" 
d="M287 506q96 0 144 -44t48 -119q0 -12 -1.5 -25.5t-3.5 -27.5l-52 -290h-88l12 68h-4q-24 -35 -66 -59.5t-94 -24.5q-36 0 -67 10.5t-53.5 30.5t-35.5 47.5t-13 62.5q0 42 18.5 76t50.5 57.5t75.5 36.5t94.5 13q42 0 73 -8.5t60 -21.5l4 21q2 10 2 20q0 43 -31 69t-82 26
q-39 0 -69.5 -15t-59.5 -50l-72 51q35 48 89.5 72t120.5 24zM201 66q31 0 59.5 11t51 30.5t38.5 46t21 56.5q-14 10 -30 17q-16 6 -39.5 11.5t-56.5 5.5q-25 0 -49.5 -6t-43.5 -19t-31 -32t-12 -44q0 -19 8 -33.5t20.5 -24t29 -14.5t34.5 -5zM262 559h-95l142 126h80
l74 -126h-83l-46 62zM446 651q2 9 5.5 18t10.5 16q6 7 15 12.5t18 10.5t15.5 11t8.5 14q2 15 -24 15q-6 0 -16.5 -1.5t-23.5 -16.5l-55 18q19 28 46 40.5t64 12.5q48 0 69 -17t16 -46q-5 -23 -18.5 -35t-26.5 -19q-10 -7 -20.5 -13.5t-14.5 -19.5h-69z" />
    <glyph glyph-name="uni1EAA" unicode="&#x1eaa;" horiz-adv-x="668" 
d="M345 716h104l143 -716h-99l-34 194h-301l-105 -194h-104zM442 280l-60 323h-4l-174 -323h238zM349 775h-95l141 116h80l75 -116h-83l-45 57zM494 920q-30 0 -53 16q-23 17 -36 17q-27 0 -34 -25h-69q7 40 35.5 66t71.5 26q31 0 54 -17q22 -16 35 -16q27 0 34 25h69
q-7 -40 -34.5 -66t-72.5 -26z" />
    <glyph glyph-name="uni1EAB" unicode="&#x1eab;" horiz-adv-x="510" 
d="M287 506q96 0 144 -44t48 -119q0 -12 -1.5 -25.5t-3.5 -27.5l-52 -290h-88l12 68h-4q-24 -35 -66 -59.5t-94 -24.5q-36 0 -67 10.5t-53.5 30.5t-35.5 47.5t-13 62.5q0 42 18.5 76t50.5 57.5t75.5 36.5t94.5 13q42 0 73 -8.5t60 -21.5l4 21q2 10 2 20q0 43 -31 69t-82 26
q-39 0 -69.5 -15t-59.5 -50l-72 51q35 48 89.5 72t120.5 24zM201 66q31 0 59.5 11t51 30.5t38.5 46t21 56.5q-14 10 -30 17q-16 6 -39.5 11.5t-56.5 5.5q-25 0 -49.5 -6t-43.5 -19t-31 -32t-12 -44q0 -19 8 -33.5t20.5 -24t29 -14.5t34.5 -5zM262 559h-95l141 116h80
l75 -116h-83l-45 57zM407 704q-30 0 -53 16q-23 17 -36 17q-27 0 -34 -25h-69q7 40 35.5 66t71.5 26q31 0 54 -17q22 -16 35 -16q27 0 34 25h69q-7 -40 -34.5 -66t-72.5 -26z" />
    <glyph glyph-name="uni1EAC" unicode="&#x1eac;" horiz-adv-x="668" 
d="M302 -154q0 -24 -18 -42t-44 -18q-24 0 -42 18t-18 42q0 26 18 44t42 18q26 0 44 -18t18 -44zM349 775h-95l146 141h80l70 -141h-83l-42 69zM345 716h104l143 -716h-99l-34 194h-301l-105 -194h-104zM442 280l-60 323h-4l-174 -323h238z" />
    <glyph glyph-name="uni1EAD" unicode="&#x1ead;" horiz-adv-x="510" 
d="M236 -154q0 -24 -18 -42t-44 -18q-24 0 -42 18t-18 42q0 26 18 44t42 18q26 0 44 -18t18 -44zM287 506q96 0 144 -44t48 -119q0 -12 -1.5 -25.5t-3.5 -27.5l-52 -290h-88l12 68h-4q-24 -35 -66 -59.5t-94 -24.5q-36 0 -67 10.5t-53.5 30.5t-35.5 47.5t-13 62.5
q0 42 18.5 76t50.5 57.5t75.5 36.5t94.5 13q42 0 73 -8.5t60 -21.5l4 21q2 10 2 20q0 43 -31 69t-82 26q-39 0 -69.5 -15t-59.5 -50l-72 51q35 48 89.5 72t120.5 24zM201 66q31 0 59.5 11t51 30.5t38.5 46t21 56.5q-14 10 -30 17q-16 6 -39.5 11.5t-56.5 5.5q-25 0 -49.5 -6
t-43.5 -19t-31 -32t-12 -44q0 -19 8 -33.5t20.5 -24t29 -14.5t34.5 -5zM262 559h-95l146 141h80l70 -141h-83l-42 69z" />
    <glyph glyph-name="uni1EAE" unicode="&#x1eae;" horiz-adv-x="668" 
d="M401 775q-66 0 -93 30t-17 78h76q-5 -28 9 -39.5t38 -10.5q22 -1 41.5 10.5t24.5 39.5h76q-10 -48 -49.5 -78t-105.5 -30zM345 716h104l143 -716h-99l-34 194h-301l-105 -194h-104zM442 280l-60 323h-4l-174 -323h238zM556 1022l-92 -113h-85l72 113h105z" />
    <glyph glyph-name="uni1EAF" unicode="&#x1eaf;" horiz-adv-x="510" 
d="M287 506q96 0 144 -44t48 -119q0 -12 -1.5 -25.5t-3.5 -27.5l-52 -290h-88l12 68h-4q-24 -35 -66 -59.5t-94 -24.5q-36 0 -67 10.5t-53.5 30.5t-35.5 47.5t-13 62.5q0 42 18.5 76t50.5 57.5t75.5 36.5t94.5 13q42 0 73 -8.5t60 -21.5l4 21q2 10 2 20q0 43 -31 69t-82 26
q-39 0 -69.5 -15t-59.5 -50l-72 51q35 48 89.5 72t120.5 24zM201 66q31 0 59.5 11t51 30.5t38.5 46t21 56.5q-14 10 -30 17q-16 6 -39.5 11.5t-56.5 5.5q-25 0 -49.5 -6t-43.5 -19t-31 -32t-12 -44q0 -19 8 -33.5t20.5 -24t29 -14.5t34.5 -5zM323 559q-66 0 -93 30t-17 78
h76q-5 -28 9 -39.5t38 -10.5q22 -1 41.5 10.5t24.5 39.5h76q-10 -48 -49.5 -78t-105.5 -30zM478 806l-92 -113h-85l72 113h105z" />
    <glyph glyph-name="uni1EB0" unicode="&#x1eb0;" horiz-adv-x="668" 
d="M401 775q-66 0 -93 30t-17 78h76q-5 -28 9 -39.5t38 -10.5q22 -1 41.5 10.5t24.5 39.5h76q-10 -48 -49.5 -78t-105.5 -30zM345 716h104l143 -716h-99l-34 194h-301l-105 -194h-104zM442 280l-60 323h-4l-174 -323h238zM421 1022l51 -113h-85l-71 113h105z" />
    <glyph glyph-name="uni1EB1" unicode="&#x1eb1;" horiz-adv-x="510" 
d="M287 506q96 0 144 -44t48 -119q0 -12 -1.5 -25.5t-3.5 -27.5l-52 -290h-88l12 68h-4q-24 -35 -66 -59.5t-94 -24.5q-36 0 -67 10.5t-53.5 30.5t-35.5 47.5t-13 62.5q0 42 18.5 76t50.5 57.5t75.5 36.5t94.5 13q42 0 73 -8.5t60 -21.5l4 21q2 10 2 20q0 43 -31 69t-82 26
q-39 0 -69.5 -15t-59.5 -50l-72 51q35 48 89.5 72t120.5 24zM201 66q31 0 59.5 11t51 30.5t38.5 46t21 56.5q-14 10 -30 17q-16 6 -39.5 11.5t-56.5 5.5q-25 0 -49.5 -6t-43.5 -19t-31 -32t-12 -44q0 -19 8 -33.5t20.5 -24t29 -14.5t34.5 -5zM323 559q-66 0 -93 30t-17 78
h76q-5 -28 9 -39.5t38 -10.5q22 -1 41.5 10.5t24.5 39.5h76q-10 -48 -49.5 -78t-105.5 -30zM343 806l51 -113h-85l-71 113h105z" />
    <glyph glyph-name="uni1EB2" unicode="&#x1eb2;" horiz-adv-x="668" 
d="M401 775q-66 0 -94 28.5t-18 74.5h76q-5 -27 9 -38t38 -10q22 -1 41.5 10t24.5 38h76q-10 -46 -48.5 -74.5t-104.5 -28.5zM345 716h104l143 -716h-99l-34 194h-301l-105 -194h-104zM442 280l-60 323h-4l-174 -323h238zM389 890q2 8 5.5 16.5t10.5 14.5q6 6 15 11l18 10
t15.5 10.5t8.5 12.5q2 14 -24 14q-6 0 -16.5 -1.5t-23.5 -15.5l-55 17q36 48 110 48q48 0 69 -16t16 -42q-5 -20 -18.5 -31.5t-26.5 -17.5q-10 -6 -20.5 -12t-14.5 -18h-69z" />
    <glyph glyph-name="uni1EB3" unicode="&#x1eb3;" horiz-adv-x="510" 
d="M287 506q96 0 144 -44t48 -119q0 -12 -1.5 -25.5t-3.5 -27.5l-52 -290h-88l12 68h-4q-24 -35 -66 -59.5t-94 -24.5q-36 0 -67 10.5t-53.5 30.5t-35.5 47.5t-13 62.5q0 42 18.5 76t50.5 57.5t75.5 36.5t94.5 13q42 0 73 -8.5t60 -21.5l4 21q2 10 2 20q0 43 -31 69t-82 26
q-39 0 -69.5 -15t-59.5 -50l-72 51q35 48 89.5 72t120.5 24zM201 66q31 0 59.5 11t51 30.5t38.5 46t21 56.5q-14 10 -30 17q-16 6 -39.5 11.5t-56.5 5.5q-25 0 -49.5 -6t-43.5 -19t-31 -32t-12 -44q0 -19 8 -33.5t20.5 -24t29 -14.5t34.5 -5zM324 559q-66 0 -94 28.5
t-18 74.5h76q-5 -27 9 -38t38 -10q22 -1 41.5 10t24.5 38h76q-10 -46 -48.5 -74.5t-104.5 -28.5zM312 674q2 8 5.5 16.5t10.5 14.5q6 6 15 11l18 10t15.5 10.5t8.5 12.5q2 14 -24 14q-6 0 -16.5 -1.5t-23.5 -15.5l-55 17q36 48 110 48q48 0 69 -16t16 -42
q-5 -20 -18.5 -31.5t-26.5 -17.5q-10 -6 -20.5 -12t-14.5 -18h-69z" />
    <glyph glyph-name="uni1EB4" unicode="&#x1eb4;" horiz-adv-x="668" 
d="M401 775q-66 0 -93 30t-17 78h76q-5 -28 9 -39.5t38 -10.5q22 -1 41.5 10.5t24.5 39.5h76q-10 -48 -49.5 -78t-105.5 -30zM345 716h104l143 -716h-99l-34 194h-301l-105 -194h-104zM442 280l-60 323h-4l-174 -323h238zM479 906q-29 0 -51 16q-23 17 -35 17q-24 0 -32 -26
h-66q7 40 33.5 64.5t68.5 24.5q30 0 52 -17q20 -16 34 -16q24 0 32 26h66q-7 -40 -33.5 -64.5t-68.5 -24.5z" />
    <glyph glyph-name="uni1EB5" unicode="&#x1eb5;" horiz-adv-x="510" 
d="M287 506q96 0 144 -44t48 -119q0 -12 -1.5 -25.5t-3.5 -27.5l-52 -290h-88l12 68h-4q-24 -35 -66 -59.5t-94 -24.5q-36 0 -67 10.5t-53.5 30.5t-35.5 47.5t-13 62.5q0 42 18.5 76t50.5 57.5t75.5 36.5t94.5 13q42 0 73 -8.5t60 -21.5l4 21q2 10 2 20q0 43 -31 69t-82 26
q-39 0 -69.5 -15t-59.5 -50l-72 51q35 48 89.5 72t120.5 24zM201 66q31 0 59.5 11t51 30.5t38.5 46t21 56.5q-14 10 -30 17q-16 6 -39.5 11.5t-56.5 5.5q-25 0 -49.5 -6t-43.5 -19t-31 -32t-12 -44q0 -19 8 -33.5t20.5 -24t29 -14.5t34.5 -5zM323 559q-66 0 -93 30t-17 78
h76q-5 -28 9 -39.5t38 -10.5q22 -1 41.5 10.5t24.5 39.5h76q-10 -48 -49.5 -78t-105.5 -30zM401 690q-29 0 -51 16q-23 17 -35 17q-24 0 -32 -26h-66q7 40 33.5 64.5t68.5 24.5q30 0 52 -17q20 -16 34 -16q24 0 32 26h66q-7 -40 -33.5 -64.5t-68.5 -24.5z" />
    <glyph glyph-name="uni1EB6" unicode="&#x1eb6;" horiz-adv-x="668" 
d="M302 -154q0 -24 -18 -42t-44 -18q-24 0 -42 18t-18 42q0 26 18 44t42 18q26 0 44 -18t18 -44zM412 775q-66 0 -92.5 34t-16.5 91h76q-5 -32 9 -45.5t38 -12.5q22 -1 41.5 12.5t24.5 45.5h76q-10 -57 -50 -91t-106 -34zM345 716h104l143 -716h-99l-34 194h-301l-105 -194
h-104zM442 280l-60 323h-4l-174 -323h238z" />
    <glyph glyph-name="uni1EB7" unicode="&#x1eb7;" horiz-adv-x="510" 
d="M236 -154q0 -24 -18 -42t-44 -18q-24 0 -42 18t-18 42q0 26 18 44t42 18q26 0 44 -18t18 -44zM328 559q-66 0 -92.5 34t-16.5 91h76q-5 -32 9 -45.5t38 -12.5q22 -1 41.5 12.5t24.5 45.5h76q-10 -57 -50 -91t-106 -34zM287 506q96 0 144 -44t48 -119q0 -12 -1.5 -25.5
t-3.5 -27.5l-52 -290h-88l12 68h-4q-24 -35 -66 -59.5t-94 -24.5q-36 0 -67 10.5t-53.5 30.5t-35.5 47.5t-13 62.5q0 42 18.5 76t50.5 57.5t75.5 36.5t94.5 13q42 0 73 -8.5t60 -21.5l4 21q2 10 2 20q0 43 -31 69t-82 26q-39 0 -69.5 -15t-59.5 -50l-72 51q35 48 89.5 72
t120.5 24zM201 66q31 0 59.5 11t51 30.5t38.5 46t21 56.5q-14 10 -30 17q-16 6 -39.5 11.5t-56.5 5.5q-25 0 -49.5 -6t-43.5 -19t-31 -32t-12 -44q0 -19 8 -33.5t20.5 -24t29 -14.5t34.5 -5z" />
    <glyph glyph-name="uni1EB8" unicode="&#x1eb8;" 
d="M247 -154q0 -24 -18 -42t-44 -18q-24 0 -42 18t-18 42q0 26 18 44t42 18q26 0 44 -18t18 -44zM211 628l-40 -227h294l-15 -86h-294l-40 -227h326l-16 -88h-418l127 716h418l-16 -88h-326z" />
    <glyph glyph-name="uni1EB9" unicode="&#x1eb9;" horiz-adv-x="536" 
d="M253 -154q0 -24 -18 -42t-44 -18q-24 0 -42 18t-18 42q0 26 18 44t42 18q26 0 44 -18t18 -44zM459 116q-39 -66 -100 -99t-131 -33q-54 0 -95.5 18t-70 48.5t-43 71t-14.5 86.5q0 57 19.5 110.5t56.5 95.5t89.5 67t117.5 25q51 0 90 -16t65 -44t39 -65t13 -80
q0 -18 -2 -38t-7 -35h-386q-1 -5 -1 -9v-7v-13q0 -33 11.5 -58t30.5 -41t43 -24t49 -8q51 0 90 24t65 64zM402 304v11q0 21 -7.5 40.5t-23 34t-38.5 23.5t-54 9q-60 0 -102.5 -32t-59.5 -86h285z" />
    <glyph glyph-name="uni1EBA" unicode="&#x1eba;" 
d="M326 785q2 11 6.5 23t11.5 20q6 9 15.5 15.5t18.5 13t16 13.5t9 18q2 8 -4 15t-20 7t-23.5 -4t-23.5 -22l-54 22q20 35 48.5 50.5t66.5 15.5q48 0 69 -22t15 -57q-5 -28 -19.5 -43t-29.5 -25q-9 -8 -19.5 -16t-15.5 -24h-67zM211 628l-40 -227h294l-15 -86h-294l-40 -227
h326l-16 -88h-418l127 716h418l-16 -88h-326z" />
    <glyph glyph-name="uni1EBB" unicode="&#x1ebb;" horiz-adv-x="536" 
d="M279 569q2 11 6.5 23t11.5 20q6 9 15.5 15.5t18.5 13t16 13.5t9 18q2 8 -4 15t-20 7t-23.5 -4t-23.5 -22l-54 22q20 35 48.5 50.5t66.5 15.5q48 0 69 -22t15 -57q-5 -28 -19.5 -43t-29.5 -25q-9 -8 -19.5 -16t-15.5 -24h-67zM459 116q-39 -66 -100 -99t-131 -33
q-54 0 -95.5 18t-70 48.5t-43 71t-14.5 86.5q0 57 19.5 110.5t56.5 95.5t89.5 67t117.5 25q51 0 90 -16t65 -44t39 -65t13 -80q0 -18 -2 -38t-7 -35h-386q-1 -5 -1 -9v-7v-13q0 -33 11.5 -58t30.5 -41t43 -24t49 -8q51 0 90 24t65 64zM402 304v11q0 21 -7.5 40.5t-23 34
t-38.5 23.5t-54 9q-60 0 -102.5 -32t-59.5 -86h285z" />
    <glyph glyph-name="uni1EBC" unicode="&#x1ebc;" 
d="M411 775q-29 0 -54 20q-23 20 -37 20q-27 0 -34 -31h-70q7 48 36 77.5t72 29.5q32 0 55 -20t36 -20q27 0 34 31h70q-7 -48 -35 -77.5t-73 -29.5zM211 628l-40 -227h294l-15 -86h-294l-40 -227h326l-16 -88h-418l127 716h418l-16 -88h-326z" />
    <glyph glyph-name="uni1EBD" unicode="&#x1ebd;" horiz-adv-x="536" 
d="M361 559q-29 0 -54 20q-23 20 -37 20q-27 0 -34 -31h-70q7 48 36 77.5t72 29.5q32 0 55 -20t36 -20q27 0 34 31h70q-7 -48 -35 -77.5t-73 -29.5zM459 116q-39 -66 -100 -99t-131 -33q-54 0 -95.5 18t-70 48.5t-43 71t-14.5 86.5q0 57 19.5 110.5t56.5 95.5t89.5 67
t117.5 25q51 0 90 -16t65 -44t39 -65t13 -80q0 -18 -2 -38t-7 -35h-386q-1 -5 -1 -9v-7v-13q0 -33 11.5 -58t30.5 -41t43 -24t49 -8q51 0 90 24t65 64zM402 304v11q0 21 -7.5 40.5t-23 34t-38.5 23.5t-54 9q-60 0 -102.5 -32t-59.5 -86h285z" />
    <glyph glyph-name="uni1EBE" unicode="&#x1ebe;" 
d="M296 775h-95l142 126h80l74 -126h-83l-46 62zM211 628l-40 -227h294l-15 -86h-294l-40 -227h326l-16 -88h-418l127 716h418l-16 -88h-326zM655 990l-92 -113h-85l72 113h105z" />
    <glyph glyph-name="uni1EBF" unicode="&#x1ebf;" horiz-adv-x="536" 
d="M252 559h-95l142 126h80l74 -126h-83l-46 62zM459 116q-39 -66 -100 -99t-131 -33q-54 0 -95.5 18t-70 48.5t-43 71t-14.5 86.5q0 57 19.5 110.5t56.5 95.5t89.5 67t117.5 25q51 0 90 -16t65 -44t39 -65t13 -80q0 -18 -2 -38t-7 -35h-386q-1 -5 -1 -9v-7v-13
q0 -33 11.5 -58t30.5 -41t43 -24t49 -8q51 0 90 24t65 64zM402 304v11q0 21 -7.5 40.5t-23 34t-38.5 23.5t-54 9q-60 0 -102.5 -32t-59.5 -86h285zM611 774l-92 -113h-85l72 113h105z" />
    <glyph glyph-name="uni1EC0" unicode="&#x1ec0;" 
d="M211 628l-40 -227h294l-15 -86h-294l-40 -227h326l-16 -88h-418l127 716h418l-16 -88h-326zM296 775h-95l142 126h80l74 -126h-83l-46 62zM524 990l51 -113h-85l-71 113h105z" />
    <glyph glyph-name="uni1EC1" unicode="&#x1ec1;" horiz-adv-x="536" 
d="M252 559h-95l142 126h80l74 -126h-83l-46 62zM459 116q-39 -66 -100 -99t-131 -33q-54 0 -95.5 18t-70 48.5t-43 71t-14.5 86.5q0 57 19.5 110.5t56.5 95.5t89.5 67t117.5 25q51 0 90 -16t65 -44t39 -65t13 -80q0 -18 -2 -38t-7 -35h-386q-1 -5 -1 -9v-7v-13
q0 -33 11.5 -58t30.5 -41t43 -24t49 -8q51 0 90 24t65 64zM402 304v11q0 21 -7.5 40.5t-23 34t-38.5 23.5t-54 9q-60 0 -102.5 -32t-59.5 -86h285zM480 774l51 -113h-85l-71 113h105z" />
    <glyph glyph-name="uni1EC2" unicode="&#x1ec2;" 
d="M480 867q2 9 5.5 18t10.5 16q6 7 15 12.5t18 10.5t15.5 11t8.5 14q2 15 -24 15q-6 0 -16.5 -1.5t-23.5 -16.5l-55 18q19 28 46 40.5t64 12.5q48 0 69 -17t16 -46q-5 -23 -18.5 -35t-26.5 -19q-10 -7 -20.5 -13.5t-14.5 -19.5h-69zM211 628l-40 -227h294l-15 -86h-294
l-40 -227h326l-16 -88h-418l127 716h418l-16 -88h-326zM296 775h-95l142 126h80l74 -126h-83l-46 62z" />
    <glyph glyph-name="uni1EC3" unicode="&#x1ec3;" horiz-adv-x="536" 
d="M459 116q-39 -66 -100 -99t-131 -33q-54 0 -95.5 18t-70 48.5t-43 71t-14.5 86.5q0 57 19.5 110.5t56.5 95.5t89.5 67t117.5 25q51 0 90 -16t65 -44t39 -65t13 -80q0 -18 -2 -38t-7 -35h-386q-1 -5 -1 -9v-7v-13q0 -33 11.5 -58t30.5 -41t43 -24t49 -8q51 0 90 24t65 64z
M402 304v11q0 21 -7.5 40.5t-23 34t-38.5 23.5t-54 9q-60 0 -102.5 -32t-59.5 -86h285zM252 559h-95l142 126h80l74 -126h-83l-46 62zM436 651q2 9 5.5 18t10.5 16q6 7 15 12.5t18 10.5t15.5 11t8.5 14q2 15 -24 15q-6 0 -16.5 -1.5t-23.5 -16.5l-55 18q19 28 46 40.5
t64 12.5q48 0 69 -17t16 -46q-5 -23 -18.5 -35t-26.5 -19q-10 -7 -20.5 -13.5t-14.5 -19.5h-69z" />
    <glyph glyph-name="uni1EC4" unicode="&#x1ec4;" 
d="M211 628l-40 -227h294l-15 -86h-294l-40 -227h326l-16 -88h-418l127 716h418l-16 -88h-326zM296 775h-95l141 116h80l75 -116h-83l-45 57zM441 920q-30 0 -53 16q-23 17 -36 17q-27 0 -34 -25h-69q7 40 35.5 66t71.5 26q31 0 54 -17q22 -16 35 -16q27 0 34 25h69
q-7 -40 -34.5 -66t-72.5 -26z" />
    <glyph glyph-name="uni1EC5" unicode="&#x1ec5;" horiz-adv-x="536" 
d="M459 116q-39 -66 -100 -99t-131 -33q-54 0 -95.5 18t-70 48.5t-43 71t-14.5 86.5q0 57 19.5 110.5t56.5 95.5t89.5 67t117.5 25q51 0 90 -16t65 -44t39 -65t13 -80q0 -18 -2 -38t-7 -35h-386q-1 -5 -1 -9v-7v-13q0 -33 11.5 -58t30.5 -41t43 -24t49 -8q51 0 90 24t65 64z
M402 304v11q0 21 -7.5 40.5t-23 34t-38.5 23.5t-54 9q-60 0 -102.5 -32t-59.5 -86h285zM252 559h-95l141 116h80l75 -116h-83l-45 57zM397 704q-30 0 -53 16q-23 17 -36 17q-27 0 -34 -25h-69q7 40 35.5 66t71.5 26q31 0 54 -17q22 -16 35 -16q27 0 34 25h69
q-7 -40 -34.5 -66t-72.5 -26z" />
    <glyph glyph-name="uni1EC6" unicode="&#x1ec6;" 
d="M247 -154q0 -24 -18 -42t-44 -18q-24 0 -42 18t-18 42q0 26 18 44t42 18q26 0 44 -18t18 -44zM297 775h-95l146 141h80l70 -141h-83l-42 69zM211 628l-40 -227h294l-15 -86h-294l-40 -227h326l-16 -88h-418l127 716h418l-16 -88h-326z" />
    <glyph glyph-name="uni1EC7" unicode="&#x1ec7;" horiz-adv-x="536" 
d="M253 -154q0 -24 -18 -42t-44 -18q-24 0 -42 18t-18 42q0 26 18 44t42 18q26 0 44 -18t18 -44zM459 116q-39 -66 -100 -99t-131 -33q-54 0 -95.5 18t-70 48.5t-43 71t-14.5 86.5q0 57 19.5 110.5t56.5 95.5t89.5 67t117.5 25q51 0 90 -16t65 -44t39 -65t13 -80
q0 -18 -2 -38t-7 -35h-386q-1 -5 -1 -9v-7v-13q0 -33 11.5 -58t30.5 -41t43 -24t49 -8q51 0 90 24t65 64zM402 304v11q0 21 -7.5 40.5t-23 34t-38.5 23.5t-54 9q-60 0 -102.5 -32t-59.5 -86h285zM252 559h-95l146 141h80l70 -141h-83l-42 69z" />
    <glyph glyph-name="uni1EC8" unicode="&#x1ec8;" horiz-adv-x="236" 
d="M159 785q2 11 6.5 23t11.5 20q6 9 15.5 15.5t18.5 13t16 13.5t9 18q2 8 -4 15t-20 7t-23.5 -4t-23.5 -22l-54 22q20 35 48.5 50.5t66.5 15.5q48 0 69 -22t15 -57q-5 -28 -19.5 -43t-29.5 -25q-9 -8 -19.5 -16t-15.5 -24h-67zM135 716h92l-127 -716h-92z" />
    <glyph glyph-name="uni1EC9" unicode="&#x1ec9;" horiz-adv-x="220" 
d="M111 569q2 11 6.5 23t11.5 20q6 9 15.5 15.5t18.5 13t16 13.5t9 18q2 8 -4 15t-20 7t-23.5 -4t-23.5 -22l-54 22q20 35 48.5 50.5t66.5 15.5q48 0 69 -22t15 -57q-5 -28 -19.5 -43t-29.5 -25q-9 -8 -19.5 -16t-15.5 -24h-67zM0 0l86 490h92l-86 -490h-92z" />
    <glyph glyph-name="uni1ECA" unicode="&#x1eca;" horiz-adv-x="236" 
d="M94 -154q0 -24 -18 -42t-44 -18q-24 0 -42 18t-18 42q0 26 18 44t42 18q26 0 44 -18t18 -44zM135 716h92l-127 -716h-92z" />
    <glyph glyph-name="uni1ECB" unicode="&#x1ecb;" horiz-adv-x="220" 
d="M88 -154q0 -24 -18 -42t-44 -18q-24 0 -42 18t-18 42q0 26 18 44t42 18q26 0 44 -18t18 -44zM0 0l86 490h92l-86 -490h-92zM215 634q0 -24 -18 -42t-44 -18q-24 0 -42 18t-18 42q0 26 18 44t42 18q26 0 44 -18t18 -44z" />
    <glyph glyph-name="uni1ECC" unicode="&#x1ecc;" horiz-adv-x="810" 
d="M358 -154q0 -24 -18 -42t-44 -18q-24 0 -42 18t-18 42q0 26 18 44t42 18q26 0 44 -18t18 -44zM358 -16q-69 0 -128.5 23.5t-104 66.5t-69.5 102.5t-25 131.5q0 82 30.5 158.5t86 135.5t133.5 94.5t173 35.5q68 0 127.5 -23.5t103.5 -66.5t69 -102.5t25 -131.5
q0 -82 -30.5 -158.5t-86 -135.5t-133 -94.5t-171.5 -35.5zM367 72q67 0 124.5 28t100.5 74t67.5 105.5t24.5 121.5q0 57 -19 102t-51.5 76.5t-76.5 48t-94 16.5q-67 0 -125 -28t-100.5 -74t-67 -105t-24.5 -122q0 -57 19 -102t51.5 -76.5t76.5 -48t94 -16.5z" />
    <glyph glyph-name="uni1ECD" unicode="&#x1ecd;" horiz-adv-x="560" 
d="M243 -154q0 -24 -18 -42t-44 -18q-24 0 -42 18t-18 42q0 26 18 44t42 18q26 0 44 -18t18 -44zM298 506q51 0 93.5 -18.5t72.5 -50.5t46.5 -74.5t16.5 -90.5q0 -61 -22 -113.5t-61 -91.5t-93 -61t-117 -22q-51 0 -93.5 18.5t-72.5 50.5t-46.5 74.5t-16.5 90.5
q0 61 22 113.5t61 91.5t93 61t117 22zM243 68q44 0 79.5 16.5t60 44t37.5 63t13 74.5q0 34 -11.5 62.5t-31 49.5t-46 32.5t-55.5 11.5q-44 0 -79.5 -16.5t-60 -44t-37.5 -63t-13 -74.5q0 -34 11.5 -62.5t31 -49.5t46 -32.5t55.5 -11.5z" />
    <glyph glyph-name="uni1ECE" unicode="&#x1ece;" horiz-adv-x="810" 
d="M454 785q2 11 6.5 23t11.5 20q6 9 15.5 15.5t18.5 13t16 13.5t9 18q2 8 -4 15t-20 7t-23.5 -4t-23.5 -22l-54 22q20 35 48.5 50.5t66.5 15.5q48 0 69 -22t15 -57q-5 -28 -19.5 -43t-29.5 -25q-9 -8 -19.5 -16t-15.5 -24h-67zM358 -16q-69 0 -128.5 23.5t-104 66.5
t-69.5 102.5t-25 131.5q0 82 30.5 158.5t86 135.5t133.5 94.5t173 35.5q68 0 127.5 -23.5t103.5 -66.5t69 -102.5t25 -131.5q0 -82 -30.5 -158.5t-86 -135.5t-133 -94.5t-171.5 -35.5zM367 72q67 0 124.5 28t100.5 74t67.5 105.5t24.5 121.5q0 57 -19 102t-51.5 76.5
t-76.5 48t-94 16.5q-67 0 -125 -28t-100.5 -74t-67 -105t-24.5 -122q0 -57 19 -102t51.5 -76.5t76.5 -48t94 -16.5z" />
    <glyph glyph-name="uni1ECF" unicode="&#x1ecf;" horiz-adv-x="560" 
d="M283 569q2 11 6.5 23t11.5 20q6 9 15.5 15.5t18.5 13t16 13.5t9 18q2 8 -4 15t-20 7t-23.5 -4t-23.5 -22l-54 22q20 35 48.5 50.5t66.5 15.5q48 0 69 -22t15 -57q-5 -28 -19.5 -43t-29.5 -25q-9 -8 -19.5 -16t-15.5 -24h-67zM298 506q51 0 93.5 -18.5t72.5 -50.5
t46.5 -74.5t16.5 -90.5q0 -61 -22 -113.5t-61 -91.5t-93 -61t-117 -22q-51 0 -93.5 18.5t-72.5 50.5t-46.5 74.5t-16.5 90.5q0 61 22 113.5t61 91.5t93 61t117 22zM243 68q44 0 79.5 16.5t60 44t37.5 63t13 74.5q0 34 -11.5 62.5t-31 49.5t-46 32.5t-55.5 11.5
q-44 0 -79.5 -16.5t-60 -44t-37.5 -63t-13 -74.5q0 -34 11.5 -62.5t31 -49.5t46 -32.5t55.5 -11.5z" />
    <glyph glyph-name="uni1ED0" unicode="&#x1ed0;" horiz-adv-x="810" 
d="M432 775h-95l142 126h80l74 -126h-83l-46 62zM358 -16q-69 0 -128.5 23.5t-104 66.5t-69.5 102.5t-25 131.5q0 82 30.5 158.5t86 135.5t133.5 94.5t173 35.5q68 0 127.5 -23.5t103.5 -66.5t69 -102.5t25 -131.5q0 -82 -30.5 -158.5t-86 -135.5t-133 -94.5t-171.5 -35.5z
M367 72q67 0 124.5 28t100.5 74t67.5 105.5t24.5 121.5q0 57 -19 102t-51.5 76.5t-76.5 48t-94 16.5q-67 0 -125 -28t-100.5 -74t-67 -105t-24.5 -122q0 -57 19 -102t51.5 -76.5t76.5 -48t94 -16.5zM791 990l-92 -113h-85l72 113h105z" />
    <glyph glyph-name="uni1ED1" unicode="&#x1ed1;" horiz-adv-x="560" 
d="M268 560h-95l142 126h80l74 -126h-83l-46 62zM298 506q51 0 93.5 -18.5t72.5 -50.5t46.5 -74.5t16.5 -90.5q0 -61 -22 -113.5t-61 -91.5t-93 -61t-117 -22q-51 0 -93.5 18.5t-72.5 50.5t-46.5 74.5t-16.5 90.5q0 61 22 113.5t61 91.5t93 61t117 22zM243 68
q44 0 79.5 16.5t60 44t37.5 63t13 74.5q0 34 -11.5 62.5t-31 49.5t-46 32.5t-55.5 11.5q-44 0 -79.5 -16.5t-60 -44t-37.5 -63t-13 -74.5q0 -34 11.5 -62.5t31 -49.5t46 -32.5t55.5 -11.5zM624 774l-92 -113h-85l72 113h105z" />
    <glyph glyph-name="uni1ED2" unicode="&#x1ed2;" horiz-adv-x="810" 
d="M432 775h-95l142 126h80l74 -126h-83l-46 62zM358 -16q-69 0 -128.5 23.5t-104 66.5t-69.5 102.5t-25 131.5q0 82 30.5 158.5t86 135.5t133.5 94.5t173 35.5q68 0 127.5 -23.5t103.5 -66.5t69 -102.5t25 -131.5q0 -82 -30.5 -158.5t-86 -135.5t-133 -94.5t-171.5 -35.5z
M367 72q67 0 124.5 28t100.5 74t67.5 105.5t24.5 121.5q0 57 -19 102t-51.5 76.5t-76.5 48t-94 16.5q-67 0 -125 -28t-100.5 -74t-67 -105t-24.5 -122q0 -57 19 -102t51.5 -76.5t76.5 -48t94 -16.5zM660 990l51 -113h-85l-71 113h105z" />
    <glyph glyph-name="uni1ED3" unicode="&#x1ed3;" horiz-adv-x="560" 
d="M298 506q51 0 93.5 -18.5t72.5 -50.5t46.5 -74.5t16.5 -90.5q0 -61 -22 -113.5t-61 -91.5t-93 -61t-117 -22q-51 0 -93.5 18.5t-72.5 50.5t-46.5 74.5t-16.5 90.5q0 61 22 113.5t61 91.5t93 61t117 22zM243 68q44 0 79.5 16.5t60 44t37.5 63t13 74.5q0 34 -11.5 62.5
t-31 49.5t-46 32.5t-55.5 11.5q-44 0 -79.5 -16.5t-60 -44t-37.5 -63t-13 -74.5q0 -34 11.5 -62.5t31 -49.5t46 -32.5t55.5 -11.5zM268 560h-95l142 126h80l74 -126h-83l-46 62zM496 775l51 -113h-85l-71 113h105z" />
    <glyph glyph-name="uni1ED4" unicode="&#x1ed4;" horiz-adv-x="810" 
d="M432 775h-95l142 126h80l74 -126h-83l-46 62zM358 -16q-69 0 -128.5 23.5t-104 66.5t-69.5 102.5t-25 131.5q0 82 30.5 158.5t86 135.5t133.5 94.5t173 35.5q68 0 127.5 -23.5t103.5 -66.5t69 -102.5t25 -131.5q0 -82 -30.5 -158.5t-86 -135.5t-133 -94.5t-171.5 -35.5z
M367 72q67 0 124.5 28t100.5 74t67.5 105.5t24.5 121.5q0 57 -19 102t-51.5 76.5t-76.5 48t-94 16.5q-67 0 -125 -28t-100.5 -74t-67 -105t-24.5 -122q0 -57 19 -102t51.5 -76.5t76.5 -48t94 -16.5zM616 867q2 9 5.5 18t10.5 16q6 7 15 12.5t18 10.5t15.5 11t8.5 14
q2 15 -24 15q-6 0 -16.5 -1.5t-23.5 -16.5l-55 18q19 28 46 40.5t64 12.5q48 0 69 -17t16 -46q-5 -23 -18.5 -35t-26.5 -19q-10 -7 -20.5 -13.5t-14.5 -19.5h-69z" />
    <glyph glyph-name="uni1ED5" unicode="&#x1ed5;" horiz-adv-x="560" 
d="M298 506q51 0 93.5 -18.5t72.5 -50.5t46.5 -74.5t16.5 -90.5q0 -61 -22 -113.5t-61 -91.5t-93 -61t-117 -22q-51 0 -93.5 18.5t-72.5 50.5t-46.5 74.5t-16.5 90.5q0 61 22 113.5t61 91.5t93 61t117 22zM243 68q44 0 79.5 16.5t60 44t37.5 63t13 74.5q0 34 -11.5 62.5
t-31 49.5t-46 32.5t-55.5 11.5q-44 0 -79.5 -16.5t-60 -44t-37.5 -63t-13 -74.5q0 -34 11.5 -62.5t31 -49.5t46 -32.5t55.5 -11.5zM268 560h-95l142 126h80l74 -126h-83l-46 62zM452 652q2 9 5.5 18t10.5 16q6 7 15 12.5t18 10.5t15.5 11t8.5 14q2 15 -24 15
q-6 0 -16.5 -1.5t-23.5 -16.5l-55 18q19 28 46 40.5t64 12.5q48 0 69 -17t16 -46q-5 -23 -18.5 -35t-26.5 -19q-10 -7 -20.5 -13.5t-14.5 -19.5h-69z" />
    <glyph glyph-name="uni1ED6" unicode="&#x1ed6;" horiz-adv-x="810" 
d="M358 -16q-69 0 -128.5 23.5t-104 66.5t-69.5 102.5t-25 131.5q0 82 30.5 158.5t86 135.5t133.5 94.5t173 35.5q68 0 127.5 -23.5t103.5 -66.5t69 -102.5t25 -131.5q0 -82 -30.5 -158.5t-86 -135.5t-133 -94.5t-171.5 -35.5zM367 72q67 0 124.5 28t100.5 74t67.5 105.5
t24.5 121.5q0 57 -19 102t-51.5 76.5t-76.5 48t-94 16.5q-67 0 -125 -28t-100.5 -74t-67 -105t-24.5 -122q0 -57 19 -102t51.5 -76.5t76.5 -48t94 -16.5zM432 775h-95l141 116h80l75 -116h-83l-45 57zM577 920q-30 0 -53 16q-23 17 -36 17q-27 0 -34 -25h-69q7 40 35.5 66
t71.5 26q31 0 54 -17q22 -16 35 -16q27 0 34 25h69q-7 -40 -34.5 -66t-72.5 -26z" />
    <glyph glyph-name="uni1ED7" unicode="&#x1ed7;" horiz-adv-x="560" 
d="M298 506q51 0 93.5 -18.5t72.5 -50.5t46.5 -74.5t16.5 -90.5q0 -61 -22 -113.5t-61 -91.5t-93 -61t-117 -22q-51 0 -93.5 18.5t-72.5 50.5t-46.5 74.5t-16.5 90.5q0 61 22 113.5t61 91.5t93 61t117 22zM243 68q44 0 79.5 16.5t60 44t37.5 63t13 74.5q0 34 -11.5 62.5
t-31 49.5t-46 32.5t-55.5 11.5q-44 0 -79.5 -16.5t-60 -44t-37.5 -63t-13 -74.5q0 -34 11.5 -62.5t31 -49.5t46 -32.5t55.5 -11.5zM268 560h-95l141 116h80l75 -116h-83l-45 57zM413 705q-30 0 -53 16q-23 17 -36 17q-27 0 -34 -25h-69q7 40 35.5 66t71.5 26q31 0 54 -17
q22 -16 35 -16q27 0 34 25h69q-7 -40 -34.5 -66t-72.5 -26z" />
    <glyph glyph-name="uni1ED8" unicode="&#x1ed8;" horiz-adv-x="810" 
d="M358 -154q0 -24 -18 -42t-44 -18q-24 0 -42 18t-18 42q0 26 18 44t42 18q26 0 44 -18t18 -44zM432 775h-95l146 141h80l70 -141h-83l-42 69zM358 -16q-69 0 -128.5 23.5t-104 66.5t-69.5 102.5t-25 131.5q0 82 30.5 158.5t86 135.5t133.5 94.5t173 35.5q68 0 127.5 -23.5
t103.5 -66.5t69 -102.5t25 -131.5q0 -82 -30.5 -158.5t-86 -135.5t-133 -94.5t-171.5 -35.5zM367 72q67 0 124.5 28t100.5 74t67.5 105.5t24.5 121.5q0 57 -19 102t-51.5 76.5t-76.5 48t-94 16.5q-67 0 -125 -28t-100.5 -74t-67 -105t-24.5 -122q0 -57 19 -102t51.5 -76.5
t76.5 -48t94 -16.5z" />
    <glyph glyph-name="uni1ED9" unicode="&#x1ed9;" horiz-adv-x="560" 
d="M243 -154q0 -24 -18 -42t-44 -18q-24 0 -42 18t-18 42q0 26 18 44t42 18q26 0 44 -18t18 -44zM265 559h-95l146 141h80l70 -141h-83l-42 69zM298 506q51 0 93.5 -18.5t72.5 -50.5t46.5 -74.5t16.5 -90.5q0 -61 -22 -113.5t-61 -91.5t-93 -61t-117 -22q-51 0 -93.5 18.5
t-72.5 50.5t-46.5 74.5t-16.5 90.5q0 61 22 113.5t61 91.5t93 61t117 22zM243 68q44 0 79.5 16.5t60 44t37.5 63t13 74.5q0 34 -11.5 62.5t-31 49.5t-46 32.5t-55.5 11.5q-44 0 -79.5 -16.5t-60 -44t-37.5 -63t-13 -74.5q0 -34 11.5 -62.5t31 -49.5t46 -32.5t55.5 -11.5z
" />
    <glyph glyph-name="uni1EDA" unicode="&#x1eda;" horiz-adv-x="810" 
d="M630 926l-112 -141h-85l92 141h105zM358 -16q-69 0 -128.5 23.5t-104 66.5t-69.5 102.5t-25 131.5q0 82 30.5 158.5t86 135.5t133.5 94.5t173 35.5q51 0 99 -14q18 -2 29.5 -3t16.5 -1h16.5t20.5 1q26 0 43 17t24 60l76 -25q-12 -63 -52 -94q-22 -18 -49 -24l7 -7
q45 -43 69.5 -102.5t24.5 -131.5q0 -82 -30.5 -158.5t-86 -135.5t-133 -94.5t-171.5 -35.5zM367 72q67 0 124.5 28t100.5 74t67.5 105.5t24.5 121.5q0 57 -19 102t-51.5 76.5t-76.5 48t-94 16.5q-67 0 -125 -28t-100.5 -74t-67 -105t-24.5 -122q0 -57 19 -102t51.5 -76.5
t76.5 -48t94 -16.5z" />
    <glyph glyph-name="uni1EDB" unicode="&#x1edb;" horiz-adv-x="560" 
d="M459 710l-112 -141h-85l92 141h105zM298 506q41 0 80 -14q16 -2 23 -3q14 -2 37 0q26 0 43 17t24 60l76 -25q-12 -63 -52 -94q-25 -19 -53 -25q20 -24 34 -60q17 -43 17 -90q0 -61 -22 -113.5t-61 -91.5t-93 -61t-117 -22q-51 0 -93.5 18.5t-72.5 50.5t-46.5 74.5
t-16.5 90.5q0 61 22 113.5t61 91.5t93 61t117 22zM243 68q44 0 79.5 16.5t60 44t37.5 63t13 74.5q0 34 -11.5 62.5t-31 49.5t-46 32.5t-55.5 11.5q-44 0 -79.5 -16.5t-60 -44t-37.5 -63t-13 -74.5q0 -34 11.5 -62.5t31 -49.5t46 -32.5t55.5 -11.5z" />
    <glyph glyph-name="uni1EDC" unicode="&#x1edc;" horiz-adv-x="810" 
d="M485 926l60 -141h-85l-80 141h105zM358 -16q-69 0 -128.5 23.5t-104 66.5t-69.5 102.5t-25 131.5q0 82 30.5 158.5t86 135.5t133.5 94.5t173 35.5q51 0 99 -14q18 -2 29.5 -3t16.5 -1h16.5t20.5 1q26 0 43 17t24 60l76 -25q-12 -63 -52 -94q-22 -18 -49 -24l7 -7
q45 -43 69.5 -102.5t24.5 -131.5q0 -82 -30.5 -158.5t-86 -135.5t-133 -94.5t-171.5 -35.5zM367 72q67 0 124.5 28t100.5 74t67.5 105.5t24.5 121.5q0 57 -19 102t-51.5 76.5t-76.5 48t-94 16.5q-67 0 -125 -28t-100.5 -74t-67 -105t-24.5 -122q0 -57 19 -102t51.5 -76.5
t76.5 -48t94 -16.5z" />
    <glyph glyph-name="uni1EDD" unicode="&#x1edd;" horiz-adv-x="560" 
d="M300 710l60 -141h-85l-80 141h105zM298 506q41 0 80 -14q16 -2 23 -3q14 -2 37 0q26 0 43 17t24 60l76 -25q-12 -63 -52 -94q-25 -19 -53 -25q20 -24 34 -60q17 -43 17 -90q0 -61 -22 -113.5t-61 -91.5t-93 -61t-117 -22q-51 0 -93.5 18.5t-72.5 50.5t-46.5 74.5
t-16.5 90.5q0 61 22 113.5t61 91.5t93 61t117 22zM243 68q44 0 79.5 16.5t60 44t37.5 63t13 74.5q0 34 -11.5 62.5t-31 49.5t-46 32.5t-55.5 11.5q-44 0 -79.5 -16.5t-60 -44t-37.5 -63t-13 -74.5q0 -34 11.5 -62.5t31 -49.5t46 -32.5t55.5 -11.5z" />
    <glyph glyph-name="uni1EDE" unicode="&#x1ede;" horiz-adv-x="810" 
d="M454 785q2 11 6.5 23t11.5 20q6 9 15.5 15.5t18.5 13t16 13.5t9 18q2 8 -4 15t-20 7t-23.5 -4t-23.5 -22l-54 22q20 35 48.5 50.5t66.5 15.5q48 0 69 -22t15 -57q-5 -28 -19.5 -43t-29.5 -25q-9 -8 -19.5 -16t-15.5 -24h-67zM358 -16q-69 0 -128.5 23.5t-104 66.5
t-69.5 102.5t-25 131.5q0 82 30.5 158.5t86 135.5t133.5 94.5t173 35.5q51 0 99 -14q18 -2 29.5 -3t16.5 -1h16.5t20.5 1q26 0 43 17t24 60l76 -25q-12 -63 -52 -94q-22 -18 -49 -24l7 -7q45 -43 69.5 -102.5t24.5 -131.5q0 -82 -30.5 -158.5t-86 -135.5t-133 -94.5
t-171.5 -35.5zM367 72q67 0 124.5 28t100.5 74t67.5 105.5t24.5 121.5q0 57 -19 102t-51.5 76.5t-76.5 48t-94 16.5q-67 0 -125 -28t-100.5 -74t-67 -105t-24.5 -122q0 -57 19 -102t51.5 -76.5t76.5 -48t94 -16.5z" />
    <glyph glyph-name="uni1EDF" unicode="&#x1edf;" horiz-adv-x="560" 
d="M283 569q2 11 6.5 23t11.5 20q6 9 15.5 15.5t18.5 13t16 13.5t9 18q2 8 -4 15t-20 7t-23.5 -4t-23.5 -22l-54 22q20 35 48.5 50.5t66.5 15.5q48 0 69 -22t15 -57q-5 -28 -19.5 -43t-29.5 -25q-9 -8 -19.5 -16t-15.5 -24h-67zM298 506q41 0 80 -14q16 -2 23 -3q14 -2 37 0
q26 0 43 17t24 60l76 -25q-12 -63 -52 -94q-25 -19 -53 -25q20 -24 34 -60q17 -43 17 -90q0 -61 -22 -113.5t-61 -91.5t-93 -61t-117 -22q-51 0 -93.5 18.5t-72.5 50.5t-46.5 74.5t-16.5 90.5q0 61 22 113.5t61 91.5t93 61t117 22zM243 68q44 0 79.5 16.5t60 44t37.5 63
t13 74.5q0 34 -11.5 62.5t-31 49.5t-46 32.5t-55.5 11.5q-44 0 -79.5 -16.5t-60 -44t-37.5 -63t-13 -74.5q0 -34 11.5 -62.5t31 -49.5t46 -32.5t55.5 -11.5z" />
    <glyph glyph-name="uni1EE0" unicode="&#x1ee0;" horiz-adv-x="810" 
d="M534 775q-29 0 -54 20q-23 20 -37 20q-27 0 -34 -31h-70q7 48 36 77.5t72 29.5q32 0 55 -20t36 -20q27 0 34 31h70q-7 -48 -35 -77.5t-73 -29.5zM358 -16q-69 0 -128.5 23.5t-104 66.5t-69.5 102.5t-25 131.5q0 82 30.5 158.5t86 135.5t133.5 94.5t173 35.5q51 0 99 -14
q18 -2 29.5 -3t16.5 -1h16.5t20.5 1q26 0 43 17t24 60l76 -25q-12 -63 -52 -94q-22 -18 -49 -24l7 -7q45 -43 69.5 -102.5t24.5 -131.5q0 -82 -30.5 -158.5t-86 -135.5t-133 -94.5t-171.5 -35.5zM367 72q67 0 124.5 28t100.5 74t67.5 105.5t24.5 121.5q0 57 -19 102
t-51.5 76.5t-76.5 48t-94 16.5q-67 0 -125 -28t-100.5 -74t-67 -105t-24.5 -122q0 -57 19 -102t51.5 -76.5t76.5 -48t94 -16.5z" />
    <glyph glyph-name="uni1EE1" unicode="&#x1ee1;" horiz-adv-x="560" 
d="M361 559q-29 0 -54 20q-23 20 -37 20q-27 0 -34 -31h-70q7 48 36 77.5t72 29.5q32 0 55 -20t36 -20q27 0 34 31h70q-7 -48 -35 -77.5t-73 -29.5zM298 506q41 0 80 -14q16 -2 23 -3q14 -2 37 0q26 0 43 17t24 60l76 -25q-12 -63 -52 -94q-25 -19 -53 -25q20 -24 34 -60
q17 -43 17 -90q0 -61 -22 -113.5t-61 -91.5t-93 -61t-117 -22q-51 0 -93.5 18.5t-72.5 50.5t-46.5 74.5t-16.5 90.5q0 61 22 113.5t61 91.5t93 61t117 22zM243 68q44 0 79.5 16.5t60 44t37.5 63t13 74.5q0 34 -11.5 62.5t-31 49.5t-46 32.5t-55.5 11.5q-44 0 -79.5 -16.5
t-60 -44t-37.5 -63t-13 -74.5q0 -34 11.5 -62.5t31 -49.5t46 -32.5t55.5 -11.5z" />
    <glyph glyph-name="uni1EE2" unicode="&#x1ee2;" horiz-adv-x="810" 
d="M358 -154q0 -24 -18 -42t-44 -18q-24 0 -42 18t-18 42q0 26 18 44t42 18q26 0 44 -18t18 -44zM358 -16q-69 0 -128.5 23.5t-104 66.5t-69.5 102.5t-25 131.5q0 82 30.5 158.5t86 135.5t133.5 94.5t173 35.5q51 0 99 -14q18 -2 29.5 -3t16.5 -1h16.5t20.5 1q26 0 43 17
t24 60l76 -25q-12 -63 -52 -94q-22 -18 -49 -24l7 -7q45 -43 69.5 -102.5t24.5 -131.5q0 -82 -30.5 -158.5t-86 -135.5t-133 -94.5t-171.5 -35.5zM367 72q67 0 124.5 28t100.5 74t67.5 105.5t24.5 121.5q0 57 -19 102t-51.5 76.5t-76.5 48t-94 16.5q-67 0 -125 -28
t-100.5 -74t-67 -105t-24.5 -122q0 -57 19 -102t51.5 -76.5t76.5 -48t94 -16.5z" />
    <glyph glyph-name="uni1EE3" unicode="&#x1ee3;" horiz-adv-x="560" 
d="M243 -154q0 -24 -18 -42t-44 -18q-24 0 -42 18t-18 42q0 26 18 44t42 18q26 0 44 -18t18 -44zM298 506q41 0 80 -14q16 -2 23 -3q14 -2 37 0q26 0 43 17t24 60l76 -25q-12 -63 -52 -94q-25 -19 -53 -25q20 -24 34 -60q17 -43 17 -90q0 -61 -22 -113.5t-61 -91.5t-93 -61
t-117 -22q-51 0 -93.5 18.5t-72.5 50.5t-46.5 74.5t-16.5 90.5q0 61 22 113.5t61 91.5t93 61t117 22zM243 68q44 0 79.5 16.5t60 44t37.5 63t13 74.5q0 34 -11.5 62.5t-31 49.5t-46 32.5t-55.5 11.5q-44 0 -79.5 -16.5t-60 -44t-37.5 -63t-13 -74.5q0 -34 11.5 -62.5
t31 -49.5t46 -32.5t55.5 -11.5z" />
    <glyph glyph-name="uni1EE4" unicode="&#x1ee4;" horiz-adv-x="642" 
d="M287 -154q0 -24 -18 -42t-44 -18q-24 0 -42 18t-18 42q0 26 18 44t42 18q26 0 44 -18t18 -44zM258 -16q-44 0 -84 15t-70.5 42.5t-48.5 67.5t-18 90q0 15 1 36.5t8 61.5l74 419h92l-78 -442q-4 -22 -5 -35.5t-1 -24.5q0 -63 35 -102.5t110 -39.5q43 0 77.5 14.5t61 40
t43 60t23.5 75.5l80 454h92l-82 -465q-23 -128 -101 -197.5t-209 -69.5z" />
    <glyph glyph-name="uni1EE5" unicode="&#x1ee5;" 
d="M238 -154q0 -24 -18 -42t-44 -18q-24 0 -42 18t-18 42q0 26 18 44t42 18q26 0 44 -18t18 -44zM348 68h-4q-25 -36 -68 -60t-98 -24q-72 0 -115.5 41t-43.5 110q0 15 1.5 34t5.5 39l50 282h92l-52 -294q-2 -10 -3 -20t-1 -20q0 -45 27.5 -66.5t73.5 -21.5q30 0 56.5 12
t47 32.5t34.5 48t19 58.5l48 271h92l-86 -490h-88z" />
    <glyph glyph-name="uni1EE6" unicode="&#x1ee6;" horiz-adv-x="642" 
d="M363 785q2 11 6.5 23t11.5 20q6 9 15.5 15.5t18.5 13t16 13.5t9 18q2 8 -4 15t-20 7t-23.5 -4t-23.5 -22l-54 22q20 35 48.5 50.5t66.5 15.5q48 0 69 -22t15 -57q-5 -28 -19.5 -43t-29.5 -25q-9 -8 -19.5 -16t-15.5 -24h-67zM258 -16q-44 0 -84 15t-70.5 42.5t-48.5 67.5
t-18 90q0 15 1 36.5t8 61.5l74 419h92l-78 -442q-4 -22 -5 -35.5t-1 -24.5q0 -63 35 -102.5t110 -39.5q43 0 77.5 14.5t61 40t43 60t23.5 75.5l80 454h92l-82 -465q-23 -128 -101 -197.5t-209 -69.5z" />
    <glyph glyph-name="uni1EE7" unicode="&#x1ee7;" 
d="M272 569q2 11 6.5 23t11.5 20q6 9 15.5 15.5t18.5 13t16 13.5t9 18q2 8 -4 15t-20 7t-23.5 -4t-23.5 -22l-54 22q20 35 48.5 50.5t66.5 15.5q48 0 69 -22t15 -57q-5 -28 -19.5 -43t-29.5 -25q-9 -8 -19.5 -16t-15.5 -24h-67zM348 68h-4q-25 -36 -68 -60t-98 -24
q-72 0 -115.5 41t-43.5 110q0 15 1.5 34t5.5 39l50 282h92l-52 -294q-2 -10 -3 -20t-1 -20q0 -45 27.5 -66.5t73.5 -21.5q30 0 56.5 12t47 32.5t34.5 48t19 58.5l48 271h92l-86 -490h-88z" />
    <glyph glyph-name="uni1EE8" unicode="&#x1ee8;" horiz-adv-x="642" 
d="M541 926l-112 -141h-85l92 141h105zM258 -16q-44 0 -84 15t-70.5 42.5t-48.5 67.5t-18 90q0 15 1 36.5t8 61.5l74 419h92l-78 -442q-4 -22 -5 -35.5t-1 -24.5q0 -63 35 -102.5t110 -39.5q43 0 77.5 14.5t61 40t43 60t23.5 75.5l80 454h71q18 3 31 16q16 16 24 60l76 -25
q-12 -63 -52 -94q-31 -25 -71 -28l-69 -394q-23 -128 -101 -197.5t-209 -69.5z" />
    <glyph glyph-name="uni1EE9" unicode="&#x1ee9;" 
d="M456 710l-112 -141h-85l92 141h105zM348 68h-4q-25 -36 -68 -60t-98 -24q-72 0 -115.5 41t-43.5 110q0 15 1.5 34t5.5 39l50 282h92l-52 -294q-2 -10 -3 -20t-1 -20q0 -45 27.5 -66.5t73.5 -21.5q30 0 56.5 12t47 32.5t34.5 48t19 58.5l48 271h71q18 3 31 16q16 16 24 60
l76 -25q-12 -63 -52 -94q-31 -25 -71 -28l-73 -419h-88z" />
    <glyph glyph-name="uni1EEA" unicode="&#x1eea;" horiz-adv-x="642" 
d="M383 926l60 -141h-85l-80 141h105zM258 -16q-44 0 -84 15t-70.5 42.5t-48.5 67.5t-18 90q0 15 1 36.5t8 61.5l74 419h92l-78 -442q-4 -22 -5 -35.5t-1 -24.5q0 -63 35 -102.5t110 -39.5q43 0 77.5 14.5t61 40t43 60t23.5 75.5l80 454h71q18 3 31 16q16 16 24 60l76 -25
q-12 -63 -52 -94q-31 -25 -71 -28l-69 -394q-23 -128 -101 -197.5t-209 -69.5z" />
    <glyph glyph-name="uni1EEB" unicode="&#x1eeb;" 
d="M292 710l60 -141h-85l-80 141h105zM348 68h-4q-25 -36 -68 -60t-98 -24q-72 0 -115.5 41t-43.5 110q0 15 1.5 34t5.5 39l50 282h92l-52 -294q-2 -10 -3 -20t-1 -20q0 -45 27.5 -66.5t73.5 -21.5q30 0 56.5 12t47 32.5t34.5 48t19 58.5l48 271h71q18 3 31 16q16 16 24 60
l76 -25q-12 -63 -52 -94q-31 -25 -71 -28l-73 -419h-88z" />
    <glyph glyph-name="uni1EEC" unicode="&#x1eec;" horiz-adv-x="642" 
d="M363 785q2 11 6.5 23t11.5 20q6 9 15.5 15.5t18.5 13t16 13.5t9 18q2 8 -4 15t-20 7t-23.5 -4t-23.5 -22l-54 22q20 35 48.5 50.5t66.5 15.5q48 0 69 -22t15 -57q-5 -28 -19.5 -43t-29.5 -25q-9 -8 -19.5 -16t-15.5 -24h-67zM258 -16q-44 0 -84 15t-70.5 42.5t-48.5 67.5
t-18 90q0 15 1 36.5t8 61.5l74 419h92l-78 -442q-4 -22 -5 -35.5t-1 -24.5q0 -63 35 -102.5t110 -39.5q43 0 77.5 14.5t61 40t43 60t23.5 75.5l80 454h71q18 3 31 16q16 16 24 60l76 -25q-12 -63 -52 -94q-31 -25 -71 -28l-69 -394q-23 -128 -101 -197.5t-209 -69.5z" />
    <glyph glyph-name="uni1EED" unicode="&#x1eed;" 
d="M272 569q2 11 6.5 23t11.5 20q6 9 15.5 15.5t18.5 13t16 13.5t9 18q2 8 -4 15t-20 7t-23.5 -4t-23.5 -22l-54 22q20 35 48.5 50.5t66.5 15.5q48 0 69 -22t15 -57q-5 -28 -19.5 -43t-29.5 -25q-9 -8 -19.5 -16t-15.5 -24h-67zM348 68h-4q-25 -36 -68 -60t-98 -24
q-72 0 -115.5 41t-43.5 110q0 15 1.5 34t5.5 39l50 282h92l-52 -294q-2 -10 -3 -20t-1 -20q0 -45 27.5 -66.5t73.5 -21.5q30 0 56.5 12t47 32.5t34.5 48t19 58.5l48 271h71q18 3 31 16q16 16 24 60l76 -25q-12 -63 -52 -94q-31 -25 -71 -28l-73 -419h-88z" />
    <glyph glyph-name="uni1EEE" unicode="&#x1eee;" horiz-adv-x="642" 
d="M445 775q-29 0 -54 20q-23 20 -37 20q-27 0 -34 -31h-70q7 48 36 77.5t72 29.5q32 0 55 -20t36 -20q27 0 34 31h70q-7 -48 -35 -77.5t-73 -29.5zM258 -16q-44 0 -84 15t-70.5 42.5t-48.5 67.5t-18 90q0 15 1 36.5t8 61.5l74 419h92l-78 -442q-4 -22 -5 -35.5t-1 -24.5
q0 -63 35 -102.5t110 -39.5q43 0 77.5 14.5t61 40t43 60t23.5 75.5l80 454h71q18 3 31 16q16 16 24 60l76 -25q-12 -63 -52 -94q-31 -25 -71 -28l-69 -394q-23 -128 -101 -197.5t-209 -69.5z" />
    <glyph glyph-name="uni1EEF" unicode="&#x1eef;" 
d="M356 559q-29 0 -54 20q-23 20 -37 20q-27 0 -34 -31h-70q7 48 36 77.5t72 29.5q32 0 55 -20t36 -20q27 0 34 31h70q-7 -48 -35 -77.5t-73 -29.5zM348 68h-4q-25 -36 -68 -60t-98 -24q-72 0 -115.5 41t-43.5 110q0 15 1.5 34t5.5 39l50 282h92l-52 -294q-2 -10 -3 -20
t-1 -20q0 -45 27.5 -66.5t73.5 -21.5q30 0 56.5 12t47 32.5t34.5 48t19 58.5l48 271h71q18 3 31 16q16 16 24 60l76 -25q-12 -63 -52 -94q-31 -25 -71 -28l-73 -419h-88z" />
    <glyph glyph-name="uni1EF0" unicode="&#x1ef0;" horiz-adv-x="642" 
d="M287 -154q0 -24 -18 -42t-44 -18q-24 0 -42 18t-18 42q0 26 18 44t42 18q26 0 44 -18t18 -44zM258 -16q-44 0 -84 15t-70.5 42.5t-48.5 67.5t-18 90q0 15 1 36.5t8 61.5l74 419h92l-78 -442q-4 -22 -5 -35.5t-1 -24.5q0 -63 35 -102.5t110 -39.5q43 0 77.5 14.5t61 40
t43 60t23.5 75.5l80 454h71q18 3 31 16q16 16 24 60l76 -25q-12 -63 -52 -94q-31 -25 -71 -28l-69 -394q-23 -128 -101 -197.5t-209 -69.5z" />
    <glyph glyph-name="uni1EF1" unicode="&#x1ef1;" 
d="M238 -154q0 -24 -18 -42t-44 -18q-24 0 -42 18t-18 42q0 26 18 44t42 18q26 0 44 -18t18 -44zM348 68h-4q-25 -36 -68 -60t-98 -24q-72 0 -115.5 41t-43.5 110q0 15 1.5 34t5.5 39l50 282h92l-52 -294q-2 -10 -3 -20t-1 -20q0 -45 27.5 -66.5t73.5 -21.5q30 0 56.5 12
t47 32.5t34.5 48t19 58.5l48 271h71q18 3 31 16q16 16 24 60l76 -25q-12 -63 -52 -94q-31 -25 -71 -28l-73 -419h-88z" />
    <glyph glyph-name="Ygrave" unicode="&#x1ef2;" horiz-adv-x="594" 
d="M347 926l60 -141h-85l-80 141h105zM189 0l59 333l-173 383h105l125 -291h4l225 291h111l-305 -383l-59 -333h-92z" />
    <glyph glyph-name="ygrave" unicode="&#x1ef3;" horiz-adv-x="498" 
d="M276 710l60 -141h-85l-80 141h105zM5 -216l158 247l-121 459h97l86 -353h2l205 353h102l-432 -706h-97z" />
    <glyph glyph-name="uni1EF4" unicode="&#x1ef4;" horiz-adv-x="594" 
d="M273 -154q0 -24 -18 -42t-44 -18q-24 0 -42 18t-18 42q0 26 18 44t42 18q26 0 44 -18t18 -44zM189 0l59 333l-173 383h105l125 -291h4l225 291h111l-305 -383l-59 -333h-92z" />
    <glyph glyph-name="uni1EF5" unicode="&#x1ef5;" horiz-adv-x="498" 
d="M371 -154q0 -24 -18 -42t-44 -18q-24 0 -42 18t-18 42q0 26 18 44t42 18q26 0 44 -18t18 -44zM5 -216l158 247l-121 459h97l86 -353h2l205 353h102l-432 -706h-97z" />
    <glyph glyph-name="uni1EF6" unicode="&#x1ef6;" horiz-adv-x="594" 
d="M324 785q2 11 6.5 23t11.5 20q6 9 15.5 15.5t18.5 13t16 13.5t9 18q2 8 -4 15t-20 7t-23.5 -4t-23.5 -22l-54 22q20 35 48.5 50.5t66.5 15.5q48 0 69 -22t15 -57q-5 -28 -19.5 -43t-29.5 -25q-9 -8 -19.5 -16t-15.5 -24h-67zM189 0l59 333l-173 383h105l125 -291h4
l225 291h111l-305 -383l-59 -333h-92z" />
    <glyph glyph-name="uni1EF7" unicode="&#x1ef7;" horiz-adv-x="498" 
d="M255 569q2 11 6.5 23t11.5 20q6 9 15.5 15.5t18.5 13t16 13.5t9 18q2 8 -4 15t-20 7t-23.5 -4t-23.5 -22l-54 22q20 35 48.5 50.5t66.5 15.5q48 0 69 -22t15 -57q-5 -28 -19.5 -43t-29.5 -25q-9 -8 -19.5 -16t-15.5 -24h-67zM5 -216l158 247l-121 459h97l86 -353h2
l205 353h102l-432 -706h-97z" />
    <glyph glyph-name="uni1EF8" unicode="&#x1ef8;" horiz-adv-x="594" 
d="M422 775q-29 0 -54 20q-23 20 -37 20q-27 0 -34 -31h-70q7 48 36 77.5t72 29.5q32 0 55 -20t36 -20q27 0 34 31h70q-7 -48 -35 -77.5t-73 -29.5zM189 0l59 333l-173 383h105l125 -291h4l225 291h111l-305 -383l-59 -333h-92z" />
    <glyph glyph-name="uni1EF9" unicode="&#x1ef9;" horiz-adv-x="498" 
d="M347 559q-29 0 -54 20q-23 20 -37 20q-27 0 -34 -31h-70q7 48 36 77.5t72 29.5q32 0 55 -20t36 -20q27 0 34 31h70q-7 -48 -35 -77.5t-73 -29.5zM5 -216l158 247l-121 459h97l86 -353h2l205 353h102l-432 -706h-97z" />
    <glyph glyph-name="endash" unicode="&#x2013;" horiz-adv-x="592" 
d="M55 348h480l-13 -76h-480z" />
    <glyph glyph-name="emdash" unicode="&#x2014;" horiz-adv-x="892" 
d="M55 348h780l-13 -76h-780z" />
    <glyph glyph-name="quoteleft" unicode="&#x2018;" horiz-adv-x="232" 
d="M231 701l-60 -73q10 -4 25 -19t15 -43q0 -29 -20.5 -48.5t-46.5 -19.5q-29 0 -49 19.5t-20 48.5q0 17 12.5 35t29.5 39l77 92z" />
    <glyph glyph-name="quoteright" unicode="&#x2019;" horiz-adv-x="232" 
d="M88 529l60 73q-5 2 -12 6.5t-13 12t-10.5 18.5t-4.5 25q0 29 20.5 48.5t46.5 19.5q29 0 49 -19.5t20 -48.5q0 -17 -12.5 -35t-29.5 -39l-77 -92z" />
    <glyph glyph-name="quotesinglbase" unicode="&#x201a;" horiz-adv-x="232" 
d="M-21 -72l60 73q-5 2 -12 6.5t-13 12t-10.5 18.5t-4.5 25q0 29 20.5 48.5t46.5 19.5q29 0 49 -19.5t20 -48.5q0 -17 -12.5 -35t-29.5 -39l-77 -92z" />
    <glyph glyph-name="quotedblleft" unicode="&#x201c;" horiz-adv-x="408" 
d="M231 701l-60 -73q10 -4 25 -19t15 -43q0 -29 -20.5 -48.5t-46.5 -19.5q-29 0 -49 19.5t-20 48.5q0 17 12.5 35t29.5 39l77 92zM407 701l-60 -73q10 -4 25 -19t15 -43q0 -29 -20.5 -48.5t-46.5 -19.5q-29 0 -49 19.5t-20 48.5q0 17 12.5 35t29.5 39l77 92z" />
    <glyph glyph-name="quotedblright" unicode="&#x201d;" horiz-adv-x="408" 
d="M88 529l60 73q-5 2 -12 6.5t-13 12t-10.5 18.5t-4.5 25q0 29 20.5 48.5t46.5 19.5q29 0 49 -19.5t20 -48.5q0 -17 -12.5 -35t-29.5 -39l-77 -92zM264 529l60 73q-5 2 -12 6.5t-13 12t-10.5 18.5t-4.5 25q0 29 20.5 48.5t46.5 19.5q29 0 49 -19.5t20 -48.5
q0 -17 -12.5 -35t-29.5 -39l-77 -92z" />
    <glyph glyph-name="quotedblbase" unicode="&#x201e;" horiz-adv-x="408" 
d="M-21 -72l60 73q-5 2 -12 6.5t-13 12t-10.5 18.5t-4.5 25q0 29 20.5 48.5t46.5 19.5q29 0 49 -19.5t20 -48.5q0 -17 -12.5 -35t-29.5 -39l-77 -92zM154 -72l60 73q-5 2 -12 6.5t-13 12t-10.5 18.5t-4.5 25q0 29 20.5 48.5t46.5 19.5q29 0 49 -19.5t20 -48.5
q0 -17 -12.5 -35t-29.5 -39l-77 -92z" />
    <glyph glyph-name="bullet" unicode="&#x2022;" horiz-adv-x="400" 
d="M194 204q-25 0 -46.5 9.5t-38 26t-26 38t-9.5 46.5t9.5 46.5t26 38t38 26t46.5 9.5t46.5 -9.5t38 -26t26 -38t9.5 -46.5t-9.5 -46.5t-26 -38t-38 -26t-46.5 -9.5z" />
    <glyph glyph-name="ellipsis" unicode="&#x2026;" horiz-adv-x="704" 
d="M64 -6q-29 0 -48.5 19.5t-19.5 48.5t19.5 48.5t48.5 19.5t48.5 -19.5t19.5 -48.5t-19.5 -48.5t-48.5 -19.5zM300 -6q-29 0 -48.5 19.5t-19.5 48.5t19.5 48.5t48.5 19.5t48.5 -19.5t19.5 -48.5t-19.5 -48.5t-48.5 -19.5zM536 -6q-29 0 -48.5 19.5t-19.5 48.5t19.5 48.5
t48.5 19.5t48.5 -19.5t19.5 -48.5t-19.5 -48.5t-48.5 -19.5z" />
    <glyph glyph-name="guilsinglleft" unicode="&#x2039;" horiz-adv-x="356" 
d="M243 100l-60 -48l-163 219l240 219l47 -53l-187 -171z" />
    <glyph glyph-name="guilsinglright" unicode="&#x203a;" horiz-adv-x="356" 
d="M78 442l60 48l163 -219l-240 -219l-47 53l187 171z" />
    <glyph glyph-name="fraction" unicode="&#x2044;" horiz-adv-x="170" 
d="M-238 34l592 690l53 -42l-589 -691z" />
    <glyph glyph-name="uni2074" unicode="&#x2074;" horiz-adv-x="345" 
d="M197 350l13 72h-171l8 48l218 246h67l-41 -234h48l-11 -60h-48l-13 -72h-70zM221 482l22 126h-4l-112 -126h94z" />
    <glyph glyph-name="Euro" unicode="&#x20ac;" horiz-adv-x="629" 
d="M42 460h87q22 51 57.5 94.5t82.5 76t104 51t121 18.5q49 0 84 -12t64 -32l-50 -76q-20 14 -47.5 22.5t-65.5 8.5q-85 0 -149.5 -42t-100.5 -109h230l-13 -76h-246q-10 -37 -10 -84h241l-13 -76h-219q10 -39 29 -67.5t44.5 -47t55.5 -27.5t63 -9q66 0 128 32l36 -77
q-43 -24 -85 -34t-91 -10q-53 0 -99.5 15.5t-83 46t-61.5 75t-35 103.5h-99l13 76h81q0 44 10 84h-76z" />
    <glyph glyph-name="minus" unicode="&#x2212;" horiz-adv-x="550" 
d="M34 233l13 76h438l-13 -76h-438z" />
    <glyph glyph-name="uni2215" unicode="&#x2215;" horiz-adv-x="437" 
d="M-38 0l423 716h88l-424 -716h-87z" />
    <glyph glyph-name="Lslash" horiz-adv-x="574" 
d="M133 276l-69 -38l-37 67l123 69l61 342h92l-49 -278l133 75l37 -68l-188 -105l-44 -252h310l-16 -88h-402z" />
    <glyph glyph-name="uniF8FF" horiz-adv-x="1000" 
d="M891 451q4 -21 5.5 -42t1.5 -44q0 -89 -28.5 -163.5t-81 -128.5t-126 -84t-163.5 -30q-86 0 -162 32.5t-132.5 89t-89 132.5t-32.5 162t32.5 162t89 132.5t132.5 89t162 32.5q85 0 154.5 -28.5t123.5 -79.5l-119 -120q-65 62 -159 62q-51 0 -96 -20t-78 -54t-52.5 -79.5
t-19.5 -96.5t19.5 -96.5t52.5 -80t78 -54.5t96 -20q46 0 84 12.5t67 34.5t47.5 52.5t25.5 66.5h-224v161h392z" />
    <glyph glyph-name="one.numerator" horiz-adv-x="242" 
d="M110 350l50 282l-63 -25l-22 55l124 54h46l-65 -366h-70z" />
    <glyph glyph-name="two.denominator" horiz-adv-x="304" 
d="M-37 0l11 60q21 18 39.5 34.5t35.5 30.5l28 24t26 22q5 5 10 9t9 7t6 5l3 3q17 13 35 32.5t18 41.5q0 20 -13.5 30.5t-33.5 10.5q-45 0 -67 -58l-60 27q14 46 50 70.5t84 24.5q51 0 82 -28t31 -70q0 -20 -6 -36.5t-16.5 -31t-24.5 -27.5t-29 -26q-5 -5 -12.5 -10.5
t-15.5 -13.5l-36 -30l-22 -18t-22 -19h151l-12 -64h-249z" />
    <glyph glyph-name="two.numerator" horiz-adv-x="304" 
d="M23 350l11 60q21 18 39.5 34.5t35.5 30.5l28 24t26 22q5 5 10 9t9 7t6 5l3 3q17 13 35 32.5t18 41.5q0 20 -13.5 30.5t-33.5 10.5q-45 0 -67 -58l-60 27q14 46 50 70.5t84 24.5q51 0 82 -28t31 -70q0 -20 -6 -36.5t-16.5 -31t-24.5 -27.5t-29 -26q-5 -5 -12.5 -10.5
t-15.5 -13.5l-36 -30l-22 -18t-22 -19h151l-12 -64h-249z" />
    <glyph glyph-name="three.numerator" horiz-adv-x="323" 
d="M161 342q-43 0 -79 24t-45 76l65 23q8 -32 25 -45.5t41 -13.5q27 0 47 16.5t20 40.5q0 47 -61 47h-32l11 60h37q26 0 43.5 14.5t17.5 36.5q0 20 -13.5 29.5t-30.5 9.5q-27 0 -42 -14.5t-23 -28.5l-58 25q14 36 48.5 59t82.5 23t78.5 -26.5t30.5 -65.5q0 -30 -20.5 -55
t-45.5 -35q22 -11 35.5 -30.5t13.5 -46.5q0 -26 -11 -48.5t-30.5 -39t-46.5 -26t-58 -9.5z" />
    <glyph glyph-name="four.denominator" horiz-adv-x="345" 
d="M134 0l13 72h-171l8 48l218 246h67l-41 -234h48l-11 -60h-48l-13 -72h-70zM158 132l22 126h-4l-112 -126h94z" />
    <glyph glyph-name="four.numerator" horiz-adv-x="345" 
d="M197 350l13 72h-171l8 48l218 246h67l-41 -234h48l-11 -60h-48l-13 -72h-70zM221 482l22 126h-4l-112 -126h94z" />
    <glyph glyph-name="r.alt" horiz-adv-x="360" 
d="M153 410h4q22 48 69.5 71t102.5 23q14 0 20 -0.5t13 -1.5l-17 -96q-12 4 -41 4q-31 0 -59.5 -10.5t-52 -30.5t-39.5 -48t-22 -62l-46 -259h-92l86 490h88z" />
    <glyph glyph-name="uni03BC" 
d="M336 0l12 68h-4q-25 -36 -68 -60t-98 -24q-28 0 -52.5 11t-38.5 29h-4l-6 -56l-34 -184h-91l124 706h92l-52 -294q-2 -10 -3 -20t-1 -20q0 -45 27.5 -66.5t73.5 -21.5q30 0 56.5 12t47 32.5t34.5 48t19 58.5l48 271h92l-86 -490h-88z" />
    <glyph glyph-name="uni2103" horiz-adv-x="973" 
d="M600 -16q-69 0 -124.5 24.5t-94.5 66.5t-59.5 98t-20.5 119q0 81 29.5 155t83.5 130t130 89.5t168 33.5q75 0 133.5 -30t100.5 -84l-74 -62q-14 19 -30 35t-37 27.5t-47.5 18t-60.5 6.5q-64 0 -119 -23.5t-95.5 -65.5t-63.5 -100t-23 -128q0 -52 16.5 -93t46 -69.5
t69.5 -43.5t88 -15q36 0 65.5 6.5t55 18.5t48.5 29.5t46 39.5l53 -63q-30 -30 -60 -52.5t-64 -37.5t-73 -22.5t-87 -7.5zM186 442q-24 0 -45.5 8t-38 23t-26 36t-9.5 47q0 32 11 58.5t30.5 45.5t46 29.5t58.5 10.5q24 0 45.5 -8.5t38 -23.5t26 -36t9.5 -46q0 -32 -11 -58.5
t-30.5 -45.5t-46.5 -29.5t-58 -10.5zM192 506q29 0 50 20.5t21 51.5q0 26 -15.5 42t-40.5 16q-29 0 -50 -20.5t-21 -51.5q0 -26 15.5 -42t40.5 -16z" />
    <glyph glyph-name="uni2109" horiz-adv-x="813" 
d="M313 0l121 684h404l-16 -88h-312l-38 -219h281l-15 -86h-281l-52 -291h-92zM186 442q-24 0 -45.5 8t-38 23t-26 36t-9.5 47q0 32 11 58.5t30.5 45.5t46 29.5t58.5 10.5q24 0 45.5 -8.5t38 -23.5t26 -36t9.5 -46q0 -32 -11 -58.5t-30.5 -45.5t-46.5 -29.5t-58 -10.5z
M192 506q29 0 50 20.5t21 51.5q0 26 -15.5 42t-40.5 16q-29 0 -50 -20.5t-21 -51.5q0 -26 15.5 -42t40.5 -16z" />
    <glyph glyph-name="uni2190" horiz-adv-x="1082" 
d="M246 272v-160l-198 198l198 198v-160h780v-76h-780z" />
    <glyph glyph-name="uni2191" horiz-adv-x="476" 
d="M276 -120h-76v742h-160l198 198l198 -198h-160v-742z" />
    <glyph glyph-name="uni2192" horiz-adv-x="1082" 
d="M56 272v76h780v160l198 -198l-198 -198v160h-780z" />
    <glyph glyph-name="uni2193" horiz-adv-x="476" 
d="M276 50h160l-198 -198l-198 198h160v742h76v-742z" />
    <glyph glyph-name="uni2196" horiz-adv-x="772" 
d="M772 38l-54 -54l-565 565l-113 -113v280h280l-113 -113z" />
    <glyph glyph-name="uni2197" horiz-adv-x="772" 
d="M565 603l-113 113h280v-280l-113 113l-565 -565l-54 54z" />
    <glyph glyph-name="uni2198" horiz-adv-x="772" 
d="M207 113l113 -113h-280v280l113 -113l565 565l54 -54z" />
    <glyph glyph-name="uni2199" horiz-adv-x="772" 
d="M0 678l54 54l565 -565l113 113v-280h-280l113 113z" />
    <glyph glyph-name="uni2639" horiz-adv-x="836" 
d="M287 395q-23 0 -39.5 16.5t-16.5 40.5q0 23 16.5 39t39.5 16t39.5 -16t16.5 -39q0 -24 -16.5 -40.5t-39.5 -16.5zM549 395q-23 0 -39.5 16.5t-16.5 40.5q0 23 16.5 39t39.5 16t39.5 -16t16.5 -39q0 -24 -16.5 -40.5t-39.5 -16.5zM418 -16q-77 0 -145 29.5t-119 80.5
t-80.5 119t-29.5 145t29.5 145t80.5 119t119 80.5t145 29.5t145 -29.5t119 -80.5t80.5 -119t29.5 -145t-29.5 -145t-80.5 -119t-119 -80.5t-145 -29.5zM418 48q64 0 120.5 24.5t98.5 67t66.5 99t24.5 119.5q0 64 -24.5 120.5t-66.5 98.5t-98.5 66.5t-120.5 24.5
q-63 0 -119.5 -24.5t-99 -66.5t-67 -98.5t-24.5 -120.5q0 -63 24.5 -119.5t67 -99t99 -67t119.5 -24.5zM418 301q63 0 113 -32.5t74 -86.5l-67 -31q-17 35 -49.5 55t-70.5 20t-70.5 -20t-48.5 -55l-68 31q24 54 74 86.5t113 32.5z" />
    <glyph glyph-name="uni263A" horiz-adv-x="836" 
d="M549 395q-23 0 -39.5 16.5t-16.5 40.5q0 23 16.5 39t39.5 16t39.5 -16t16.5 -39q0 -24 -16.5 -40.5t-39.5 -16.5zM287 395q-23 0 -39.5 16.5t-16.5 40.5q0 23 16.5 39t39.5 16t39.5 -16t16.5 -39q0 -24 -16.5 -40.5t-39.5 -16.5zM418 152q-63 0 -113 32.5t-74 86.5l68 31
q16 -35 48.5 -55t70.5 -20t70.5 20t49.5 55l67 -31q-24 -54 -74 -86.5t-113 -32.5zM418 -16q-77 0 -145 29.5t-119 80.5t-80.5 119t-29.5 145t29.5 145t80.5 119t119 80.5t145 29.5t145 -29.5t119 -80.5t80.5 -119t29.5 -145t-29.5 -145t-80.5 -119t-119 -80.5t-145 -29.5z
M418 48q64 0 120.5 24.5t98.5 67t66.5 99t24.5 119.5q0 64 -24.5 120.5t-66.5 98.5t-98.5 66.5t-120.5 24.5q-63 0 -119.5 -24.5t-99 -66.5t-67 -98.5t-24.5 -120.5q0 -63 24.5 -119.5t67 -99t99 -67t119.5 -24.5z" />
    <glyph glyph-name="uni2780" horiz-adv-x="836" 
d="M396 177v285l-64 -26l-24 54l112 53h46v-366h-70zM418 -16q-77 0 -145 29.5t-119 80.5t-80.5 119t-29.5 145t29.5 145t80.5 119t119 80.5t145 29.5t145 -29.5t119 -80.5t80.5 -119t29.5 -145t-29.5 -145t-80.5 -119t-119 -80.5t-145 -29.5zM418 48q64 0 120.5 24.5
t98.5 67t66.5 99t24.5 119.5q0 64 -24.5 120.5t-66.5 98.5t-98.5 66.5t-120.5 24.5q-63 0 -119.5 -24.5t-99 -66.5t-67 -98.5t-24.5 -120.5q0 -63 24.5 -119.5t67 -99t99 -67t119.5 -24.5z" />
    <glyph glyph-name="uni2781" horiz-adv-x="836" 
d="M293 177v60q17 18 33.5 34.5l30.5 30.5l70 70q13 13 27.5 31.5t14.5 39.5q0 20 -15 32t-37 12t-38.5 -14t-22.5 -44l-65 27q10 45 45 70t80 25q24 0 46.5 -7.5t40 -21.5t28 -34t10.5 -45q0 -18 -7 -34t-16.5 -30.5t-20.5 -26t-20 -20.5l-24 -24q-8 -8 -15.5 -15
t-15.5 -15l-37 -37h158v-64h-250zM418 -16q-77 0 -145 29.5t-119 80.5t-80.5 119t-29.5 145t29.5 145t80.5 119t119 80.5t145 29.5t145 -29.5t119 -80.5t80.5 -119t29.5 -145t-29.5 -145t-80.5 -119t-119 -80.5t-145 -29.5zM418 48q64 0 120.5 24.5t98.5 67t66.5 99
t24.5 119.5q0 64 -24.5 120.5t-66.5 98.5t-98.5 66.5t-120.5 24.5q-63 0 -119.5 -24.5t-99 -66.5t-67 -98.5t-24.5 -120.5q0 -63 24.5 -119.5t67 -99t99 -67t119.5 -24.5z" />
    <glyph glyph-name="uni2782" horiz-adv-x="836" 
d="M418 -16q-77 0 -145 29.5t-119 80.5t-80.5 119t-29.5 145t29.5 145t80.5 119t119 80.5t145 29.5t145 -29.5t119 -80.5t80.5 -119t29.5 -145t-29.5 -145t-80.5 -119t-119 -80.5t-145 -29.5zM418 48q64 0 120.5 24.5t98.5 67t66.5 99t24.5 119.5q0 64 -24.5 120.5
t-66.5 98.5t-98.5 66.5t-120.5 24.5q-63 0 -119.5 -24.5t-99 -66.5t-67 -98.5t-24.5 -120.5q0 -63 24.5 -119.5t67 -99t99 -67t119.5 -24.5zM415 169q-46 0 -83.5 24t-50.5 76l65 24q8 -34 28 -47t41 -13q23 0 42 14.5t19 39.5q0 23 -17.5 36.5t-42.5 13.5h-41v60h37
q23 0 37.5 13t14.5 34q0 20 -15 31.5t-35 11.5q-27 0 -40 -14.5t-18 -28.5l-62 25q13 36 42.5 59t77.5 23q54 0 88 -29t34 -77q0 -25 -11.5 -43t-33.5 -32q25 -14 41 -34.5t16 -49.5q0 -28 -11 -49.5t-29.5 -36.5t-42.5 -23t-50 -8z" />
    <glyph glyph-name="uni2783" horiz-adv-x="836" 
d="M423 177v72h-171v48l174 246h67v-234h48v-60h-48v-72h-70zM423 440h-4l-94 -131h98v131zM418 -16q-77 0 -145 29.5t-119 80.5t-80.5 119t-29.5 145t29.5 145t80.5 119t119 80.5t145 29.5t145 -29.5t119 -80.5t80.5 -119t29.5 -145t-29.5 -145t-80.5 -119t-119 -80.5
t-145 -29.5zM418 48q64 0 120.5 24.5t98.5 67t66.5 99t24.5 119.5q0 64 -24.5 120.5t-66.5 98.5t-98.5 66.5t-120.5 24.5q-63 0 -119.5 -24.5t-99 -66.5t-67 -98.5t-24.5 -120.5q0 -63 24.5 -119.5t67 -99t99 -67t119.5 -24.5z" />
    <glyph glyph-name="uni2784" horiz-adv-x="836" 
d="M418 -16q-77 0 -145 29.5t-119 80.5t-80.5 119t-29.5 145t29.5 145t80.5 119t119 80.5t145 29.5t145 -29.5t119 -80.5t80.5 -119t29.5 -145t-29.5 -145t-80.5 -119t-119 -80.5t-145 -29.5zM418 48q64 0 120.5 24.5t98.5 67t66.5 99t24.5 119.5q0 64 -24.5 120.5
t-66.5 98.5t-98.5 66.5t-120.5 24.5q-63 0 -119.5 -24.5t-99 -66.5t-67 -98.5t-24.5 -120.5q0 -63 24.5 -119.5t67 -99t99 -67t119.5 -24.5zM418 169q-20 0 -41 5t-39 16t-32 28t-21 42l65 25q13 -52 68 -52q26 0 44 19t18 45q0 27 -18 45.5t-44 18.5q-37 0 -61 -33l-61 25
l25 189h209v-60h-150l-12 -81q23 20 59 20q25 0 48 -9t40 -25t27 -39.5t10 -51.5q0 -27 -11 -50.5t-29.5 -40.5t-42.5 -26.5t-51 -9.5z" />
    <glyph glyph-name="uni2785" horiz-adv-x="836" 
d="M418 -16q-77 0 -145 29.5t-119 80.5t-80.5 119t-29.5 145t29.5 145t80.5 119t119 80.5t145 29.5t145 -29.5t119 -80.5t80.5 -119t29.5 -145t-29.5 -145t-80.5 -119t-119 -80.5t-145 -29.5zM418 48q64 0 120.5 24.5t98.5 67t66.5 99t24.5 119.5q0 64 -24.5 120.5
t-66.5 98.5t-98.5 66.5t-120.5 24.5q-63 0 -119.5 -24.5t-99 -66.5t-67 -98.5t-24.5 -120.5q0 -63 24.5 -119.5t67 -99t99 -67t119.5 -24.5zM414 169q-28 0 -52.5 10t-42.5 27t-28.5 40t-10.5 49q0 31 12.5 58.5t32.5 55.5q9 13 27 38l36 50q11 14 22 29.5t23 32.5l54 -38
l-84 -106q4 2 10 3t11 1q26 0 48.5 -10.5t39 -27.5t26 -39.5t9.5 -46.5q0 -26 -11 -49t-29 -40t-42 -27t-51 -10zM413 233q28 0 45 19t17 44q0 24 -17 43.5t-45 19.5q-27 0 -44 -19.5t-17 -43.5q0 -25 16.5 -44t44.5 -19z" />
    <glyph glyph-name="uni2786" horiz-adv-x="836" 
d="M418 -16q-77 0 -145 29.5t-119 80.5t-80.5 119t-29.5 145t29.5 145t80.5 119t119 80.5t145 29.5t145 -29.5t119 -80.5t80.5 -119t29.5 -145t-29.5 -145t-80.5 -119t-119 -80.5t-145 -29.5zM418 48q64 0 120.5 24.5t98.5 67t66.5 99t24.5 119.5q0 64 -24.5 120.5
t-66.5 98.5t-98.5 66.5t-120.5 24.5q-63 0 -119.5 -24.5t-99 -66.5t-67 -98.5t-24.5 -120.5q0 -63 24.5 -119.5t67 -99t99 -67t119.5 -24.5zM314 195l159 284h-172v64h250v-60l-175 -321z" />
    <glyph glyph-name="uni2787" horiz-adv-x="836" 
d="M418 -16q-77 0 -145 29.5t-119 80.5t-80.5 119t-29.5 145t29.5 145t80.5 119t119 80.5t145 29.5t145 -29.5t119 -80.5t80.5 -119t29.5 -145t-29.5 -145t-80.5 -119t-119 -80.5t-145 -29.5zM418 48q64 0 120.5 24.5t98.5 67t66.5 99t24.5 119.5q0 64 -24.5 120.5
t-66.5 98.5t-98.5 66.5t-120.5 24.5q-63 0 -119.5 -24.5t-99 -66.5t-67 -98.5t-24.5 -120.5q0 -63 24.5 -119.5t67 -99t99 -67t119.5 -24.5zM418 169q-25 0 -49 8t-43 22.5t-30.5 35.5t-11.5 48q0 26 13.5 48.5t37.5 38.5q-17 11 -28 31t-11 41q0 25 10 45t27 34.5t39 22
t46 7.5q23 0 45 -7.5t39 -22t27.5 -34.5t10.5 -45q0 -20 -11 -40t-28 -32q24 -16 37.5 -38.5t13.5 -48.5q0 -27 -11.5 -48t-30.5 -36t-43 -22.5t-49 -7.5zM418 397q19 0 34.5 12.5t15.5 32.5q0 19 -14.5 32t-35.5 13q-22 0 -36 -13t-14 -32q0 -20 15 -32.5t35 -12.5z
M418 233q22 0 42 15t20 38t-20 37.5t-42 14.5q-23 0 -42.5 -14.5t-19.5 -37.5q0 -24 19.5 -38.5t42.5 -14.5z" />
    <glyph glyph-name="uni2788" horiz-adv-x="836" 
d="M418 -16q-77 0 -145 29.5t-119 80.5t-80.5 119t-29.5 145t29.5 145t80.5 119t119 80.5t145 29.5t145 -29.5t119 -80.5t80.5 -119t29.5 -145t-29.5 -145t-80.5 -119t-119 -80.5t-145 -29.5zM418 48q64 0 120.5 24.5t98.5 67t66.5 99t24.5 119.5q0 64 -24.5 120.5
t-66.5 98.5t-98.5 66.5t-120.5 24.5q-63 0 -119.5 -24.5t-99 -66.5t-67 -98.5t-24.5 -120.5q0 -63 24.5 -119.5t67 -99t99 -67t119.5 -24.5zM415 551q28 0 52.5 -10t42.5 -27t28.5 -40t10.5 -49q0 -31 -12.5 -58.5t-32.5 -55.5l-27.5 -38.5t-35.5 -49.5q-11 -14 -22 -29.5
t-23 -32.5l-54 38l84 106q-4 -2 -10 -3t-11 -1q-26 0 -48.5 10.5t-39 27.5t-26 39.5t-9.5 46.5q0 26 11 49t29 40t42 27t51 10zM416 487q-28 0 -45 -19t-17 -44q0 -24 17 -43.5t45 -19.5q27 0 44 19.5t17 43.5q0 25 -16.5 44t-44.5 19z" />
    <glyph glyph-name="uni278A" horiz-adv-x="836" 
d="M466 543h-46l-112 -53l24 -54l64 26v-285h70v366zM418 -16q-77 0 -145 29.5t-119 80.5t-80.5 119t-29.5 145t29.5 145t80.5 119t119 80.5t145 29.5t145 -29.5t119 -80.5t80.5 -119t29.5 -145t-29.5 -145t-80.5 -119t-119 -80.5t-145 -29.5z" />
    <glyph glyph-name="uni278B" horiz-adv-x="836" 
d="M543 241h-158l37 37q8 8 15.5 15t15.5 15l24 24q9 9 20 20.5t20.5 26t16.5 30.5t7 34q0 25 -10.5 45t-28 34t-40 21.5t-46.5 7.5q-45 0 -80 -25t-45 -70l65 -27q6 30 22.5 44t38.5 14t37 -12t15 -32q0 -21 -14.5 -39.5t-27.5 -31.5l-70 -70l-30.5 -30.5t-33.5 -34.5v-60
h250v64zM418 -16q-77 0 -145 29.5t-119 80.5t-80.5 119t-29.5 145t29.5 145t80.5 119t119 80.5t145 29.5t145 -29.5t119 -80.5t80.5 -119t29.5 -145t-29.5 -145t-80.5 -119t-119 -80.5t-145 -29.5z" />
    <glyph glyph-name="uni278C" horiz-adv-x="836" 
d="M418 -16q-77 0 -145 29.5t-119 80.5t-80.5 119t-29.5 145t29.5 145t80.5 119t119 80.5t145 29.5t145 -29.5t119 -80.5t80.5 -119t29.5 -145t-29.5 -145t-80.5 -119t-119 -80.5t-145 -29.5zM415 165q26 0 50 8t42.5 23t29.5 36.5t11 49.5q0 29 -16 49.5t-41 34.5
q22 14 33.5 32t11.5 43q0 48 -34 77t-88 29q-48 0 -77.5 -23t-42.5 -59l62 -25q5 14 18 28.5t40 14.5q20 0 35 -11.5t15 -31.5q0 -21 -14.5 -34t-37.5 -13h-37v-60h41q25 0 42.5 -13t17.5 -36q0 -25 -19 -40t-42 -15q-21 0 -41 13t-28 47l-65 -24q13 -52 50.5 -76t83.5 -24z
" />
    <glyph glyph-name="uni278D" horiz-adv-x="836" 
d="M493 249h48v60h-48v234h-67l-174 -246v-48h171v-72h70v72zM325 309l94 131h4v-131h-98zM418 -16q-77 0 -145 29.5t-119 80.5t-80.5 119t-29.5 145t29.5 145t80.5 119t119 80.5t145 29.5t145 -29.5t119 -80.5t80.5 -119t29.5 -145t-29.5 -145t-80.5 -119t-119 -80.5
t-145 -29.5z" />
    <glyph glyph-name="uni278E" horiz-adv-x="836" 
d="M418 -16q-77 0 -145 29.5t-119 80.5t-80.5 119t-29.5 145t29.5 145t80.5 119t119 80.5t145 29.5t145 -29.5t119 -80.5t80.5 -119t29.5 -145t-29.5 -145t-80.5 -119t-119 -80.5t-145 -29.5zM418 169q27 0 51 9.5t42.5 26.5t29.5 40.5t11 50.5q0 28 -10 51.5t-27 39.5
t-40 25t-48 9q-36 0 -59 -20l12 81h150v60h-209l-25 -189l61 -25q24 33 61 33q26 0 44 -18.5t18 -45.5q0 -26 -18 -45t-44 -19q-55 0 -68 52l-65 -25q7 -25 21 -42t32 -28t39 -16t41 -5z" />
    <glyph glyph-name="uni278F" horiz-adv-x="836" 
d="M418 -16q-77 0 -145 29.5t-119 80.5t-80.5 119t-29.5 145t29.5 145t80.5 119t119 80.5t145 29.5t145 -29.5t119 -80.5t80.5 -119t29.5 -145t-29.5 -145t-80.5 -119t-119 -80.5t-145 -29.5zM414 169q27 0 51 10t42 27t29 40t11 49q0 24 -9.5 46.5t-26 39.5t-39 27.5
t-48.5 10.5q-5 0 -11 -1t-10 -3l84 106l-54 38q-12 -17 -23 -32.5t-22 -29.5l-36 -50t-27 -38q-20 -28 -32.5 -55.5t-12.5 -58.5q0 -26 10.5 -49t28.5 -40t42.5 -27t52.5 -10zM413 233q-28 0 -44.5 19t-16.5 44q0 24 17 43.5t44 19.5q28 0 45 -19.5t17 -43.5q0 -25 -17 -44
t-45 -19z" />
    <glyph glyph-name="uni2790" horiz-adv-x="836" 
d="M418 -16q-77 0 -145 29.5t-119 80.5t-80.5 119t-29.5 145t29.5 145t80.5 119t119 80.5t145 29.5t145 -29.5t119 -80.5t80.5 -119t29.5 -145t-29.5 -145t-80.5 -119t-119 -80.5t-145 -29.5zM376 162l175 321v60h-250v-64h172l-159 -284z" />
    <glyph glyph-name="uni2791" horiz-adv-x="836" 
d="M418 -16q-77 0 -145 29.5t-119 80.5t-80.5 119t-29.5 145t29.5 145t80.5 119t119 80.5t145 29.5t145 -29.5t119 -80.5t80.5 -119t29.5 -145t-29.5 -145t-80.5 -119t-119 -80.5t-145 -29.5zM418 169q25 0 49 7.5t43 22.5t30.5 36t11.5 48q0 26 -13.5 48.5t-37.5 38.5
q17 12 28 32t11 40q0 25 -10.5 45t-27.5 34.5t-39 22t-45 7.5q-24 0 -46 -7.5t-39 -22t-27 -34.5t-10 -45q0 -21 11 -41t28 -31q-24 -16 -37.5 -38.5t-13.5 -48.5q0 -27 11.5 -48t30.5 -35.5t43 -22.5t49 -8zM418 397q-20 0 -35 12.5t-15 32.5q0 19 14 32t36 13
q21 0 35.5 -13t14.5 -32q0 -20 -15.5 -32.5t-34.5 -12.5zM418 233q-23 0 -42.5 14.5t-19.5 38.5q0 23 19.5 37.5t42.5 14.5q22 0 42 -14.5t20 -37.5t-20 -38t-42 -15z" />
    <glyph glyph-name="uni2792" horiz-adv-x="836" 
d="M418 -16q-77 0 -145 29.5t-119 80.5t-80.5 119t-29.5 145t29.5 145t80.5 119t119 80.5t145 29.5t145 -29.5t119 -80.5t80.5 -119t29.5 -145t-29.5 -145t-80.5 -119t-119 -80.5t-145 -29.5zM415 551q-27 0 -51 -10t-42 -27t-29 -40t-11 -49q0 -24 9.5 -46.5t26 -39.5
t39 -27.5t48.5 -10.5q5 0 11 1t10 3l-84 -106l54 -38q12 17 23 32.5t22 29.5q18 25 35.5 49.5l27.5 38.5q20 28 32.5 55.5t12.5 58.5q0 26 -10.5 49t-28.5 40t-42.5 27t-52.5 10zM416 487q28 0 44.5 -19t16.5 -44q0 -24 -17 -43.5t-44 -19.5q-28 0 -45 19.5t-17 43.5
q0 25 17 44t45 19z" />
    <glyph glyph-name="Google.logo" horiz-adv-x="3284" 
d="M460 -16q-85 0 -160.5 32.5t-132.5 88t-90 130t-33 159.5t33 159.5t90 130t132.5 88t160.5 32.5q94 0 162.5 -32.5t118.5 -80.5l-79 -79q-36 34 -85.5 57t-116.5 23q-62 0 -115.5 -23.5t-93.5 -64t-62.5 -95t-22.5 -115.5q0 -62 22.5 -116t62.5 -94.5t93.5 -64
t115.5 -23.5q40 0 72 7.5t57 19t44 26t34 29.5q49 49 61 141h-268v112h377q6 -30 6 -70q0 -32 -5 -66t-16 -68.5t-29.5 -67t-46.5 -60.5q-54 -57 -123.5 -86t-162.5 -29zM1148 -16q-55 0 -103 20t-84 55t-57 83.5t-21 105.5t21 105.5t57 84t84 55t103 19.5t103 -19.5t84 -55
t57 -84t21 -105.5t-21 -105.5t-57 -83.5t-84 -55t-103 -20zM1148 88q30 0 57 12t47.5 33t32.5 50.5t12 64.5q0 36 -12 65.5t-32.5 50.5t-47.5 32.5t-57 11.5t-57 -11.5t-47.5 -32.5t-32.5 -50.5t-12 -65.5q0 -35 12 -64.5t32.5 -50.5t47.5 -33t57 -12zM1726 -16
q-55 0 -103 20t-84 55t-57 83.5t-21 105.5t21 105.5t57 84t84 55t103 19.5t103 -19.5t84 -55t57 -84t21 -105.5t-21 -105.5t-57 -83.5t-84 -55t-103 -20zM1726 88q30 0 57 12t47.5 33t32.5 50.5t12 64.5q0 36 -12 65.5t-32.5 50.5t-47.5 32.5t-57 11.5t-57 -11.5
t-47.5 -32.5t-32.5 -50.5t-12 -65.5q0 -35 12 -64.5t32.5 -50.5t47.5 -33t57 -12zM2294 -253q-48 0 -86.5 14.5t-67.5 37t-49 50.5t-31 54l101 42q7 -17 18.5 -33.5t28 -30t38 -22t48.5 -8.5q66 0 103.5 39.5t37.5 115.5v38h-4q-20 -24 -55.5 -42t-83.5 -18
q-50 0 -95.5 20.5t-80.5 55.5t-56 83t-21 104t21 104.5t56 84t80.5 56t95.5 20.5q48 0 83.5 -18t55.5 -41h4v43h110v-474q0 -73 -20 -125t-54.5 -85.5t-80 -49t-96.5 -15.5zM2302 88q30 0 55.5 12t44.5 33t30 50t11 64t-11 64.5t-30 51t-44.5 33.5t-55.5 12t-56.5 -12
t-47 -33.5t-32 -51t-11.5 -64.5t11.5 -64t32 -50t47 -33t56.5 -12zM2741 0h-116v776h116v-776zM3059 -16q-56 0 -104 20.5t-83 56t-55 83.5t-20 104q0 59 20 107.5t53.5 83.5t79 54t96.5 19t90 -18t66.5 -44t44.5 -55t25 -51l12 -30l-353 -146q41 -80 128 -80q45 0 76 20
t54 53l90 -60q-11 -16 -30 -36.5t-46 -38.5t-63 -30t-81 -12zM3148 354q-10 25 -36.5 40.5t-61.5 15.5q-23 0 -47.5 -9.5t-45 -29t-33.5 -48.5t-12 -67z" />
    <glyph glyph-name="G.logo" horiz-adv-x="861" 
d="M460 -16q-85 0 -160.5 32.5t-132.5 88t-90 130t-33 159.5t33 159.5t90 130t132.5 88t160.5 32.5q94 0 162.5 -32.5t118.5 -80.5l-79 -79q-36 34 -85.5 57t-116.5 23q-62 0 -115.5 -23.5t-93.5 -64t-62.5 -95t-22.5 -115.5q0 -62 22.5 -116t62.5 -94.5t93.5 -64
t115.5 -23.5q40 0 72 7.5t57 19t44 26t34 29.5q49 49 61 141h-268v112h377q6 -30 6 -70q0 -32 -5 -66t-16 -68.5t-29.5 -67t-46.5 -60.5q-54 -57 -123.5 -86t-162.5 -29z" />
    <glyph glyph-name="o.logo" horiz-adv-x="578" 
d="M287 -16q-55 0 -103 20t-84 55t-57 83.5t-21 105.5t21 105.5t57 84t84 55t103 19.5t103 -19.5t84 -55t57 -84t21 -105.5t-21 -105.5t-57 -83.5t-84 -55t-103 -20zM287 88q30 0 57 12t47.5 33t32.5 50.5t12 64.5q0 36 -12 65.5t-32.5 50.5t-47.5 32.5t-57 11.5t-57 -11.5
t-47.5 -32.5t-32.5 -50.5t-12 -65.5q0 -35 12 -64.5t32.5 -50.5t47.5 -33t57 -12z" />
    <glyph glyph-name="g.logo" horiz-adv-x="566" 
d="M277 -253q-48 0 -86.5 14.5t-67.5 37t-49 50.5t-31 54l101 42q7 -17 18.5 -33.5t28 -30t38 -22t48.5 -8.5q66 0 103.5 39.5t37.5 115.5v38h-4q-20 -24 -55.5 -42t-83.5 -18q-50 0 -95.5 20.5t-80.5 55.5t-56 83t-21 104t21 104.5t56 84t80.5 56t95.5 20.5q48 0 83.5 -18
t55.5 -41h4v43h110v-474q0 -73 -20 -125t-54.5 -85.5t-80 -49t-96.5 -15.5zM285 88q30 0 55.5 12t44.5 33t30 50t11 64t-11 64.5t-30 51t-44.5 33.5t-55.5 12t-56.5 -12t-47 -33.5t-32 -51t-11.5 -64.5t11.5 -64t32 -50t47 -33t56.5 -12z" />
    <glyph glyph-name="l.logo" horiz-adv-x="187" 
d="M158 0h-116v776h116v-776z" />
    <glyph glyph-name="e.logo" horiz-adv-x="514" 
d="M289 -16q-56 0 -104 20.5t-83 56t-55 83.5t-20 104q0 59 20 107.5t53.5 83.5t79 54t96.5 19t90 -18t66.5 -44t44.5 -55t25 -51l12 -30l-353 -146q41 -80 128 -80q45 0 76 20t54 53l90 -60q-11 -16 -30 -36.5t-46 -38.5t-63 -30t-81 -12zM378 354q-10 25 -36.5 40.5
t-61.5 15.5q-23 0 -47.5 -9.5t-45 -29t-33.5 -48.5t-12 -67z" />
    </font>
</defs>
</svg>
