<svg xmlns="http://www.w3.org/2000/svg" viewBox="0 0 48 48"><defs><style>.cls-1{fill:#e62100;}</style></defs><title>Untitled-3</title><g id="cross"><path class="cls-1" d="M16.184,32.453a.835.835,0,0,0,.632-.118c.01-.007.3-.192.767-.538.492-.356,1.181-.876,1.977-1.533,1.177-.944,2.564-2.168,4.017-3.544l.423-.4.423.4c1.446,1.369,2.832,2.592,4.01,3.537.8.663,1.491,1.183,1.982,1.538.472.346.758.532.766.537a.843.843,0,0,0,1.168-1.164c0-.007-.192-.292-.538-.766-.358-.492-.876-1.182-1.532-1.978-.952-1.182-2.208-2.605-3.543-4.013l-.4-.424.4-.424c1.372-1.444,2.6-2.83,3.538-4.008.66-.8,1.176-1.5,1.531-1.985s.526-.762.532-.769a.833.833,0,0,0-1.15-1.151c-.009.005-.3.19-.77.534-.437.313-1.132.829-1.98,1.525-1.2.954-2.581,2.176-4.014,3.539l-.424.4-.424-.4c-1.433-1.363-2.819-2.585-4.006-3.534-.849-.7-1.547-1.213-1.986-1.527-.477-.347-.764-.532-.773-.538a.832.832,0,0,0-.446-.128.845.845,0,0,0-.452.131.834.834,0,0,0-.252,1.147c.005.008.19.3.534.773s.869,1.182,1.524,1.976c.931,1.167,2.154,2.553,3.543,4.016l.4.423-.4.424c-1.336,1.411-2.592,2.834-3.537,4.007-.661.8-1.18,1.493-1.537,1.984-.346.473-.532.757-.538.765a.849.849,0,0,0,0,.921A.837.837,0,0,0,16.184,32.453Z"/><path class="cls-1" d="M24,.006A23.994,23.994,0,1,0,48,23.994,24.022,24.022,0,0,0,24,.006Zm0,45.663A21.669,21.669,0,1,1,45.675,23.994,21.7,21.7,0,0,1,24,45.669Z"/></g></svg>