<svg id="Layer_1" data-name="Layer 1" xmlns="http://www.w3.org/2000/svg" xmlns:xlink="http://www.w3.org/1999/xlink" viewBox="0 0 480 479.565"><defs><style>.cls-1{fill:#3196fd;}.cls-2{fill:#ffce00;}.cls-3{fill:none;}.cls-4{opacity:0.15;}.cls-5{fill:#6cb4ff;}.cls-6{fill:#e2e2e2;}.cls-7{clip-path:url(#clip-path);}.cls-8{clip-path:url(#clip-path-2);}.cls-9{clip-path:url(#clip-path-3);}.cls-10{clip-path:url(#clip-path-4);}.cls-11{clip-path:url(#clip-path-5);}.cls-12{fill:#3e2723;}.cls-13{fill:#fdd836;}.cls-14{fill:#fafbfb;}.cls-15{fill:#e0e0e0;}.cls-16{fill:#5d9efe;}.cls-17{clip-path:url(#clip-path-6);}.cls-18{fill:#82b4fe;}.cls-19{fill:#a4c9ff;}.cls-20{fill:#0a6cfe;}.cls-21{fill:#ccc6cd;}</style><clipPath id="clip-path"><polygon class="cls-1" points="95.869 322.071 87.216 322.071 87.216 330.727 78.559 330.727 78.559 339.383 69.898 339.383 69.898 348.037 61.244 348.037 61.244 355.155 58.171 355.155 58.171 344.966 66.827 344.966 66.827 336.31 75.483 336.31 75.483 327.651 84.139 327.651 84.139 318.994 92.795 318.994 92.795 311.875 95.869 311.875 95.869 322.071"/></clipPath><clipPath id="clip-path-2"><polygon class="cls-1" points="423.662 76.112 415.003 76.112 415.003 84.771 406.346 84.771 406.346 93.429 397.693 93.429 397.693 102.08 389.037 102.08 389.037 109.199 385.956 109.199 385.956 99.006 394.614 99.006 394.614 90.353 403.27 90.353 403.27 81.692 411.929 81.692 411.929 73.038 420.58 73.038 420.58 65.919 423.662 65.919 423.662 76.112"/></clipPath><clipPath id="clip-path-3"><rect class="cls-2" x="384.1" y="211.89" width="23.72" height="4.571" transform="translate(-35.433 342.845) rotate(-45.017)"/></clipPath><clipPath id="clip-path-4"><rect class="cls-2" x="393.675" y="202.316" width="4.571" height="23.72" transform="translate(-35.446 342.802) rotate(-45.011)"/></clipPath><clipPath id="clip-path-5"><path class="cls-2" d="M147.6,169.93a9.867,9.867,0,1,1,5.2-1.491A9.811,9.811,0,0,1,147.6,169.93Zm-.018-17.73a7.86,7.86,0,1,0,6.686,3.712A7.864,7.864,0,0,0,147.587,152.2Z"/></clipPath><clipPath id="clip-path-6"><path class="cls-3" d="M241.792,250.555h23.973a5.875,5.875,0,0,1,5.875,5.875V258a5.873,5.873,0,0,1-5.873,5.873H241.786a5.87,5.87,0,0,1-5.87-5.87V256.43a5.875,5.875,0,0,1,5.875-5.875Z"/></clipPath></defs><title>emptystates</title><g class="cls-4"><path class="cls-5" d="M372.7,260.162h-199a20.486,20.486,0,1,1,0-40.972h199a20.486,20.486,0,0,1,0,40.972Z"/><path class="cls-5" d="M459.515,383.183H256.584a20.487,20.487,0,1,1,0-40.973H459.515a20.487,20.487,0,0,1,0,40.973Z"/><path class="cls-5" d="M254.567,321.612a20.488,20.488,0,0,1,20.485-20.487H139.047a20.488,20.488,0,0,0,0,40.976H275.052A20.487,20.487,0,0,1,254.567,321.612Z"/><path class="cls-5" d="M336.3,321.612A20.49,20.49,0,0,1,315.818,342.1H366.03a20.488,20.488,0,0,0,0-40.976H315.818A20.488,20.488,0,0,1,336.3,321.612Z"/><path class="cls-5" d="M384.274,178.219H366.862a20.488,20.488,0,0,1,0-40.975h17.412a20.488,20.488,0,0,1,0,40.975Z"/><path class="cls-5" d="M167.183,118.675H120.545a20.488,20.488,0,1,1,0-40.976h46.638a20.488,20.488,0,1,1,0,40.976Z"/><path class="cls-5" d="M79.218,342.1H61.809a20.488,20.488,0,1,1,0-40.976H79.218a20.488,20.488,0,0,1,0,40.976Z"/><path class="cls-5" d="M300.165,178.219h-150.3a20.488,20.488,0,1,1,0-40.975h150.3a20.488,20.488,0,0,1,0,40.975Z"/><path class="cls-5" d="M281.229,198.7a20.485,20.485,0,0,1,20.486-20.483H196.645a20.486,20.486,0,1,1,0,40.971h105.07A20.49,20.49,0,0,1,281.229,198.7Z"/><path class="cls-5" d="M333.592,280.648a20.485,20.485,0,0,1,20.485-20.486H181.244a20.488,20.488,0,1,1,0,40.975H354.077A20.487,20.487,0,0,1,333.592,280.648Z"/></g><path class="cls-6" d="M366.784,398.836c0,8.178-50.306,14.81-112.357,14.81s-112.364-6.632-112.364-14.81,50.305-14.806,112.364-14.806S366.784,390.658,366.784,398.836Z"/><polygon class="cls-1" points="95.869 322.071 87.216 322.071 87.216 330.727 78.559 330.727 78.559 339.383 69.898 339.383 69.898 348.037 61.244 348.037 61.244 355.155 58.171 355.155 58.171 344.966 66.827 344.966 66.827 336.31 75.483 336.31 75.483 327.651 84.139 327.651 84.139 318.994 92.795 318.994 92.795 311.875 95.869 311.875 95.869 322.071"/><g class="cls-7"><rect class="cls-1" x="58.165" y="311.873" width="0.245" height="43.283"/><rect class="cls-1" x="58.41" y="311.873" width="0.232" height="43.283"/><rect class="cls-1" x="58.642" y="311.873" width="0.239" height="43.283"/><rect class="cls-1" x="58.881" y="311.873" width="0.236" height="43.283"/><rect class="cls-1" x="59.117" y="311.873" width="0.239" height="43.283"/><rect class="cls-1" x="59.356" y="311.873" width="0.234" height="43.283"/><rect class="cls-1" x="59.59" y="311.873" width="0.239" height="43.283"/><rect class="cls-1" x="59.829" y="311.873" width="0.239" height="43.283"/><rect class="cls-1" x="60.068" y="311.873" width="0.234" height="43.283"/><rect class="cls-1" x="60.303" y="311.873" width="0.234" height="43.283"/><rect class="cls-1" x="60.537" y="311.873" width="0.239" height="43.283"/><rect class="cls-1" x="60.776" y="311.873" width="0.242" height="43.283"/><rect class="cls-1" x="61.018" y="311.873" width="0.232" height="43.283"/><rect class="cls-1" x="61.25" y="311.873" width="0.239" height="43.283"/><rect class="cls-1" x="61.489" y="311.873" width="0.236" height="43.283"/><rect class="cls-1" x="61.725" y="311.873" width="0.239" height="43.283"/><rect class="cls-1" x="61.964" y="311.873" width="0.234" height="43.283"/><rect class="cls-1" x="62.198" y="311.873" width="0.242" height="43.283"/><rect class="cls-1" x="62.44" y="311.873" width="0.233" height="43.283"/><rect class="cls-1" x="62.674" y="311.873" width="0.24" height="43.283"/><rect class="cls-1" x="62.914" y="311.873" width="0.233" height="43.283"/><rect class="cls-1" x="63.147" y="311.873" width="0.239" height="43.283"/><rect class="cls-1" x="63.386" y="311.873" width="0.24" height="43.283"/><rect class="cls-1" x="63.626" y="311.873" width="0.233" height="43.283"/><rect class="cls-1" x="63.86" y="311.873" width="0.234" height="43.283"/><rect class="cls-1" x="64.094" y="311.873" width="0.239" height="43.283"/><rect class="cls-1" x="64.333" y="311.873" width="0.239" height="43.283"/><rect class="cls-1" x="64.572" y="311.873" width="0.234" height="43.283"/><rect class="cls-1" x="64.807" y="311.873" width="0.234" height="43.283"/><rect class="cls-1" x="65.041" y="311.873" width="0.241" height="43.283"/><rect class="cls-1" x="65.282" y="311.873" width="0.24" height="43.283"/><rect class="cls-1" x="65.522" y="311.873" width="0.233" height="43.283"/><rect class="cls-1" x="65.755" y="311.873" width="0.239" height="43.283"/><rect class="cls-1" x="65.994" y="311.873" width="0.234" height="43.283"/><rect class="cls-1" x="66.229" y="311.873" width="0.242" height="43.283"/><rect class="cls-1" x="66.471" y="311.873" width="0.234" height="43.283"/><rect class="cls-1" x="66.705" y="311.873" width="0.239" height="43.283"/><rect class="cls-1" x="66.944" y="311.873" width="0.233" height="43.283"/><rect class="cls-1" x="67.178" y="311.873" width="0.24" height="43.283"/><rect class="cls-1" x="67.418" y="311.873" width="0.233" height="43.283"/><rect class="cls-1" x="67.651" y="311.873" width="0.239" height="43.283"/><rect class="cls-1" x="67.89" y="311.873" width="0.239" height="43.283"/><rect class="cls-1" x="68.129" y="311.873" width="0.234" height="43.283"/><rect class="cls-1" x="68.363" y="311.873" width="0.234" height="43.283"/><rect class="cls-1" x="68.598" y="311.873" width="0.239" height="43.283"/><rect class="cls-1" x="68.837" y="311.873" width="0.242" height="43.283"/><rect class="cls-1" x="69.079" y="311.873" width="0.233" height="43.283"/><rect class="cls-1" x="69.312" y="311.873" width="0.234" height="43.283"/><rect class="cls-1" x="69.547" y="311.873" width="0.242" height="43.283"/><rect class="cls-1" x="69.788" y="311.873" width="0.239" height="43.283"/><rect class="cls-1" x="70.027" y="311.873" width="0.232" height="43.283"/><rect class="cls-1" x="70.259" y="311.873" width="0.242" height="43.283"/><rect class="cls-1" x="70.501" y="311.873" width="0.234" height="43.283"/><rect class="cls-1" x="70.735" y="311.873" width="0.239" height="43.283"/><rect class="cls-1" x="70.974" y="311.873" width="0.233" height="43.283"/><rect class="cls-1" x="71.208" y="311.873" width="0.239" height="43.283"/><rect class="cls-1" x="71.447" y="311.873" width="0.234" height="43.283"/><rect class="cls-1" x="71.681" y="311.873" width="0.239" height="43.283"/><rect class="cls-1" x="71.92" y="311.873" width="0.234" height="43.283"/><rect class="cls-1" x="72.155" y="311.873" width="0.242" height="43.283"/><rect class="cls-1" x="72.397" y="311.873" width="0.239" height="43.283"/><rect class="cls-1" x="72.636" y="311.873" width="0.234" height="43.283"/><rect class="cls-1" x="72.87" y="311.873" width="0.233" height="43.283"/><rect class="cls-1" x="73.103" y="311.873" width="0.239" height="43.283"/><rect class="cls-1" x="73.342" y="311.873" width="0.24" height="43.283"/><rect class="cls-1" x="73.582" y="311.873" width="0.236" height="43.283"/><rect class="cls-1" x="73.819" y="311.873" width="0.239" height="43.283"/><rect class="cls-1" x="74.058" y="311.873" width="0.234" height="43.283"/><rect class="cls-1" x="74.292" y="311.873" width="0.239" height="43.283"/><rect class="cls-1" x="74.531" y="311.873" width="0.234" height="43.283"/><rect class="cls-1" x="74.766" y="311.873" width="0.239" height="43.283"/><rect class="cls-1" x="75.005" y="311.873" width="0.233" height="43.283"/><rect class="cls-1" x="75.238" y="311.873" width="0.24" height="43.283"/><rect class="cls-1" x="75.478" y="311.873" width="0.233" height="43.283"/><rect class="cls-1" x="75.712" y="311.873" width="0.239" height="43.283"/><rect class="cls-1" x="75.951" y="311.873" width="0.24" height="43.283"/><rect class="cls-1" x="76.191" y="311.873" width="0.236" height="43.283"/><rect class="cls-1" x="76.427" y="311.873" width="0.234" height="43.283"/><rect class="cls-1" x="76.661" y="311.873" width="0.239" height="43.283"/><rect class="cls-1" x="76.9" y="311.873" width="0.242" height="43.283"/><rect class="cls-1" x="77.142" y="311.873" width="0.233" height="43.283"/><rect class="cls-1" x="77.376" y="311.873" width="0.232" height="43.283"/><rect class="cls-1" x="77.607" y="311.873" width="0.242" height="43.283"/><rect class="cls-1" x="77.849" y="311.873" width="0.239" height="43.283"/><rect class="cls-1" x="78.088" y="311.873" width="0.234" height="43.283"/><rect class="cls-1" x="78.322" y="311.873" width="0.239" height="43.283"/><rect class="cls-1" x="78.562" y="311.873" width="0.234" height="43.283"/><rect class="cls-1" x="78.796" y="311.873" width="0.239" height="43.283"/><rect class="cls-1" x="79.035" y="311.873" width="0.234" height="43.283"/><rect class="cls-1" x="79.269" y="311.873" width="0.239" height="43.283"/><rect class="cls-1" x="79.508" y="311.873" width="0.236" height="43.283"/><rect class="cls-1" x="79.745" y="311.873" width="0.239" height="43.283"/><rect class="cls-1" x="79.984" y="311.873" width="0.232" height="43.283"/><rect class="cls-1" x="80.215" y="311.873" width="0.242" height="43.283"/><rect class="cls-1" x="80.457" y="311.873" width="0.239" height="43.283"/><rect class="cls-1" x="80.696" y="311.873" width="0.234" height="43.283"/><rect class="cls-1" x="80.931" y="311.873" width="0.236" height="43.283"/><rect class="cls-1" x="81.167" y="311.873" width="0.239" height="43.283"/><rect class="cls-1" x="81.406" y="311.873" width="0.239" height="43.283"/><rect class="cls-1" x="81.645" y="311.873" width="0.234" height="43.283"/><rect class="cls-1" x="81.879" y="311.873" width="0.234" height="43.283"/><rect class="cls-1" x="82.114" y="311.873" width="0.239" height="43.283"/><rect class="cls-1" x="82.353" y="311.873" width="0.239" height="43.283"/><rect class="cls-1" x="82.592" y="311.873" width="0.234" height="43.283"/><rect class="cls-1" x="82.826" y="311.873" width="0.239" height="43.283"/><rect class="cls-1" x="83.065" y="311.873" width="0.234" height="43.283"/><rect class="cls-1" x="83.3" y="311.873" width="0.239" height="43.283"/><rect class="cls-1" x="83.539" y="311.873" width="0.236" height="43.283"/><rect class="cls-1" x="83.775" y="311.873" width="0.239" height="43.283"/><rect class="cls-1" x="84.014" y="311.873" width="0.234" height="43.283"/><rect class="cls-1" x="84.248" y="311.873" width="0.242" height="43.283"/><rect class="cls-1" x="84.49" y="311.873" width="0.232" height="43.283"/><rect class="cls-1" x="84.722" y="311.873" width="0.242" height="43.283"/><rect class="cls-1" x="84.964" y="311.873" width="0.239" height="43.283"/><rect class="cls-1" x="85.203" y="311.873" width="0.233" height="43.283"/><rect class="cls-1" x="85.436" y="311.873" width="0.234" height="43.283"/><rect class="cls-1" x="85.671" y="311.873" width="0.239" height="43.283"/><rect class="cls-1" x="85.91" y="311.873" width="0.239" height="43.283"/><rect class="cls-1" x="86.149" y="311.873" width="0.234" height="43.283"/><rect class="cls-1" x="86.383" y="311.873" width="0.239" height="43.283"/><rect class="cls-1" x="86.622" y="311.873" width="0.234" height="43.283"/><rect class="cls-1" x="86.857" y="311.873" width="0.242" height="43.283"/><rect class="cls-1" x="87.098" y="311.873" width="0.232" height="43.283"/><rect class="cls-1" x="87.33" y="311.873" width="0.241" height="43.283"/><rect class="cls-1" x="87.571" y="311.873" width="0.234" height="43.283"/><rect class="cls-1" x="87.805" y="311.873" width="0.239" height="43.283"/><rect class="cls-1" x="88.044" y="311.873" width="0.234" height="43.283"/><rect class="cls-1" x="88.279" y="311.873" width="0.242" height="43.283"/><rect class="cls-1" x="88.521" y="311.873" width="0.239" height="43.283"/><rect class="cls-1" x="88.76" y="311.873" width="0.234" height="43.283"/><rect class="cls-1" x="88.994" y="311.873" width="0.233" height="43.283"/><rect class="cls-1" x="89.227" y="311.873" width="0.239" height="43.283"/><rect class="cls-1" x="89.467" y="311.873" width="0.24" height="43.283"/><rect class="cls-1" x="89.707" y="311.873" width="0.233" height="43.283"/><rect class="cls-1" x="89.94" y="311.873" width="0.234" height="43.283"/><rect class="cls-1" x="90.174" y="311.873" width="0.239" height="43.283"/><rect class="cls-1" x="90.413" y="311.873" width="0.239" height="43.283"/><rect class="cls-1" x="90.653" y="311.873" width="0.234" height="43.283"/><rect class="cls-1" x="90.887" y="311.873" width="0.242" height="43.283"/><rect class="cls-1" x="91.129" y="311.873" width="0.233" height="43.283"/><rect class="cls-1" x="91.362" y="311.873" width="0.239" height="43.283"/><rect class="cls-1" x="91.601" y="311.873" width="0.237" height="43.283"/><rect class="cls-1" x="91.838" y="311.873" width="0.239" height="43.283"/><rect class="cls-1" x="92.078" y="311.873" width="0.232" height="43.283"/><rect class="cls-1" x="92.309" y="311.873" width="0.242" height="43.283"/><rect class="cls-1" x="92.551" y="311.873" width="0.234" height="43.283"/><rect class="cls-1" x="92.785" y="311.873" width="0.239" height="43.283"/><rect class="cls-1" x="93.024" y="311.873" width="0.239" height="43.283"/><rect class="cls-1" x="93.263" y="311.873" width="0.233" height="43.283"/><rect class="cls-1" x="93.497" y="311.873" width="0.234" height="43.283"/><rect class="cls-1" x="93.731" y="311.873" width="0.239" height="43.283"/><rect class="cls-1" x="93.97" y="311.873" width="0.239" height="43.283"/><rect class="cls-1" x="94.209" y="311.873" width="0.237" height="43.283"/><rect class="cls-1" x="94.447" y="311.873" width="0.232" height="43.283"/><rect class="cls-1" x="94.678" y="311.873" width="0.239" height="43.283"/><rect class="cls-1" x="94.917" y="311.873" width="0.242" height="43.283"/><rect class="cls-1" x="95.159" y="311.873" width="0.233" height="43.283"/><rect class="cls-1" x="95.393" y="311.873" width="0.24" height="43.283"/><rect class="cls-1" x="95.633" y="311.873" width="0.236" height="43.283"/></g><polygon class="cls-1" points="423.662 76.112 415.003 76.112 415.003 84.771 406.346 84.771 406.346 93.429 397.693 93.429 397.693 102.08 389.037 102.08 389.037 109.199 385.956 109.199 385.956 99.006 394.614 99.006 394.614 90.353 403.27 90.353 403.27 81.692 411.929 81.692 411.929 73.038 420.58 73.038 420.58 65.919 423.662 65.919 423.662 76.112"/><g class="cls-8"><rect class="cls-1" x="385.956" y="65.916" width="0.236" height="43.281"/><rect class="cls-1" x="386.192" y="65.916" width="0.24" height="43.281"/><rect class="cls-1" x="386.432" y="65.916" width="0.233" height="43.281"/><rect class="cls-1" x="386.665" y="65.916" width="0.239" height="43.281"/><rect class="cls-1" x="386.904" y="65.916" width="0.239" height="43.281"/><rect class="cls-1" x="387.143" y="65.916" width="0.234" height="43.281"/><rect class="cls-1" x="387.378" y="65.916" width="0.237" height="43.281"/><rect class="cls-1" x="387.615" y="65.916" width="0.239" height="43.281"/><rect class="cls-1" x="387.854" y="65.916" width="0.239" height="43.281"/><rect class="cls-1" x="388.093" y="65.916" width="0.234" height="43.281"/><rect class="cls-1" x="388.327" y="65.916" width="0.233" height="43.281"/><rect class="cls-1" x="388.561" y="65.916" width="0.239" height="43.281"/><rect class="cls-1" x="388.8" y="65.916" width="0.242" height="43.281"/><rect class="cls-1" x="389.042" y="65.916" width="0.234" height="43.281"/><rect class="cls-1" x="389.276" y="65.916" width="0.239" height="43.281"/><rect class="cls-1" x="389.515" y="65.916" width="0.234" height="43.281"/><rect class="cls-1" x="389.75" y="65.916" width="0.239" height="43.281"/><rect class="cls-1" x="389.989" y="65.916" width="0.233" height="43.281"/><rect class="cls-1" x="390.222" y="65.916" width="0.242" height="43.281"/><rect class="cls-1" x="390.464" y="65.916" width="0.234" height="43.281"/><rect class="cls-1" x="390.698" y="65.916" width="0.239" height="43.281"/><rect class="cls-1" x="390.938" y="65.916" width="0.234" height="43.281"/><rect class="cls-1" x="391.172" y="65.916" width="0.239" height="43.281"/><rect class="cls-1" x="391.411" y="65.916" width="0.242" height="43.281"/><rect class="cls-1" x="391.653" y="65.916" width="0.233" height="43.281"/><rect class="cls-1" x="391.886" y="65.916" width="0.234" height="43.281"/><rect class="cls-1" x="392.121" y="65.916" width="0.239" height="43.281"/><rect class="cls-1" x="392.36" y="65.916" width="0.239" height="43.281"/><rect class="cls-1" x="392.599" y="65.916" width="0.234" height="43.281"/><rect class="cls-1" x="392.833" y="65.916" width="0.242" height="43.281"/><rect class="cls-1" x="393.075" y="65.916" width="0.234" height="43.281"/><rect class="cls-1" x="393.309" y="65.916" width="0.239" height="43.281"/><rect class="cls-1" x="393.548" y="65.916" width="0.233" height="43.281"/><rect class="cls-1" x="393.782" y="65.916" width="0.24" height="43.281"/><rect class="cls-1" x="394.022" y="65.916" width="0.232" height="43.281"/><rect class="cls-1" x="394.253" y="65.916" width="0.244" height="43.281"/><rect class="cls-1" x="394.497" y="65.916" width="0.229" height="43.281"/><rect class="cls-1" x="394.726" y="65.916" width="0.239" height="43.281"/><rect class="cls-1" x="394.965" y="65.916" width="0.24" height="43.281"/><rect class="cls-1" x="395.205" y="65.916" width="0.233" height="43.281"/><rect class="cls-1" x="395.438" y="65.916" width="0.237" height="43.281"/><rect class="cls-1" x="395.676" y="65.916" width="0.239" height="43.281"/><rect class="cls-1" x="395.915" y="65.916" width="0.239" height="43.281"/><rect class="cls-1" x="396.154" y="65.916" width="0.234" height="43.281"/><rect class="cls-1" x="396.388" y="65.916" width="0.233" height="43.281"/><rect class="cls-1" x="396.622" y="65.916" width="0.242" height="43.281"/><rect class="cls-1" x="396.863" y="65.916" width="0.239" height="43.281"/><rect class="cls-1" x="397.102" y="65.916" width="0.234" height="43.281"/><rect class="cls-1" x="397.337" y="65.916" width="0.239" height="43.281"/><rect class="cls-1" x="397.576" y="65.916" width="0.234" height="43.281"/><rect class="cls-1" x="397.81" y="65.916" width="0.239" height="43.281"/><rect class="cls-1" x="398.049" y="65.916" width="0.236" height="43.281"/><rect class="cls-1" x="398.286" y="65.916" width="0.239" height="43.281"/><rect class="cls-1" x="398.525" y="65.916" width="0.234" height="43.281"/><rect class="cls-1" x="398.759" y="65.916" width="0.239" height="43.281"/><rect class="cls-1" x="398.998" y="65.916" width="0.234" height="43.281"/><rect class="cls-1" x="399.233" y="65.916" width="0.239" height="43.281"/><rect class="cls-1" x="399.472" y="65.916" width="0.242" height="43.281"/><rect class="cls-1" x="399.713" y="65.916" width="0.234" height="43.281"/><rect class="cls-1" x="399.948" y="65.916" width="0.233" height="43.281"/><rect class="cls-1" x="400.181" y="65.916" width="0.239" height="43.281"/><rect class="cls-1" x="400.42" y="65.916" width="0.24" height="43.281"/><rect class="cls-1" x="400.66" y="65.916" width="0.233" height="43.281"/><rect class="cls-1" x="400.894" y="65.916" width="0.242" height="43.281"/><rect class="cls-1" x="401.136" y="65.916" width="0.234" height="43.281"/><rect class="cls-1" x="401.37" y="65.916" width="0.239" height="43.281"/><rect class="cls-1" x="401.609" y="65.916" width="0.234" height="43.281"/><rect class="cls-1" x="401.843" y="65.916" width="0.239" height="43.281"/><rect class="cls-1" x="402.082" y="65.916" width="0.236" height="43.281"/><rect class="cls-1" x="402.319" y="65.916" width="0.239" height="43.281"/><rect class="cls-1" x="402.558" y="65.916" width="0.234" height="43.281"/><rect class="cls-1" x="402.792" y="65.916" width="0.239" height="43.281"/><rect class="cls-1" x="403.031" y="65.916" width="0.239" height="43.281"/><rect class="cls-1" x="403.27" y="65.916" width="0.234" height="43.281"/><rect class="cls-1" x="403.505" y="65.916" width="0.232" height="43.281"/><rect class="cls-1" x="403.736" y="65.916" width="0.244" height="43.281"/><rect class="cls-1" x="403.98" y="65.916" width="0.239" height="43.281"/><rect class="cls-1" x="404.219" y="65.916" width="0.23" height="43.281"/><rect class="cls-1" x="404.449" y="65.916" width="0.233" height="43.281"/><rect class="cls-1" x="404.682" y="65.916" width="0.242" height="43.281"/><rect class="cls-1" x="404.924" y="65.916" width="0.239" height="43.281"/><rect class="cls-1" x="405.163" y="65.916" width="0.234" height="43.281"/><rect class="cls-1" x="405.398" y="65.916" width="0.239" height="43.281"/><rect class="cls-1" x="405.637" y="65.916" width="0.234" height="43.281"/><rect class="cls-1" x="405.871" y="65.916" width="0.239" height="43.281"/><rect class="cls-1" x="406.11" y="65.916" width="0.236" height="43.281"/><rect class="cls-1" x="406.346" y="65.916" width="0.24" height="43.281"/><rect class="cls-1" x="406.586" y="65.916" width="0.239" height="43.281"/><rect class="cls-1" x="406.825" y="65.916" width="0.233" height="43.281"/><rect class="cls-1" x="407.059" y="65.916" width="0.234" height="43.281"/><rect class="cls-1" x="407.293" y="65.916" width="0.242" height="43.281"/><rect class="cls-1" x="407.535" y="65.916" width="0.239" height="43.281"/><rect class="cls-1" x="407.774" y="65.916" width="0.234" height="43.281"/><rect class="cls-1" x="408.008" y="65.916" width="0.233" height="43.281"/><rect class="cls-1" x="408.242" y="65.916" width="0.239" height="43.281"/><rect class="cls-1" x="408.481" y="65.916" width="0.24" height="43.281"/><rect class="cls-1" x="408.721" y="65.916" width="0.236" height="43.281"/><rect class="cls-1" x="408.957" y="65.916" width="0.239" height="43.281"/><rect class="cls-1" x="409.196" y="65.916" width="0.234" height="43.281"/><rect class="cls-1" x="409.431" y="65.916" width="0.239" height="43.281"/><rect class="cls-1" x="409.67" y="65.916" width="0.234" height="43.281"/><rect class="cls-1" x="409.904" y="65.916" width="0.239" height="43.281"/><rect class="cls-1" x="410.143" y="65.916" width="0.236" height="43.281"/><rect class="cls-1" x="410.379" y="65.916" width="0.239" height="43.281"/><rect class="cls-1" x="410.618" y="65.916" width="0.234" height="43.281"/><rect class="cls-1" x="410.853" y="65.916" width="0.239" height="43.281"/><rect class="cls-1" x="411.092" y="65.916" width="0.239" height="43.281"/><rect class="cls-1" x="411.331" y="65.916" width="0.234" height="43.281"/><rect class="cls-1" x="411.565" y="65.916" width="0.236" height="43.281"/><rect class="cls-1" x="411.802" y="65.916" width="0.239" height="43.281"/><rect class="cls-1" x="412.041" y="65.916" width="0.24" height="43.281"/><rect class="cls-1" x="412.281" y="65.916" width="0.233" height="43.281"/><rect class="cls-1" x="412.514" y="65.916" width="0.239" height="43.281"/><rect class="cls-1" x="412.753" y="65.916" width="0.237" height="43.281"/><rect class="cls-1" x="412.99" y="65.916" width="0.239" height="43.281"/><rect class="cls-1" x="413.229" y="65.916" width="0.234" height="43.281"/><rect class="cls-1" x="413.464" y="65.916" width="0.239" height="43.281"/><rect class="cls-1" x="413.703" y="65.916" width="0.229" height="43.281"/><rect class="cls-1" x="413.932" y="65.916" width="0.239" height="43.281"/><rect class="cls-1" x="414.171" y="65.916" width="0.237" height="43.281"/><rect class="cls-1" x="414.408" y="65.916" width="0.239" height="43.281"/><rect class="cls-1" x="414.647" y="65.916" width="0.239" height="43.281"/><rect class="cls-1" x="414.886" y="65.916" width="0.233" height="43.281"/><rect class="cls-1" x="415.119" y="65.916" width="0.234" height="43.281"/><rect class="cls-1" x="415.354" y="65.916" width="0.242" height="43.281"/><rect class="cls-1" x="415.596" y="65.916" width="0.239" height="43.281"/><rect class="cls-1" x="415.835" y="65.916" width="0.234" height="43.281"/><rect class="cls-1" x="416.069" y="65.916" width="0.233" height="43.281"/><rect class="cls-1" x="416.302" y="65.916" width="0.24" height="43.281"/><rect class="cls-1" x="416.542" y="65.916" width="0.239" height="43.281"/><rect class="cls-1" x="416.782" y="65.916" width="0.236" height="43.281"/><rect class="cls-1" x="417.018" y="65.916" width="0.239" height="43.281"/><rect class="cls-1" x="417.257" y="65.916" width="0.234" height="43.281"/><rect class="cls-1" x="417.491" y="65.916" width="0.239" height="43.281"/><rect class="cls-1" x="417.73" y="65.916" width="0.234" height="43.281"/><rect class="cls-1" x="417.965" y="65.916" width="0.242" height="43.281"/><rect class="cls-1" x="418.207" y="65.916" width="0.233" height="43.281"/><rect class="cls-1" x="418.44" y="65.916" width="0.239" height="43.281"/><rect class="cls-1" x="418.679" y="65.916" width="0.234" height="43.281"/><rect class="cls-1" x="418.913" y="65.916" width="0.239" height="43.281"/><rect class="cls-1" x="419.153" y="65.916" width="0.239" height="43.281"/><rect class="cls-1" x="419.392" y="65.916" width="0.234" height="43.281"/><rect class="cls-1" x="419.626" y="65.916" width="0.236" height="43.281"/><rect class="cls-1" x="419.862" y="65.916" width="0.24" height="43.281"/><rect class="cls-1" x="420.102" y="65.916" width="0.239" height="43.281"/><rect class="cls-1" x="420.341" y="65.916" width="0.233" height="43.281"/><rect class="cls-1" x="420.575" y="65.916" width="0.239" height="43.281"/><rect class="cls-1" x="420.814" y="65.916" width="0.237" height="43.281"/><rect class="cls-1" x="421.051" y="65.916" width="0.239" height="43.281"/><rect class="cls-1" x="421.29" y="65.916" width="0.234" height="43.281"/><rect class="cls-1" x="421.524" y="65.916" width="0.239" height="43.281"/><rect class="cls-1" x="421.763" y="65.916" width="0.234" height="43.281"/><rect class="cls-1" x="421.998" y="65.916" width="0.239" height="43.281"/><rect class="cls-1" x="422.237" y="65.916" width="0.236" height="43.281"/><rect class="cls-1" x="422.473" y="65.916" width="0.239" height="43.281"/><rect class="cls-1" x="422.712" y="65.916" width="0.239" height="43.281"/><rect class="cls-1" x="422.951" y="65.916" width="0.234" height="43.281"/><rect class="cls-1" x="423.186" y="65.916" width="0.229" height="43.281"/><rect class="cls-1" x="423.414" y="65.916" width="0.248" height="43.281"/></g><rect class="cls-2" x="384.1" y="211.89" width="23.72" height="4.571" transform="translate(-35.433 342.845) rotate(-45.017)"/><g class="cls-9"><rect class="cls-2" x="385.956" y="204.175" width="0.125" height="20.002"/><rect class="cls-2" x="386.08" y="204.175" width="0.132" height="20.002"/><rect class="cls-2" x="386.213" y="204.175" width="0.122" height="20.002"/><rect class="cls-2" x="386.334" y="204.175" width="0.128" height="20.002"/><rect class="cls-2" x="386.462" y="204.175" width="0.122" height="20.002"/><rect class="cls-2" x="386.584" y="204.175" width="0.13" height="20.002"/><rect class="cls-2" x="386.714" y="204.175" width="0.122" height="20.002"/><rect class="cls-2" x="386.836" y="204.175" width="0.127" height="20.002"/><rect class="cls-2" x="386.963" y="204.175" width="0.122" height="20.002"/><rect class="cls-2" x="387.085" y="204.175" width="0.129" height="20.002"/><rect class="cls-2" x="387.215" y="204.175" width="0.127" height="20.002"/><rect class="cls-2" x="387.342" y="204.175" width="0.128" height="20.002"/><rect class="cls-2" x="387.47" y="204.175" width="0.122" height="20.002"/><rect class="cls-2" x="387.592" y="204.175" width="0.127" height="20.002"/><rect class="cls-2" x="387.719" y="204.175" width="0.125" height="20.002"/><rect class="cls-2" x="387.844" y="204.175" width="0.127" height="20.002"/><rect class="cls-2" x="387.971" y="204.175" width="0.122" height="20.002"/><rect class="cls-2" x="388.093" y="204.175" width="0.127" height="20.002"/><rect class="cls-2" x="388.221" y="204.175" width="0.122" height="20.002"/><rect class="cls-2" x="388.342" y="204.175" width="0.135" height="20.002"/><rect class="cls-2" x="388.478" y="204.175" width="0.122" height="20.002"/><rect class="cls-2" x="388.599" y="204.175" width="0.127" height="20.002"/><rect class="cls-2" x="388.727" y="204.175" width="0.127" height="20.002"/><rect class="cls-2" x="388.853" y="204.175" width="0.125" height="20.002"/><rect class="cls-2" x="388.978" y="204.175" width="0.123" height="20.002"/><rect class="cls-2" x="389.101" y="204.175" width="0.127" height="20.002"/><rect class="cls-2" x="389.227" y="204.175" width="0.127" height="20.002"/><rect class="cls-2" x="389.355" y="204.175" width="0.122" height="20.002"/><rect class="cls-2" x="389.477" y="204.175" width="0.125" height="20.002"/><rect class="cls-2" x="389.602" y="204.175" width="0.132" height="20.002"/><rect class="cls-2" x="389.734" y="204.175" width="0.127" height="20.002"/><rect class="cls-2" x="389.861" y="204.175" width="0.122" height="20.002"/><rect class="cls-2" x="389.983" y="204.175" width="0.123" height="20.002"/><rect class="cls-2" x="390.106" y="204.175" width="0.129" height="20.002"/><rect class="cls-2" x="390.235" y="204.175" width="0.127" height="20.002"/><rect class="cls-2" x="390.363" y="204.175" width="0.122" height="20.002"/><rect class="cls-2" x="390.485" y="204.175" width="0.122" height="20.002"/><rect class="cls-2" x="390.607" y="204.175" width="0.135" height="20.002"/><rect class="cls-2" x="390.742" y="204.175" width="0.127" height="20.002"/><rect class="cls-2" x="390.869" y="204.175" width="0.122" height="20.002"/><rect class="cls-2" x="390.991" y="204.175" width="0.122" height="20.002"/><rect class="cls-2" x="391.113" y="204.175" width="0.127" height="20.002"/><rect class="cls-2" x="391.24" y="204.175" width="0.13" height="20.002"/><rect class="cls-2" x="391.371" y="204.175" width="0.122" height="20.002"/><rect class="cls-2" x="391.493" y="204.175" width="0.122" height="20.002"/><rect class="cls-2" x="391.614" y="204.175" width="0.128" height="20.002"/><rect class="cls-2" x="391.742" y="204.175" width="0.135" height="20.002"/><rect class="cls-2" x="391.877" y="204.175" width="0.122" height="20.002"/><rect class="cls-2" x="391.999" y="204.175" width="0.122" height="20.002"/><rect class="cls-2" x="392.121" y="204.175" width="0.127" height="20.002"/><rect class="cls-2" x="392.248" y="204.175" width="0.127" height="20.002"/><rect class="cls-2" x="392.376" y="204.175" width="0.125" height="20.002"/><rect class="cls-2" x="392.5" y="204.175" width="0.122" height="20.002"/><rect class="cls-2" x="392.622" y="204.175" width="0.128" height="20.002"/><rect class="cls-2" x="392.75" y="204.175" width="0.127" height="20.002"/><rect class="cls-2" x="392.876" y="204.175" width="0.123" height="20.002"/><rect class="cls-2" x="392.999" y="204.175" width="0.129" height="20.002"/><rect class="cls-2" x="393.128" y="204.175" width="0.127" height="20.002"/><rect class="cls-2" x="393.256" y="204.175" width="0.127" height="20.002"/><rect class="cls-2" x="393.382" y="204.175" width="0.123" height="20.002"/><rect class="cls-2" x="393.505" y="204.175" width="0.129" height="20.002"/><rect class="cls-2" x="393.635" y="204.175" width="0.122" height="20.002"/><rect class="cls-2" x="393.757" y="204.175" width="0.127" height="20.002"/><rect class="cls-2" x="393.884" y="204.175" width="0.122" height="20.002"/><rect class="cls-2" x="394.006" y="204.175" width="0.135" height="20.002"/><rect class="cls-2" x="394.141" y="204.175" width="0.122" height="20.002"/><rect class="cls-2" x="394.263" y="204.175" width="0.127" height="20.002"/><rect class="cls-2" x="394.39" y="204.175" width="0.122" height="20.002"/><rect class="cls-2" x="394.512" y="204.175" width="0.127" height="20.002"/><rect class="cls-2" x="394.64" y="204.175" width="0.122" height="20.002"/><rect class="cls-2" x="394.762" y="204.175" width="0.13" height="20.002"/><rect class="cls-2" x="394.892" y="204.175" width="0.122" height="20.002"/><rect class="cls-2" x="395.014" y="204.175" width="0.127" height="20.002"/><rect class="cls-2" x="395.141" y="204.175" width="0.122" height="20.002"/><rect class="cls-2" x="395.263" y="204.175" width="0.135" height="20.002"/><rect class="cls-2" x="395.398" y="204.175" width="0.122" height="20.002"/><rect class="cls-2" x="395.52" y="204.175" width="0.127" height="20.002"/><rect class="cls-2" x="395.647" y="204.175" width="0.122" height="20.002"/><rect class="cls-2" x="395.769" y="204.175" width="0.127" height="20.002"/><rect class="cls-2" x="395.897" y="204.175" width="0.125" height="20.002"/><rect class="cls-2" x="396.022" y="204.175" width="0.127" height="20.002"/><rect class="cls-2" x="396.149" y="204.175" width="0.122" height="20.002"/><rect class="cls-2" x="396.271" y="204.175" width="0.127" height="20.002"/><rect class="cls-2" x="396.398" y="204.175" width="0.13" height="20.002"/><rect class="cls-2" x="396.528" y="204.175" width="0.127" height="20.002"/><rect class="cls-2" x="396.655" y="204.175" width="0.122" height="20.002"/><rect class="cls-2" x="396.777" y="204.175" width="0.127" height="20.002"/><rect class="cls-2" x="396.905" y="204.175" width="0.122" height="20.002"/><rect class="cls-2" x="397.027" y="204.175" width="0.129" height="20.002"/><rect class="cls-2" x="397.156" y="204.175" width="0.123" height="20.002"/><rect class="cls-2" x="397.279" y="204.175" width="0.127" height="20.002"/><rect class="cls-2" x="397.405" y="204.175" width="0.123" height="20.002"/><rect class="cls-2" x="397.528" y="204.175" width="0.134" height="20.002"/><rect class="cls-2" x="397.662" y="204.175" width="0.123" height="20.002"/><rect class="cls-2" x="397.785" y="204.175" width="0.127" height="20.002"/><rect class="cls-2" x="397.912" y="204.175" width="0.123" height="20.002"/><rect class="cls-2" x="398.034" y="204.175" width="0.127" height="20.002"/><rect class="cls-2" x="398.161" y="204.175" width="0.125" height="20.002"/><rect class="cls-2" x="398.286" y="204.175" width="0.127" height="20.002"/><rect class="cls-2" x="398.413" y="204.175" width="0.127" height="20.002"/><rect class="cls-2" x="398.541" y="204.175" width="0.122" height="20.002"/><rect class="cls-2" x="398.662" y="204.175" width="0.128" height="20.002"/><rect class="cls-2" x="398.79" y="204.175" width="0.129" height="20.002"/><rect class="cls-2" x="398.919" y="204.175" width="0.127" height="20.002"/><rect class="cls-2" x="399.047" y="204.175" width="0.122" height="20.002"/><rect class="cls-2" x="399.169" y="204.175" width="0.122" height="20.002"/><rect class="cls-2" x="399.291" y="204.175" width="0.127" height="20.002"/><rect class="cls-2" x="399.418" y="204.175" width="0.129" height="20.002"/><rect class="cls-2" x="399.547" y="204.175" width="0.123" height="20.002"/><rect class="cls-2" x="399.67" y="204.175" width="0.122" height="20.002"/><rect class="cls-2" x="399.792" y="204.175" width="0.132" height="20.002"/><rect class="cls-2" x="399.924" y="204.175" width="0.13" height="20.002"/><rect class="cls-2" x="400.055" y="204.175" width="0.122" height="20.002"/><rect class="cls-2" x="400.177" y="204.175" width="0.122" height="20.002"/><rect class="cls-2" x="400.298" y="204.175" width="0.128" height="20.002"/><rect class="cls-2" x="400.426" y="204.175" width="0.127" height="20.002"/><rect class="cls-2" x="400.553" y="204.175" width="0.125" height="20.002"/><rect class="cls-2" x="400.678" y="204.175" width="0.122" height="20.002"/><rect class="cls-2" x="400.8" y="204.175" width="0.127" height="20.002"/><rect class="cls-2" x="400.927" y="204.175" width="0.133" height="20.002"/><rect class="cls-2" x="401.06" y="204.175" width="0.125" height="20.002"/><rect class="cls-2" x="401.184" y="204.175" width="0.122" height="20.002"/><rect class="cls-2" x="401.306" y="204.175" width="0.128" height="20.002"/><rect class="cls-2" x="401.434" y="204.175" width="0.127" height="20.002"/><rect class="cls-2" x="401.56" y="204.175" width="0.123" height="20.002"/><rect class="cls-2" x="401.683" y="204.175" width="0.125" height="20.002"/><rect class="cls-2" x="401.808" y="204.175" width="0.127" height="20.002"/><rect class="cls-2" x="401.934" y="204.175" width="0.128" height="20.002"/><rect class="cls-2" x="402.062" y="204.175" width="0.122" height="20.002"/><rect class="cls-2" x="402.184" y="204.175" width="0.13" height="20.002"/><rect class="cls-2" x="402.314" y="204.175" width="0.127" height="20.002"/><rect class="cls-2" x="402.441" y="204.175" width="0.127" height="20.002"/><rect class="cls-2" x="402.568" y="204.175" width="0.122" height="20.002"/><rect class="cls-2" x="402.69" y="204.175" width="0.123" height="20.002"/><rect class="cls-2" x="402.813" y="204.175" width="0.129" height="20.002"/><rect class="cls-2" x="402.942" y="204.175" width="0.128" height="20.002"/><rect class="cls-2" x="403.07" y="204.175" width="0.122" height="20.002"/><rect class="cls-2" x="403.192" y="204.175" width="0.122" height="20.002"/><rect class="cls-2" x="403.313" y="204.175" width="0.135" height="20.002"/><rect class="cls-2" x="403.448" y="204.175" width="0.127" height="20.002"/><rect class="cls-2" x="403.576" y="204.175" width="0.122" height="20.002"/><rect class="cls-2" x="403.698" y="204.175" width="0.127" height="20.002"/><rect class="cls-2" x="403.825" y="204.175" width="0.122" height="20.002"/><rect class="cls-2" x="403.947" y="204.175" width="0.129" height="20.002"/><rect class="cls-2" x="404.077" y="204.175" width="0.123" height="20.002"/><rect class="cls-2" x="404.199" y="204.175" width="0.127" height="20.002"/><rect class="cls-2" x="404.326" y="204.175" width="0.123" height="20.002"/><rect class="cls-2" x="404.449" y="204.175" width="0.135" height="20.002"/><rect class="cls-2" x="404.584" y="204.175" width="0.122" height="20.002"/><rect class="cls-2" x="404.706" y="204.175" width="0.127" height="20.002"/><rect class="cls-2" x="404.833" y="204.175" width="0.122" height="20.002"/><rect class="cls-2" x="404.955" y="204.175" width="0.127" height="20.002"/><rect class="cls-2" x="405.082" y="204.175" width="0.122" height="20.002"/><rect class="cls-2" x="405.204" y="204.175" width="0.129" height="20.002"/><rect class="cls-2" x="405.334" y="204.175" width="0.122" height="20.002"/><rect class="cls-2" x="405.456" y="204.175" width="0.127" height="20.002"/><rect class="cls-2" x="405.583" y="204.175" width="0.127" height="20.002"/><rect class="cls-2" x="405.711" y="204.175" width="0.129" height="20.002"/><rect class="cls-2" x="405.84" y="204.175" width="0.123" height="20.002"/></g><rect class="cls-2" x="393.675" y="202.316" width="4.571" height="23.72" transform="translate(-35.446 342.802) rotate(-45.011)"/><g class="cls-10"><rect class="cls-2" x="385.956" y="204.175" width="0.125" height="20.002"/><rect class="cls-2" x="386.08" y="204.175" width="0.132" height="20.002"/><rect class="cls-2" x="386.213" y="204.175" width="0.122" height="20.002"/><rect class="cls-2" x="386.334" y="204.175" width="0.128" height="20.002"/><rect class="cls-2" x="386.462" y="204.175" width="0.122" height="20.002"/><rect class="cls-2" x="386.584" y="204.175" width="0.13" height="20.002"/><rect class="cls-2" x="386.714" y="204.175" width="0.122" height="20.002"/><rect class="cls-2" x="386.836" y="204.175" width="0.127" height="20.002"/><rect class="cls-2" x="386.963" y="204.175" width="0.122" height="20.002"/><rect class="cls-2" x="387.085" y="204.175" width="0.129" height="20.002"/><rect class="cls-2" x="387.215" y="204.175" width="0.127" height="20.002"/><rect class="cls-2" x="387.342" y="204.175" width="0.128" height="20.002"/><rect class="cls-2" x="387.47" y="204.175" width="0.122" height="20.002"/><rect class="cls-2" x="387.592" y="204.175" width="0.127" height="20.002"/><rect class="cls-2" x="387.719" y="204.175" width="0.125" height="20.002"/><rect class="cls-2" x="387.844" y="204.175" width="0.127" height="20.002"/><rect class="cls-2" x="387.971" y="204.175" width="0.122" height="20.002"/><rect class="cls-2" x="388.093" y="204.175" width="0.127" height="20.002"/><rect class="cls-2" x="388.221" y="204.175" width="0.122" height="20.002"/><rect class="cls-2" x="388.342" y="204.175" width="0.135" height="20.002"/><rect class="cls-2" x="388.478" y="204.175" width="0.122" height="20.002"/><rect class="cls-2" x="388.599" y="204.175" width="0.127" height="20.002"/><rect class="cls-2" x="388.727" y="204.175" width="0.127" height="20.002"/><rect class="cls-2" x="388.853" y="204.175" width="0.125" height="20.002"/><rect class="cls-2" x="388.978" y="204.175" width="0.123" height="20.002"/><rect class="cls-2" x="389.101" y="204.175" width="0.127" height="20.002"/><rect class="cls-2" x="389.227" y="204.175" width="0.127" height="20.002"/><rect class="cls-2" x="389.355" y="204.175" width="0.122" height="20.002"/><rect class="cls-2" x="389.477" y="204.175" width="0.125" height="20.002"/><rect class="cls-2" x="389.602" y="204.175" width="0.132" height="20.002"/><rect class="cls-2" x="389.734" y="204.175" width="0.127" height="20.002"/><rect class="cls-2" x="389.861" y="204.175" width="0.122" height="20.002"/><rect class="cls-2" x="389.983" y="204.175" width="0.123" height="20.002"/><rect class="cls-2" x="390.106" y="204.175" width="0.129" height="20.002"/><rect class="cls-2" x="390.235" y="204.175" width="0.127" height="20.002"/><rect class="cls-2" x="390.363" y="204.175" width="0.122" height="20.002"/><rect class="cls-2" x="390.485" y="204.175" width="0.122" height="20.002"/><rect class="cls-2" x="390.607" y="204.175" width="0.135" height="20.002"/><rect class="cls-2" x="390.742" y="204.175" width="0.127" height="20.002"/><rect class="cls-2" x="390.869" y="204.175" width="0.122" height="20.002"/><rect class="cls-2" x="390.991" y="204.175" width="0.122" height="20.002"/><rect class="cls-2" x="391.113" y="204.175" width="0.127" height="20.002"/><rect class="cls-2" x="391.24" y="204.175" width="0.13" height="20.002"/><rect class="cls-2" x="391.371" y="204.175" width="0.122" height="20.002"/><rect class="cls-2" x="391.493" y="204.175" width="0.122" height="20.002"/><rect class="cls-2" x="391.614" y="204.175" width="0.128" height="20.002"/><rect class="cls-2" x="391.742" y="204.175" width="0.135" height="20.002"/><rect class="cls-2" x="391.877" y="204.175" width="0.122" height="20.002"/><rect class="cls-2" x="391.999" y="204.175" width="0.122" height="20.002"/><rect class="cls-2" x="392.121" y="204.175" width="0.127" height="20.002"/><rect class="cls-2" x="392.248" y="204.175" width="0.127" height="20.002"/><rect class="cls-2" x="392.376" y="204.175" width="0.125" height="20.002"/><rect class="cls-2" x="392.5" y="204.175" width="0.122" height="20.002"/><rect class="cls-2" x="392.622" y="204.175" width="0.128" height="20.002"/><rect class="cls-2" x="392.75" y="204.175" width="0.127" height="20.002"/><rect class="cls-2" x="392.876" y="204.175" width="0.123" height="20.002"/><rect class="cls-2" x="392.999" y="204.175" width="0.129" height="20.002"/><rect class="cls-2" x="393.128" y="204.175" width="0.127" height="20.002"/><rect class="cls-2" x="393.256" y="204.175" width="0.127" height="20.002"/><rect class="cls-2" x="393.382" y="204.175" width="0.123" height="20.002"/><rect class="cls-2" x="393.505" y="204.175" width="0.129" height="20.002"/><rect class="cls-2" x="393.635" y="204.175" width="0.122" height="20.002"/><rect class="cls-2" x="393.757" y="204.175" width="0.127" height="20.002"/><rect class="cls-2" x="393.884" y="204.175" width="0.122" height="20.002"/><rect class="cls-2" x="394.006" y="204.175" width="0.135" height="20.002"/><rect class="cls-2" x="394.141" y="204.175" width="0.122" height="20.002"/><rect class="cls-2" x="394.263" y="204.175" width="0.127" height="20.002"/><rect class="cls-2" x="394.39" y="204.175" width="0.122" height="20.002"/><rect class="cls-2" x="394.512" y="204.175" width="0.127" height="20.002"/><rect class="cls-2" x="394.64" y="204.175" width="0.122" height="20.002"/><rect class="cls-2" x="394.762" y="204.175" width="0.13" height="20.002"/><rect class="cls-2" x="394.892" y="204.175" width="0.122" height="20.002"/><rect class="cls-2" x="395.014" y="204.175" width="0.127" height="20.002"/><rect class="cls-2" x="395.141" y="204.175" width="0.122" height="20.002"/><rect class="cls-2" x="395.263" y="204.175" width="0.135" height="20.002"/><rect class="cls-2" x="395.398" y="204.175" width="0.122" height="20.002"/><rect class="cls-2" x="395.52" y="204.175" width="0.127" height="20.002"/><rect class="cls-2" x="395.647" y="204.175" width="0.122" height="20.002"/><rect class="cls-2" x="395.769" y="204.175" width="0.127" height="20.002"/><rect class="cls-2" x="395.897" y="204.175" width="0.125" height="20.002"/><rect class="cls-2" x="396.022" y="204.175" width="0.127" height="20.002"/><rect class="cls-2" x="396.149" y="204.175" width="0.122" height="20.002"/><rect class="cls-2" x="396.271" y="204.175" width="0.127" height="20.002"/><rect class="cls-2" x="396.398" y="204.175" width="0.13" height="20.002"/><rect class="cls-2" x="396.528" y="204.175" width="0.127" height="20.002"/><rect class="cls-2" x="396.655" y="204.175" width="0.122" height="20.002"/><rect class="cls-2" x="396.777" y="204.175" width="0.127" height="20.002"/><rect class="cls-2" x="396.905" y="204.175" width="0.122" height="20.002"/><rect class="cls-2" x="397.027" y="204.175" width="0.129" height="20.002"/><rect class="cls-2" x="397.156" y="204.175" width="0.123" height="20.002"/><rect class="cls-2" x="397.279" y="204.175" width="0.127" height="20.002"/><rect class="cls-2" x="397.405" y="204.175" width="0.123" height="20.002"/><rect class="cls-2" x="397.528" y="204.175" width="0.134" height="20.002"/><rect class="cls-2" x="397.662" y="204.175" width="0.123" height="20.002"/><rect class="cls-2" x="397.785" y="204.175" width="0.127" height="20.002"/><rect class="cls-2" x="397.912" y="204.175" width="0.123" height="20.002"/><rect class="cls-2" x="398.034" y="204.175" width="0.127" height="20.002"/><rect class="cls-2" x="398.161" y="204.175" width="0.125" height="20.002"/><rect class="cls-2" x="398.286" y="204.175" width="0.127" height="20.002"/><rect class="cls-2" x="398.413" y="204.175" width="0.127" height="20.002"/><rect class="cls-2" x="398.541" y="204.175" width="0.122" height="20.002"/><rect class="cls-2" x="398.662" y="204.175" width="0.128" height="20.002"/><rect class="cls-2" x="398.79" y="204.175" width="0.129" height="20.002"/><rect class="cls-2" x="398.919" y="204.175" width="0.127" height="20.002"/><rect class="cls-2" x="399.047" y="204.175" width="0.122" height="20.002"/><rect class="cls-2" x="399.169" y="204.175" width="0.122" height="20.002"/><rect class="cls-2" x="399.291" y="204.175" width="0.127" height="20.002"/><rect class="cls-2" x="399.418" y="204.175" width="0.129" height="20.002"/><rect class="cls-2" x="399.547" y="204.175" width="0.123" height="20.002"/><rect class="cls-2" x="399.67" y="204.175" width="0.122" height="20.002"/><rect class="cls-2" x="399.792" y="204.175" width="0.132" height="20.002"/><rect class="cls-2" x="399.924" y="204.175" width="0.13" height="20.002"/><rect class="cls-2" x="400.055" y="204.175" width="0.122" height="20.002"/><rect class="cls-2" x="400.177" y="204.175" width="0.122" height="20.002"/><rect class="cls-2" x="400.298" y="204.175" width="0.128" height="20.002"/><rect class="cls-2" x="400.426" y="204.175" width="0.127" height="20.002"/><rect class="cls-2" x="400.553" y="204.175" width="0.125" height="20.002"/><rect class="cls-2" x="400.678" y="204.175" width="0.122" height="20.002"/><rect class="cls-2" x="400.8" y="204.175" width="0.127" height="20.002"/><rect class="cls-2" x="400.927" y="204.175" width="0.133" height="20.002"/><rect class="cls-2" x="401.06" y="204.175" width="0.125" height="20.002"/><rect class="cls-2" x="401.184" y="204.175" width="0.122" height="20.002"/><rect class="cls-2" x="401.306" y="204.175" width="0.128" height="20.002"/><rect class="cls-2" x="401.434" y="204.175" width="0.127" height="20.002"/><rect class="cls-2" x="401.56" y="204.175" width="0.123" height="20.002"/><rect class="cls-2" x="401.683" y="204.175" width="0.125" height="20.002"/><rect class="cls-2" x="401.808" y="204.175" width="0.127" height="20.002"/><rect class="cls-2" x="401.934" y="204.175" width="0.128" height="20.002"/><rect class="cls-2" x="402.062" y="204.175" width="0.122" height="20.002"/><rect class="cls-2" x="402.184" y="204.175" width="0.13" height="20.002"/><rect class="cls-2" x="402.314" y="204.175" width="0.127" height="20.002"/><rect class="cls-2" x="402.441" y="204.175" width="0.127" height="20.002"/><rect class="cls-2" x="402.568" y="204.175" width="0.122" height="20.002"/><rect class="cls-2" x="402.69" y="204.175" width="0.123" height="20.002"/><rect class="cls-2" x="402.813" y="204.175" width="0.129" height="20.002"/><rect class="cls-2" x="402.942" y="204.175" width="0.128" height="20.002"/><rect class="cls-2" x="403.07" y="204.175" width="0.122" height="20.002"/><rect class="cls-2" x="403.192" y="204.175" width="0.122" height="20.002"/><rect class="cls-2" x="403.313" y="204.175" width="0.135" height="20.002"/><rect class="cls-2" x="403.448" y="204.175" width="0.127" height="20.002"/><rect class="cls-2" x="403.576" y="204.175" width="0.122" height="20.002"/><rect class="cls-2" x="403.698" y="204.175" width="0.127" height="20.002"/><rect class="cls-2" x="403.825" y="204.175" width="0.122" height="20.002"/><rect class="cls-2" x="403.947" y="204.175" width="0.129" height="20.002"/><rect class="cls-2" x="404.077" y="204.175" width="0.123" height="20.002"/><rect class="cls-2" x="404.199" y="204.175" width="0.127" height="20.002"/><rect class="cls-2" x="404.326" y="204.175" width="0.123" height="20.002"/><rect class="cls-2" x="404.449" y="204.175" width="0.135" height="20.002"/><rect class="cls-2" x="404.584" y="204.175" width="0.122" height="20.002"/><rect class="cls-2" x="404.706" y="204.175" width="0.127" height="20.002"/><rect class="cls-2" x="404.833" y="204.175" width="0.122" height="20.002"/><rect class="cls-2" x="404.955" y="204.175" width="0.127" height="20.002"/><rect class="cls-2" x="405.082" y="204.175" width="0.122" height="20.002"/><rect class="cls-2" x="405.204" y="204.175" width="0.129" height="20.002"/><rect class="cls-2" x="405.334" y="204.175" width="0.122" height="20.002"/><rect class="cls-2" x="405.456" y="204.175" width="0.127" height="20.002"/><rect class="cls-2" x="405.583" y="204.175" width="0.127" height="20.002"/><rect class="cls-2" x="405.711" y="204.175" width="0.129" height="20.002"/><rect class="cls-2" x="405.84" y="204.175" width="0.123" height="20.002"/></g><path class="cls-2" d="M147.6,169.93a9.867,9.867,0,1,1,5.2-1.491A9.811,9.811,0,0,1,147.6,169.93Zm-.018-17.73a7.86,7.86,0,1,0,6.686,3.712A7.864,7.864,0,0,0,147.587,152.2Z"/><g class="cls-11"><rect class="cls-2" x="139.457" y="152.202" width="0.007" height="15.719"/><rect class="cls-2" x="139.464" y="152.202" width="0.123" height="15.719"/><rect class="cls-2" x="139.587" y="152.202" width="0.122" height="15.719"/><rect class="cls-2" x="139.709" y="152.202" width="0.122" height="15.719"/><rect class="cls-2" x="139.831" y="152.202" width="0.127" height="15.719"/><rect class="cls-2" x="139.958" y="152.202" width="0.128" height="15.719"/><rect class="cls-2" x="140.086" y="152.202" width="0.122" height="15.719"/><rect class="cls-2" x="140.208" y="152.202" width="0.127" height="15.719"/><rect class="cls-2" x="140.335" y="152.202" width="0.117" height="15.719"/><rect class="cls-2" x="140.453" y="152.202" width="0.127" height="15.719"/><rect class="cls-2" x="140.579" y="152.202" width="0.123" height="15.719"/><rect class="cls-2" x="140.702" y="152.202" width="0.124" height="15.719"/><rect class="cls-2" x="140.826" y="152.202" width="0.13" height="15.719"/><rect class="cls-2" x="140.956" y="152.202" width="0.122" height="15.719"/><rect class="cls-2" x="141.078" y="152.202" width="0.123" height="15.719"/><rect class="cls-2" x="141.201" y="152.202" width="0.122" height="15.719"/><rect class="cls-2" x="141.322" y="152.202" width="0.125" height="15.719"/><rect class="cls-2" x="141.447" y="152.202" width="0.129" height="15.719"/><rect class="cls-2" x="141.577" y="152.202" width="0.122" height="15.719"/><rect class="cls-2" x="141.698" y="152.202" width="0.123" height="15.719"/><rect class="cls-2" x="141.821" y="152.202" width="0.122" height="15.719"/><rect class="cls-2" x="141.943" y="152.202" width="0.122" height="15.719"/><rect class="cls-2" x="142.065" y="152.202" width="0.13" height="15.719"/><rect class="cls-2" x="142.195" y="152.202" width="0.122" height="15.719"/><rect class="cls-2" x="142.317" y="152.202" width="0.125" height="15.719"/><rect class="cls-2" x="142.442" y="152.202" width="0.122" height="15.719"/><rect class="cls-2" x="142.564" y="152.202" width="0.122" height="15.719"/><rect class="cls-2" x="142.686" y="152.202" width="0.13" height="15.719"/><rect class="cls-2" x="142.816" y="152.202" width="0.122" height="15.719"/><rect class="cls-2" x="142.938" y="152.202" width="0.122" height="15.719"/><rect class="cls-2" x="143.06" y="152.202" width="0.125" height="15.719"/><rect class="cls-2" x="143.184" y="152.202" width="0.123" height="15.719"/><rect class="cls-2" x="143.307" y="152.202" width="0.127" height="15.719"/><rect class="cls-2" x="143.434" y="152.202" width="0.125" height="15.719"/><rect class="cls-2" x="143.558" y="152.202" width="0.123" height="15.719"/><rect class="cls-2" x="143.681" y="152.202" width="0.125" height="15.719"/><rect class="cls-2" x="143.806" y="152.202" width="0.122" height="15.719"/><rect class="cls-2" x="143.928" y="152.202" width="0.127" height="15.719"/><rect class="cls-2" x="144.055" y="152.202" width="0.122" height="15.719"/><rect class="cls-2" x="144.177" y="152.202" width="0.122" height="15.719"/><rect class="cls-2" x="144.299" y="152.202" width="0.125" height="15.719"/><rect class="cls-2" x="144.424" y="152.202" width="0.125" height="15.719"/><rect class="cls-2" x="144.548" y="152.202" width="0.127" height="15.719"/><rect class="cls-2" x="144.676" y="152.202" width="0.122" height="15.719"/><rect class="cls-2" x="144.798" y="152.202" width="0.122" height="15.719"/><rect class="cls-2" x="144.92" y="152.202" width="0.123" height="15.719"/><rect class="cls-2" x="145.042" y="152.202" width="0.125" height="15.719"/><rect class="cls-2" x="145.167" y="152.202" width="0.129" height="15.719"/><rect class="cls-2" x="145.297" y="152.202" width="0.122" height="15.719"/><rect class="cls-2" x="145.418" y="152.202" width="0.123" height="15.719"/><rect class="cls-2" x="145.541" y="152.202" width="0.127" height="15.719"/><rect class="cls-2" x="145.668" y="152.202" width="0.117" height="15.719"/><rect class="cls-2" x="145.785" y="152.202" width="0.132" height="15.719"/><rect class="cls-2" x="145.917" y="152.202" width="0.123" height="15.719"/><rect class="cls-2" x="146.04" y="152.202" width="0.122" height="15.719"/><rect class="cls-2" x="146.162" y="152.202" width="0.127" height="15.719"/><rect class="cls-2" x="146.289" y="152.202" width="0.125" height="15.719"/><rect class="cls-2" x="146.414" y="152.202" width="0.122" height="15.719"/><rect class="cls-2" x="146.536" y="152.202" width="0.125" height="15.719"/><rect class="cls-2" x="146.661" y="152.202" width="0.122" height="15.719"/><rect class="cls-2" x="146.782" y="152.202" width="0.128" height="15.719"/><rect class="cls-2" x="146.91" y="152.202" width="0.122" height="15.719"/><rect class="cls-2" x="147.032" y="152.202" width="0.125" height="15.719"/><rect class="cls-2" x="147.157" y="152.202" width="0.122" height="15.719"/><rect class="cls-2" x="147.278" y="152.202" width="0.123" height="15.719"/><rect class="cls-2" x="147.401" y="152.202" width="0.129" height="15.719"/><rect class="cls-2" x="147.531" y="152.202" width="0.122" height="15.719"/><rect class="cls-2" x="147.653" y="152.202" width="0.125" height="15.719"/><rect class="cls-2" x="147.777" y="152.202" width="0.123" height="15.719"/><rect class="cls-2" x="147.9" y="152.202" width="0.122" height="15.719"/><rect class="cls-2" x="148.022" y="152.202" width="0.129" height="15.719"/><rect class="cls-2" x="148.151" y="152.202" width="0.122" height="15.719"/><rect class="cls-2" x="148.273" y="152.202" width="0.123" height="15.719"/><rect class="cls-2" x="148.396" y="152.202" width="0.122" height="15.719"/><rect class="cls-2" x="148.518" y="152.202" width="0.125" height="15.719"/><rect class="cls-2" x="148.642" y="152.202" width="0.129" height="15.719"/><rect class="cls-2" x="148.772" y="152.202" width="0.123" height="15.719"/><rect class="cls-2" x="148.895" y="152.202" width="0.122" height="15.719"/><rect class="cls-2" x="149.017" y="152.202" width="0.122" height="15.719"/><rect class="cls-2" x="149.138" y="152.202" width="0.123" height="15.719"/><rect class="cls-2" x="149.261" y="152.202" width="0.129" height="15.719"/><rect class="cls-2" x="149.391" y="152.202" width="0.125" height="15.719"/><rect class="cls-2" x="149.515" y="152.202" width="0.122" height="15.719"/><rect class="cls-2" x="149.637" y="152.202" width="0.123" height="15.719"/><rect class="cls-2" x="149.76" y="152.202" width="0.122" height="15.719"/><rect class="cls-2" x="149.882" y="152.202" width="0.127" height="15.719"/><rect class="cls-2" x="150.009" y="152.202" width="0.127" height="15.719"/><rect class="cls-2" x="150.136" y="152.202" width="0.123" height="15.719"/><rect class="cls-2" x="150.259" y="152.202" width="0.122" height="15.719"/><rect class="cls-2" x="150.381" y="152.202" width="0.122" height="15.719"/><rect class="cls-2" x="150.502" y="152.202" width="0.128" height="15.719"/><rect class="cls-2" x="150.63" y="152.202" width="0.122" height="15.719"/><rect class="cls-2" x="150.752" y="152.202" width="0.127" height="15.719"/><rect class="cls-2" x="150.879" y="152.202" width="0.127" height="15.719"/><rect class="cls-2" x="151.006" y="152.202" width="0.117" height="15.719"/><rect class="cls-2" x="151.123" y="152.202" width="0.127" height="15.719"/><rect class="cls-2" x="151.251" y="152.202" width="0.122" height="15.719"/><rect class="cls-2" x="151.373" y="152.202" width="0.125" height="15.719"/><rect class="cls-2" x="151.497" y="152.202" width="0.13" height="15.719"/><rect class="cls-2" x="151.627" y="152.202" width="0.122" height="15.719"/><rect class="cls-2" x="151.749" y="152.202" width="0.122" height="15.719"/><rect class="cls-2" x="151.871" y="152.202" width="0.122" height="15.719"/><rect class="cls-2" x="151.993" y="152.202" width="0.125" height="15.719"/><rect class="cls-2" x="152.118" y="152.202" width="0.127" height="15.719"/><rect class="cls-2" x="152.245" y="152.202" width="0.125" height="15.719"/><rect class="cls-2" x="152.37" y="152.202" width="0.122" height="15.719"/><rect class="cls-2" x="152.492" y="152.202" width="0.123" height="15.719"/><rect class="cls-2" x="152.615" y="152.202" width="0.122" height="15.719"/><rect class="cls-2" x="152.737" y="152.202" width="0.129" height="15.719"/><rect class="cls-2" x="152.866" y="152.202" width="0.123" height="15.719"/><rect class="cls-2" x="152.989" y="152.202" width="0.125" height="15.719"/><rect class="cls-2" x="153.113" y="152.202" width="0.122" height="15.719"/><rect class="cls-2" x="153.235" y="152.202" width="0.122" height="15.719"/><rect class="cls-2" x="153.357" y="152.202" width="0.127" height="15.719"/><rect class="cls-2" x="153.485" y="152.202" width="0.125" height="15.719"/><rect class="cls-2" x="153.609" y="152.202" width="0.122" height="15.719"/><rect class="cls-2" x="153.731" y="152.202" width="0.125" height="15.719"/><rect class="cls-2" x="153.856" y="152.202" width="0.122" height="15.719"/><rect class="cls-2" x="153.978" y="152.202" width="0.127" height="15.719"/><rect class="cls-2" x="154.105" y="152.202" width="0.122" height="15.719"/><rect class="cls-2" x="154.227" y="152.202" width="0.125" height="15.719"/><rect class="cls-2" x="154.352" y="152.202" width="0.125" height="15.719"/><rect class="cls-2" x="154.477" y="152.202" width="0.123" height="15.719"/><rect class="cls-2" x="154.599" y="152.202" width="0.127" height="15.719"/><rect class="cls-2" x="154.726" y="152.202" width="0.123" height="15.719"/><rect class="cls-2" x="154.849" y="152.202" width="0.122" height="15.719"/><rect class="cls-2" x="154.971" y="152.202" width="0.122" height="15.719"/><rect class="cls-2" x="155.093" y="152.202" width="0.127" height="15.719"/><rect class="cls-2" x="155.22" y="152.202" width="0.127" height="15.719"/><rect class="cls-2" x="155.347" y="152.202" width="0.122" height="15.719"/><rect class="cls-2" x="155.469" y="152.202" width="0.122" height="15.719"/><rect class="cls-2" x="155.591" y="152.202" width="0.122" height="15.719"/><rect class="cls-2" x="155.713" y="152.202" width="0.125" height="15.719"/><rect class="cls-2" x="155.838" y="152.202" width="0.13" height="15.719"/><rect class="cls-2" x="155.968" y="152.202" width="0.122" height="15.719"/><rect class="cls-2" x="156.09" y="152.202" width="0.122" height="15.719"/><rect class="cls-2" x="156.212" y="152.202" width="0.123" height="15.719"/><rect class="cls-2" x="156.335" y="152.202" width="0.122" height="15.719"/><rect class="cls-2" x="156.457" y="152.202" width="0.102" height="15.719"/><rect class="cls-2" x="137.386" y="150.195" width="0.338" height="19.734"/><rect class="cls-2" x="137.724" y="150.195" width="0.125" height="19.734"/><rect class="cls-2" x="137.849" y="150.195" width="0.122" height="19.734"/><rect class="cls-2" x="137.971" y="150.195" width="0.13" height="19.734"/><rect class="cls-2" x="138.101" y="150.195" width="0.122" height="19.734"/><rect class="cls-2" x="138.223" y="150.195" width="0.122" height="19.734"/><rect class="cls-2" x="138.345" y="150.195" width="0.123" height="19.734"/><rect class="cls-2" x="138.468" y="150.195" width="0.125" height="19.734"/><rect class="cls-2" x="138.593" y="150.195" width="0.127" height="19.734"/><rect class="cls-2" x="138.719" y="150.195" width="0.125" height="19.734"/><rect class="cls-2" x="138.844" y="150.195" width="0.123" height="19.734"/><rect class="cls-2" x="138.967" y="150.195" width="0.122" height="19.734"/><rect class="cls-2" x="139.088" y="150.195" width="0.122" height="19.734"/><rect class="cls-2" x="139.21" y="150.195" width="0.13" height="19.734"/><rect class="cls-2" x="139.341" y="150.195" width="0.124" height="19.734"/><rect class="cls-2" x="139.464" y="150.195" width="0.123" height="19.734"/><rect class="cls-2" x="139.587" y="150.195" width="0.122" height="19.734"/><rect class="cls-2" x="139.709" y="150.195" width="0.122" height="19.734"/><rect class="cls-2" x="139.831" y="150.195" width="0.127" height="19.734"/><rect class="cls-2" x="139.958" y="150.195" width="0.128" height="19.734"/><rect class="cls-2" x="140.086" y="150.195" width="0.122" height="19.734"/><rect class="cls-2" x="140.208" y="150.195" width="0.127" height="19.734"/><rect class="cls-2" x="140.335" y="150.195" width="0.117" height="19.734"/><rect class="cls-2" x="140.453" y="150.195" width="0.127" height="19.734"/><rect class="cls-2" x="140.579" y="150.195" width="0.123" height="19.734"/><rect class="cls-2" x="140.702" y="150.195" width="0.124" height="19.734"/><rect class="cls-2" x="140.826" y="150.195" width="0.13" height="19.734"/><rect class="cls-2" x="140.956" y="150.195" width="0.122" height="19.734"/><rect class="cls-2" x="141.078" y="150.195" width="0.123" height="19.734"/><rect class="cls-2" x="141.201" y="150.195" width="0.122" height="19.734"/><rect class="cls-2" x="141.322" y="150.195" width="0.125" height="19.734"/><rect class="cls-2" x="141.447" y="150.195" width="0.129" height="19.734"/><rect class="cls-2" x="141.577" y="150.195" width="0.122" height="19.734"/><rect class="cls-2" x="141.698" y="150.195" width="0.123" height="19.734"/><rect class="cls-2" x="141.821" y="150.195" width="0.122" height="19.734"/><rect class="cls-2" x="141.943" y="150.195" width="0.122" height="19.734"/><rect class="cls-2" x="142.065" y="150.195" width="0.13" height="19.734"/><rect class="cls-2" x="142.195" y="150.195" width="0.122" height="19.734"/><rect class="cls-2" x="142.317" y="150.195" width="0.125" height="19.734"/><rect class="cls-2" x="142.442" y="150.195" width="0.122" height="19.734"/><rect class="cls-2" x="142.564" y="150.195" width="0.122" height="19.734"/><rect class="cls-2" x="142.686" y="150.195" width="0.13" height="19.734"/><rect class="cls-2" x="142.816" y="150.195" width="0.122" height="19.734"/><rect class="cls-2" x="142.938" y="150.195" width="0.122" height="19.734"/><rect class="cls-2" x="143.06" y="150.195" width="0.125" height="19.734"/><rect class="cls-2" x="143.184" y="150.195" width="0.123" height="19.734"/><rect class="cls-2" x="143.307" y="150.195" width="0.127" height="19.734"/><rect class="cls-2" x="143.434" y="150.195" width="0.125" height="19.734"/><rect class="cls-2" x="143.558" y="150.195" width="0.123" height="19.734"/><rect class="cls-2" x="143.681" y="150.195" width="0.125" height="19.734"/><rect class="cls-2" x="143.806" y="150.195" width="0.122" height="19.734"/><rect class="cls-2" x="143.928" y="150.195" width="0.127" height="19.734"/><rect class="cls-2" x="144.055" y="150.195" width="0.122" height="19.734"/><rect class="cls-2" x="144.177" y="150.195" width="0.122" height="19.734"/><rect class="cls-2" x="144.299" y="150.195" width="0.125" height="19.734"/><rect class="cls-2" x="144.424" y="150.195" width="0.125" height="19.734"/><rect class="cls-2" x="144.548" y="150.195" width="0.127" height="19.734"/><rect class="cls-2" x="144.676" y="150.195" width="0.122" height="19.734"/><rect class="cls-2" x="144.798" y="150.195" width="0.122" height="19.734"/><rect class="cls-2" x="144.92" y="150.195" width="0.123" height="19.734"/><rect class="cls-2" x="145.042" y="150.195" width="0.125" height="19.734"/><rect class="cls-2" x="145.167" y="150.195" width="0.129" height="19.734"/><rect class="cls-2" x="145.297" y="150.195" width="0.122" height="19.734"/><rect class="cls-2" x="145.418" y="150.195" width="0.123" height="19.734"/><rect class="cls-2" x="145.541" y="150.195" width="0.127" height="19.734"/><rect class="cls-2" x="145.668" y="150.195" width="0.117" height="19.734"/><rect class="cls-2" x="145.785" y="150.195" width="0.132" height="19.734"/><rect class="cls-2" x="145.917" y="150.195" width="0.123" height="19.734"/><rect class="cls-2" x="146.04" y="150.195" width="0.122" height="19.734"/><rect class="cls-2" x="146.162" y="150.195" width="0.127" height="19.734"/><rect class="cls-2" x="146.289" y="150.195" width="0.125" height="19.734"/><rect class="cls-2" x="146.414" y="150.195" width="0.122" height="19.734"/><rect class="cls-2" x="146.536" y="150.195" width="0.125" height="19.734"/><rect class="cls-2" x="146.661" y="150.195" width="0.122" height="19.734"/><rect class="cls-2" x="146.782" y="150.195" width="0.128" height="19.734"/><rect class="cls-2" x="146.91" y="150.195" width="0.122" height="19.734"/><rect class="cls-2" x="147.032" y="150.195" width="0.125" height="19.734"/><rect class="cls-2" x="147.157" y="150.195" width="0.122" height="19.734"/><rect class="cls-2" x="147.278" y="150.195" width="0.123" height="19.734"/><rect class="cls-2" x="147.401" y="150.195" width="0.129" height="19.734"/><rect class="cls-2" x="147.531" y="150.195" width="0.122" height="19.734"/><rect class="cls-2" x="147.653" y="150.195" width="0.125" height="19.734"/><rect class="cls-2" x="147.777" y="150.195" width="0.123" height="19.734"/><rect class="cls-2" x="147.9" y="150.195" width="0.122" height="19.734"/><rect class="cls-2" x="148.022" y="150.195" width="0.129" height="19.734"/><rect class="cls-2" x="148.151" y="150.195" width="0.122" height="19.734"/><rect class="cls-2" x="148.273" y="150.195" width="0.123" height="19.734"/><rect class="cls-2" x="148.396" y="150.195" width="0.122" height="19.734"/><rect class="cls-2" x="148.518" y="150.195" width="0.125" height="19.734"/><rect class="cls-2" x="148.642" y="150.195" width="0.129" height="19.734"/><rect class="cls-2" x="148.772" y="150.195" width="0.123" height="19.734"/><rect class="cls-2" x="148.895" y="150.195" width="0.122" height="19.734"/><rect class="cls-2" x="149.017" y="150.195" width="0.122" height="19.734"/><rect class="cls-2" x="149.138" y="150.195" width="0.123" height="19.734"/><rect class="cls-2" x="149.261" y="150.195" width="0.129" height="19.734"/><rect class="cls-2" x="149.391" y="150.195" width="0.125" height="19.734"/><rect class="cls-2" x="149.515" y="150.195" width="0.122" height="19.734"/><rect class="cls-2" x="149.637" y="150.195" width="0.123" height="19.734"/><rect class="cls-2" x="149.76" y="150.195" width="0.122" height="19.734"/><rect class="cls-2" x="149.882" y="150.195" width="0.127" height="19.734"/><rect class="cls-2" x="150.009" y="150.195" width="0.127" height="19.734"/><rect class="cls-2" x="150.136" y="150.195" width="0.123" height="19.734"/><rect class="cls-2" x="150.259" y="150.195" width="0.122" height="19.734"/><rect class="cls-2" x="150.381" y="150.195" width="0.122" height="19.734"/><rect class="cls-2" x="150.502" y="150.195" width="0.128" height="19.734"/><rect class="cls-2" x="150.63" y="150.195" width="0.122" height="19.734"/><rect class="cls-2" x="150.752" y="150.195" width="0.127" height="19.734"/><rect class="cls-2" x="150.879" y="150.195" width="0.127" height="19.734"/><rect class="cls-2" x="151.006" y="150.195" width="0.117" height="19.734"/><rect class="cls-2" x="151.123" y="150.195" width="0.127" height="19.734"/><rect class="cls-2" x="151.251" y="150.195" width="0.122" height="19.734"/><rect class="cls-2" x="151.373" y="150.195" width="0.125" height="19.734"/><rect class="cls-2" x="151.497" y="150.195" width="0.13" height="19.734"/><rect class="cls-2" x="151.627" y="150.195" width="0.122" height="19.734"/><rect class="cls-2" x="151.749" y="150.195" width="0.122" height="19.734"/><rect class="cls-2" x="151.871" y="150.195" width="0.122" height="19.734"/><rect class="cls-2" x="151.993" y="150.195" width="0.125" height="19.734"/><rect class="cls-2" x="152.118" y="150.195" width="0.127" height="19.734"/><rect class="cls-2" x="152.245" y="150.195" width="0.125" height="19.734"/><rect class="cls-2" x="152.37" y="150.195" width="0.122" height="19.734"/><rect class="cls-2" x="152.492" y="150.195" width="0.123" height="19.734"/><rect class="cls-2" x="152.615" y="150.195" width="0.122" height="19.734"/><rect class="cls-2" x="152.737" y="150.195" width="0.129" height="19.734"/><rect class="cls-2" x="152.866" y="150.195" width="0.123" height="19.734"/><rect class="cls-2" x="152.989" y="150.195" width="0.125" height="19.734"/><rect class="cls-2" x="153.113" y="150.195" width="0.122" height="19.734"/><rect class="cls-2" x="153.235" y="150.195" width="0.122" height="19.734"/><rect class="cls-2" x="153.357" y="150.195" width="0.127" height="19.734"/><rect class="cls-2" x="153.485" y="150.195" width="0.125" height="19.734"/><rect class="cls-2" x="153.609" y="150.195" width="0.122" height="19.734"/><rect class="cls-2" x="153.731" y="150.195" width="0.125" height="19.734"/><rect class="cls-2" x="153.856" y="150.195" width="0.122" height="19.734"/><rect class="cls-2" x="153.978" y="150.195" width="0.127" height="19.734"/><rect class="cls-2" x="154.105" y="150.195" width="0.122" height="19.734"/><rect class="cls-2" x="154.227" y="150.195" width="0.125" height="19.734"/><rect class="cls-2" x="154.352" y="150.195" width="0.125" height="19.734"/><rect class="cls-2" x="154.477" y="150.195" width="0.123" height="19.734"/><rect class="cls-2" x="154.599" y="150.195" width="0.127" height="19.734"/><rect class="cls-2" x="154.726" y="150.195" width="0.123" height="19.734"/><rect class="cls-2" x="154.849" y="150.195" width="0.122" height="19.734"/><rect class="cls-2" x="154.971" y="150.195" width="0.122" height="19.734"/><rect class="cls-2" x="155.093" y="150.195" width="0.127" height="19.734"/><rect class="cls-2" x="155.22" y="150.195" width="0.127" height="19.734"/><rect class="cls-2" x="155.347" y="150.195" width="0.122" height="19.734"/><rect class="cls-2" x="155.469" y="150.195" width="0.122" height="19.734"/><rect class="cls-2" x="155.591" y="150.195" width="0.122" height="19.734"/><rect class="cls-2" x="155.713" y="150.195" width="0.125" height="19.734"/><rect class="cls-2" x="155.838" y="150.195" width="0.13" height="19.734"/><rect class="cls-2" x="155.968" y="150.195" width="0.122" height="19.734"/><rect class="cls-2" x="156.09" y="150.195" width="0.122" height="19.734"/><rect class="cls-2" x="156.212" y="150.195" width="0.123" height="19.734"/><rect class="cls-2" x="156.335" y="150.195" width="0.122" height="19.734"/><rect class="cls-2" x="156.457" y="150.195" width="0.129" height="19.734"/><rect class="cls-2" x="156.586" y="150.195" width="0.125" height="19.734"/><rect class="cls-2" x="156.711" y="150.195" width="0.123" height="19.734"/><rect class="cls-2" x="156.833" y="150.195" width="0.127" height="19.734"/><rect class="cls-2" x="156.96" y="150.195" width="0.117" height="19.734"/><rect class="cls-2" x="157.077" y="150.195" width="0.13" height="19.734"/><rect class="cls-2" x="157.207" y="150.195" width="0.122" height="19.734"/><rect class="cls-2" x="157.329" y="150.195" width="0.122" height="19.734"/><rect class="cls-2" x="157.451" y="150.195" width="1.394" height="19.734"/></g><path class="cls-12" d="M183.534,78.651V76.058a5.247,5.247,0,0,1,5.249-5.251h0a5.258,5.258,0,0,1,1.425.2,5.847,5.847,0,0,1,3.479-1.145h0a5.882,5.882,0,0,1,5.884,5.885v2.9A7.844,7.844,0,0,1,199,94.319H184.106a7.844,7.844,0,0,1-.572-15.668Z"/><path class="cls-13" d="M185.42,80.343h1.5a.793.793,0,0,1,.793.793V91.808a.794.794,0,0,1-.794.794h-1.5a.794.794,0,0,1-.794-.794V81.134A.791.791,0,0,1,185.42,80.343Z"/><path class="cls-13" d="M190.689,80.343h1.491a.79.79,0,0,1,.789.791V91.808a.792.792,0,0,1-.789.794h-1.491a.794.794,0,0,1-.8-.794V81.134A.791.791,0,0,1,190.689,80.343Z"/><path class="cls-13" d="M181.793,80.8a.478.478,0,0,1,.655.445V91.7a.479.479,0,0,1-.655.445,6.133,6.133,0,0,1-3.816-5.677h0A6.129,6.129,0,0,1,181.793,80.8Z"/><path class="cls-14" d="M201.292,82.122a1.317,1.317,0,1,1-1.316,1.315A1.32,1.32,0,0,1,201.292,82.122Z"/><path class="cls-14" d="M193.687,70.807h0a4.9,4.9,0,0,1,4.907,4.906v2.91h-9.811v-2.91A4.9,4.9,0,0,1,193.687,70.807Z"/><path class="cls-15" d="M188.783,71.649h0a4.081,4.081,0,0,1,.639.053,5.871,5.871,0,0,0-1.621,4.046v2.875h-3.4v-2.6A4.379,4.379,0,0,1,188.783,71.649Z"/><path class="cls-16" d="M270.464,396.547c0,1.661-7.425,3.016-16.594,3.016s-16.6-1.355-16.6-3.016,7.43-3.019,16.6-3.019S270.464,394.881,270.464,396.547Z"/><g class="cls-17"><rect class="cls-18" x="235.916" y="257.625" width="35.723" height="6.249"/><rect class="cls-18" x="235.916" y="260.75" width="35.723" height="3.125"/></g><polygon class="cls-18" points="252.297 263.875 249.322 263.875 249.322 396.314 252.297 396.314 258.231 396.314 258.231 263.875 252.297 263.875"/><path class="cls-16" d="M295.422,183.293H201.668a35.651,35.651,0,0,0-35.65,35.644V255.87H331.07V218.937A35.645,35.645,0,0,0,295.422,183.293Z"/><path class="cls-19" d="M237.318,218.937a35.65,35.65,0,0,0-71.3,0V255.87h71.3Z"/><path class="cls-19" d="M201.668,186.023a32.953,32.953,0,0,1,32.92,32.914v34.2H168.751v-34.2a32.952,32.952,0,0,1,32.917-32.914m0-2.73a35.651,35.651,0,0,0-35.65,35.644V255.87h71.3V218.937a35.647,35.647,0,0,0-35.65-35.644Z"/><rect class="cls-20" x="166.018" y="255.87" width="165.052" height="4.292"/><path class="cls-20" d="M309.112,172.782,291.641,168.1l-2.328-.626-1.368,5.106-2.08,7.774-9.619,35.881c-3.184-.135-6.321,2.458-7.359,6.318-1.163,4.34.784,8.638,4.353,9.595,3.552.951,7.389-1.8,8.55-6.137,1.032-3.862-.4-7.68-3.217-9.15l8.252-30.777,17.47,4.681c2.295.616,4.8-1.181,5.55-3.985l2.083-7.77c.751-2.806-.516-5.613-2.816-6.226"/><path class="cls-21" d="M161.505,88.442c-1.507,0-3.006-.013-4.5-.031l.015-1.5c1.492.016,2.985.031,4.484.031Z"/><path class="cls-21" d="M63.275,287.37a74.513,74.513,0,0,1-8.351-.47l.168-1.489a72.736,72.736,0,0,0,8.183.463l.837,0,.013,1.5Zm10.035-.7L73.1,285.19a73.805,73.805,0,0,0,8.838-1.8l.389,1.447A75.8,75.8,0,0,1,73.31,286.673Zm-27.464-1.339c-2.6-.6-5.257-1.346-7.9-2.216-.315-.1-.631-.214-.951-.328l.5-1.409c.3.109.61.213.916.315,2.6.855,5.211,1.588,7.768,2.177Zm45.227-3.4-.548-1.392c2.718-1.069,5.494-2.323,8.255-3.727l.679,1.333C96.657,279.579,93.833,280.854,91.073,281.937Zm-62.4-3.236a53.733,53.733,0,0,1-7.363-5.6l1-1.11a52.386,52.386,0,0,0,7.158,5.436Zm78.8-5.045-.781-1.28c2.473-1.511,4.959-3.143,7.592-4.982l.861,1.228C112.484,270.477,109.975,272.127,107.474,273.656Zm-92.533-7.237A67.364,67.364,0,0,1,9.6,258.9l1.279-.781A65.62,65.62,0,0,0,16.1,265.47Zm107.6-3.206-.909-1.191c2.107-1.6,4.323-3.335,7.183-5.613l.931,1.171C126.875,259.865,124.654,261.605,122.54,263.213Zm14.335-11.343-.932-1.17c1.995-1.6,4.626-3.674,7.222-5.623l.9,1.2C141.48,248.214,138.867,250.283,136.875,251.87ZM5.346,250.712a65.231,65.231,0,0,1-3.1-8.694l1.446-.4a63.846,63.846,0,0,0,3.022,8.5ZM151.5,241.079l-.8-1.262c1.725-1.1,3.333-2.033,4.9-2.852q1.591-.836,3.133-1.611l.676,1.339c-1.02.514-2.061,1.045-3.114,1.6C154.787,239.082,153.169,240.018,151.5,241.079ZM.438,232.965A58.812,58.812,0,0,1,0,225.818c0-.7.01-1.387.036-2.079l1.5.048c-.028.68-.039,1.357-.039,2.031a57.413,57.413,0,0,0,.428,6.966Zm167.179-.191L167,231.411c2.9-1.3,5.745-2.489,8.465-3.522l.532,1.4C173.311,230.311,170.486,231.484,167.617,232.774Zm16.965-6.394-.421-1.435c3.073-.9,5.994-1.615,8.935-2.173l.277,1.471C190.483,224.792,187.608,225.49,184.582,226.38Zm17.747-3.313-.108-1.5c2.295-.173,4.683-.254,7.305-.257.628,0,1.254.006,1.877.013l-.017,1.5c-.616,0-1.237-.013-1.86-.013C206.943,222.813,204.592,222.9,202.329,223.067ZM2.605,214.861l-1.465-.3A54.693,54.693,0,0,1,3.771,205.7l1.4.542A53.478,53.478,0,0,0,2.605,214.861Zm6.514-16.7L7.832,197.4q.347-.576.707-1.153a60.973,60.973,0,0,1,4.606-6.394l1.155.955a59.086,59.086,0,0,0-4.494,6.236Q9.455,197.6,9.119,198.165Zm11.4-13.867-1.005-1.109a72.583,72.583,0,0,1,7.216-5.73l.855,1.229A72.246,72.246,0,0,0,20.521,184.3Zm14.75-10.4-.733-1.308c2.463-1.382,5.135-2.753,8.162-4.19l.642,1.351C40.344,171.176,37.7,172.532,35.271,173.9Zm16.37-7.9-.6-1.372,1.975-.862c2.185-.952,4.32-1.881,6.374-2.82l.62,1.364c-2.061.939-4.2,1.873-6.4,2.827Zm16.6-7.779-.731-1.308a41.834,41.834,0,0,0,7.369-5.069l.993,1.125A43.289,43.289,0,0,1,68.239,158.22Zm13.9-12.061-1.206-.887a38.651,38.651,0,0,0,4.438-7.736l1.373.594A40,40,0,0,1,82.139,146.159Zm7.463-16.8L88.149,129c.524-2.16.961-4.326,1.379-6.425.168-.83.333-1.657.5-2.476l1.465.3c-.168.816-.335,1.64-.5,2.467C90.577,124.98,90.139,127.161,89.6,129.354Zm4.208-17.661-1.407-.515a29.677,29.677,0,0,1,4.422-8.172l1.183.919A28.237,28.237,0,0,0,93.81,111.693Zm10.669-13.768-.845-1.237a45.581,45.581,0,0,1,8.148-4.34l.579,1.379A44.5,44.5,0,0,0,104.479,97.925Zm16.412-7.071-.374-1.453a72.406,72.406,0,0,1,9.05-1.717l.191,1.486A70.635,70.635,0,0,0,120.891,90.854Zm17.9-2.412-.061-1.5c2.252-.092,4.721-.138,7.55-.138l1.613.006-.01,1.5-1.6-.008C143.469,88.307,141.017,88.35,138.79,88.442Z"/><path class="cls-21" d="M225.3,223.156c-1.527,0-3.021-.025-4.507-.066l.042-1.5c1.47.041,2.954.068,4.465.068Z"/></svg>