<svg id="Layer_1" data-name="Layer 1" xmlns="http://www.w3.org/2000/svg" viewBox="0 0 480 448.536"><defs><style>.cls-1{opacity:0.15;}.cls-2{fill:#6cb4ff;}.cls-3{fill:#3196fd;}.cls-4{fill:#ffce00;}.cls-5{fill:#2f93ed;}.cls-6{fill:#fff;}.cls-7{fill:#e2e2e2;}</style></defs><title>emptystates</title><g class="cls-1"><path class="cls-2" d="M362.586,236.489H144.85a22.417,22.417,0,1,1,0-44.833H362.586a22.417,22.417,0,1,1,0,44.833Z"/><path class="cls-2" d="M457.583,371.1H235.539a22.417,22.417,0,0,1,0-44.833H457.583a22.417,22.417,0,1,1,0,44.833Z"/><path class="cls-2" d="M233.333,303.726a22.415,22.415,0,0,1,22.414-22.418H106.931a22.417,22.417,0,1,0,0,44.833H255.747A22.413,22.413,0,0,1,233.333,303.726Z"/><path class="cls-2" d="M322.767,303.726a22.417,22.417,0,0,1-22.416,22.415h54.943a22.417,22.417,0,0,0,0-44.833H300.351A22.416,22.416,0,0,1,322.767,303.726Z"/><path class="cls-2" d="M375.253,146.823H356.2a22.416,22.416,0,0,1,0-44.831h19.05a22.416,22.416,0,0,1,0,44.831Z"/><path class="cls-2" d="M137.72,81.671H86.685a22.417,22.417,0,1,1,0-44.833H137.72a22.417,22.417,0,0,1,0,44.833Z"/><path class="cls-2" d="M41.467,326.141H22.418a22.417,22.417,0,1,1,0-44.833H41.467a22.417,22.417,0,0,1,0,44.833Z"/><path class="cls-2" d="M283.224,146.823H118.771a22.416,22.416,0,1,1,0-44.831H283.224a22.416,22.416,0,1,1,0,44.831Z"/><path class="cls-2" d="M262.505,169.237a22.418,22.418,0,0,1,22.42-22.414H169.956a22.417,22.417,0,1,1,0,44.833H284.925A22.418,22.418,0,0,1,262.505,169.237Z"/><path class="cls-2" d="M319.794,258.9a22.419,22.419,0,0,1,22.422-22.416H153.1a22.418,22.418,0,1,1,0,44.835H342.216A22.422,22.422,0,0,1,319.794,258.9Z"/></g><polygon class="cls-3" points="96.662 303.779 88.021 303.779 88.021 312.421 79.382 312.421 79.382 321.062 70.741 321.062 70.741 329.698 62.102 329.698 62.102 336.803 59.033 336.803 59.033 326.63 67.673 326.63 67.673 317.99 76.314 317.99 76.314 309.35 84.955 309.35 84.955 300.71 93.594 300.71 93.594 293.602 96.662 293.602 96.662 303.779"/><polygon class="cls-3" points="423.833 58.275 415.197 58.275 415.197 66.92 406.555 66.92 406.555 75.559 397.911 75.559 397.911 84.196 389.276 84.196 389.276 91.301 386.202 91.301 386.202 81.13 394.841 81.13 394.841 72.49 403.486 72.49 403.482 63.846 412.125 63.846 412.125 55.208 420.759 55.208 420.759 48.102 423.833 48.102 423.833 58.275"/><rect class="cls-4" x="384.347" y="193.799" width="23.681" height="4.562" transform="translate(-22.681 337.365) rotate(-44.971)"/><rect class="cls-4" x="393.906" y="184.24" width="4.562" height="23.681" transform="translate(-22.607 337.583) rotate(-45.001)"/><path class="cls-4" d="M148.3,151.916a9.848,9.848,0,1,1,5.19-1.486A9.789,9.789,0,0,1,148.3,151.916Zm-.019-17.694a7.845,7.845,0,1,0,6.679,3.7A7.843,7.843,0,0,0,148.279,134.222Z"/><path class="cls-5" d="M340.746,265.515c13.54-15.287,21.611-34.434,21.611-55.223,0-50.039-46.646-90.6-104.188-90.6s-104.191,40.562-104.191,90.6,46.649,90.6,104.191,90.6a115.909,115.909,0,0,0,52.309-12.255l39.044,15.276Z"/><path class="cls-6" d="M224.194,210.292a12.836,12.836,0,1,1-12.833-12.835A12.833,12.833,0,0,1,224.194,210.292Z"/><path class="cls-6" d="M271,210.292a12.835,12.835,0,1,1-12.832-12.835A12.836,12.836,0,0,1,271,210.292Z"/><path class="cls-6" d="M317.812,210.292a12.836,12.836,0,1,1-12.835-12.835A12.837,12.837,0,0,1,317.812,210.292Z"/><path class="cls-2" d="M185.011,247.37c-26.467,0-47.921,18.653-47.921,41.668a38.163,38.163,0,0,0,9.941,25.4L142.993,332.1l17.959-7.026a53.238,53.238,0,0,0,24.059,5.639c26.462,0,47.92-18.659,47.92-41.671S211.473,247.37,185.011,247.37Z"/><path class="cls-6" d="M200.637,289.038a5.9,5.9,0,1,0,5.9-5.9A5.9,5.9,0,0,0,200.637,289.038Z"/><path class="cls-6" d="M179.106,289.038a5.9,5.9,0,1,0,5.905-5.9A5.9,5.9,0,0,0,179.106,289.038Z"/><path class="cls-6" d="M157.581,289.038a5.9,5.9,0,1,0,5.9-5.9A5.9,5.9,0,0,0,157.581,289.038Z"/><path class="cls-7" d="M364.012,400.793c0,6.021-46.667,10.9-104.234,10.9s-104.237-4.884-104.237-10.9,46.668-10.912,104.237-10.912S364.012,394.768,364.012,400.793Z"/></svg>