<svg id="Layer_1" data-name="Layer 1" xmlns="http://www.w3.org/2000/svg" viewBox="0 0 480 448.536"><defs><style>.cls-1{opacity:0.15;}.cls-2{fill:#6cb4ff;}.cls-3{fill:#e2e2e2;}.cls-4{fill:#3196fd;}.cls-5{fill:#ffce00;}.cls-6{fill:#2f93ed;}.cls-7,.cls-8{fill:#fff;}.cls-8{fill-rule:evenodd;}</style></defs><title>emptystates</title><g class="cls-1"><path class="cls-2" d="M362.586,236.488H144.85a22.417,22.417,0,1,1,0-44.833H362.586a22.417,22.417,0,1,1,0,44.833Z"/><path class="cls-2" d="M457.583,371.1H235.539a22.417,22.417,0,0,1,0-44.833H457.583a22.417,22.417,0,1,1,0,44.833Z"/><path class="cls-2" d="M233.333,303.726a22.415,22.415,0,0,1,22.414-22.418H106.931a22.417,22.417,0,1,0,0,44.833H255.747A22.413,22.413,0,0,1,233.333,303.726Z"/><path class="cls-2" d="M322.767,303.726a22.417,22.417,0,0,1-22.416,22.415h54.943a22.417,22.417,0,0,0,0-44.833H300.351A22.416,22.416,0,0,1,322.767,303.726Z"/><path class="cls-2" d="M375.253,146.822H356.2a22.415,22.415,0,0,1,0-44.83h19.05a22.415,22.415,0,1,1,0,44.83Z"/><path class="cls-2" d="M137.72,81.671H86.685a22.417,22.417,0,1,1,0-44.833H137.72a22.417,22.417,0,0,1,0,44.833Z"/><path class="cls-2" d="M41.467,326.141H22.418a22.417,22.417,0,1,1,0-44.833H41.467a22.417,22.417,0,0,1,0,44.833Z"/><path class="cls-2" d="M283.224,146.822H118.771a22.415,22.415,0,1,1,0-44.83H283.224a22.415,22.415,0,1,1,0,44.83Z"/><path class="cls-2" d="M262.505,169.237a22.419,22.419,0,0,1,22.42-22.415H169.956a22.417,22.417,0,1,1,0,44.833H284.925A22.417,22.417,0,0,1,262.505,169.237Z"/><path class="cls-2" d="M319.794,258.9a22.42,22.42,0,0,1,22.422-22.417H153.1a22.418,22.418,0,1,1,0,44.836H342.216A22.422,22.422,0,0,1,319.794,258.9Z"/></g><path class="cls-3" d="M364.011,400.792c0,6.02-46.666,10.906-104.233,10.906S155.54,406.812,155.54,400.792s46.668-10.914,104.238-10.914S364.011,394.767,364.011,400.792Z"/><polygon class="cls-4" points="96.663 303.776 88.023 303.776 88.023 312.415 79.382 312.415 79.382 321.059 70.742 321.059 70.742 329.695 62.104 329.695 62.104 336.801 59.032 336.801 59.032 326.624 67.673 326.624 67.673 317.987 76.316 317.987 76.316 309.346 84.957 309.346 84.957 300.707 93.595 300.707 93.595 293.6 96.663 293.6 96.663 303.776"/><polygon class="cls-4" points="423.833 58.274 415.195 58.274 415.195 66.916 406.554 66.916 406.554 75.557 397.912 75.557 397.912 84.195 389.276 84.195 389.276 91.3 386.202 91.3 386.202 81.129 394.84 81.129 394.84 72.486 403.486 72.486 403.482 63.846 412.125 63.846 412.125 55.207 420.76 55.207 420.76 48.098 423.833 48.098 423.833 58.274"/><rect class="cls-5" x="384.348" y="193.797" width="23.677" height="4.561" transform="translate(-22.679 337.364) rotate(-44.971)"/><rect class="cls-5" x="393.906" y="184.239" width="4.561" height="23.677" transform="translate(-22.599 337.6) rotate(-45.003)"/><path class="cls-5" d="M148.3,151.912a9.846,9.846,0,1,1,5.191-1.484A9.788,9.788,0,0,1,148.3,151.912Zm-.017-17.694a7.847,7.847,0,1,0,6.675,3.707A7.845,7.845,0,0,0,148.281,134.218Z"/><path class="cls-6" d="M340.745,265.511c13.54-15.288,21.612-34.43,21.612-55.22,0-50.039-46.646-90.6-104.188-90.6s-104.189,40.563-104.189,90.6,46.647,90.6,104.189,90.6a115.836,115.836,0,0,0,52.307-12.257l39.047,15.277Z"/><path class="cls-2" d="M185.01,247.366c-26.466,0-47.92,18.654-47.92,41.667a38.158,38.158,0,0,0,9.943,25.4l-4.04,17.658,17.959-7.029a53.175,53.175,0,0,0,24.058,5.644c26.463,0,47.922-18.659,47.922-41.675S211.473,247.366,185.01,247.366Z"/><path class="cls-7" d="M200.638,289.033a5.9,5.9,0,1,0,5.9-5.9A5.9,5.9,0,0,0,200.638,289.033Z"/><path class="cls-7" d="M179.105,289.033a5.9,5.9,0,1,0,5.905-5.9A5.905,5.905,0,0,0,179.105,289.033Z"/><path class="cls-7" d="M157.581,289.033a5.9,5.9,0,1,0,5.9-5.9A5.9,5.9,0,0,0,157.581,289.033Z"/><path class="cls-8" d="M284.707,194.991a16.416,16.416,0,0,1-4.91,11.637,65.865,65.865,0,0,1-8.818,7.474c-3.35,2.344-5.944,4.986-7.306,8.964-1.271,3.717-4.62,5.189-8.941,4.517a7.749,7.749,0,0,1-6.38-6.858,12.34,12.34,0,0,1,3.539-10.392c2.817-2.806,6.022-5.219,9.028-7.838a36.283,36.283,0,0,0,3.306-3.17,7.68,7.68,0,0,0,2.022-5.855,6.562,6.562,0,0,0-5.755-6.346,18.84,18.84,0,0,0-5.428-.014c-2.742.365-4.527,2.166-5.735,4.576-.783,1.557-1.486,3.155-2.358,4.661a8.617,8.617,0,0,1-13.306,1.71,7.4,7.4,0,0,1-2.018-5.961c.344-6.176,3.593-10.7,8.374-14.213,7.583-5.577,16.11-6.569,25.126-4.781,4.821.955,9.321,2.656,13.036,6C282.659,183.127,284.7,187.915,284.707,194.991Zm-18.285,46.536a9.815,9.815,0,1,0-9.779,9.783A9.669,9.669,0,0,0,266.422,241.527Z"/></svg>