<svg xmlns="http://www.w3.org/2000/svg" viewBox="0 0 48 48"><defs><style>.cls-1{opacity:0.4;}.cls-2{fill:#5d5d5d;fill-rule:evenodd;opacity:0.5;}</style></defs><title>Untitled-3</title><g id="eye"><g class="cls-1"><path class="cls-2" d="M24.03,38.728a23.983,23.983,0,0,1-11.892-3.479A45.138,45.138,0,0,1,.652,25.616a2.349,2.349,0,0,1-.087-3.151c4.223-4.778,8.991-8.85,14.923-11.386,6.443-2.754,12.74-2.28,18.906.87a43.893,43.893,0,0,1,12.983,10.47,2.3,2.3,0,0,1,.086,3.05c-4.5,5.1-9.593,9.405-16.047,11.858A21.546,21.546,0,0,1,24.03,38.728ZM13.583,23.738A10.442,10.442,0,1,0,24.412,13.573,10.463,10.463,0,0,0,13.583,23.738Z"/><path class="cls-2" d="M30.521,24.009a6.5,6.5,0,1,1-6.406-6.522A6.515,6.515,0,0,1,30.521,24.009Zm-2.579-1.957a1.956,1.956,0,0,0-1.909-1.993,1.96,1.96,0,1,0-.061,3.92A1.946,1.946,0,0,0,27.942,22.052Z"/></g></g></svg>