<?xml version="1.0" encoding="utf-8"?>
<!-- Generator: Adobe Illustrator 23.0.3, SVG Export Plug-In . SVG Version: 6.00 Build 0)  -->
<svg version="1.1" id="Layer_1" xmlns="http://www.w3.org/2000/svg" xmlns:xlink="http://www.w3.org/1999/xlink" x="0px" y="0px"
	 viewBox="0 0 50 50" style="enable-background:new 0 0 50 50;" xml:space="preserve">
<style type="text/css">
	.st0{fill:#FFFFFF;}
</style>
<path class="st0" d="M3.06,0c14.64,0,29.27,0,43.91,0c0.1,0.03,0.19,0.08,0.29,0.1C48.85,0.47,50,1.86,50,3.42
	c0,14.39,0,28.78,0,43.18c0,1.81-1.59,3.4-3.4,3.4c-3.93,0-7.85,0-11.78,0c-0.12,0-0.25,0-0.38,0c0-7.21,0-14.38,0-21.57
	c0.14,0,0.26,0,0.37,0c1.74,0,3.47-0.01,5.21,0.01c0.26,0,0.38-0.08,0.4-0.34c0.07-0.66,0.15-1.31,0.22-1.96
	c0.17-1.55,0.32-3.1,0.49-4.65c0.06-0.56,0.08-0.56-0.49-0.56c-1.99,0-3.98,0.01-5.97,0.01c-0.15,0-0.27,0-0.27-0.21
	c0.02-1.43,0.02-2.87,0.07-4.3c0.01-0.4,0.1-0.84,0.27-1.2c0.33-0.69,1.03-0.86,1.7-0.88c1.4-0.06,2.8-0.04,4.2-0.06
	c0.51,0,0.52-0.01,0.52-0.53c0-2.18,0-4.35,0-6.53c0-0.44-0.03-0.47-0.48-0.47c-1.75,0-3.5-0.01-5.25,0
	c-1.55,0.01-3.09,0.11-4.58,0.6c-1.74,0.57-3.16,1.56-4.1,3.16c-0.93,1.57-1.23,3.3-1.3,5.08c-0.07,1.66-0.04,3.33-0.03,5
	c0,0.27-0.06,0.35-0.35,0.35c-1.23-0.02-2.45-0.01-3.68-0.01c-0.43,0-0.44,0.02-0.44,0.46c0,2.21,0.01,4.42-0.01,6.63
	c0,0.34,0.12,0.43,0.44,0.43c1.24-0.01,2.48-0.01,3.72-0.01c0.1,0,0.2,0.01,0.29,0.02c0,7.2,0,14.36,0,21.55c-0.15,0-0.28,0-0.4,0
	c-7.18,0-14.36,0.01-21.54-0.01c-1.4,0-2.44-0.7-3.08-1.96C0.21,47.7,0.12,47.32,0,46.96C0,32.33,0,17.69,0,3.06
	c0.03-0.08,0.07-0.16,0.09-0.25C0.38,1.56,1.12,0.7,2.31,0.24C2.55,0.14,2.81,0.08,3.06,0z"/>
</svg>
