<?xml version="1.0" encoding="utf-8"?>
<!-- Generator: Adobe Illustrator 23.0.3, SVG Export Plug-In . SVG Version: 6.00 Build 0)  -->
<svg version="1.1" id="Layer_1" xmlns="http://www.w3.org/2000/svg" xmlns:xlink="http://www.w3.org/1999/xlink" x="0px" y="0px"
	 viewBox="0 0 100 100" style="enable-background:new 0 0 100 100;" xml:space="preserve">
<style type="text/css">
	.st0{fill:url(#SVGID_1_);}
</style>
<linearGradient id="SVGID_1_" gradientUnits="userSpaceOnUse" x1="5.9615" y1="50" x2="94.0385" y2="50">
	<stop  offset="0" style="stop-color:#3196FD"/>
	<stop  offset="1" style="stop-color:#0A6CFE"/>
</linearGradient>
<path class="st0" d="M67.19,60.24h-5.13c0.37-1.23,1.36-1.97,2.58-1.97C66.35,58.27,67.13,59.46,67.19,60.24z M26.32,46.65
	c0,1.26,1.2,2.08,2.55,2.08c2.2,0,3.71-1.7,3.71-3.55c-0.98-0.47-1.95-0.76-3.17-0.76C27.43,44.42,26.32,45.39,26.32,46.65z
	 M76.02,79.57L78.5,100L60.18,86.89c-3.27,0.77-6.67,1.2-10.18,1.2c-24.32,0-44.04-19.72-44.04-44.04S25.68,0,50,0
	c24.32,0,44.04,19.72,44.04,44.04C94.04,58.63,86.94,71.56,76.02,79.57z M74.84,60.3l3.6,0.63l4.59-18.72l-6.09-1.08L74.84,60.3z
	 M36.64,42.19c0-4.4-2.58-6.67-7.36-6.67c-2.83,0-5.06,1.04-6.7,3.08l2.99,2.05c0.98-1.2,2.2-1.79,3.62-1.79
	c1.92,0,3.4,1.2,3.4,2.83v0.47c-0.85-0.35-2.07-0.72-4.08-0.72c-3.62,0-6.29,2.04-6.29,5.22c0,3.12,2.55,5.28,5.75,5.28
	c2.14,0,3.4-0.97,4.38-2.14h0.25v1.64h4.06V42.19z M45.85,51.93c3.93,0,6.58-2.39,6.58-5.06c0-2.26-1.51-3.99-4.66-4.75l-2.36-0.57
	c-1.26-0.35-2.04-0.69-2.04-1.41c0-0.76,1.04-1.29,2.2-1.29c1.13,0,2.39,0.51,2.99,1.73l3.55-1.44c-1.1-2.52-3.55-3.62-6.48-3.62
	c-3.52,0-6.29,1.79-6.29,4.78c0,2.64,2.42,4.03,4.34,4.43l2.17,0.47c1.79,0.41,2.45,0.88,2.45,1.73c0,0.75-0.94,1.38-2.45,1.38
	c-1.48,0-2.7-0.76-3.42-2.36l-3.68,1.57C39.6,49.77,41.83,51.93,45.85,51.93z M57.38,60.22c0-2.51-1.23-4.26-3.81-4.26
	c-1.73,0-2.94,0.89-3.61,1.95c-0.45-1.1-1.57-1.95-3.2-1.95c-1.38,0-2.57,0.69-3.24,1.73h-0.17V56.3h-2.66v10.6h2.83v-5.15
	c0-1.79,0.8-3.18,2.22-3.18c1.23,0,1.86,0.72,1.86,2.16v6.16h2.83v-5.15c0-1.79,0.87-3.18,2.34-3.18c1.19,0,1.77,0.72,1.77,2.16
	v6.16h2.83V60.22z M69.94,61.51c0-3.18-1.88-5.56-5.3-5.56c-3.2,0-5.51,2.6-5.51,5.64c0,3.27,2.4,5.65,5.62,5.65
	c2.4,0,4.04-1.17,5.02-2.9l-2.36-1.17c-0.5,0.89-1.31,1.56-2.62,1.56c-1.32,0-2.64-0.76-2.88-2.49h7.98c0-0.09,0-0.17,0.02-0.24
	c0-0.07,0-0.15,0.02-0.24V61.51z M69.97,51.18l-6.19-9.34l5.72-5.57v-0.25h-5.09l-5.16,5.16h-0.19V28.91h-4.12v22.52h4.12v-4.97
	l1.82-1.79l4.21,6.76h4.87V51.18z M78.44,65.11c0.25-1.4-0.68-2.72-2.07-2.97c-1.39-0.24-2.72,0.68-2.97,2.08
	c-0.24,1.39,0.68,2.72,2.08,2.96C76.87,67.43,78.2,66.51,78.44,65.11z"/>
</svg>
