<?xml version="1.0" encoding="utf-8"?>
<!-- Generator: Adobe Illustrator 23.0.3, SVG Export Plug-In . SVG Version: 6.00 Build 0)  -->
<svg version="1.1" id="Layer_1" xmlns="http://www.w3.org/2000/svg" xmlns:xlink="http://www.w3.org/1999/xlink" x="0px" y="0px"
	 viewBox="0 0 100 100" style="enable-background:new 0 0 100 100;" xml:space="preserve">
<g>
	<path d="M29.56,68.88c-2.95,1.71-6.22,3.59-9.14,5.28C24.81,83.81,44,91.38,57.6,89.18c16.4-2.65,32.62-18.08,31.08-41.1
		c3.18-0.06,6.36-0.12,9.65-0.19c0.09,0.48,0.23,0.87,0.24,1.26c0.52,16.32-4.82,30.28-17.71,40.55
		c-13.37,10.64-28.56,12.84-44.75,7.53c-9.22-3.03-16.89-8.45-23-16c-0.7-0.87-1.62-1.96-1.62-1.96s-6.01,3.52-8.35,4.88
		c0.02-1.11,2.77-13.71,4.17-19.4c0.53-2.16,1.42-2.67,3.58-2.04C16.51,64.34,29.55,68.68,29.56,68.88z"/>
	<path d="M70.44,31.12c2.95-1.71,6.22-3.59,9.14-5.28C75.19,16.19,56,8.62,42.4,10.82c-16.4,2.65-32.62,18.08-31.08,41.1
		c-3.18,0.06-6.36,0.12-9.65,0.19c-0.09-0.48-0.23-0.87-0.24-1.26C0.91,34.53,6.25,20.57,19.14,10.31
		C32.51-0.34,47.7-2.54,63.9,2.78c9.22,3.03,16.89,8.45,23,16c0.7,0.87,1.62,1.96,1.62,1.96s6.01-3.52,8.35-4.88
		c-0.02,1.11-2.77,13.71-4.17,19.4c-0.53,2.16-1.42,2.67-3.58,2.04C83.49,35.66,70.45,31.32,70.44,31.12z"/>
</g>
</svg>
