<?xml version="1.0" encoding="utf-8"?>
<!-- Generator: Adobe Illustrator 23.0.3, SVG Export Plug-In . SVG Version: 6.00 Build 0)  -->
<svg version="1.1" id="Layer_1" xmlns="http://www.w3.org/2000/svg" xmlns:xlink="http://www.w3.org/1999/xlink" x="0px" y="0px"
	 viewBox="0 0 50 50" style="enable-background:new 0 0 50 50;" xml:space="preserve">
<style type="text/css">
	.st0{fill:#FFFFFF;}
</style>
<path class="st0" d="M20.8,49.64c-0.06-0.11-0.17-0.28-0.24-0.46c-0.73-2.17-1.46-4.33-2.17-6.51c-0.11-0.35-0.28-0.57-0.64-0.71
	c-1.53-0.62-2.94-1.47-4.22-2.51c-0.3-0.24-0.57-0.33-0.96-0.26c-2.23,0.41-4.47,0.77-6.7,1.18C5.44,40.44,5.22,40.33,4.99,40
	c-1.35-1.84-2.45-3.82-3.3-5.94c-0.14-0.34-0.1-0.57,0.15-0.85c1.53-1.7,3.04-3.42,4.56-5.12c0.24-0.27,0.34-0.53,0.29-0.91
	c-0.21-1.67-0.17-3.35,0.06-5.02c0.03-0.24-0.06-0.57-0.21-0.76c-1.46-1.78-2.94-3.55-4.42-5.31c-0.24-0.28-0.29-0.5-0.14-0.85
	c0.91-2.13,2.1-4.1,3.53-5.92c0.22-0.28,0.42-0.35,0.77-0.27c2.29,0.49,4.58,0.95,6.88,1.41c0.2,0.04,0.47-0.02,0.63-0.14
	c1.43-1.06,2.97-1.92,4.62-2.58c0.19-0.08,0.38-0.32,0.46-0.52c0.82-2.17,1.62-4.36,2.41-6.54c0.12-0.33,0.29-0.46,0.64-0.51
	c2.3-0.28,4.6-0.23,6.89,0.1c0.37,0.05,0.54,0.21,0.66,0.57c0.7,2.16,1.44,4.31,2.14,6.46c0.12,0.37,0.3,0.6,0.67,0.75
	c1.52,0.61,2.91,1.45,4.18,2.48c0.32,0.26,0.6,0.35,1.01,0.27c2.23-0.41,4.47-0.77,6.7-1.17c0.36-0.06,0.58-0.01,0.8,0.3
	c1.37,1.85,2.48,3.84,3.33,5.98c0.14,0.36,0.12,0.59-0.15,0.9c-1.52,1.68-3.01,3.39-4.53,5.08c-0.26,0.29-0.36,0.56-0.31,0.96
	c0.22,1.67,0.17,3.35-0.07,5.02c-0.03,0.24,0.07,0.56,0.23,0.76c1.45,1.77,2.91,3.52,4.39,5.27c0.25,0.3,0.31,0.53,0.15,0.9
	c-0.91,2.13-2.1,4.1-3.54,5.91c-0.21,0.26-0.4,0.33-0.73,0.26c-2.29-0.49-4.58-0.96-6.88-1.41c-0.21-0.04-0.51,0.02-0.68,0.15
	c-1.42,1.05-2.94,1.89-4.58,2.55c-0.21,0.08-0.41,0.34-0.49,0.56c-0.81,2.16-1.61,4.32-2.39,6.49c-0.13,0.35-0.3,0.49-0.68,0.54
	c-2.3,0.27-4.6,0.23-6.89-0.11C21.09,49.7,21,49.68,20.8,49.64z M28.54,15.9c-4.99-1.94-10.69,0.57-12.64,5.56
	c-1.94,4.99,0.57,10.69,5.56,12.64c4.99,1.94,10.68-0.56,12.64-5.56C36.05,23.56,33.53,17.84,28.54,15.9z"/>
</svg>
