<?xml version="1.0" encoding="utf-8"?>
<!-- Generator: Adobe Illustrator 23.0.3, SVG Export Plug-In . SVG Version: 6.00 Build 0)  -->
<svg version="1.1" id="Layer_1" xmlns="http://www.w3.org/2000/svg" xmlns:xlink="http://www.w3.org/1999/xlink" x="0px" y="0px"
	 viewBox="0 0 100 100" style="enable-background:new 0 0 100 100;" xml:space="preserve">
<style type="text/css">
	.st0{fill-rule:evenodd;clip-rule:evenodd;fill:#FFFFFF;}
</style>
<g>
	<path class="st0" d="M100,47.08c0,0.15,0,0.3,0,0.45C85.79,60.49,71.57,73.46,56.79,86.95c0-7.9,0-15.09,0-22.37
		c-7.68-0.35-14.96-0.02-22.15,1.42C23.86,68.16,13.97,71.98,7.1,80.12c-2.9,3.44-4.77,7.6-7.1,11.43c0-2.24,0-4.49,0-6.74
		c0.15-0.66,0.32-1.3,0.45-1.95c1.2-6.09,1.77-12.34,3.7-18.23C10,46.75,22.83,35.22,43.61,31.62c4.29-0.74,8.69-0.98,13.37-1.49
		c0-7.04,0-14.16,0-21.68c0.82,0.7,1.24,1.03,1.64,1.39c13.04,11.87,26.08,23.75,39.13,35.62C98.42,46.06,99.24,46.54,100,47.08z"/>
</g>
</svg>
