<?xml version="1.0" encoding="utf-8"?>
<!-- Generator: Adobe Illustrator 23.0.3, SVG Export Plug-In . SVG Version: 6.00 Build 0)  -->
<svg version="1.1" id="Layer_1" xmlns="http://www.w3.org/2000/svg" xmlns:xlink="http://www.w3.org/1999/xlink" x="0px" y="0px"
	 viewBox="0 0 50 50" style="enable-background:new 0 0 50 50;" xml:space="preserve">
<style type="text/css">
	.st0{fill:#FFFFFF;}
</style>
<g>
	<path class="st0" d="M33.92,29.06c1.26,0.72,2.42,1.35,3.55,2.04c1.42,0.86,1.85,2.27,1.09,3.48c-0.78,1.25-2.1,1.38-3.55,0.37
		c-10.79-7.57-26.37-0.91-28.29,12.1c-0.07,0.45-0.12,0.91-0.25,1.35c-0.34,1.13-1.17,1.7-2.3,1.6c-1.2-0.11-2.09-0.85-2-2.09
		c0.1-1.51,0.37-3.03,0.8-4.48c1.9-6.27,5.87-10.83,11.65-13.85c0.3-0.16,0.61-0.32,0.94-0.49C6.38,22,7.48,10.39,13.52,4.53
		c6.3-6.1,16.32-6.05,22.55,0.19C41.75,10.42,43.26,21.65,33.92,29.06z M36.12,15.97C36.1,9.56,31.05,4.45,24.73,4.45
		c-6.18,0-11.49,5.19-11.45,11.17c0.05,6.55,5.06,11.68,11.41,11.69C30.91,27.33,36.15,22.13,36.12,15.97z"/>
	<g>
		<path class="st0" d="M45.73,46.23h-14.5c-1.16,0-2.1-0.94-2.1-2.1s0.94-2.1,2.1-2.1h14.5c1.16,0,2.1,0.94,2.1,2.1
			S46.89,46.23,45.73,46.23z"/>
	</g>
</g>
</svg>
