<?xml version="1.0" encoding="utf-8"?>
<!-- Generator: Adobe Illustrator 23.0.3, SVG Export Plug-In . SVG Version: 6.00 Build 0)  -->
<svg version="1.1" id="Layer_1" focusable="false" xmlns="http://www.w3.org/2000/svg" xmlns:xlink="http://www.w3.org/1999/xlink"
	 x="0px" y="0px" viewBox="0 0 50 50" style="enable-background:new 0 0 50 50;" xml:space="preserve">
<style type="text/css">
	.st0{fill:#B3B3B4;}
</style>
<path class="st0" d="M21.3,3.9l2.5-2.5c1-1,2.7-1,3.8,0l21.7,21.7c1,1,1,2.7,0,3.8L27.5,48.6c-1,1-2.7,1-3.8,0l-2.5-2.5
	c-1.1-1.1-1-2.8,0-3.8l13.4-12.8H2.7c-1.5,0-2.7-1.2-2.7-2.7v-3.6c0-1.5,1.2-2.7,2.7-2.7h32.1L21.3,7.7C20.2,6.7,20.2,5,21.3,3.9z"
	/>
</svg>
