<?xml version="1.0" encoding="utf-8"?>
<!-- Generator: Adobe Illustrator 23.0.3, SVG Export Plug-In . SVG Version: 6.00 Build 0)  -->
<svg version="1.1" id="Layer_1" focusable="false" xmlns="http://www.w3.org/2000/svg" xmlns:xlink="http://www.w3.org/1999/xlink"
	 x="0px" y="0px" viewBox="0 0 50 50" style="enable-background:new 0 0 50 50;" xml:space="preserve">
<style type="text/css">
	.st0{fill:#FFFFFF;}
</style>
<path class="st0" d="M44.6,50H5.4c-3,0-5.4-2.4-5.4-5.4V5.4C0,2.4,2.4,0,5.4,0h39.3c3,0,5.4,2.4,5.4,5.4v39.3
	C50,47.6,47.6,50,44.6,50z M21.8,39.1l20.5-20.5c0.7-0.7,0.7-1.8,0-2.5l-2.5-2.5c-0.7-0.7-1.8-0.7-2.5,0L20.5,30.2l-7.8-7.8
	c-0.7-0.7-1.8-0.7-2.5,0l-2.5,2.5c-0.7,0.7-0.7,1.8,0,2.5l11.6,11.6C20,39.8,21.1,39.8,21.8,39.1L21.8,39.1z"/>
</svg>
