<?xml version="1.0" encoding="utf-8"?>
<!-- Generator: Adobe Illustrator 23.0.3, SVG Export Plug-In . SVG Version: 6.00 Build 0)  -->
<svg version="1.1" id="Layer_1" focusable="false" xmlns="http://www.w3.org/2000/svg" xmlns:xlink="http://www.w3.org/1999/xlink"
	 x="0px" y="0px" viewBox="0 0 50 50" style="enable-background:new 0 0 50 50;" xml:space="preserve">
<style type="text/css">
	.st0{fill:#FFFFFF;}
</style>
<path class="st0" d="M49.2,45.8c1-1,1-2.8,0-3.8l-17-17l17-17C49.7,7.5,50,6.8,50,6.1s-0.3-1.4-0.8-1.9l-3.5-3.5c-1-1-2.8-1-3.8,0
	l-17,17L8,0.8c-1.1-1-2.8-1-3.8,0L0.8,4.2c-1,1-1,2.8,0,3.8l17,17l-17,17c-1,1-1,2.8,0,3.8l3.5,3.5c1,1,2.8,1,3.8,0l17-17l17,17
	c1,1,2.8,1,3.8,0L49.2,45.8z"/>
</svg>
