<?xml version="1.0" encoding="utf-8"?>
<!-- Generator: Adobe Illustrator 23.0.3, SVG Export Plug-In . SVG Version: 6.00 Build 0)  -->
<svg version="1.1" id="Layer_1" focusable="false" xmlns="http://www.w3.org/2000/svg" xmlns:xlink="http://www.w3.org/1999/xlink"
	 x="0px" y="0px" viewBox="0 0 50 44.4" style="enable-background:new 0 0 50 44.4;" xml:space="preserve">
<style type="text/css">
	.st0{fill:#FFFFFF;}
</style>
<path class="st0" d="M34.9,7.3l7.8,7.8c0.3,0.3,0.3,0.9,0,1.2l-19,19l-8.1,0.9c-1.1,0.1-2-0.8-1.9-1.9l0.9-8.1l19-19
	C34.1,6.9,34.6,6.9,34.9,7.3L34.9,7.3z M49,5.3L44.8,1c-1.3-1.3-3.5-1.3-4.8,0l-3.1,3.1c-0.3,0.3-0.3,0.9,0,1.2l7.8,7.8
	c0.3,0.3,0.9,0.3,1.2,0l3.1-3.1C50.3,8.7,50.3,6.6,49,5.3z M33.3,30.1v8.8H5.6V11.2h19.9c0.3,0,0.5-0.1,0.7-0.3l3.5-3.5
	c0.7-0.7,0.2-1.8-0.7-1.8H4.2C1.9,5.6,0,7.5,0,9.8v30.6c0,2.3,1.9,4.2,4.2,4.2h30.6c2.3,0,4.2-1.9,4.2-4.2V26.6
	c0-0.9-1.1-1.4-1.8-0.7l-3.5,3.5C33.4,29.6,33.3,29.8,33.3,30.1z"/>
</svg>
