<?xml version="1.0" encoding="utf-8"?>
<!-- Generator: Adobe Illustrator 23.0.3, SVG Export Plug-In . SVG Version: 6.00 Build 0)  -->
<svg version="1.1" id="Layer_1" focusable="false" xmlns="http://www.w3.org/2000/svg" xmlns:xlink="http://www.w3.org/1999/xlink"
	 x="0px" y="0px" viewBox="0 0 50 50" style="enable-background:new 0 0 50 50;" xml:space="preserve">
<style type="text/css">
	.st0{fill:#B3B3B4;}
</style>
<path class="st0" d="M32.3,25c0,4-3.2,7.3-7.3,7.3S17.7,29,17.7,25s3.2-7.3,7.3-7.3S32.3,21,32.3,25z M42.7,17.7
	c-4,0-7.3,3.2-7.3,7.3s3.2,7.3,7.3,7.3S50,29,50,25S46.8,17.7,42.7,17.7z M7.3,17.7C3.2,17.7,0,21,0,25s3.2,7.3,7.3,7.3
	s7.3-3.2,7.3-7.3S11.3,17.7,7.3,17.7z"/>
<path class="st0" d="M515.4,12.7c0-1.4-0.3-2.7-0.9-3.8c-0.5-1.1-1.3-2.1-2.2-2.8c-0.9-0.7-2-1.2-3.2-1.5c-1.2-0.3-2.4-0.3-3.7,0
	l-29.7,5.9c-0.8,0.2-1.6,0.5-2.2,1c-0.7,0.5-1.3,1.2-1.7,1.9c-0.5,0.7-0.8,1.6-1.1,2.5c-0.2,0.9-0.4,1.8-0.3,2.8l0.7,19.8
	c0,0.9,0.2,1.9,0.5,2.7c0.3,0.8,0.7,1.6,1.2,2.3c0.5,0.7,1.1,1.2,1.8,1.7c0.7,0.4,1.4,0.7,2.2,0.8l10.3,1.1l5.2,11.9l3.3-11
	l10.2,1.1c1.3,0.1,2.5,0,3.6-0.3c1.1-0.4,2.2-0.9,3.1-1.7c0.9-0.8,1.6-1.7,2.1-2.8c0.5-1.1,0.8-2.4,0.8-3.7L515.4,12.7z M493.3,37.3
	c-0.1,0.4-0.3,0.7-0.5,1c-0.2,0.3-0.5,0.5-0.8,0.7c-0.3,0.2-0.6,0.3-1,0.4c-0.4,0.1-0.7,0-1,0c-0.3-0.1-0.6-0.2-0.8-0.5
	c-0.2-0.2-0.4-0.5-0.5-0.8c-0.1-0.3-0.2-0.7-0.2-1.1c0-0.4,0.1-0.8,0.2-1.1c0.1-0.4,0.3-0.7,0.6-1c0.2-0.3,0.5-0.5,0.8-0.7
	c0.3-0.2,0.6-0.3,1-0.4c0.4-0.1,0.7,0,1,0.1c0.3,0.1,0.6,0.3,0.8,0.5c0.2,0.2,0.4,0.5,0.5,0.8c0.1,0.3,0.2,0.7,0.2,1
	C493.6,36.6,493.5,37,493.3,37.3z M497.1,23.1c-0.1,0.5-0.3,0.9-0.5,1.4c-0.2,0.4-0.5,0.8-0.8,1.2c-0.3,0.4-0.6,0.8-1,1.1
	c-0.3,0.4-0.6,0.7-0.8,1c-0.2,0.3-0.4,0.6-0.5,0.9c-0.1,0.3-0.2,0.6-0.3,0.9c0,0.1,0,0.3,0,0.4l0,0c-0.2,0.9-0.9,1.2-1.4,1.3l-0.3,0
	c0,0,0,0,0,0c-1.8,0.2-2.1-0.7-2.1-0.9c0-0.5,0.1-0.9,0.2-1.4c0.1-0.5,0.3-0.9,0.5-1.3c0.2-0.4,0.5-0.9,0.9-1.3
	c0.4-0.5,0.8-0.9,1.3-1.4c0.3-0.3,0.5-0.5,0.7-0.8c0.2-0.2,0.4-0.5,0.5-0.7c0.1-0.2,0.3-0.5,0.3-0.7c0.1-0.3,0.1-0.5,0.1-0.9
	c0-0.3,0-0.6-0.1-0.9c-0.1-0.3-0.3-0.5-0.5-0.8c-0.2-0.2-0.5-0.4-0.8-0.5c-0.3-0.1-0.6-0.2-1-0.2c-0.4,0-0.8,0.1-1.1,0.3
	c-0.3,0.2-0.6,0.4-0.9,0.6c-0.2,0.2-0.4,0.5-0.5,0.7l0,0c-1,1.1-2.3,0.6-2.3,0.5l0,0c-1.9-0.8-1.2-2.3-0.9-2.8
	c0.4-0.6,0.8-1.2,1.4-1.7c0.6-0.5,1.2-0.9,2-1.2c0.7-0.3,1.6-0.4,2.5-0.4c0.9,0,1.8,0.2,2.5,0.5c0.7,0.3,1.4,0.7,1.9,1.3
	c0.5,0.5,0.9,1.2,1.2,1.9c0.3,0.7,0.4,1.5,0.4,2.3C497.3,22.1,497.2,22.6,497.1,23.1z"/>
</svg>
