<?xml version="1.0" encoding="utf-8"?>
<!-- Generator: Adobe Illustrator 23.0.3, SVG Export Plug-In . SVG Version: 6.00 Build 0)  -->
<svg version="1.1" id="Layer_1" focusable="false" xmlns="http://www.w3.org/2000/svg" xmlns:xlink="http://www.w3.org/1999/xlink"
	 x="0px" y="0px" viewBox="0 0 50 50" style="enable-background:new 0 0 50 50;" xml:space="preserve">
<style type="text/css">
	.st0{fill:#B3B3B4;}
</style>
<path class="st0" d="M25,17.7c4,0,7.3,3.2,7.3,7.3S29,32.3,25,32.3S17.7,29,17.7,25S21,17.7,25,17.7z M17.7,7.3c0,4,3.2,7.3,7.3,7.3
	s7.3-3.2,7.3-7.3S29,0,25,0S17.7,3.2,17.7,7.3z M17.7,42.7c0,4,3.2,7.3,7.3,7.3s7.3-3.2,7.3-7.3S29,35.5,25,35.5
	S17.7,38.7,17.7,42.7z"/>
</svg>
