<?xml version="1.0" encoding="utf-8"?>
<!-- Generator: Adobe Illustrator 23.0.3, SVG Export Plug-In . SVG Version: 6.00 Build 0)  -->
<svg version="1.1" id="Layer_1" focusable="false" xmlns="http://www.w3.org/2000/svg" xmlns:xlink="http://www.w3.org/1999/xlink"
	 x="0px" y="0px" viewBox="0 0 50 50" style="enable-background:new 0 0 50 50;" xml:space="preserve">
<style type="text/css">
	.st0{fill:#FFFFFF;}
	.st1{fill:#BE202E;}
</style>
<g>
	<circle class="st0" cx="25" cy="34.6" r="4.6"/>
	<path class="st0" d="M22.5,28.2h4.9c0.6,0,1.2-0.5,1.2-1.1l0.7-13.7c0-0.7-0.5-1.3-1.2-1.3h-6.4c-0.6,0-1.1,0.6-1.1,1.3l0.7,13.7
		C21.3,27.7,21.9,28.2,22.5,28.2z"/>
	<path class="st1" d="M25,0C11.2,0,0,11.2,0,25s11.2,25,25,25s25-11.2,25-25S38.8,0,25,0z M21.7,12.1h6.4c0.7,0,1.2,0.6,1.2,1.3
		l-0.7,13.7c0,0.6-0.6,1.1-1.2,1.1h-4.9c-0.6,0-1.2-0.5-1.2-1.1l-0.7-13.7C20.6,12.7,21.1,12.1,21.7,12.1z M25,39.2
		c-2.5,0-4.6-2-4.6-4.6c0-2.5,2-4.6,4.6-4.6s4.6,2.1,4.6,4.6S27.5,39.2,25,39.2z"/>
</g>
</svg>
