<?xml version="1.0" encoding="utf-8"?>
<!-- Generator: Adobe Illustrator 23.0.3, SVG Export Plug-In . SVG Version: 6.00 Build 0)  -->
<svg version="1.1" id="Layer_1" focusable="false" xmlns="http://www.w3.org/2000/svg" xmlns:xlink="http://www.w3.org/1999/xlink"
	 x="0px" y="0px" viewBox="0 0 50 50.8" style="enable-background:new 0 0 50 50.8;" xml:space="preserve">
<style type="text/css">
	.st0{fill:#FFFFFF;}
</style>
<path class="st0" d="M33.9,9.8c-5.3,0-9.7-3.5-16.4-3.5c-2.5,0-4.7,0.4-6.8,1.2C11,6.8,11.2,6,11.1,5.2C10.9,2.4,8.6,0.1,5.8,0
	C2.6-0.1,0,2.4,0,5.6c0,1.9,0.9,3.6,2.4,4.6v38.3c0,1.3,1.1,2.4,2.4,2.4h1.6c1.3,0,2.4-1.1,2.4-2.4V39c2.8-1.2,6.3-2.2,11.4-2.2
	c5.3,0,9.7,3.5,16.4,3.5c4.8,0,8.6-1.6,12.2-4.1c0.9-0.6,1.4-1.6,1.4-2.6V9.5c0-2.3-2.4-3.9-4.5-2.9C42.1,8.2,37.9,9.8,33.9,9.8z"/>
</svg>
