<?xml version="1.0" encoding="utf-8"?>
<!-- Generator: Adobe Illustrator 23.0.3, SVG Export Plug-In . SVG Version: 6.00 Build 0)  -->
<svg version="1.1" id="Layer_1" xmlns="http://www.w3.org/2000/svg" xmlns:xlink="http://www.w3.org/1999/xlink" x="0px" y="0px"
	 viewBox="0 0 50 50" style="enable-background:new 0 0 50 50;" xml:space="preserve">
<style type="text/css">
	.st0{fill-rule:evenodd;clip-rule:evenodd;fill:#FFFFFF;}
</style>
<g>
	<path class="st0" d="M34.47,24.99c-2.63-0.44-5.26-0.88-7.89-1.32c-5.77-0.96-11.53-1.92-17.3-2.88c-0.79-0.13-1.58-0.24-2.36-0.42
		c-0.22-0.05-0.5-0.24-0.58-0.43C4.28,14.46,2.23,8.96,0.19,3.47c-0.34-0.92-0.22-1.78,0.47-2.5c0.8-0.84,1.79-1.05,2.9-0.78
		C3.83,0.27,4.1,0.4,4.36,0.53C19.02,7.9,33.68,15.27,48.33,22.64c1.33,0.67,1.92,1.82,1.57,3.04c-0.2,0.68-0.65,1.12-1.28,1.43
		c-5.61,2.81-11.21,5.63-16.82,8.45c-9.24,4.65-18.49,9.3-27.73,13.94c-1.37,0.69-2.61,0.53-3.4-0.45c-0.67-0.82-0.73-1.73-0.37-2.7
		c1.4-3.76,2.8-7.52,4.21-11.28c0.58-1.57,1.17-3.14,1.75-4.71c0.14-0.38,0.31-0.58,0.76-0.65c7.84-1.29,15.68-2.61,23.53-3.93
		c1.31-0.22,2.63-0.43,3.95-0.65C34.48,25.09,34.48,25.04,34.47,24.99z"/>
</g>
</svg>
