<?xml version="1.0" encoding="utf-8"?>
<!-- Generator: Adobe Illustrator 23.0.3, SVG Export Plug-In . SVG Version: 6.00 Build 0)  -->
<svg version="1.1" id="Layer_1" focusable="false" xmlns="http://www.w3.org/2000/svg" xmlns:xlink="http://www.w3.org/1999/xlink"
	 x="0px" y="0px" viewBox="0 0 50 57.1" style="enable-background:new 0 0 50 57.1;" xml:space="preserve">
<style type="text/css">
	.st0{fill:#FFFFFF;}
</style>
<path class="st0" d="M39.3,35.6c-2.5,0-4.8,0.9-6.6,2.3l-11.4-7.2c0.3-1.5,0.3-3.1,0-4.7l11.4-7.2c1.8,1.5,4.1,2.3,6.6,2.3
	c5.9,0,10.7-4.8,10.7-10.7S45.2,0,39.3,0S28.5,4.8,28.5,10.7c0,0.8,0.1,1.6,0.2,2.3l-11.4,7.2c-1.8-1.5-4.1-2.3-6.6-2.3
	C4.8,17.8,0,22.6,0,28.5s4.8,10.7,10.7,10.7c2.5,0,4.8-0.9,6.6-2.3l11.4,7.2c-0.1,0.8-0.2,1.6-0.2,2.3c0,5.9,4.8,10.7,10.7,10.7
	S50,52.4,50,46.5S45.2,35.6,39.3,35.6z"/>
</svg>
