<?xml version="1.0" encoding="utf-8"?>
<!-- Generator: Adobe Illustrator 23.0.3, SVG Export Plug-In . SVG Version: 6.00 Build 0)  -->
<svg version="1.1" id="Layer_1" focusable="false" xmlns="http://www.w3.org/2000/svg" xmlns:xlink="http://www.w3.org/1999/xlink"
	 x="0px" y="0px" viewBox="0 0 50 50" style="enable-background:new 0 0 50 50;" xml:space="preserve">
<style type="text/css">
	.st0{fill:#FFFFFF;}
</style>
<path class="st0" d="M34.5,25l14.2-14.2c1.7-1.7,1.7-4.6,0-6.3l-3.2-3.2c-1.7-1.7-4.6-1.7-6.3,0L25,15.5L10.8,1.3
	C9-0.4,6.2-0.4,4.5,1.3L1.3,4.5c-1.7,1.7-1.7,4.6,0,6.3L15.5,25L1.3,39.2c-1.7,1.7-1.7,4.6,0,6.3l3.2,3.2c1.7,1.7,4.6,1.7,6.3,0
	L25,34.5l14.2,14.2c1.7,1.7,4.6,1.7,6.3,0l3.2-3.2c1.7-1.7,1.7-4.6,0-6.3L34.5,25z"/>
</svg>
