<?xml version="1.0" encoding="utf-8"?>
<!-- Generator: Adobe Illustrator 23.0.3, SVG Export Plug-In . SVG Version: 6.00 Build 0)  -->
<svg version="1.1" id="Layer_1" focusable="false" xmlns="http://www.w3.org/2000/svg" xmlns:xlink="http://www.w3.org/1999/xlink"
	 x="0px" y="0px" viewBox="0 0 50 57.1" style="enable-background:new 0 0 50 57.1;" xml:space="preserve">
<style type="text/css">
	.st0{fill:#FFFFFF;}
</style>
<path class="st0" d="M48.2,3.6H34.8l-1-2.1C33.3,0.6,32.4,0,31.4,0H18.6c-1,0-1.9,0.6-2.4,1.5l-1,2.1H1.8C0.8,3.6,0,4.4,0,5.4v3.6
	c0,1,0.8,1.8,1.8,1.8h46.4c1,0,1.8-0.8,1.8-1.8V5.4C50,4.4,49.2,3.6,48.2,3.6z M5.9,52.1c0.2,2.8,2.5,5,5.3,5h27.4
	c2.8,0,5.2-2.2,5.3-5l2.4-37.8H3.6L5.9,52.1z"/>
</svg>
