<?xml version="1.0" encoding="utf-8"?>
<!-- Generator: Adobe Illustrator 16.0.0, SVG Export Plug-In . SVG Version: 6.00 Build 0)  -->
<!DOCTYPE svg PUBLIC "-//W3C//DTD SVG 1.1//EN" "http://www.w3.org/Graphics/SVG/1.1/DTD/svg11.dtd">
<svg version="1.1" id="Layer_1" xmlns="http://www.w3.org/2000/svg" xmlns:xlink="http://www.w3.org/1999/xlink" x="0px" y="0px"
	 width="100px" height="100px" viewBox="0 0 100 100" enable-background="new 0 0 100 100" xml:space="preserve">
<path fill="#949494" d="M92.137,7.863c-3.818-3.818-10.003-3.818-13.805,0L50.001,36.185L21.675,7.863
	c-3.813-3.818-9.999-3.818-13.811,0c-3.818,3.82-3.818,9.991,0,13.811l28.322,28.327L7.864,78.324c-3.818,3.82-3.818,9.991,0,13.812
	c3.813,3.819,9.999,3.819,13.811,0l28.327-28.32l28.331,28.32c3.802,3.819,9.986,3.819,13.805,0
	c3.728-3.815,3.728-10.094,0.002-13.807l-28.32-28.328l28.318-28.327C95.955,17.854,95.955,11.683,92.137,7.863z"/>
</svg>
