<?xml version="1.0" encoding="utf-8"?>
<!-- Generator: Adobe Illustrator 16.0.0, SVG Export Plug-In . SVG Version: 6.00 Build 0)  -->
<!DOCTYPE svg PUBLIC "-//W3C//DTD SVG 1.1//EN" "http://www.w3.org/Graphics/SVG/1.1/DTD/svg11.dtd">
<svg version="1.1" id="Layer_1" xmlns="http://www.w3.org/2000/svg" xmlns:xlink="http://www.w3.org/1999/xlink" x="0px" y="0px"
	 width="100px" height="100px" viewBox="0 0 100 100" enable-background="new 0 0 100 100" xml:space="preserve">
<path fill="#949494" d="M50,2.5C23.766,2.5,2.5,23.767,2.5,50c0,26.232,21.266,47.5,47.5,47.5c26.232,0,47.5-21.268,47.5-47.5
	C97.5,23.767,76.232,2.5,50,2.5z M55.211,76.659c-0.351,0.834-0.839,1.562-1.463,2.187c-0.625,0.625-1.354,1.118-2.187,1.483
	c-0.834,0.364-1.717,0.546-2.654,0.546s-1.823-0.182-2.655-0.546c-0.833-0.365-1.562-0.858-2.186-1.483
	c-0.625-0.625-1.119-1.353-1.483-2.187c-0.365-0.832-0.546-1.717-0.546-2.655c0-0.936,0.181-1.82,0.546-2.654
	c0.364-0.832,0.859-1.555,1.483-2.165c0.624-0.611,1.353-1.094,2.186-1.445c0.832-0.351,1.718-0.526,2.655-0.526
	s1.82,0.176,2.654,0.526c0.832,0.352,1.562,0.834,2.187,1.445c0.624,0.61,1.112,1.333,1.463,2.165
	c0.352,0.834,0.527,1.719,0.527,2.654C55.738,74.942,55.563,75.827,55.211,76.659z M67.645,42.489
	c-0.624,1.835-1.529,3.461-2.713,4.879c-1.185,1.419-2.622,2.603-4.313,3.552c-1.691,0.951-3.592,1.621-5.7,2.01v5.615
	c0,0.756-0.137,1.472-0.409,2.147c-0.272,0.677-0.677,1.268-1.21,1.776c-0.534,0.508-1.179,0.917-1.934,1.229
	c-0.754,0.313-1.6,0.469-2.537,0.469c-0.936,0-1.769-0.156-2.497-0.469c-0.73-0.313-1.347-0.722-1.855-1.229
	c-0.508-0.509-0.891-1.1-1.151-1.776c-0.262-0.676-0.391-1.392-0.391-2.147v-9.753c0-1.457,0.208-2.537,0.624-3.24
	c0.416-0.702,1.079-1.274,1.991-1.717c0.312-0.13,0.676-0.254,1.093-0.371c0.417-0.117,0.872-0.24,1.367-0.372
	c0.493-0.129,1.001-0.259,1.522-0.39c0.52-0.13,1.014-0.286,1.483-0.467c2.862-1.067,4.295-3.149,4.295-6.247
	c0-0.703-0.144-1.366-0.43-1.991c-0.288-0.625-0.677-1.171-1.172-1.64c-0.494-0.468-1.061-0.844-1.697-1.132
	c-0.639-0.286-1.321-0.43-2.05-0.43c-1.275-0.078-2.395,0.085-3.357,0.488c-0.963,0.405-1.796,0.917-2.499,1.543
	c-0.702,0.625-1.295,1.302-1.775,2.029c-0.482,0.729-0.892,1.38-1.23,1.952c-0.911,1.328-2.225,1.991-3.943,1.991
	c-1.927,0-3.363-0.539-4.313-1.62c-0.95-1.08-1.425-2.439-1.425-4.079c0-3.565,1.808-6.778,5.426-9.643
	c3.669-2.888,8.042-4.333,13.116-4.333c2.523,0,4.912,0.424,7.163,1.269s4.222,2.03,5.914,3.552c1.69,1.522,3.039,3.357,4.041,5.504
	s1.503,4.523,1.503,7.124C68.582,38.684,68.269,40.654,67.645,42.489z"/>
</svg>
